<svg width="20" height="20" viewBox="0 0 20 20" fill="none" xmlns="http://www.w3.org/2000/svg">
<path d="M10 1C11.0609 1 12.0783 1.42143 12.8284 2.17157C13.5786 2.92172 14 3.93913 14 5C14 6.06087 13.5786 7.07828 12.8284 7.82843C12.0783 8.57857 11.0609 9 10 9C8.93913 9 7.92172 8.57857 7.17157 7.82843C6.42143 7.07828 6 6.06087 6 5C6 3.93913 6.42143 2.92172 7.17157 2.17157C7.92172 1.42143 8.93913 1 10 1ZM10.0008 19H10.0001H10H9.99997H9.99987H9.99916L9.99474 19L9.97535 18.9999L9.89603 18.9994C9.82574 18.9988 9.7215 18.9977 9.58817 18.9953C9.3214 18.9905 8.93879 18.981 8.47913 18.9618C7.55726 18.9234 6.33696 18.8468 5.12403 18.6952C3.89609 18.5417 2.7394 18.3187 1.91362 18.009C1.49754 17.853 1.23288 17.6992 1.08819 17.5726C1.03535 17.5264 1.0107 17.4954 1.00013 17.479C1.01218 16.5026 1.86295 15.2126 3.61637 14.0928C5.32198 13.0035 7.63636 12.25 10 12.25C12.3636 12.25 14.678 13.0035 16.3836 14.0928C18.1371 15.2126 18.9878 16.5026 18.9999 17.479C18.9893 17.4954 18.9646 17.5264 18.9118 17.5726C18.7671 17.6992 18.5025 17.853 18.0864 18.009C17.2606 18.3187 16.1039 18.5417 14.876 18.6952C13.663 18.8468 12.4427 18.9234 11.5209 18.9618C11.0612 18.981 10.6786 18.9905 10.4118 18.9953C10.2785 18.9977 10.1743 18.9988 10.104 18.9994L10.0247 18.9999L10.0053 19L10.0008 19ZM0.99319 17.4649C0.993639 17.4649 0.99533 17.4679 0.996914 17.4737C0.993532 17.4678 0.99274 17.4649 0.99319 17.4649ZM19.0068 17.4649C19.0073 17.4649 19.0065 17.4678 19.0031 17.4737C19.0047 17.4679 19.0064 17.465 19.0068 17.4649Z" stroke="#969B9F" stroke-width="2"/>
</svg>
