<svg width="22" height="22" viewBox="0 0 22 22" fill="none" xmlns="http://www.w3.org/2000/svg">
<path d="M11 1C12.1935 1 13.3381 1.47411 14.182 2.31802C15.0259 3.16193 15.5 4.30653 15.5 5.5C15.5 6.69347 15.0259 7.83807 14.182 8.68198C13.3381 9.52589 12.1935 10 11 10C9.80653 10 8.66193 9.52589 7.81802 8.68198C6.97411 7.83807 6.5 6.69347 6.5 5.5C6.5 4.30653 6.97411 3.16193 7.81802 2.31802C8.66193 1.47411 9.80653 1 11 1ZM11.001 21H11.0001H11H11H10.9999H10.999L10.994 21L10.9725 20.9999L10.8848 20.9994C10.8072 20.9987 10.6922 20.9974 10.5452 20.9948C10.2511 20.9895 9.82942 20.979 9.32288 20.9579C8.30726 20.9156 6.96196 20.8312 5.62403 20.664C4.27109 20.4949 2.9894 20.2483 2.06987 19.9035C1.60691 17.7299 1.3032 19.5557 1.13116 19.4051C1.04989 19.334 1.01724 19.2848 1.00589 19.2635C1.00314 19.2583 1.0016 19.2548 1.00081 19.2528L1.00002 19.2506L0.999907 19.2503L1.00001 19.2509C1.00007 19.2514 1 19.2512 1 19.25C1 18.1211 1.97223 16.6644 3.92419 15.4178C5.81573 14.2097 8.38011 13.375 11 13.375C13.6199 13.375 16.1843 14.2097 18.0758 15.4178C20.0278 16.6644 21 18.1211 21 19.25C21 19.2506 21 19.2509 21 19.2511C21 19.2512 21 19.2512 21 19.2509L21.0001 19.2503L21 19.2506L20.9992 19.2528C20.9984 19.2548 20.9969 19.2583 20.9941 19.2635C20.9828 19.2848 20.9501 19.334 20.8688 19.4051C20.6968 19.5557 20.3931 19.7299 19.9301 19.9035C19.0106 20.2483 17.7289 20.4949 16.376 20.664C15.038 20.8312 13.6927 20.9156 12.6771 20.9579C12.1706 20.979 11.7489 20.9895 11.4548 20.9948C11.3078 20.9974 11.1928 20.9987 11.1152 20.9994L11.0275 20.9999L11.006 21L11.001 21Z" stroke="#10355B" stroke-width="2"/>
</svg>
