<svg width="8" height="15" viewBox="0 0 8 15" fill="none" xmlns="http://www.w3.org/2000/svg">
<path fill-rule="evenodd" clip-rule="evenodd" d="M0.294476 14.7062C0.107005 14.5187 0.00168952 14.2644 0.00168952 13.9992C0.00168952 13.734 0.107005 13.4797 0.294476 13.2922L5.58748 7.99921L0.297475 2.70621C0.201965 2.61397 0.125783 2.50362 0.0733744 2.38162C0.0209654 2.25961 -0.00662093 2.12839 -0.00777474 1.99562C-0.00892856 1.86284 0.0163729 1.73116 0.0666538 1.60826C0.116935 1.48536 0.191188 1.37371 0.285081 1.27982C0.378973 1.18593 0.490626 1.11167 0.613522 1.06139C0.736418 1.01111 0.868098 0.985809 1.00088 0.986963C1.13366 0.988117 1.26488 1.0157 1.38688 1.06811C1.50888 1.12052 1.61923 1.1967 1.71148 1.29221L7.70848 7.29221C7.80145 7.38509 7.87521 7.49538 7.92554 7.61677C7.97586 7.73817 8.00176 7.8683 8.00176 7.99971C8.00176 8.13113 7.97586 8.26126 7.92554 8.38265C7.87521 8.50405 7.80145 8.61434 7.70848 8.70721L1.70848 14.7072C1.52095 14.8947 1.26664 15 1.00148 15C0.736312 15 0.482004 14.8947 0.294476 14.7072V14.7062Z" fill="black"/>
</svg>
