<svg width="24" height="13" viewBox="0 0 24 13" fill="none" xmlns="http://www.w3.org/2000/svg">
<path fill-rule="evenodd" clip-rule="evenodd" d="M10.9586 0.41679L0.430935 10.5376C0.154619 10.8114 -1.59242e-07 11.1785 -1.25833e-07 11.5606C-9.24236e-08 11.9428 0.154619 12.3099 0.430935 12.5837C0.714548 12.8506 1.09506 13 1.49126 13C1.88746 13 2.26798 12.8506 2.55159 12.5837L12 3.46623L21.4484 12.5837C21.7322 12.8503 22.1126 12.9994 22.5087 12.9994C22.9048 12.9994 23.2853 12.8503 23.5691 12.5837C23.8454 12.3099 24 11.9428 24 11.5606C24 11.1785 23.8454 10.8114 23.5691 10.5376L13.0763 0.41679C12.4654 -0.138929 11.5317 -0.138929 10.9571 0.41679L10.9586 0.41679Z" fill="black"/>
</svg>
