<svg width="24" height="13" viewBox="0 0 24 13" fill="none" xmlns="http://www.w3.org/2000/svg">
<path fill-rule="evenodd" clip-rule="evenodd" d="M13.0414 12.5832L23.5691 2.46239C23.8454 2.18858 24 1.82152 24 1.43936C24 1.0572 23.8454 0.690141 23.5691 0.416333C23.2855 0.149406 22.9049 0 22.5087 0C22.1125 0 21.732 0.149406 21.4484 0.416333L12 9.53377L2.55159 0.416333C2.2678 0.149737 1.88735 0.000556239 1.49126 0.000556239C1.09517 0.000556239 0.714727 0.149737 0.430936 0.416333C0.15462 0.690141 0 1.0572 0 1.43936C0 1.82152 0.15462 2.18858 0.430936 2.46239L10.9237 12.5832C11.5346 13.1389 12.4683 13.1389 13.0429 12.5832H13.0414Z" fill="black"/>
</svg>
