<svg width="12" height="7" viewBox="0 0 12 7" fill="none" xmlns="http://www.w3.org/2000/svg">
<path d="M5.32916 6.70938C5.51664 6.89554 5.77006 7 6.03417 7C6.29828 7 6.55169 6.89554 6.73918 6.70938L11.704 1.78112C11.8924 1.59401 11.9989 1.33963 12 1.07394C12.0011 0.808258 11.8966 0.553031 11.7096 0.364411C11.5226 0.175791 11.2684 0.0692277 11.003 0.0681634C10.7375 0.0670991 10.4824 0.171621 10.2939 0.358736L6.03384 4.58716L1.69366 0.278601C1.50414 0.0967774 1.25081 -0.00324779 0.988281 8.10191e-05C0.725752 0.00340983 0.47504 0.109827 0.290178 0.296397C0.105316 0.482968 0.00110682 0.734754 8.5078e-06 0.997489C-0.0010898 1.26023 0.101011 1.51287 0.284306 1.70099L5.32916 6.70938Z" fill="#10355B"/>
</svg>
