<svg width="1460" height="547" viewBox="0 0 1460 547" fill="none" xmlns="http://www.w3.org/2000/svg">
<g clip-path="url(#clip0_1885_39)">
<rect width="1460" height="547" rx="10" fill="#E7E9EE"/>
<rect width="1460" height="547" fill="#E7E9EE"/>
<path d="M1323.73 432.643C1323.05 432.643 1322.38 432.388 1321.7 431.878C1321.19 431.198 1321.02 430.433 1321.19 429.583C1321.7 426.864 1322.97 423.125 1325.01 418.366C1327.22 413.437 1329.77 407.999 1332.65 402.05C1335.71 396.102 1338.77 390.153 1341.83 384.205C1345.06 378.086 1348.03 372.478 1350.75 367.379C1353.47 362.28 1355.59 358.286 1357.12 355.397C1358.48 352.677 1360.26 350.298 1362.47 348.259C1364.85 346.219 1367.15 344.265 1369.35 342.395C1371.05 340.016 1371.9 337.806 1371.9 335.767C1371.9 333.217 1370.71 331.263 1368.33 329.903C1366.13 328.373 1363.66 327.609 1360.94 327.609C1359.75 327.609 1358.57 327.779 1357.38 328.118C1356.36 328.288 1355.42 328.798 1354.57 329.648C1352.02 331.858 1348.37 335.002 1343.61 339.081C1338.86 343.16 1333.84 347.494 1328.58 352.083C1323.31 356.671 1318.47 360.92 1314.05 364.829C1309.63 368.738 1306.4 371.713 1304.37 373.752C1302.84 375.282 1302.07 376.981 1302.07 378.851C1302.07 380.211 1302.5 381.485 1303.35 382.675C1304.2 383.695 1305.3 384.205 1306.66 384.205C1307.85 384.205 1309.21 383.695 1310.74 382.675C1311.42 382.335 1311.93 382.165 1312.27 382.165C1313.96 382.165 1314.81 383.015 1314.81 384.715C1314.81 385.564 1314.47 386.244 1313.79 386.754C1311.42 388.454 1309.04 389.303 1306.66 389.303C1303.94 389.303 1301.65 388.284 1299.78 386.244C1297.91 384.205 1296.97 381.825 1296.97 379.106C1296.97 375.707 1298.33 372.648 1301.05 369.928C1302.92 368.059 1306.06 365.169 1310.48 361.26C1314.9 357.351 1319.74 353.102 1325.01 348.513C1330.28 343.755 1335.29 339.336 1340.05 335.257C1344.8 331.178 1348.46 328.034 1351 325.824C1354.06 323.275 1357.38 322 1360.94 322C1365.02 322 1368.67 323.445 1371.9 326.334C1375.3 329.053 1377 332.367 1377 336.276C1377 339.846 1375.47 343.16 1372.41 346.219L1371.39 347.239C1369.69 348.938 1367.91 350.638 1366.04 352.338C1364.34 353.867 1362.9 355.737 1361.71 357.946C1360.52 360.326 1358.06 364.999 1354.32 371.968C1350.58 378.766 1346.76 386.159 1342.85 394.147C1338.77 402.135 1335.12 409.613 1331.89 416.582C1328.66 423.55 1326.79 428.224 1326.28 430.603C1326.11 431.963 1325.26 432.643 1323.73 432.643ZM1300.54 440.291C1299.86 440.291 1299.18 440.036 1298.5 439.526C1297.99 439.016 1297.82 438.336 1297.99 437.487C1298.16 435.957 1299.27 432.473 1301.31 427.034C1303.52 421.595 1306.23 415.307 1309.46 408.169C1312.86 400.861 1316.26 393.552 1319.66 386.244C1323.22 378.936 1326.45 372.478 1329.34 366.869C1332.23 361.26 1334.27 357.606 1335.46 355.907C1335.97 355.227 1336.65 354.887 1337.5 354.887C1338.35 354.887 1339.11 355.312 1339.79 356.162C1340.47 357.011 1340.39 357.946 1339.54 358.966C1338.35 360.665 1336.31 364.235 1333.42 369.673C1330.7 375.112 1327.64 381.4 1324.24 388.539C1320.85 395.677 1317.53 402.815 1314.3 409.953C1311.08 416.922 1308.44 423.04 1306.4 428.309C1304.37 433.408 1303.26 436.552 1303.09 437.741C1303.09 439.441 1302.24 440.291 1300.54 440.291ZM1270.21 464C1266.48 464 1263.67 463.065 1261.8 461.196C1259.93 459.496 1259 457.457 1259 455.077C1259 451.678 1260.7 448.279 1264.1 444.88C1267.33 441.481 1271.83 439.781 1277.6 439.781H1291.88C1293.58 439.781 1294.43 440.631 1294.43 442.33C1294.43 444.03 1293.58 444.88 1291.88 444.88C1289.5 444.88 1287.12 444.88 1284.74 444.88C1282.36 444.71 1279.98 444.625 1277.6 444.625C1273.87 444.625 1270.72 445.814 1268.17 448.194C1265.46 450.403 1264.1 452.613 1264.1 454.822C1264.1 457.542 1266.14 458.901 1270.21 458.901H1339.28C1340.47 458.901 1342 457.797 1343.87 455.587C1345.91 453.378 1346.93 451.253 1346.93 449.214C1346.93 448.024 1346.42 447.004 1345.4 446.154C1344.38 445.305 1342.51 444.88 1339.79 444.88H1317.87C1316.17 444.88 1315.32 444.03 1315.32 442.33C1315.32 440.631 1316.17 439.781 1317.87 439.781H1339.79C1344.21 439.781 1347.35 440.716 1349.22 442.585C1351.09 444.285 1352.02 446.409 1352.02 448.959C1352.02 452.358 1350.66 455.757 1347.95 459.156C1345.4 462.385 1342.51 464 1339.28 464H1270.21Z" fill="#10355B"/>
<g opacity="0.1">
<path d="M250 294.268C251.34 293.95 252.365 293.117 253.074 291.768C253.862 290.419 254.414 288.713 254.729 286.65C255.123 284.508 255.32 282.048 255.32 279.271C255.399 276.493 255.439 273.557 255.439 270.463V234.756C255.439 231.661 255.399 228.725 255.32 225.948C255.32 223.171 255.123 220.751 254.729 218.688C254.414 216.545 253.862 214.8 253.074 213.451C252.365 212.102 251.34 211.269 250 210.951H288.071C286.731 211.269 285.706 212.102 284.997 213.451C284.288 214.8 283.736 216.545 283.342 218.688C283.027 220.751 282.829 223.171 282.751 225.948C282.751 228.725 282.751 231.661 282.751 234.756V291.887C289.135 291.887 294.692 291.332 299.422 290.221C304.23 289.11 308.328 287.602 311.718 285.698C315.107 283.714 317.827 281.373 319.876 278.675C322.004 275.978 323.581 273.042 324.605 269.868L320.467 294.268H250Z" fill="#10355B"/>
<path d="M328.399 264.393C328.399 259.156 329.542 254.633 331.828 250.824C334.113 246.936 337.069 243.722 340.695 241.183C344.4 238.565 348.538 236.66 353.11 235.47C357.681 234.2 362.253 233.566 366.825 233.566C371.396 233.566 375.968 234.2 380.54 235.47C385.111 236.66 389.21 238.565 392.836 241.183C396.541 243.722 399.536 246.936 401.822 250.824C404.108 254.633 405.251 259.156 405.251 264.393C405.251 269.63 404.108 274.192 401.822 278.08C399.536 281.968 396.541 285.222 392.836 287.84C389.21 290.379 385.111 292.284 380.54 293.553C375.968 294.744 371.396 295.339 366.825 295.339C362.253 295.339 357.681 294.744 353.11 293.553C348.538 292.284 344.4 290.379 340.695 287.84C337.069 285.222 334.113 281.968 331.828 278.08C329.542 274.192 328.399 269.63 328.399 264.393ZM355.711 264.393C355.711 268.439 355.868 272.209 356.184 275.7C356.499 279.112 357.051 282.127 357.839 284.746C358.706 287.285 359.849 289.308 361.268 290.816C362.765 292.244 364.696 292.958 367.061 292.958C369.347 292.958 371.199 292.244 372.618 290.816C374.037 289.308 375.14 287.285 375.929 284.746C376.717 282.127 377.229 279.072 377.466 275.581C377.781 272.09 377.939 268.36 377.939 264.393C377.939 260.346 377.781 256.616 377.466 253.204C377.229 249.713 376.677 246.698 375.81 244.159C375.022 241.54 373.919 239.517 372.5 238.089C371.081 236.66 369.189 235.946 366.825 235.946C364.46 235.946 362.529 236.7 361.031 238.208C359.612 239.636 358.509 241.62 357.721 244.159C356.933 246.698 356.381 249.713 356.065 253.204C355.829 256.616 355.711 260.346 355.711 264.393Z" fill="#10355B"/>
<path d="M487.447 233.566C486.186 233.883 484.924 234.677 483.663 235.946C482.481 237.216 481.377 238.684 480.353 240.35C479.328 241.937 478.382 243.564 477.515 245.23C476.727 246.896 476.096 248.285 475.623 249.396C471.84 257.727 468.214 266.099 464.746 274.51C461.278 282.841 457.573 291.094 453.632 299.267C452.686 301.33 451.543 303.67 450.203 306.289C448.863 308.907 447.287 311.367 445.474 313.668C443.661 315.969 441.572 317.914 439.208 319.501C436.922 321.167 434.321 322 431.404 322C428.882 322 426.596 321.445 424.547 320.334C422.497 319.223 420.33 317.556 418.044 315.335L431.995 296.172C431.838 296.41 431.68 297.124 431.522 298.314C431.443 299.505 431.522 300.774 431.759 302.123C432.074 303.551 432.626 304.821 433.414 305.932C434.281 307.043 435.542 307.638 437.198 307.717C437.907 307.717 438.892 307.479 440.153 307.003C441.493 306.606 442.912 305.852 444.41 304.742C445.986 303.71 447.523 302.321 449.021 300.576C450.597 298.909 452.016 296.807 453.277 294.268H434.36C430.971 286.174 427.542 278.16 424.074 270.225C420.605 262.29 417.098 254.355 413.551 246.42C413.157 245.468 412.644 244.317 412.014 242.968C411.383 241.62 410.634 240.31 409.767 239.041C408.979 237.692 408.073 236.502 407.048 235.47C406.102 234.438 405.077 233.804 403.974 233.566H443.7C442.833 233.724 442.203 234.161 441.809 234.875C441.493 235.51 441.336 236.263 441.336 237.136C441.336 238.327 441.966 240.667 443.227 244.159C444.489 247.65 446.026 251.617 447.839 256.061C449.651 260.425 451.543 264.948 453.514 269.63C455.563 274.232 457.337 278.279 458.834 281.77C459.859 279.39 460.923 276.89 462.027 274.272C463.209 271.653 464.312 269.114 465.337 266.654C466.441 264.194 467.426 261.933 468.293 259.87C469.16 257.727 469.83 256.021 470.303 254.752C471.17 252.371 471.801 249.991 472.195 247.61C472.668 245.23 472.825 243.048 472.668 241.064C472.589 239.08 472.234 237.414 471.603 236.065C470.973 234.716 469.988 233.883 468.648 233.566H487.447Z" fill="#10355B"/>
<path d="M509.318 230.828C507.426 230.828 505.613 230.59 503.879 230.114C502.224 229.558 500.766 228.844 499.505 227.972C498.322 227.019 497.376 225.948 496.667 224.758C495.958 223.488 495.603 222.179 495.603 220.83C495.603 219.481 495.958 218.212 496.667 217.021C497.376 215.831 498.322 214.8 499.505 213.927C500.766 212.975 502.224 212.26 503.879 211.784C505.613 211.229 507.426 210.951 509.318 210.951C511.21 210.951 512.983 211.229 514.639 211.784C516.294 212.26 517.713 212.975 518.895 213.927C520.156 214.8 521.141 215.831 521.851 217.021C522.56 218.212 522.915 219.481 522.915 220.83C522.915 222.179 522.56 223.488 521.851 224.758C521.141 225.948 520.156 227.019 518.895 227.972C517.713 228.844 516.294 229.558 514.639 230.114C512.983 230.59 511.21 230.828 509.318 230.828ZM522.678 270.463C522.678 273.557 522.678 276.493 522.678 279.271C522.757 282.048 522.954 284.508 523.27 286.65C523.664 288.713 524.215 290.419 524.925 291.768C525.634 293.117 526.659 293.95 527.999 294.268H490.046C491.386 293.95 492.411 293.117 493.12 291.768C493.908 290.419 494.46 288.713 494.775 286.65C495.169 284.508 495.366 282.048 495.366 279.271C495.445 276.493 495.485 273.557 495.485 270.463V263.321C495.485 260.227 495.445 257.291 495.366 254.514C495.366 251.737 495.169 249.316 494.775 247.253C494.46 245.111 493.908 243.365 493.12 242.016C492.411 240.667 491.386 239.834 490.046 239.517C491.071 239.517 492.529 239.398 494.421 239.16C496.312 238.922 498.401 238.644 500.687 238.327C502.973 237.93 505.298 237.533 507.663 237.136C510.106 236.66 512.353 236.224 514.402 235.827C516.451 235.351 518.225 234.915 519.723 234.518C521.22 234.121 522.205 233.804 522.678 233.566V270.463Z" fill="#10355B"/>
<path d="M538.437 234.756C538.437 231.661 538.397 228.725 538.318 225.948C538.318 223.171 538.121 220.751 537.727 218.688C537.412 216.545 536.86 214.8 536.072 213.451C535.363 212.102 534.338 211.269 532.998 210.951C534.574 210.951 537.018 210.713 540.328 210.237C543.718 209.761 547.186 209.205 550.733 208.571C554.28 207.936 557.472 207.301 560.31 206.666C563.226 205.952 565.039 205.397 565.749 205V250.943C566.931 248.563 568.31 246.341 569.887 244.278C571.542 242.135 573.355 240.271 575.325 238.684C577.375 237.097 579.621 235.867 582.065 234.994C584.587 234.042 587.306 233.566 590.223 233.566C595.425 233.566 599.839 234.24 603.465 235.589C607.17 236.859 610.125 238.803 612.333 241.421C614.618 244.04 616.274 247.333 617.298 251.3C618.402 255.268 618.954 259.909 618.954 265.226V270.463C618.954 273.557 618.954 276.493 618.954 279.271C619.032 282.048 619.229 284.508 619.545 286.65C619.939 288.713 620.491 290.419 621.2 291.768C621.988 293.117 623.052 293.95 624.392 294.268H586.439C587.779 293.95 588.804 293.117 589.513 291.768C590.223 290.419 590.735 288.713 591.051 286.65C591.445 284.508 591.642 282.048 591.642 279.271C591.721 276.493 591.76 273.557 591.76 270.463V265.583C591.681 262.568 591.445 259.751 591.051 257.132C590.735 254.514 590.105 252.252 589.159 250.348C588.292 248.364 587.109 246.817 585.612 245.706C584.114 244.595 582.222 244 579.937 243.921C577.808 244 575.956 244.476 574.38 245.349C572.803 246.142 571.463 247.174 570.36 248.444C569.256 249.713 568.31 251.102 567.522 252.609C566.813 254.038 566.222 255.426 565.749 256.775V270.463C565.749 273.557 565.749 276.493 565.749 279.271C565.827 282.048 566.024 284.508 566.34 286.65C566.734 288.713 567.286 290.419 567.995 291.768C568.704 293.117 569.729 293.95 571.069 294.268H532.998C534.338 293.95 535.363 293.117 536.072 291.768C536.86 290.419 537.412 288.713 537.727 286.65C538.121 284.508 538.318 282.048 538.318 279.271C538.397 276.493 538.437 273.557 538.437 270.463V234.756Z" fill="#10355B"/>
<path d="M628.111 274.629C628.111 271.534 628.702 269.035 629.885 267.13C631.067 265.226 632.683 263.758 634.732 262.726C636.782 261.615 639.107 260.862 641.708 260.465C644.388 259.989 647.147 259.711 649.984 259.632C652.901 259.552 655.817 259.592 658.734 259.751C661.729 259.83 664.527 259.87 667.128 259.87C670.833 259.87 673.946 259.592 676.469 259.037C678.991 258.402 680.488 257.053 680.961 254.99C680.883 251.498 680.252 248.563 679.07 246.182C677.887 243.802 676.311 241.858 674.34 240.35C672.449 238.763 670.281 237.652 667.837 237.017C665.473 236.303 663.029 235.946 660.507 235.946C656.96 235.946 653.728 236.581 650.812 237.85C647.896 239.12 645.294 240.866 643.009 243.087C640.723 245.309 638.713 247.928 636.979 250.943C635.245 253.879 633.707 257.053 632.367 260.465L635.915 236.779C638.2 236.779 640.21 236.621 641.944 236.303C643.757 235.986 645.61 235.629 647.501 235.232C649.393 234.756 651.442 234.359 653.65 234.042C655.857 233.724 658.497 233.566 661.571 233.566C664.251 233.566 667.286 233.764 670.675 234.161C674.064 234.478 677.493 235.073 680.961 235.946C684.43 236.74 687.819 237.85 691.129 239.279C694.44 240.707 697.396 242.492 699.997 244.635C702.598 246.698 704.687 249.197 706.263 252.133C707.84 255.069 708.628 258.442 708.628 262.25V270.463C708.628 273.557 708.628 276.493 708.628 279.271C708.707 282.048 708.904 284.508 709.219 286.65C709.613 288.713 710.165 290.419 710.874 291.768C711.663 293.117 712.727 293.95 714.067 294.268H689.356C687.07 294.268 685.218 293.633 683.799 292.363C682.38 291.094 681.592 289.427 681.434 287.364C679.306 289.983 676.311 292.006 672.449 293.434C668.665 294.783 664.093 295.458 658.734 295.458C654.871 295.458 651.088 295.061 647.383 294.268C643.678 293.474 640.407 292.244 637.57 290.578C634.732 288.911 632.446 286.769 630.712 284.151C628.978 281.453 628.111 278.279 628.111 274.629ZM655.068 280.937C655.068 284.508 655.896 287.285 657.551 289.269C659.285 291.173 661.611 292.125 664.527 292.125C667.049 292.125 669.65 291.451 672.33 290.102C674.853 289.07 676.981 287.682 678.715 285.936C680.449 284.111 681.316 281.73 681.316 278.794V261.298C679.897 262.806 678.242 263.996 676.35 264.869C674.459 265.742 672.527 266.495 670.557 267.13C668.665 267.765 666.773 268.36 664.882 268.916C663.069 269.471 661.413 270.225 659.916 271.177C658.497 272.129 657.315 273.359 656.369 274.867C655.502 276.374 655.068 278.398 655.068 280.937Z" fill="#10355B"/>
<path d="M724.331 263.321C724.331 260.227 724.291 257.291 724.213 254.514C724.213 251.737 724.016 249.316 723.621 247.253C723.306 245.111 722.754 243.365 721.966 242.016C721.257 240.667 720.232 239.834 718.892 239.517C720.469 239.517 722.912 239.318 726.223 238.922C729.533 238.446 732.923 237.89 736.391 237.255C739.938 236.621 743.13 235.986 745.968 235.351C748.805 234.716 750.579 234.2 751.288 233.804L751.643 233.566V250.705C752.825 248.325 754.204 246.103 755.781 244.04C757.436 241.897 759.249 240.072 761.22 238.565C763.269 236.978 765.516 235.748 767.959 234.875C770.481 234.002 773.201 233.566 776.117 233.566C781.319 233.566 785.733 234.24 789.359 235.589C792.985 236.859 795.941 238.842 798.227 241.54C800.513 244.159 802.168 247.452 803.193 251.419C804.217 255.387 804.73 259.989 804.73 265.226V270.463C804.808 270.225 804.848 270.225 804.848 270.463C804.848 273.557 804.848 276.493 804.848 279.271C804.927 282.048 805.124 284.508 805.439 286.65C805.754 288.713 806.267 290.419 806.976 291.768C807.764 293.117 808.828 293.95 810.168 294.268H772.097C773.358 293.95 774.344 293.196 775.053 292.006C775.762 290.816 776.275 289.269 776.59 287.364C776.984 285.46 777.221 283.278 777.299 280.818C777.378 278.358 777.418 275.7 777.418 272.843V265.583C777.339 262.726 777.181 259.989 776.945 257.37C776.708 254.752 776.196 252.451 775.408 250.467C774.619 248.483 773.477 246.896 771.979 245.706C770.481 244.516 768.471 243.881 765.949 243.802C762.087 243.96 759.052 245.23 756.845 247.61C754.717 249.991 752.983 252.927 751.643 256.418V270.463C751.643 273.557 751.643 276.493 751.643 279.271C751.722 282.048 751.919 284.508 752.234 286.65C752.628 288.713 753.18 290.419 753.889 291.768C754.599 293.117 755.623 293.95 756.963 294.268H718.892C720.232 293.95 721.257 293.117 721.966 291.768C722.754 290.419 723.306 288.713 723.621 286.65C724.016 284.508 724.213 282.048 724.213 279.271C724.291 276.493 724.331 273.557 724.331 270.463V263.321Z" fill="#10355B"/>
<path d="M813.89 260.227C813.89 256.894 814.599 253.919 816.018 251.3C817.516 248.682 819.486 246.38 821.93 244.397C824.373 242.413 827.132 240.747 830.206 239.398C833.359 238.049 836.591 236.938 839.901 236.065C843.212 235.192 846.483 234.557 849.715 234.161C853.025 233.764 856.02 233.566 858.7 233.566C862.563 233.566 865.597 233.288 867.804 232.732C870.011 232.177 871.667 231.344 872.77 230.233C873.952 229.043 874.701 227.575 875.016 225.829C875.332 224.004 875.489 221.901 875.489 219.521C875.489 219.283 876.514 219.322 878.563 219.64C880.692 219.878 883.017 220.314 885.539 220.949C888.062 221.505 890.347 222.219 892.397 223.092C894.525 223.964 895.589 224.877 895.589 225.829C895.589 228.051 894.761 229.797 893.106 231.066C891.451 232.336 889.441 233.328 887.076 234.042C884.79 234.676 882.426 235.113 879.982 235.351C877.618 235.589 875.647 235.748 874.071 235.827C876.829 236.621 879.785 237.771 882.938 239.279C886.091 240.707 889.007 242.453 891.687 244.516C894.367 246.579 896.574 248.92 898.308 251.538C900.121 254.157 901.028 257.053 901.028 260.227C901.028 263.48 900.318 266.376 898.9 268.916C897.481 271.455 895.589 273.716 893.224 275.7C890.86 277.684 888.14 279.39 885.066 280.818C882.071 282.167 878.958 283.317 875.726 284.27C872.494 285.142 869.302 285.777 866.149 286.174C862.996 286.571 860.119 286.769 857.518 286.769C856.887 286.769 856.296 286.769 855.744 286.769C855.193 286.69 854.602 286.61 853.971 286.531L850.424 286.174C848.69 285.936 847.232 286.253 846.049 287.126C844.946 287.999 844.079 289.189 843.448 290.697C842.818 292.204 842.345 293.871 842.029 295.696C841.793 297.521 841.675 299.267 841.675 300.933C841.675 302.52 841.753 304.305 841.911 306.289C842.148 308.352 842.502 310.256 842.975 312.002C843.527 313.827 844.197 315.335 844.985 316.525C845.852 317.795 846.916 318.429 848.178 318.429C849.754 318.429 851.094 317.874 852.197 316.763C853.38 315.652 854.523 314.224 855.626 312.478C856.966 310.336 858.346 307.876 859.764 305.099C861.183 302.321 862.878 299.703 864.848 297.243C866.819 294.783 869.144 292.72 871.824 291.054C874.583 289.388 877.933 288.554 881.874 288.554C883.372 288.554 885.224 288.713 887.431 289.031C889.638 289.348 891.727 289.983 893.697 290.935C895.747 291.887 897.481 293.236 898.9 294.982C900.318 296.807 901.028 299.148 901.028 302.004C901.028 305.495 899.964 308.471 897.836 310.931C895.786 313.47 893.067 315.533 889.677 317.12C886.367 318.786 882.583 320.016 878.327 320.81C874.071 321.603 869.775 322 865.44 322C865.203 322 864.77 321.96 864.139 321.881C863.508 321.881 862.838 321.841 862.129 321.762C861.498 321.683 860.907 321.564 860.356 321.405C859.804 321.246 859.528 321.048 859.528 320.81C859.528 320.572 859.804 320.373 860.356 320.215C860.907 320.056 861.498 319.937 862.129 319.858C862.838 319.778 863.508 319.699 864.139 319.62C864.77 319.54 865.203 319.501 865.44 319.501C867.095 319.183 868.435 318.548 869.46 317.596C870.563 316.723 871.43 315.652 872.061 314.382C872.691 313.192 873.125 311.923 873.361 310.574C873.598 309.225 873.716 307.955 873.716 306.765C873.716 303.908 873.243 301.806 872.297 300.457C871.43 299.108 870.366 298.473 869.105 298.552C867.686 298.552 866.425 299.147 865.321 300.338C864.218 301.528 863.154 302.956 862.129 304.623C861.183 306.368 860.198 308.233 859.173 310.217C858.227 312.2 857.163 313.946 855.981 315.454C854.799 316.961 853.577 318.152 852.316 319.024C851.055 319.897 849.793 320.532 848.532 320.929C847.35 321.405 846.167 321.683 844.985 321.762C843.882 321.921 842.857 322 841.911 322C837.891 322 834.187 321.603 830.797 320.81C827.487 320.096 824.61 318.985 822.166 317.477C819.723 315.969 817.792 314.144 816.373 312.002C815.033 309.86 814.363 307.4 814.363 304.623C814.363 301.845 815.033 299.306 816.373 297.005C817.792 294.783 819.565 292.839 821.693 291.173C823.821 289.427 826.147 287.999 828.669 286.888C831.27 285.698 833.792 284.825 836.236 284.27C835.842 283.952 835.014 283.595 833.753 283.198C832.492 282.722 831.034 282.127 829.378 281.413C827.723 280.62 825.989 279.667 824.176 278.556C822.363 277.366 820.669 275.938 819.092 274.272C817.594 272.526 816.333 270.503 815.309 268.201C814.363 265.9 813.89 263.242 813.89 260.227ZM841.202 260.227C841.202 263.56 841.517 266.694 842.148 269.63C842.778 272.566 843.763 275.144 845.103 277.366C846.443 279.509 848.138 281.215 850.188 282.484C852.316 283.754 854.838 284.389 857.754 284.389C860.592 284.389 862.996 283.754 864.967 282.484C867.016 281.135 868.671 279.39 869.932 277.247C871.272 275.025 872.218 272.447 872.77 269.511C873.401 266.575 873.716 263.48 873.716 260.227C873.716 256.974 873.401 253.879 872.77 250.943C872.218 248.007 871.272 245.428 869.932 243.207C868.671 240.985 867.016 239.239 864.967 237.969C862.917 236.621 860.474 235.946 857.636 235.946C854.799 235.946 852.316 236.621 850.188 237.969C848.138 239.239 846.443 240.985 845.103 243.207C843.763 245.349 842.778 247.888 842.148 250.824C841.517 253.76 841.202 256.894 841.202 260.227Z" fill="#10355B"/>
<path d="M923.827 230.828C921.936 230.828 920.123 230.59 918.389 230.114C916.733 229.558 915.275 228.844 914.014 227.972C912.832 227.019 911.886 225.948 911.177 224.758C910.467 223.488 910.112 222.179 910.112 220.83C910.112 219.481 910.467 218.212 911.177 217.021C911.886 215.831 912.832 214.8 914.014 213.927C915.275 212.975 916.733 212.26 918.389 211.784C920.123 211.229 921.936 210.951 923.827 210.951C925.719 210.951 927.493 211.229 929.148 211.784C930.803 212.26 932.222 212.975 933.404 213.927C934.666 214.8 935.651 215.831 936.36 217.021C937.07 218.212 937.424 219.481 937.424 220.83C937.424 222.179 937.07 223.488 936.36 224.758C935.651 225.948 934.666 227.019 933.404 227.972C932.222 228.844 930.803 229.558 929.148 230.114C927.493 230.59 925.719 230.828 923.827 230.828ZM937.188 270.463C937.188 273.557 937.188 276.493 937.188 279.271C937.267 282.048 937.464 284.508 937.779 286.65C938.173 288.713 938.725 290.419 939.434 291.768C940.144 293.117 941.168 293.95 942.508 294.268H904.555C905.895 293.95 906.92 293.117 907.629 291.768C908.418 290.419 908.969 288.713 909.285 286.65C909.679 284.508 909.876 282.048 909.876 279.271C909.955 276.493 909.994 273.557 909.994 270.463V263.321C909.994 260.227 909.955 257.291 909.876 254.514C909.876 251.737 909.679 249.316 909.285 247.253C908.969 245.111 908.418 243.365 907.629 242.016C906.92 240.667 905.895 239.834 904.555 239.517C905.58 239.517 907.038 239.398 908.93 239.16C910.822 238.922 912.911 238.644 915.196 238.327C917.482 237.93 919.807 237.533 922.172 237.136C924.616 236.66 926.862 236.224 928.911 235.827C930.961 235.351 932.734 234.915 934.232 234.518C935.73 234.121 936.715 233.804 937.188 233.566V270.463Z" fill="#10355B"/>
<path d="M947.507 294.268C947.507 291.332 948.02 288.316 949.044 285.222C950.148 282.048 951.685 279.271 953.656 276.89C956.966 272.843 960.277 269.352 963.587 266.416C966.976 263.48 970.169 260.584 973.164 257.727C976.238 254.871 978.997 251.856 981.44 248.682C983.963 245.508 985.973 241.659 987.47 237.136C982.504 237.136 977.972 237.414 973.873 237.969C969.853 238.525 966.188 239.636 962.878 241.302C959.646 242.889 956.73 245.111 954.128 247.967C951.606 250.824 949.399 254.553 947.507 259.156L951.527 234.756H1019.98C1019.98 237.771 1019.63 240.707 1018.92 243.564C1018.21 246.42 1016.71 249.316 1014.43 252.252C1011.04 256.616 1007.69 260.267 1004.38 263.202C1001.07 266.059 997.914 268.836 994.919 271.534C992.003 274.232 989.283 277.128 986.761 280.223C984.239 283.317 982.071 287.205 980.258 291.887C985.145 291.887 989.598 291.609 993.618 291.054C997.638 290.419 1001.26 289.308 1004.5 287.721C1007.73 286.134 1010.57 283.913 1013.01 281.056C1015.53 278.199 1017.74 274.47 1019.63 269.868L1015.49 294.268H947.507Z" fill="#10355B"/>
<path d="M1030.31 263.321C1030.31 260.227 1030.27 257.291 1030.19 254.514C1030.19 251.737 1029.99 249.316 1029.6 247.253C1029.28 245.111 1028.73 243.365 1027.94 242.016C1027.23 240.667 1026.21 239.834 1024.87 239.517C1026.44 239.517 1028.89 239.318 1032.2 238.922C1035.51 238.446 1038.9 237.89 1042.37 237.255C1045.91 236.621 1049.1 235.986 1051.94 235.351C1054.78 234.716 1056.55 234.2 1057.26 233.804L1057.62 233.566V250.705C1058.8 248.325 1060.18 246.103 1061.76 244.04C1063.41 241.897 1065.22 240.072 1067.19 238.565C1069.24 236.978 1071.49 235.748 1073.93 234.875C1076.46 234.002 1079.18 233.566 1082.09 233.566C1087.29 233.566 1091.71 234.24 1095.33 235.589C1098.96 236.859 1101.92 238.842 1104.2 241.54C1106.49 244.159 1108.14 247.452 1109.17 251.419C1110.19 255.387 1110.7 259.989 1110.7 265.226V270.463C1110.78 270.225 1110.82 270.225 1110.82 270.463C1110.82 273.557 1110.82 276.493 1110.82 279.271C1110.9 282.048 1111.1 284.508 1111.41 286.65C1111.73 288.713 1112.24 290.419 1112.95 291.768C1113.74 293.117 1114.8 293.95 1116.14 294.268H1078.07C1079.33 293.95 1080.32 293.196 1081.03 292.006C1081.74 290.816 1082.25 289.269 1082.56 287.364C1082.96 285.46 1083.2 283.278 1083.27 280.818C1083.35 278.358 1083.39 275.7 1083.39 272.843V265.583C1083.31 262.726 1083.16 259.989 1082.92 257.37C1082.68 254.752 1082.17 252.451 1081.38 250.467C1080.59 248.483 1079.45 246.896 1077.95 245.706C1076.46 244.516 1074.45 243.881 1071.92 243.802C1068.06 243.96 1065.03 245.23 1062.82 247.61C1060.69 249.991 1058.96 252.927 1057.62 256.418V270.463C1057.62 273.557 1057.62 276.493 1057.62 279.271C1057.7 282.048 1057.89 284.508 1058.21 286.65C1058.6 288.713 1059.15 290.419 1059.86 291.768C1060.57 293.117 1061.6 293.95 1062.94 294.268H1024.87C1026.21 293.95 1027.23 293.117 1027.94 291.768C1028.73 290.419 1029.28 288.713 1029.6 286.65C1029.99 284.508 1030.19 282.048 1030.19 279.271C1030.27 276.493 1030.31 273.557 1030.31 270.463V263.321Z" fill="#10355B"/>
<path d="M1140.32 230.828C1138.43 230.828 1136.61 230.59 1134.88 230.114C1133.23 229.558 1131.77 228.844 1130.51 227.972C1129.32 227.019 1128.38 225.948 1127.67 224.758C1126.96 223.488 1126.6 222.179 1126.6 220.83C1126.6 219.481 1126.96 218.212 1127.67 217.021C1128.38 215.831 1129.32 214.8 1130.51 213.927C1131.77 212.975 1133.23 212.26 1134.88 211.784C1136.61 211.229 1138.43 210.951 1140.32 210.951C1142.21 210.951 1143.98 211.229 1145.64 211.784C1147.29 212.26 1148.71 212.975 1149.9 213.927C1151.16 214.8 1152.14 215.831 1152.85 217.021C1153.56 218.212 1153.92 219.481 1153.92 220.83C1153.92 222.179 1153.56 223.488 1152.85 224.758C1152.14 225.948 1151.16 227.019 1149.9 227.972C1148.71 228.844 1147.29 229.558 1145.64 230.114C1143.98 230.59 1142.21 230.828 1140.32 230.828ZM1153.68 270.463C1153.68 273.557 1153.68 276.493 1153.68 279.271C1153.76 282.048 1153.96 284.508 1154.27 286.65C1154.66 288.713 1155.22 290.419 1155.93 291.768C1156.64 293.117 1157.66 293.95 1159 294.268H1121.05C1122.39 293.95 1123.41 293.117 1124.12 291.768C1124.91 290.419 1125.46 288.713 1125.78 286.65C1126.17 284.508 1126.37 282.048 1126.37 279.271C1126.45 276.493 1126.49 273.557 1126.49 270.463V263.321C1126.49 260.227 1126.45 257.291 1126.37 254.514C1126.37 251.737 1126.17 249.316 1125.78 247.253C1125.46 245.111 1124.91 243.365 1124.12 242.016C1123.41 240.667 1122.39 239.834 1121.05 239.517C1122.07 239.517 1123.53 239.398 1125.42 239.16C1127.31 238.922 1129.4 238.644 1131.69 238.327C1133.97 237.93 1136.3 237.533 1138.66 237.136C1141.11 236.66 1143.35 236.224 1145.4 235.827C1147.45 235.351 1149.23 234.915 1150.72 234.518C1152.22 234.121 1153.21 233.804 1153.68 233.566V270.463Z" fill="#10355B"/>
</g>
<path d="M477.488 252H454.954V216.99H463.694L463.67 245.066H477.488V252ZM494.407 252.415C490.241 252.415 486.717 251.178 483.836 248.704C482.436 247.5 481.329 245.986 480.516 244.163C479.718 242.34 479.319 240.371 479.319 238.255C479.319 236.123 479.718 234.145 480.516 232.322C481.329 230.499 482.436 228.986 483.836 227.781C486.749 225.307 490.273 224.07 494.407 224.07C496.409 224.07 498.322 224.396 500.145 225.047C501.967 225.682 503.571 226.593 504.954 227.781C506.354 228.986 507.452 230.499 508.25 232.322C509.064 234.145 509.471 236.123 509.471 238.255C509.471 240.371 509.064 242.34 508.25 244.163C507.452 245.986 506.354 247.5 504.954 248.704C503.571 249.892 501.967 250.812 500.145 251.463C498.322 252.098 496.409 252.415 494.407 252.415ZM489.524 243.479C490.843 244.83 492.47 245.506 494.407 245.506C496.328 245.506 497.964 244.83 499.314 243.479C500.633 242.129 501.292 240.387 501.292 238.255C501.292 236.123 500.633 234.381 499.314 233.03C497.964 231.679 496.328 231.004 494.407 231.004C492.47 231.004 490.843 231.679 489.524 233.03C488.19 234.365 487.522 236.106 487.522 238.255C487.522 240.403 488.19 242.145 489.524 243.479ZM525.267 244.969L531.492 224.51H540.428L530.052 251.438C528.571 255.296 526.536 258.014 523.948 259.593C521.393 261.155 517.999 261.692 513.768 261.204L513.353 255.174C515.664 255.255 517.365 255.027 518.455 254.49C519.562 253.953 520.156 253.001 520.237 251.634L510.081 224.51H519.017L525.267 244.969ZM547.898 221.312C546.564 221.312 545.433 220.84 544.505 219.896C543.561 218.951 543.089 217.82 543.089 216.502C543.089 215.184 543.561 214.052 544.505 213.108C545.433 212.181 546.564 211.717 547.898 211.717C549.201 211.717 550.324 212.181 551.268 213.108C552.195 214.069 552.659 215.2 552.659 216.502C552.659 217.804 552.195 218.935 551.268 219.896C550.324 220.84 549.201 221.312 547.898 221.312ZM543.772 252V224.51H551.976V252H543.772ZM585.276 252H577.073V238.255C577.073 235.83 576.626 234.023 575.73 232.835C574.852 231.631 573.46 231.028 571.556 231.028C569.635 231.028 568.113 231.679 566.99 232.981C565.867 234.3 565.306 236.058 565.306 238.255V252H557.103V214.5H565.306V228.147C566.038 226.862 567.194 225.861 568.772 225.145C570.368 224.428 572.239 224.07 574.388 224.07C578.294 224.07 581.085 225.275 582.762 227.684C584.438 230.092 585.276 233.616 585.276 238.255V252ZM601.756 224.07C603.904 224.07 605.776 224.428 607.371 225.145C608.982 225.861 610.162 226.862 610.911 228.147L611.253 224.51H619.09V252H611.253L610.911 248.338C609.463 251.056 606.411 252.415 601.756 252.415C599.428 252.464 597.28 251.886 595.311 250.682C593.341 249.477 591.779 247.776 590.623 245.579C589.467 243.382 588.906 240.94 588.938 238.255C588.922 236.237 589.248 234.34 589.915 232.566C590.582 230.776 591.494 229.262 592.649 228.025C593.805 226.772 595.172 225.796 596.751 225.096C598.346 224.38 600.014 224.038 601.756 224.07ZM599.144 243.455C600.462 244.806 602.09 245.481 604.026 245.481C605.947 245.481 607.583 244.806 608.934 243.455C610.252 242.12 610.911 240.387 610.911 238.255C610.911 236.123 610.252 234.381 608.934 233.03C607.599 231.696 605.963 231.028 604.026 231.028C602.09 231.028 600.462 231.696 599.144 233.03C597.825 234.381 597.166 236.123 597.166 238.255C597.166 240.387 597.825 242.12 599.144 243.455ZM651.829 252H643.626V238.255C643.626 235.83 643.203 234.023 642.356 232.835C641.526 231.631 640.216 231.028 638.426 231.028C636.521 231.028 635.049 231.671 634.007 232.957C632.965 234.243 632.444 236.009 632.444 238.255V252H624.241V224.51H632.078L632.444 228.147C633.991 225.429 636.928 224.07 641.258 224.07C645.034 224.07 647.736 225.275 649.363 227.684C651.007 230.109 651.829 233.632 651.829 238.255V252ZM677.464 228.147L677.806 224.51H685.643V249.925C685.643 252.594 685 254.889 683.714 256.81C682.428 258.698 680.687 260.114 678.489 261.058C676.292 261.969 673.802 262.425 671.019 262.425C665.387 262.425 660.911 260.529 657.591 256.736L661.473 252.293C663.589 254.669 666.559 255.874 670.384 255.906C672.369 255.906 674.038 255.337 675.389 254.197C676.74 253.042 677.431 251.495 677.464 249.559V247.483C676.113 250.039 673.061 251.308 668.309 251.292C665.932 251.292 663.768 250.73 661.814 249.607C659.878 248.468 658.34 246.873 657.2 244.822C656.061 242.755 655.491 240.42 655.491 237.815C655.491 233.877 656.728 230.597 659.202 227.977C661.66 225.372 664.695 224.07 668.309 224.07C670.457 224.07 672.329 224.428 673.924 225.145C675.535 225.861 676.715 226.862 677.464 228.147ZM665.721 242.674C667.055 243.976 668.675 244.627 670.579 244.627C672.483 244.627 674.111 243.976 675.462 242.674C676.797 241.388 677.464 239.769 677.464 237.815C677.464 235.879 676.797 234.267 675.462 232.981C674.111 231.679 672.483 231.028 670.579 231.028C668.642 231.028 667.023 231.671 665.721 232.957C664.386 234.243 663.719 235.862 663.719 237.815C663.719 239.769 664.386 241.388 665.721 242.674ZM694.822 221.312C693.488 221.312 692.356 220.84 691.429 219.896C690.485 218.951 690.013 217.82 690.013 216.502C690.013 215.184 690.485 214.052 691.429 213.108C692.356 212.181 693.488 211.717 694.822 211.717C696.124 211.717 697.247 212.181 698.191 213.108C699.119 214.069 699.583 215.2 699.583 216.502C699.583 217.804 699.119 218.935 698.191 219.896C697.247 220.84 696.124 221.312 694.822 221.312ZM690.696 252V224.51H698.899V252H690.696ZM703.538 224.51H727.854V231.077L713.987 245.262H727.854V252H703.538V245.262L717.186 231.077H703.538V224.51ZM760.032 252H751.829V238.255C751.829 235.83 751.406 234.023 750.56 232.835C749.729 231.631 748.419 231.028 746.629 231.028C744.725 231.028 743.252 231.671 742.21 232.957C741.168 234.243 740.647 236.009 740.647 238.255V252H732.444V224.51H740.281L740.647 228.147C742.194 225.429 745.132 224.07 749.461 224.07C753.237 224.07 755.939 225.275 757.566 227.684C759.21 230.109 760.032 233.632 760.032 238.255V252ZM768.797 221.312C767.462 221.312 766.331 220.84 765.403 219.896C764.459 218.951 763.987 217.82 763.987 216.502C763.987 215.184 764.459 214.052 765.403 213.108C766.331 212.181 767.462 211.717 768.797 211.717C770.099 211.717 771.222 212.181 772.166 213.108C773.094 214.069 773.558 215.2 773.558 216.502C773.558 217.804 773.094 218.935 772.166 219.896C771.222 220.84 770.099 221.312 768.797 221.312ZM764.671 252V224.51H772.874V252H764.671ZM807.347 224.07C809.088 224.038 810.748 224.38 812.327 225.096C813.922 225.796 815.289 226.772 816.429 228.025C817.584 229.262 818.496 230.776 819.163 232.566C819.847 234.34 820.172 236.237 820.14 238.255C820.172 240.94 819.611 243.382 818.455 245.579C817.316 247.776 815.761 249.477 813.792 250.682C811.823 251.886 809.674 252.464 807.347 252.415C805.117 252.415 803.213 252.073 801.634 251.39C800.071 250.69 798.932 249.673 798.216 248.338L797.85 252H790.013V214.5H798.216V228.147C798.948 226.862 800.112 225.861 801.707 225.145C803.318 224.428 805.198 224.07 807.347 224.07ZM805.101 245.481C807.021 245.481 808.641 244.806 809.959 243.455C811.277 242.12 811.937 240.387 811.937 238.255C811.937 236.123 811.277 234.381 809.959 233.03C808.641 231.696 807.021 231.028 805.101 231.028C803.164 231.028 801.536 231.696 800.218 233.03C798.883 234.365 798.216 236.106 798.216 238.255C798.216 240.387 798.883 242.12 800.218 243.455C801.536 244.806 803.164 245.481 805.101 245.481ZM828.074 221.312C826.74 221.312 825.608 220.84 824.681 219.896C823.737 218.951 823.265 217.82 823.265 216.502C823.265 215.184 823.737 214.052 824.681 213.108C825.608 212.181 826.74 211.717 828.074 211.717C829.376 211.717 830.499 212.181 831.443 213.108C832.371 214.069 832.835 215.2 832.835 216.502C832.835 217.804 832.371 218.935 831.443 219.896C830.499 220.84 829.376 221.312 828.074 221.312ZM823.948 252V224.51H832.151V252H823.948ZM836.79 224.51H861.106V231.077L847.239 245.262H861.106V252H836.79V245.262L850.438 231.077H836.79V224.51ZM471.653 284.07C473.395 284.038 475.055 284.38 476.634 285.096C478.229 285.796 479.596 286.772 480.735 288.025C481.891 289.262 482.802 290.776 483.47 292.566C484.153 294.34 484.479 296.237 484.446 298.255C484.479 300.94 483.917 303.382 482.762 305.579C481.622 307.776 480.068 309.477 478.099 310.682C476.129 311.886 473.981 312.464 471.653 312.415C469.424 312.415 467.519 312.073 465.94 311.39C464.378 310.69 463.239 309.673 462.522 308.338L462.156 312H454.319V274.5H462.522V288.147C463.255 286.862 464.419 285.861 466.014 285.145C467.625 284.428 469.505 284.07 471.653 284.07ZM469.407 305.481C471.328 305.481 472.947 304.806 474.266 303.455C475.584 302.12 476.243 300.387 476.243 298.255C476.243 296.123 475.584 294.381 474.266 293.03C472.947 291.696 471.328 291.028 469.407 291.028C467.47 291.028 465.843 291.696 464.524 293.03C463.19 294.365 462.522 296.106 462.522 298.255C462.522 300.387 463.19 302.12 464.524 303.455C465.843 304.806 467.47 305.481 469.407 305.481ZM492.381 281.312C491.046 281.312 489.915 280.84 488.987 279.896C488.043 278.951 487.571 277.82 487.571 276.502C487.571 275.184 488.043 274.052 488.987 273.108C489.915 272.181 491.046 271.717 492.381 271.717C493.683 271.717 494.806 272.181 495.75 273.108C496.678 274.069 497.142 275.2 497.142 276.502C497.142 277.804 496.678 278.935 495.75 279.896C494.806 280.84 493.683 281.312 492.381 281.312ZM488.255 312V284.51H496.458V312H488.255ZM501.585 312V274.5H509.788V312H501.585ZM526.414 284.07C528.562 284.07 530.434 284.428 532.029 285.145C533.641 285.861 534.821 286.862 535.569 288.147L535.911 284.51H543.748V312H535.911L535.569 308.338C534.121 311.056 531.069 312.415 526.414 312.415C524.087 312.464 521.938 311.886 519.969 310.682C517.999 309.477 516.437 307.776 515.281 305.579C514.126 303.382 513.564 300.94 513.597 298.255C513.58 296.237 513.906 294.34 514.573 292.566C515.241 290.776 516.152 289.262 517.308 288.025C518.463 286.772 519.83 285.796 521.409 285.096C523.004 284.38 524.673 284.038 526.414 284.07ZM523.802 303.455C525.12 304.806 526.748 305.481 528.685 305.481C530.605 305.481 532.241 304.806 533.592 303.455C534.91 302.12 535.569 300.387 535.569 298.255C535.569 296.123 534.91 294.381 533.592 293.03C532.257 291.696 530.621 291.028 528.685 291.028C526.748 291.028 525.12 291.696 523.802 293.03C522.483 294.381 521.824 296.123 521.824 298.255C521.824 300.387 522.483 302.12 523.802 303.455ZM576.487 312H568.284V298.255C568.284 295.83 567.861 294.023 567.015 292.835C566.185 291.631 564.874 291.028 563.084 291.028C561.18 291.028 559.707 291.671 558.665 292.957C557.623 294.243 557.103 296.009 557.103 298.255V312H548.899V284.51H556.736L557.103 288.147C558.649 285.429 561.587 284.07 565.916 284.07C569.692 284.07 572.394 285.275 574.021 287.684C575.665 290.109 576.487 293.632 576.487 298.255V312ZM610.96 284.07C612.701 284.038 614.362 284.38 615.94 285.096C617.535 285.796 618.903 286.772 620.042 288.025C621.198 289.262 622.109 290.776 622.776 292.566C623.46 294.34 623.785 296.237 623.753 298.255C623.785 300.94 623.224 303.382 622.068 305.579C620.929 307.776 619.375 309.477 617.405 310.682C615.436 311.886 613.287 312.464 610.96 312.415C608.73 312.415 606.826 312.073 605.247 311.39C603.685 310.69 602.545 309.673 601.829 308.338L601.463 312H593.626V274.5H601.829V288.147C602.562 286.862 603.725 285.861 605.32 285.145C606.932 284.428 608.812 284.07 610.96 284.07ZM608.714 305.481C610.634 305.481 612.254 304.806 613.572 303.455C614.891 302.12 615.55 300.387 615.55 298.255C615.55 296.123 614.891 294.381 613.572 293.03C612.254 291.696 610.634 291.028 608.714 291.028C606.777 291.028 605.149 291.696 603.831 293.03C602.496 294.365 601.829 296.106 601.829 298.255C601.829 300.387 602.496 302.12 603.831 303.455C605.149 304.806 606.777 305.481 608.714 305.481ZM631.688 281.312C630.353 281.312 629.222 280.84 628.294 279.896C627.35 278.951 626.878 277.82 626.878 276.502C626.878 275.184 627.35 274.052 628.294 273.108C629.222 272.181 630.353 271.717 631.688 271.717C632.99 271.717 634.113 272.181 635.057 273.108C635.984 274.069 636.448 275.2 636.448 276.502C636.448 277.804 635.984 278.935 635.057 279.896C634.113 280.84 632.99 281.312 631.688 281.312ZM627.562 312V284.51H635.765V312H627.562ZM640.794 312V284.51H648.631L648.997 287.757C649.925 286.455 651.105 285.519 652.537 284.949C653.986 284.363 655.833 284.07 658.079 284.07V291.028C655.133 291.028 652.879 291.663 651.316 292.933C649.77 294.202 648.997 295.976 648.997 298.255V312H640.794ZM681.272 288.147L681.614 284.51H689.451V309.925C689.451 312.594 688.808 314.889 687.522 316.81C686.237 318.698 684.495 320.114 682.298 321.058C680.101 321.969 677.61 322.425 674.827 322.425C669.196 322.425 664.72 320.529 661.399 316.736L665.281 312.293C667.397 314.669 670.368 315.874 674.192 315.906C676.178 315.906 677.846 315.337 679.197 314.197C680.548 313.042 681.24 311.495 681.272 309.559V307.483C679.922 310.039 676.87 311.308 672.117 311.292C669.741 311.292 667.576 310.73 665.623 309.607C663.686 308.468 662.148 306.873 661.009 304.822C659.869 302.755 659.3 300.42 659.3 297.815C659.3 293.877 660.537 290.597 663.011 287.977C665.468 285.372 668.504 284.07 672.117 284.07C674.266 284.07 676.137 284.428 677.732 285.145C679.344 285.861 680.524 286.862 681.272 288.147ZM669.529 302.674C670.864 303.976 672.483 304.627 674.388 304.627C676.292 304.627 677.92 303.976 679.271 302.674C680.605 301.388 681.272 299.769 681.272 297.815C681.272 295.879 680.605 294.267 679.271 292.981C677.92 291.679 676.292 291.028 674.388 291.028C672.451 291.028 670.831 291.671 669.529 292.957C668.195 294.243 667.527 295.862 667.527 297.815C667.527 299.769 668.195 301.388 669.529 302.674ZM706.102 284.07C708.25 284.07 710.122 284.428 711.717 285.145C713.328 285.861 714.508 286.862 715.257 288.147L715.599 284.51H723.436V312H715.599L715.257 308.338C713.808 311.056 710.757 312.415 706.102 312.415C703.774 312.464 701.626 311.886 699.656 310.682C697.687 309.477 696.124 307.776 694.969 305.579C693.813 303.382 693.252 300.94 693.284 298.255C693.268 296.237 693.593 294.34 694.261 292.566C694.928 290.776 695.84 289.262 696.995 288.025C698.151 286.772 699.518 285.796 701.097 285.096C702.692 284.38 704.36 284.038 706.102 284.07ZM703.489 303.455C704.808 304.806 706.435 305.481 708.372 305.481C710.293 305.481 711.928 304.806 713.279 303.455C714.598 302.12 715.257 300.387 715.257 298.255C715.257 296.123 714.598 294.381 713.279 293.03C711.945 291.696 710.309 291.028 708.372 291.028C706.435 291.028 704.808 291.696 703.489 293.03C702.171 294.381 701.512 296.123 701.512 298.255C701.512 300.387 702.171 302.12 703.489 303.455ZM754.515 304.969L760.74 284.51H769.676L759.3 311.438C757.819 315.296 755.784 318.014 753.196 319.593C750.641 321.155 747.247 321.692 743.016 321.204L742.601 315.174C744.912 315.255 746.613 315.027 747.703 314.49C748.81 313.953 749.404 313.001 749.485 311.634L739.329 284.51H748.265L754.515 304.969ZM783.055 284.07C785.203 284.07 787.075 284.428 788.67 285.145C790.281 285.861 791.461 286.862 792.21 288.147L792.552 284.51H800.389V312H792.552L792.21 308.338C790.761 311.056 787.71 312.415 783.055 312.415C780.727 312.464 778.579 311.886 776.609 310.682C774.64 309.477 773.077 307.776 771.922 305.579C770.766 303.382 770.205 300.94 770.237 298.255C770.221 296.237 770.547 294.34 771.214 292.566C771.881 290.776 772.793 289.262 773.948 288.025C775.104 286.772 776.471 285.796 778.05 285.096C779.645 284.38 781.313 284.038 783.055 284.07ZM780.442 303.455C781.761 304.806 783.388 305.481 785.325 305.481C787.246 305.481 788.882 304.806 790.232 303.455C791.551 302.12 792.21 300.387 792.21 298.255C792.21 296.123 791.551 294.381 790.232 293.03C788.898 291.696 787.262 291.028 785.325 291.028C783.388 291.028 781.761 291.696 780.442 293.03C779.124 294.381 778.465 296.123 778.465 298.255C778.465 300.387 779.124 302.12 780.442 303.455ZM805.54 312V284.51H813.377L813.743 287.757C814.671 286.455 815.851 285.519 817.283 284.949C818.732 284.363 820.579 284.07 822.825 284.07V291.028C819.879 291.028 817.625 291.663 816.062 292.933C814.516 294.202 813.743 295.976 813.743 298.255V312H805.54ZM836.863 284.07C839.012 284.07 840.883 284.428 842.479 285.145C844.09 285.861 845.27 286.862 846.019 288.147L846.36 284.51H854.197V312H846.36L846.019 308.338C844.57 311.056 841.518 312.415 836.863 312.415C834.536 312.464 832.387 311.886 830.418 310.682C828.449 309.477 826.886 307.776 825.73 305.579C824.575 303.382 824.013 300.94 824.046 298.255C824.03 296.237 824.355 294.34 825.022 292.566C825.69 290.776 826.601 289.262 827.757 288.025C828.912 286.772 830.28 285.796 831.858 285.096C833.453 284.38 835.122 284.038 836.863 284.07ZM834.251 303.455C835.569 304.806 837.197 305.481 839.134 305.481C841.054 305.481 842.69 304.806 844.041 303.455C845.359 302.12 846.019 300.387 846.019 298.255C846.019 296.123 845.359 294.381 844.041 293.03C842.706 291.696 841.071 291.028 839.134 291.028C837.197 291.028 835.569 291.696 834.251 293.03C832.933 294.381 832.273 296.123 832.273 298.255C832.273 300.387 832.933 302.12 834.251 303.455ZM862.107 284.51V278.357H870.286V284.51H876.78V290.882H870.286V301.868C870.286 303.821 871.027 304.952 872.508 305.262C873.631 305.62 875.055 305.628 876.78 305.286V312C874.892 312.277 873.126 312.415 871.482 312.415C868.13 312.415 865.729 311.585 864.28 309.925C862.832 308.248 862.107 305.66 862.107 302.161V290.882H858.567V284.51H862.107ZM884.959 281.312C883.624 281.312 882.493 280.84 881.565 279.896C880.621 278.951 880.149 277.82 880.149 276.502C880.149 275.184 880.621 274.052 881.565 273.108C882.493 272.181 883.624 271.717 884.959 271.717C886.261 271.717 887.384 272.181 888.328 273.108C889.256 274.069 889.72 275.2 889.72 276.502C889.72 277.804 889.256 278.935 888.328 279.896C887.384 280.84 886.261 281.312 884.959 281.312ZM880.833 312V284.51H889.036V312H880.833ZM921.653 312H913.45V298.255C913.45 295.83 913.027 294.023 912.181 292.835C911.351 291.631 910.04 291.028 908.25 291.028C906.346 291.028 904.873 291.671 903.831 292.957C902.789 294.243 902.269 296.009 902.269 298.255V312H894.065V284.51H901.902L902.269 288.147C903.815 285.429 906.753 284.07 911.082 284.07C914.858 284.07 917.56 285.275 919.188 287.684C920.831 290.109 921.653 293.632 921.653 298.255V312ZM947.288 288.147L947.63 284.51H955.467V309.925C955.467 312.594 954.824 314.889 953.538 316.81C952.252 318.698 950.511 320.114 948.313 321.058C946.116 321.969 943.626 322.425 940.843 322.425C935.211 322.425 930.735 320.529 927.415 316.736L931.297 312.293C933.413 314.669 936.383 315.874 940.208 315.906C942.194 315.906 943.862 315.337 945.213 314.197C946.564 313.042 947.256 311.495 947.288 309.559V307.483C945.937 310.039 942.885 311.308 938.133 311.292C935.757 311.292 933.592 310.73 931.639 309.607C929.702 308.468 928.164 306.873 927.024 304.822C925.885 302.755 925.315 300.42 925.315 297.815C925.315 293.877 926.552 290.597 929.026 287.977C931.484 285.372 934.52 284.07 938.133 284.07C940.281 284.07 942.153 284.428 943.748 285.145C945.359 285.861 946.539 286.862 947.288 288.147ZM935.545 302.674C936.88 303.976 938.499 304.627 940.403 304.627C942.308 304.627 943.935 303.976 945.286 302.674C946.621 301.388 947.288 299.769 947.288 297.815C947.288 295.879 946.621 294.267 945.286 292.981C943.935 291.679 942.308 291.028 940.403 291.028C938.466 291.028 936.847 291.671 935.545 292.957C934.21 294.243 933.543 295.862 933.543 297.815C933.543 299.769 934.21 301.388 935.545 302.674Z" fill="#10355B"/>
<path d="M578.342 443.627V436.996H580.236V451H578.342V445.17H571.594V451H569.689V436.996H571.594V443.627H578.342ZM588.283 439.857C589.318 439.857 590.23 440.043 591.018 440.414C591.805 440.785 592.388 441.296 592.766 441.947L592.834 440.004H594.553V451H592.834L592.766 449.047C592.076 450.44 590.581 451.137 588.283 451.137C587.3 451.137 586.402 450.893 585.588 450.404C584.774 449.929 584.126 449.255 583.645 448.383C583.163 447.51 582.922 446.55 582.922 445.502C582.922 444.454 583.163 443.493 583.645 442.621C584.12 441.755 584.768 441.078 585.588 440.59C586.402 440.102 587.3 439.857 588.283 439.857ZM585.9 448.422C586.669 449.21 587.613 449.604 588.732 449.604C589.839 449.604 590.79 449.206 591.584 448.412C592.372 447.624 592.766 446.654 592.766 445.502C592.766 444.35 592.375 443.376 591.594 442.582C590.806 441.794 589.852 441.4 588.732 441.4C587.613 441.4 586.669 441.794 585.9 442.582C585.119 443.376 584.729 444.35 584.729 445.502C584.729 446.654 585.119 447.628 585.9 448.422ZM597.482 451V440.004H599.201L599.289 442.133C599.751 441.345 600.334 440.772 601.037 440.414C601.74 440.049 602.626 439.867 603.693 439.867V441.4C602.359 441.4 601.291 441.781 600.49 442.543C599.689 443.311 599.289 444.298 599.289 445.502V451H597.482ZM617.326 439.857C618.309 439.857 619.211 440.102 620.031 440.59C620.852 441.078 621.499 441.755 621.975 442.621C622.45 443.487 622.688 444.447 622.688 445.502C622.688 446.557 622.45 447.517 621.975 448.383C621.493 449.255 620.845 449.929 620.031 450.404C619.211 450.893 618.309 451.137 617.326 451.137C615.035 451.137 613.544 450.44 612.854 449.047L612.775 451H611.057V436H612.854V441.947C613.231 441.296 613.811 440.785 614.592 440.414C615.38 440.043 616.291 439.857 617.326 439.857ZM614.035 448.412C614.816 449.206 615.764 449.604 616.877 449.604C617.99 449.604 618.938 449.21 619.719 448.422C620.5 447.634 620.891 446.661 620.891 445.502C620.891 444.35 620.5 443.376 619.719 442.582C618.938 441.794 617.99 441.4 616.877 441.4C615.757 441.4 614.807 441.794 614.025 442.582C613.244 443.376 612.854 444.35 612.854 445.502C612.854 446.654 613.247 447.624 614.035 448.412ZM626.75 437.875C626.529 438.096 626.262 438.207 625.949 438.207C625.63 438.207 625.363 438.096 625.148 437.875C624.927 437.654 624.816 437.383 624.816 437.064C624.816 436.752 624.927 436.488 625.148 436.273C625.363 436.059 625.63 435.951 625.949 435.951C626.262 435.951 626.529 436.059 626.75 436.273C626.965 436.495 627.072 436.762 627.072 437.074C627.072 437.387 626.965 437.654 626.75 437.875ZM625.041 451V440.004H626.838V451H625.041ZM629.631 451V440.004H631.35L631.438 442.133C631.9 441.345 632.482 440.772 633.186 440.414C633.889 440.049 634.774 439.867 635.842 439.867V441.4C634.507 441.4 633.439 441.781 632.639 442.543C631.838 443.311 631.438 444.298 631.438 445.502V451H629.631ZM648.205 439.857C649.24 439.857 650.152 440.043 650.939 440.414C651.727 440.785 652.31 441.296 652.688 441.947V436H654.475V451H652.756L652.688 449.047C651.997 450.44 650.503 451.137 648.205 451.137C647.222 451.137 646.324 450.893 645.51 450.404C644.696 449.929 644.048 449.255 643.566 448.383C643.085 447.51 642.844 446.55 642.844 445.502C642.844 444.454 643.085 443.493 643.566 442.621C644.042 441.755 644.689 441.078 645.51 440.59C646.324 440.102 647.222 439.857 648.205 439.857ZM645.822 448.422C646.59 449.21 647.535 449.604 648.654 449.604C649.761 449.604 650.712 449.206 651.506 448.412C652.294 447.624 652.688 446.654 652.688 445.502C652.688 444.35 652.297 443.376 651.516 442.582C650.728 441.794 649.774 441.4 648.654 441.4C647.535 441.4 646.59 441.794 645.822 442.582C645.041 443.376 644.65 444.35 644.65 445.502C644.65 446.654 645.041 447.628 645.822 448.422ZM662.639 439.857C663.452 439.857 664.224 440.017 664.953 440.336C665.689 440.655 666.317 441.094 666.838 441.654C667.359 442.221 667.756 442.901 668.029 443.695C668.309 444.49 668.43 445.336 668.391 446.234H658.684C658.853 447.257 659.305 448.083 660.041 448.715C660.777 449.353 661.643 449.672 662.639 449.672C663.479 449.672 664.23 449.447 664.895 448.998C665.552 448.562 666.044 447.953 666.369 447.172L667.902 447.914C667.44 448.904 666.734 449.688 665.783 450.268C664.82 450.847 663.771 451.137 662.639 451.137C661.584 451.137 660.617 450.902 659.738 450.434C658.859 449.965 658.156 449.294 657.629 448.422C657.095 447.556 656.828 446.583 656.828 445.502C656.828 444.415 657.095 443.438 657.629 442.572C658.15 441.713 658.853 441.042 659.738 440.561C660.617 440.092 661.584 439.857 662.639 439.857ZM662.639 441.332C661.617 441.332 660.741 441.648 660.012 442.279C659.276 442.917 658.83 443.747 658.674 444.77H666.623C666.454 443.734 666.008 442.904 665.285 442.279C664.556 441.648 663.674 441.332 662.639 441.332ZM671.623 440.004V437.484H673.42V440.004H676.428V441.43H673.42V447.729C673.42 448.327 673.521 448.773 673.723 449.066C673.931 449.353 674.266 449.509 674.729 449.535C675.243 449.6 675.809 449.571 676.428 449.447V450.941C675.725 451.065 675.083 451.127 674.504 451.127C673.482 451.127 672.746 450.857 672.297 450.316C671.848 449.776 671.623 448.93 671.623 447.777V441.43H669.943V440.004H671.623ZM683.205 439.857C684.24 439.857 685.152 440.043 685.939 440.414C686.727 440.785 687.31 441.296 687.688 441.947L687.756 440.004H689.475V451H687.756L687.688 449.047C686.997 450.44 685.503 451.137 683.205 451.137C682.222 451.137 681.324 450.893 680.51 450.404C679.696 449.929 679.048 449.255 678.566 448.383C678.085 447.51 677.844 446.55 677.844 445.502C677.844 444.454 678.085 443.493 678.566 442.621C679.042 441.755 679.689 441.078 680.51 440.59C681.324 440.102 682.222 439.857 683.205 439.857ZM680.822 448.422C681.59 449.21 682.535 449.604 683.654 449.604C684.761 449.604 685.712 449.206 686.506 448.412C687.294 447.624 687.688 446.654 687.688 445.502C687.688 444.35 687.297 443.376 686.516 442.582C685.728 441.794 684.774 441.4 683.654 441.4C682.535 441.4 681.59 441.794 680.822 442.582C680.041 443.376 679.65 444.35 679.65 445.502C679.65 446.654 680.041 447.628 680.822 448.422ZM692.287 451V436H694.084V451H692.287ZM701.799 439.857C702.834 439.857 703.745 440.043 704.533 440.414C705.321 440.785 705.904 441.296 706.281 441.947V436H708.068V451H706.35L706.281 449.047C705.591 450.44 704.097 451.137 701.799 451.137C700.816 451.137 699.917 450.893 699.104 450.404C698.29 449.929 697.642 449.255 697.16 448.383C696.678 447.51 696.438 446.55 696.438 445.502C696.438 444.454 696.678 443.493 697.16 442.621C697.635 441.755 698.283 441.078 699.104 440.59C699.917 440.102 700.816 439.857 701.799 439.857ZM699.416 448.422C700.184 449.21 701.128 449.604 702.248 449.604C703.355 449.604 704.305 449.206 705.1 448.412C705.887 447.624 706.281 446.654 706.281 445.502C706.281 444.35 705.891 443.376 705.109 442.582C704.322 441.794 703.368 441.4 702.248 441.4C701.128 441.4 700.184 441.794 699.416 442.582C698.635 443.376 698.244 444.35 698.244 445.502C698.244 446.654 698.635 447.628 699.416 448.422ZM715.783 439.857C716.818 439.857 717.73 440.043 718.518 440.414C719.305 440.785 719.888 441.296 720.266 441.947L720.334 440.004H722.053V451H720.334L720.266 449.047C719.576 450.44 718.081 451.137 715.783 451.137C714.8 451.137 713.902 450.893 713.088 450.404C712.274 449.929 711.626 449.255 711.145 448.383C710.663 447.51 710.422 446.55 710.422 445.502C710.422 444.454 710.663 443.493 711.145 442.621C711.62 441.755 712.268 441.078 713.088 440.59C713.902 440.102 714.8 439.857 715.783 439.857ZM713.4 448.422C714.169 449.21 715.113 449.604 716.232 449.604C717.339 449.604 718.29 449.206 719.084 448.412C719.872 447.624 720.266 446.654 720.266 445.502C720.266 444.35 719.875 443.376 719.094 442.582C718.306 441.794 717.352 441.4 716.232 441.4C715.113 441.4 714.169 441.794 713.4 442.582C712.619 443.376 712.229 444.35 712.229 445.502C712.229 446.654 712.619 447.628 713.4 448.422ZM740.529 451H738.742V445.502C738.742 444.141 738.475 443.119 737.941 442.436C737.408 441.745 736.574 441.4 735.441 441.4C734.315 441.4 733.391 441.788 732.668 442.562C731.945 443.331 731.584 444.311 731.584 445.502V451H729.787V436H731.584V441.947C731.962 441.283 732.531 440.769 733.293 440.404C734.055 440.04 734.956 439.857 735.998 439.857C737.587 439.857 738.739 440.342 739.455 441.312C740.171 442.283 740.529 443.679 740.529 445.502V451ZM748.127 439.857C749.162 439.857 750.074 440.043 750.861 440.414C751.649 440.785 752.232 441.296 752.609 441.947L752.678 440.004H754.396V451H752.678L752.609 449.047C751.919 450.44 750.425 451.137 748.127 451.137C747.144 451.137 746.245 450.893 745.432 450.404C744.618 449.929 743.97 449.255 743.488 448.383C743.007 447.51 742.766 446.55 742.766 445.502C742.766 444.454 743.007 443.493 743.488 442.621C743.964 441.755 744.611 441.078 745.432 440.59C746.245 440.102 747.144 439.857 748.127 439.857ZM745.744 448.422C746.512 449.21 747.456 449.604 748.576 449.604C749.683 449.604 750.633 449.206 751.428 448.412C752.215 447.624 752.609 446.654 752.609 445.502C752.609 444.35 752.219 443.376 751.438 442.582C750.65 441.794 749.696 441.4 748.576 441.4C747.456 441.4 746.512 441.794 745.744 442.582C744.963 443.376 744.572 444.35 744.572 445.502C744.572 446.654 744.963 447.628 745.744 448.422ZM765.344 442.475L763.566 442.641C763.449 442.25 763.176 441.924 762.746 441.664C762.31 441.397 761.815 441.264 761.262 441.264C760.572 441.264 759.999 441.404 759.543 441.684C759.081 441.97 758.85 442.374 758.85 442.895C758.85 443.207 758.928 443.461 759.084 443.656C759.24 443.852 759.481 444.027 759.807 444.184C759.976 444.268 760.35 444.395 760.93 444.564C761.112 444.61 761.346 444.669 761.633 444.74C762.753 445.001 763.605 445.277 764.191 445.57C764.543 445.753 764.82 445.945 765.021 446.146C765.458 446.583 765.673 447.152 765.666 447.855C765.646 448.878 765.246 449.675 764.465 450.248C763.671 450.827 762.629 451.117 761.34 451.117C760.103 451.117 759.081 450.88 758.273 450.404C757.453 449.929 756.952 449.239 756.77 448.334L758.547 448.129C758.716 448.656 759.064 449.053 759.592 449.32C760.126 449.587 760.708 449.721 761.34 449.721C762.062 449.721 762.665 449.568 763.146 449.262C763.622 448.962 763.859 448.539 763.859 447.992C763.859 447.504 763.618 447.11 763.137 446.811C762.655 446.505 761.91 446.238 760.9 446.01C759.462 445.665 758.465 445.287 757.912 444.877C757.346 444.467 757.062 443.826 757.062 442.953C757.062 441.964 757.447 441.202 758.215 440.668C758.99 440.128 760.018 439.857 761.301 439.857C762.408 439.857 763.312 440.082 764.016 440.531C764.725 440.98 765.168 441.628 765.344 442.475ZM778.635 451H776.848V445.502C776.848 444.141 776.581 443.119 776.047 442.436C775.513 441.745 774.68 441.4 773.547 441.4C772.421 441.4 771.496 441.788 770.773 442.562C770.051 443.331 769.689 444.311 769.689 445.502V451H767.893V436H769.689V441.947C770.067 441.283 770.637 440.769 771.398 440.404C772.16 440.04 773.062 439.857 774.104 439.857C775.692 439.857 776.844 440.342 777.561 441.312C778.277 442.283 778.635 443.679 778.635 445.502V451ZM786.232 439.857C787.268 439.857 788.179 440.043 788.967 440.414C789.755 440.785 790.337 441.296 790.715 441.947L790.783 440.004H792.502V451H790.783L790.715 449.047C790.025 450.44 788.531 451.137 786.232 451.137C785.249 451.137 784.351 450.893 783.537 450.404C782.723 449.929 782.076 449.255 781.594 448.383C781.112 447.51 780.871 446.55 780.871 445.502C780.871 444.454 781.112 443.493 781.594 442.621C782.069 441.755 782.717 441.078 783.537 440.59C784.351 440.102 785.249 439.857 786.232 439.857ZM783.85 448.422C784.618 449.21 785.562 449.604 786.682 449.604C787.788 449.604 788.739 449.206 789.533 448.412C790.321 447.624 790.715 446.654 790.715 445.502C790.715 444.35 790.324 443.376 789.543 442.582C788.755 441.794 787.801 441.4 786.682 441.4C785.562 441.4 784.618 441.794 783.85 442.582C783.068 443.376 782.678 444.35 782.678 445.502C782.678 446.654 783.068 447.628 783.85 448.422ZM809.689 439.857C811.213 439.857 812.294 440.365 812.932 441.381C813.531 442.344 813.83 443.718 813.83 445.502V451H812.043V445.502C812.043 444.141 811.805 443.119 811.33 442.436C810.861 441.745 810.116 441.4 809.094 441.4C807.974 441.4 807.102 441.778 806.477 442.533C805.852 443.282 805.539 444.271 805.539 445.502V451H803.742V445.502C803.742 444.135 803.505 443.109 803.029 442.426C802.554 441.742 801.805 441.4 800.783 441.4C799.663 441.4 798.791 441.778 798.166 442.533C797.541 443.282 797.229 444.271 797.229 445.502V451H795.432V440.004H797.15L797.229 441.947C797.6 441.212 798.114 440.681 798.771 440.355C799.436 440.023 800.308 439.857 801.389 439.857C803.27 439.857 804.501 440.678 805.08 442.318C805.432 441.518 805.998 440.909 806.779 440.492C807.567 440.069 808.537 439.857 809.689 439.857ZM821.428 439.857C822.463 439.857 823.374 440.043 824.162 440.414C824.95 440.785 825.533 441.296 825.91 441.947L825.979 440.004H827.697V451H825.979L825.91 449.047C825.22 450.44 823.726 451.137 821.428 451.137C820.445 451.137 819.546 450.893 818.732 450.404C817.919 449.929 817.271 449.255 816.789 448.383C816.307 447.51 816.066 446.55 816.066 445.502C816.066 444.454 816.307 443.493 816.789 442.621C817.264 441.755 817.912 441.078 818.732 440.59C819.546 440.102 820.445 439.857 821.428 439.857ZM819.045 448.422C819.813 449.21 820.757 449.604 821.877 449.604C822.984 449.604 823.934 449.206 824.729 448.412C825.516 447.624 825.91 446.654 825.91 445.502C825.91 444.35 825.52 443.376 824.738 442.582C823.951 441.794 822.997 441.4 821.877 441.4C820.757 441.4 819.813 441.794 819.045 442.582C818.264 443.376 817.873 444.35 817.873 445.502C817.873 446.654 818.264 447.628 819.045 448.422ZM831.857 440.004V437.484H833.654V440.004H836.662V441.43H833.654V447.729C833.654 448.327 833.755 448.773 833.957 449.066C834.165 449.353 834.501 449.509 834.963 449.535C835.477 449.6 836.044 449.571 836.662 449.447V450.941C835.959 451.065 835.318 451.127 834.738 451.127C833.716 451.127 832.98 450.857 832.531 450.316C832.082 449.776 831.857 448.93 831.857 447.777V441.43H830.178V440.004H831.857Z" fill="#10355B"/>
</g>
<defs>
<clipPath id="clip0_1885_39">
<rect width="1460" height="547" rx="10" fill="white"/>
</clipPath>
</defs>
</svg>
