<svg width="22" height="22" viewBox="0 0 22 22" fill="none" xmlns="http://www.w3.org/2000/svg">
<path fill-rule="evenodd" clip-rule="evenodd" d="M0 1.10002C0 0.4925 0.4925 0 1.10002 0H4.05601C4.57688 0 5.02635 0.36532 5.1328 0.8752L5.86874 4.40007H19.8003C21.0154 4.40007 22.0004 5.38506 22.0004 6.60011V11.3577C22.0004 12.3992 21.2702 13.2979 20.2507 13.5112L8.29709 16.0113C7.1077 16.26 5.94187 15.4975 5.69321 14.308L3.16193 2.20004H1.10002C0.4925 2.20004 0 1.70754 0 1.10002ZM7.61866 12.7815C7.74285 13.3763 8.3258 13.7578 8.9206 13.6335L18.9255 11.5416C19.4351 11.435 19.8003 10.9855 19.8003 10.4648V7.70012C19.8003 7.09261 19.3078 6.60011 18.7003 6.60011H6.32807L7.61866 12.7815Z" fill="white"/>
<path d="M7.00003 21.9999C8.10462 21.9999 9.0001 21.1045 9.0001 19.9999C9.0001 18.8953 8.10462 17.9999 7.00003 17.9999C5.89544 17.9999 5 18.8953 5 19.9999C5 21.1045 5.89544 21.9999 7.00003 21.9999Z" fill="white"/>
<path d="M17 21.9999C18.1046 21.9999 19.0001 21.1045 19.0001 19.9999C19.0001 18.8953 18.1046 17.9999 17 17.9999C15.8954 17.9999 15 18.8953 15 19.9999C15 21.1045 15.8954 21.9999 17 21.9999Z" fill="white"/>
</svg>
