<svg width="20" height="20" viewBox="0 0 20 20" fill="none" xmlns="http://www.w3.org/2000/svg">
<path d="M19.1321 4.71626C19.1085 4.5121 18.9829 4.32758 18.7905 4.23728L9.81924 0.0559458C9.65825 -0.0186486 9.47374 -0.0186486 9.31275 0.0559458L0.3455 4.2412C0.153119 4.33151 0.0274825 4.5121 0.00392572 4.72019C0.00392572 4.72412 0 4.78301 0 4.78301V14.9478C0 15.1912 0.149193 15.411 0.376908 15.5013L9.3481 19.0898C9.41879 19.1173 9.49342 19.1331 9.5719 19.1331C9.65046 19.1331 9.72107 19.1173 9.7957 19.0898L18.7669 15.5013C18.9946 15.411 19.1438 15.1912 19.1438 14.9478V4.78301C19.136 4.77908 19.1321 4.72019 19.1321 4.71626ZM9.56796 1.14741C12.1357 2.34488 14.7034 3.54235 17.2711 4.73982C16.2581 5.15599 15.2491 5.57217 14.2362 5.98833C11.6096 4.87331 8.98694 3.75829 6.36033 2.64327C7.42824 2.14465 8.50006 1.64603 9.56796 1.14741ZM5.03331 3.25967C7.61277 4.35506 10.1922 5.44653 12.7717 6.54192C11.7038 6.97379 10.6359 7.40567 9.56796 7.83752C6.99244 6.8089 4.4169 5.78024 1.84136 4.7516C2.90534 4.2569 3.96932 3.75829 5.03331 3.25967ZM1.08361 5.61535L8.9634 8.76807V17.7628L1.08361 14.6102V5.61535ZM10.1726 17.7628V8.76413L18.0523 5.61142V14.6062L10.1726 17.7628Z" fill="#7D7D7D"/>
</svg>
