<svg width="20" height="20" viewBox="0 0 20 20" fill="none" xmlns="http://www.w3.org/2000/svg">
<path fill-rule="evenodd" clip-rule="evenodd" d="M0 1.00002C0 0.447729 0.447729 0 1.00002 0H3.6873C4.16082 0 4.56943 0.332111 4.6662 0.79564L5.33524 4.00008H18.0004C19.105 4.00008 20.0005 4.89553 20.0005 6.00013V10.3252C20.0005 11.2721 19.3366 12.0891 18.4098 12.283L7.54284 14.5558C6.46157 14.7819 5.40172 14.0887 5.17567 13.0073L2.87449 2.00005H1.00002C0.447729 2.00005 0 1.55232 0 1.00002ZM6.92609 11.6196C7.03899 12.1603 7.56894 12.5071 8.10967 12.3941L17.2051 10.4924C17.6684 10.3955 18.0004 9.98686 18.0004 9.5135V7.00014C18.0004 6.44786 17.5526 6.00013 17.0003 6.00013H5.75282L6.92609 11.6196Z" fill="#969B9F"/>
<path d="M6.36314 20C7.36732 20 8.18139 19.186 8.18139 18.1818C8.18139 17.1777 7.36732 16.3636 6.36314 16.3636C5.35896 16.3636 4.54492 17.1777 4.54492 18.1818C4.54492 19.186 5.35896 20 6.36314 20Z" fill="#969B9F"/>
<path d="M15.4549 20C16.4591 20 17.2732 19.186 17.2732 18.1818C17.2732 17.1777 16.4591 16.3636 15.4549 16.3636C14.4507 16.3636 13.6367 17.1777 13.6367 18.1818C13.6367 19.186 14.4507 20 15.4549 20Z" fill="#969B9F"/>
</svg>
