<svg width="30" height="30" viewBox="0 0 30 30" fill="none" xmlns="http://www.w3.org/2000/svg">
<g clip-path="url(#clip0_326_1028)">
<path fill-rule="evenodd" clip-rule="evenodd" d="M12.2742 0.247289C13.159 0.0847577 14.0701 0 15 0C23.2843 0 30 6.71572 30 15C30 23.2843 23.2843 30 15 30C14.0701 30 13.159 29.9153 12.2742 29.7528C11.5952 29.628 11.1459 28.9765 11.2706 28.2975C11.3953 27.6185 12.0468 27.1691 12.7259 27.2939C13.4624 27.4291 14.2224 27.5 15 27.5C21.9035 27.5 27.5 21.9035 27.5 15C27.5 8.09644 21.9035 2.5 15 2.5C14.2224 2.5 13.4624 2.57086 12.7259 2.70615C12.0468 2.83088 11.3953 2.38155 11.2706 1.70255C11.1459 1.02355 11.5952 0.37201 12.2742 0.247289ZM9.20701 2.4636C9.55269 3.06118 9.34849 3.82584 8.75091 4.17151C7.04566 5.15794 5.59435 6.53614 4.52075 8.18271C4.1437 8.76101 3.36924 8.92415 2.79095 8.54709C2.21265 8.17004 2.04953 7.39557 2.42657 6.81729C3.71385 4.84297 5.4534 3.19086 7.49909 2.0075C8.09666 1.66181 8.86133 1.86602 9.20701 2.4636ZM22.1086 10.3416C22.6104 10.8158 22.6326 11.6069 22.1585 12.1086L14.1171 20.6165C13.3188 21.4611 11.9937 21.4611 11.1954 20.6165L7.84156 17.0681C7.36735 16.5664 7.38966 15.7752 7.89137 15.301C8.3931 14.8269 9.18424 14.8491 9.65844 15.3509L12.6562 18.5226L20.3415 10.3914C20.8157 9.88966 21.6069 9.86735 22.1086 10.3416ZM1.88963 10.6574C2.56206 10.8137 2.9805 11.4855 2.82423 12.158C2.61231 13.0697 2.5 14.021 2.5 15C2.5 15.979 2.61231 16.9303 2.82423 17.842C2.9805 18.5145 2.56206 19.1863 1.88963 19.3425C1.2172 19.4989 0.545393 19.0804 0.389116 18.408C0.13439 17.3119 0 16.1709 0 15C0 13.8291 0.13439 12.6881 0.389116 11.592C0.545393 10.9196 1.2172 10.5012 1.88963 10.6574ZM2.79095 21.4529C3.36924 21.0759 4.1437 21.239 4.52075 21.8172C5.59435 23.4639 7.04566 24.842 8.75091 25.8285C9.34849 26.1741 9.55269 26.9389 9.20701 27.5364C8.86133 28.134 8.09666 28.3381 7.49909 27.9925C5.4534 26.8091 3.71385 25.157 2.42657 23.1828C2.04953 22.6044 2.21265 21.83 2.79095 21.4529Z" fill="#4AE431"/>
</g>
<defs>
<clipPath id="clip0_326_1028">
<rect width="30" height="30" fill="white"/>
</clipPath>
</defs>
</svg>
