<svg width="537" height="54" viewBox="0 0 537 54" fill="none" xmlns="http://www.w3.org/2000/svg">
<path d="M269.537 20.4102C269.239 20.4102 268.993 20.3195 268.801 20.1382C268.62 19.9462 268.529 19.7115 268.529 19.4342V10.1862C268.529 9.90882 268.62 9.67949 268.801 9.49816C268.993 9.30616 269.228 9.21016 269.505 9.21016H274.705C274.983 9.21016 275.212 9.30082 275.393 9.48216C275.585 9.65282 275.681 9.87682 275.681 10.1542C275.681 10.3888 275.585 10.5968 275.393 10.7782C275.212 10.9595 274.983 11.0502 274.705 11.0502H270.385L270.529 10.8582V14.0742L270.417 13.8662H273.985C274.263 13.8662 274.492 13.9568 274.673 14.1382C274.865 14.3088 274.961 14.5328 274.961 14.8102C274.961 15.0448 274.865 15.2528 274.673 15.4342C274.492 15.6155 274.263 15.7062 273.985 15.7062H270.385L270.529 15.5622V19.4342C270.529 19.7115 270.428 19.9462 270.225 20.1382C270.033 20.3195 269.804 20.4102 269.537 20.4102ZM285.423 16.1382C285.423 17.0128 285.226 17.7862 284.831 18.4582C284.447 19.1195 283.925 19.6368 283.263 20.0102C282.613 20.3835 281.882 20.5702 281.071 20.5702C280.261 20.5702 279.525 20.3835 278.863 20.0102C278.213 19.6368 277.69 19.1195 277.295 18.4582C276.911 17.7862 276.719 17.0128 276.719 16.1382C276.719 15.2635 276.911 14.4955 277.295 13.8342C277.69 13.1622 278.213 12.6395 278.863 12.2662C279.525 11.8822 280.261 11.6902 281.071 11.6902C281.882 11.6902 282.613 11.8822 283.263 12.2662C283.925 12.6395 284.447 13.1622 284.831 13.8342C285.226 14.4955 285.423 15.2635 285.423 16.1382ZM283.503 16.1382C283.503 15.5942 283.391 15.1248 283.167 14.7302C282.954 14.3248 282.661 14.0102 282.287 13.7862C281.925 13.5622 281.519 13.4502 281.071 13.4502C280.623 13.4502 280.213 13.5622 279.839 13.7862C279.477 14.0102 279.183 14.3248 278.959 14.7302C278.746 15.1248 278.639 15.5942 278.639 16.1382C278.639 16.6715 278.746 17.1408 278.959 17.5462C279.183 17.9408 279.477 18.2502 279.839 18.4742C280.213 18.6982 280.623 18.8102 281.071 18.8102C281.519 18.8102 281.925 18.6982 282.287 18.4742C282.661 18.2502 282.954 17.9408 283.167 17.5462C283.391 17.1408 283.503 16.6715 283.503 16.1382ZM289.184 19.4342C289.184 19.7115 289.088 19.9462 288.896 20.1382C288.714 20.3195 288.485 20.4102 288.208 20.4102C287.941 20.4102 287.717 20.3195 287.536 20.1382C287.354 19.9462 287.264 19.7115 287.264 19.4342V9.54616C287.264 9.26882 287.354 9.03949 287.536 8.85816C287.728 8.66616 287.962 8.57016 288.24 8.57016C288.517 8.57016 288.741 8.66616 288.912 8.85816C289.093 9.03949 289.184 9.26882 289.184 9.54616V19.4342ZM293.496 19.4342C293.496 19.7115 293.4 19.9462 293.208 20.1382C293.027 20.3195 292.798 20.4102 292.52 20.4102C292.254 20.4102 292.03 20.3195 291.848 20.1382C291.667 19.9462 291.576 19.7115 291.576 19.4342V9.54616C291.576 9.26882 291.667 9.03949 291.848 8.85816C292.04 8.66616 292.275 8.57016 292.552 8.57016C292.83 8.57016 293.054 8.66616 293.224 8.85816C293.406 9.03949 293.496 9.26882 293.496 9.54616V19.4342ZM303.876 16.1382C303.876 17.0128 303.679 17.7862 303.284 18.4582C302.9 19.1195 302.378 19.6368 301.716 20.0102C301.066 20.3835 300.335 20.5702 299.524 20.5702C298.714 20.5702 297.978 20.3835 297.316 20.0102C296.666 19.6368 296.143 19.1195 295.748 18.4582C295.364 17.7862 295.172 17.0128 295.172 16.1382C295.172 15.2635 295.364 14.4955 295.748 13.8342C296.143 13.1622 296.666 12.6395 297.316 12.2662C297.978 11.8822 298.714 11.6902 299.524 11.6902C300.335 11.6902 301.066 11.8822 301.716 12.2662C302.378 12.6395 302.9 13.1622 303.284 13.8342C303.679 14.4955 303.876 15.2635 303.876 16.1382ZM301.956 16.1382C301.956 15.5942 301.844 15.1248 301.62 14.7302C301.407 14.3248 301.114 14.0102 300.74 13.7862C300.378 13.5622 299.972 13.4502 299.524 13.4502C299.076 13.4502 298.666 13.5622 298.292 13.7862C297.93 14.0102 297.636 14.3248 297.412 14.7302C297.199 15.1248 297.092 15.5942 297.092 16.1382C297.092 16.6715 297.199 17.1408 297.412 17.5462C297.636 17.9408 297.93 18.2502 298.292 18.4742C298.666 18.6982 299.076 18.8102 299.524 18.8102C299.972 18.8102 300.378 18.6982 300.74 18.4742C301.114 18.2502 301.407 17.9408 301.62 17.5462C301.844 17.1408 301.956 16.6715 301.956 16.1382ZM315.413 11.8502C315.658 11.8502 315.871 11.9462 316.053 12.1382C316.234 12.3195 316.325 12.5542 316.325 12.8422C316.325 12.9168 316.319 12.9862 316.309 13.0502C316.298 13.1035 316.282 13.1568 316.261 13.2102L313.813 19.8022C313.738 20.0155 313.605 20.1808 313.413 20.2982C313.221 20.4048 313.018 20.4422 312.805 20.4102C312.442 20.3888 312.17 20.1862 311.989 19.8022L310.405 15.2422L310.821 15.2582L309.333 19.8022C309.151 20.1862 308.879 20.3888 308.517 20.4102C308.314 20.4422 308.111 20.4048 307.909 20.2982C307.717 20.1808 307.583 20.0155 307.509 19.8022L305.061 13.2102C305.018 13.0928 304.997 12.9702 304.997 12.8422C304.997 12.5862 305.082 12.3568 305.253 12.1542C305.423 11.9515 305.658 11.8502 305.957 11.8502C306.159 11.8502 306.341 11.8982 306.501 11.9942C306.661 12.0902 306.773 12.2448 306.837 12.4582L308.773 17.7062L308.373 17.6742L309.829 13.7222C309.999 13.3275 310.293 13.1302 310.709 13.1302C310.943 13.1302 311.119 13.1835 311.237 13.2902C311.365 13.3862 311.466 13.5302 311.541 13.7222L312.997 17.6742L312.517 17.7382L314.485 12.4582C314.613 12.0528 314.922 11.8502 315.413 11.8502ZM330.434 9.19416C330.712 9.19416 330.936 9.29016 331.106 9.48216C331.277 9.66349 331.362 9.89282 331.362 10.1702V15.9622C331.362 16.8475 331.17 17.6315 330.786 18.3142C330.413 18.9968 329.896 19.5302 329.234 19.9142C328.573 20.2982 327.805 20.4902 326.93 20.4902C326.056 20.4902 325.282 20.2982 324.61 19.9142C323.949 19.5302 323.426 18.9968 323.042 18.3142C322.669 17.6315 322.482 16.8475 322.482 15.9622V10.1702C322.482 9.89282 322.578 9.66349 322.77 9.48216C322.962 9.29016 323.208 9.19416 323.506 9.19416C323.752 9.19416 323.97 9.29016 324.162 9.48216C324.365 9.66349 324.466 9.89282 324.466 10.1702V15.9622C324.466 16.4955 324.578 16.9595 324.802 17.3542C325.037 17.7382 325.341 18.0368 325.714 18.2502C326.098 18.4635 326.504 18.5702 326.93 18.5702C327.389 18.5702 327.816 18.4635 328.21 18.2502C328.605 18.0368 328.925 17.7382 329.17 17.3542C329.416 16.9595 329.538 16.4955 329.538 15.9622V10.1702C329.538 9.89282 329.618 9.66349 329.778 9.48216C329.938 9.29016 330.157 9.19416 330.434 9.19416ZM333.108 19.0822C333.001 18.9328 332.953 18.7408 332.964 18.5062C332.974 18.2715 333.113 18.0688 333.38 17.8982C333.55 17.7915 333.732 17.7488 333.924 17.7702C334.116 17.7808 334.302 17.8768 334.484 18.0582C334.793 18.3675 335.118 18.6075 335.46 18.7782C335.801 18.9488 336.228 19.0342 336.74 19.0342C336.9 19.0235 337.076 19.0022 337.268 18.9702C337.46 18.9275 337.625 18.8422 337.764 18.7142C337.913 18.5755 337.988 18.3675 337.988 18.0902C337.988 17.8555 337.908 17.6688 337.748 17.5302C337.588 17.3915 337.374 17.2742 337.108 17.1782C336.852 17.0822 336.564 16.9915 336.244 16.9062C335.913 16.8102 335.572 16.7035 335.22 16.5862C334.878 16.4688 334.564 16.3195 334.276 16.1382C333.988 15.9462 333.753 15.6955 333.572 15.3862C333.39 15.0768 333.3 14.6875 333.3 14.2182C333.3 13.6848 333.449 13.2315 333.748 12.8582C334.046 12.4848 334.43 12.1968 334.9 11.9942C335.38 11.7915 335.881 11.6902 336.404 11.6902C336.734 11.6902 337.081 11.7328 337.444 11.8182C337.806 11.8928 338.153 12.0208 338.484 12.2022C338.814 12.3728 339.092 12.6022 339.316 12.8902C339.433 13.0502 339.502 13.2422 339.524 13.4662C339.545 13.6902 339.444 13.8928 339.22 14.0742C339.06 14.2022 338.873 14.2608 338.66 14.2502C338.446 14.2288 338.27 14.1542 338.132 14.0262C337.95 13.7915 337.705 13.6048 337.396 13.4662C337.097 13.3275 336.75 13.2582 336.356 13.2582C336.196 13.2582 336.02 13.2795 335.828 13.3222C335.646 13.3542 335.486 13.4342 335.348 13.5622C335.209 13.6795 335.14 13.8715 335.14 14.1382C335.14 14.3835 335.22 14.5808 335.38 14.7302C335.54 14.8688 335.753 14.9862 336.02 15.0822C336.297 15.1675 336.59 15.2528 336.9 15.3382C337.22 15.4235 337.545 15.5248 337.876 15.6422C338.206 15.7595 338.51 15.9142 338.788 16.1062C339.065 16.2982 339.289 16.5488 339.46 16.8582C339.63 17.1568 339.716 17.5408 339.716 18.0102C339.716 18.5542 339.556 19.0182 339.236 19.4022C338.916 19.7862 338.516 20.0795 338.036 20.2822C337.556 20.4742 337.065 20.5702 336.564 20.5702C335.934 20.5702 335.305 20.4635 334.676 20.2502C334.046 20.0262 333.524 19.6368 333.108 19.0822Z" fill="#253D4E"/>
<rect x="354.969" width="30" height="30" rx="15" fill="#3BB77E"/>
<g clip-path="url(#clip0_6511_2027)">
<g clip-path="url(#clip1_6511_2027)">
<path fill-rule="evenodd" clip-rule="evenodd" d="M368.432 15.0518V20.7809C368.432 20.8583 368.496 20.9357 368.586 20.9357H370.716C370.793 20.9357 370.87 20.8712 370.87 20.7809V14.9486H372.406C372.483 14.9486 372.548 14.8841 372.561 14.8067L372.69 13.0647C372.703 12.9744 372.625 12.897 372.535 12.897H370.857V11.6583C370.857 11.3615 371.09 11.1292 371.386 11.1292H372.574C372.651 11.1292 372.728 11.0647 372.728 10.9744V9.23248C372.728 9.15506 372.664 9.07764 372.574 9.07764H370.561C369.386 9.07764 368.432 10.0325 368.432 11.2067V12.897H367.374C367.296 12.897 367.219 12.9615 367.219 13.0518V14.8067C367.219 14.8841 367.283 14.9615 367.374 14.9615H368.432V15.0518Z" fill="white"/>
</g>
</g>
<rect x="389.969" width="30" height="30" rx="15" fill="#3BB77E"/>
<g clip-path="url(#clip2_6511_2027)">
<g clip-path="url(#clip3_6511_2027)">
<path d="M410.684 11.7224C410.322 11.8901 409.909 11.9933 409.522 12.0578C409.716 12.032 409.987 11.6836 410.103 11.5546C410.271 11.3482 410.413 11.103 410.49 10.8449C410.503 10.8191 410.503 10.7933 410.49 10.7804C410.464 10.7675 410.451 10.7804 410.426 10.7804C409.987 11.0127 409.535 11.1933 409.045 11.3095C409.006 11.3224 408.98 11.3095 408.955 11.2836C408.916 11.232 408.877 11.1933 408.838 11.1546C408.632 10.9869 408.413 10.8449 408.167 10.7417C407.845 10.6127 407.484 10.5482 407.135 10.574C406.8 10.5998 406.464 10.6901 406.167 10.8449C405.871 10.9998 405.6 11.2191 405.38 11.4901C405.161 11.7611 404.993 12.0836 404.916 12.432C404.838 12.7675 404.838 13.0901 404.89 13.4256C404.903 13.4772 404.89 13.4901 404.838 13.4772C402.929 13.2062 401.355 12.5353 400.077 11.0772C400.026 11.0127 399.987 11.0127 399.948 11.0772C399.393 11.9159 399.664 13.2578 400.361 13.9288C400.451 14.0191 400.555 14.1095 400.658 14.1869C400.619 14.1998 400.155 14.1482 399.742 13.9288C399.69 13.8901 399.664 13.9159 399.651 13.9804C399.651 14.0707 399.651 14.1482 399.664 14.2514C399.767 15.103 400.361 15.8901 401.161 16.1869C401.251 16.2256 401.367 16.2643 401.471 16.2772C401.29 16.3159 401.097 16.3417 400.567 16.303C400.503 16.2901 400.477 16.3288 400.503 16.3804C400.89 17.4643 401.742 17.7869 402.387 17.9675C402.477 17.9804 402.555 17.9804 402.645 18.0062C402.645 18.0191 402.632 18.0191 402.632 18.0191C402.426 18.3417 401.69 18.5869 401.342 18.703C400.722 18.9224 400.038 19.0127 399.38 18.9482C399.277 18.9353 399.251 18.9353 399.226 18.9482C399.2 18.9611 399.226 18.9869 399.251 19.0127C399.38 19.103 399.522 19.1804 399.664 19.2578C400.077 19.4772 400.516 19.6578 400.967 19.7869C403.316 20.432 405.974 19.9546 407.742 18.1998C409.122 16.832 409.613 14.9353 409.613 13.0256C409.613 12.9482 409.703 12.9095 409.755 12.8707C410.116 12.5998 410.4 12.2772 410.671 11.9159C410.735 11.8385 410.722 11.7611 410.722 11.7353V11.7224C410.722 11.6965 410.735 11.6965 410.684 11.7224Z" fill="white"/>
<path fill-rule="evenodd" clip-rule="evenodd" d="M402.632 20.0324C402.671 20.0324 403.6 20.0324 402.632 20.0324C402.619 20.0324 402.761 20.0324 402.632 20.0324ZM402.632 20.0324C402.438 20.0324 402.619 20.0324 402.632 20.0324V20.0324ZM403.019 20.0453C403.019 20.0195 403.225 20.0453 403.019 20.0453C403.019 20.0324 403.045 20.0453 403.019 20.0453ZM407.096 10.6001C407.084 10.613 407.071 10.613 407.045 10.6001C407.058 10.6001 407.084 10.6001 407.096 10.6001Z" fill="white"/>
</g>
</g>
<rect x="424.969" width="30" height="30" rx="15" fill="#3BB77E"/>
<g clip-path="url(#clip4_6511_2027)">
<g clip-path="url(#clip5_6511_2027)">
<path d="M443.22 11.3354C442.82 11.3354 442.498 11.658 442.498 12.058C442.498 12.458 442.82 12.7806 443.22 12.7806C443.62 12.7806 443.943 12.458 443.943 12.058C443.943 11.658 443.62 11.3354 443.22 11.3354ZM439.994 12.2645C438.317 12.2645 436.949 13.6322 436.949 15.3096C436.949 16.987 438.317 18.3548 439.994 18.3548C441.672 18.3548 443.039 16.987 443.039 15.3096C443.039 13.6322 441.672 12.2645 439.994 12.2645ZM439.994 17.2709C438.91 17.2709 438.046 16.3935 438.046 15.3225C438.046 14.2386 438.923 13.3741 439.994 13.3741C441.078 13.3741 441.943 14.2515 441.943 15.3225C441.943 16.3935 441.065 17.2709 439.994 17.2709ZM446.149 12.7806C446.149 10.729 444.485 9.06445 442.433 9.06445H437.517C435.465 9.06445 433.801 10.729 433.801 12.7806V17.6967C433.801 19.7483 435.465 21.4128 437.517 21.4128H442.42C444.472 21.4128 446.136 19.7483 446.136 17.6967V12.7806H446.149ZM444.975 17.6838C444.975 19.0903 443.827 20.2386 442.42 20.2386H437.517C436.11 20.2386 434.962 19.0903 434.962 17.6838V12.7806C434.962 11.3612 436.098 10.2257 437.517 10.2257H442.42C443.827 10.2257 444.975 11.3741 444.975 12.7806V17.6838Z" fill="white"/>
</g>
</g>
<rect x="459.969" width="30" height="30" rx="15" fill="#3BB77E"/>
<g clip-path="url(#clip6_6511_2027)">
<g clip-path="url(#clip7_6511_2027)">
<path d="M475.716 17.8131C475.006 17.7615 474.71 17.4131 474.155 17.0776C473.91 18.3679 473.613 19.6195 472.929 20.4711C472.722 20.7163 472.322 20.6002 472.31 20.2776C472.206 18.2131 472.916 16.5744 473.264 14.8582C472.606 13.7357 473.342 11.4905 474.748 12.0453C476.477 12.7292 473.251 16.2002 475.419 16.6389C477.677 17.0776 478.606 12.7163 477.2 11.297C475.174 9.24534 471.316 11.2453 471.793 14.1873C471.884 14.7421 472.348 15.0002 472.297 15.555C472.258 15.9034 471.91 16.097 471.6 15.955C470.71 15.5421 470.426 14.626 470.464 13.4518C470.542 11.2324 472.464 9.67114 474.387 9.45179C476.826 9.18082 479.11 10.3421 479.419 12.6389C479.78 15.2066 478.322 18.0066 475.716 17.8131Z" fill="white"/>
</g>
</g>
<rect x="494.969" width="30" height="30" rx="15" fill="#3BB77E"/>
<g clip-path="url(#clip8_6511_2027)">
<g clip-path="url(#clip9_6511_2027)">
<path d="M515.801 13.4516C515.801 12.0452 514.666 10.9097 513.259 10.9097H506.679C505.272 10.9097 504.137 12.0452 504.137 13.4516V16.5484C504.137 17.9548 505.272 19.0903 506.679 19.0903H513.259C514.666 19.0903 515.801 17.9548 515.801 16.5484V13.4516ZM511.646 15.1548L509.027 16.6C508.911 16.6645 508.808 16.5742 508.808 16.4452V13.4903C508.808 13.3613 508.911 13.271 509.027 13.3355L511.672 14.8452C511.788 14.9226 511.763 15.0903 511.646 15.1548Z" fill="white"/>
</g>
</g>
<path d="M273.081 45.922C273.496 45.922 273.867 45.852 274.194 45.712C274.52 45.572 274.796 45.376 275.02 45.124C275.248 44.872 275.421 44.571 275.538 44.221C275.659 43.871 275.72 43.486 275.72 43.066V36.969H277.071V43.066C277.071 43.6447 276.977 44.1813 276.791 44.676C276.609 45.1707 276.345 45.6 276 45.964C275.659 46.3233 275.241 46.6057 274.747 46.811C274.252 47.0163 273.697 47.119 273.081 47.119C272.465 47.119 271.909 47.0163 271.415 46.811C270.92 46.6057 270.5 46.3233 270.155 45.964C269.809 45.6 269.543 45.1707 269.357 44.676C269.175 44.1813 269.084 43.6447 269.084 43.066V36.969H270.435V43.059C270.435 43.479 270.493 43.864 270.61 44.214C270.731 44.564 270.904 44.865 271.128 45.117C271.356 45.369 271.634 45.5673 271.961 45.712C272.292 45.852 272.665 45.922 273.081 45.922ZM280.259 45.292C280.487 45.6 280.737 45.817 281.008 45.943C281.278 46.069 281.582 46.132 281.918 46.132C282.58 46.132 283.089 45.8963 283.444 45.425C283.798 44.9537 283.976 44.2817 283.976 43.409C283.976 42.947 283.934 42.5503 283.85 42.219C283.77 41.8877 283.654 41.617 283.5 41.407C283.346 41.1923 283.157 41.036 282.933 40.938C282.709 40.84 282.454 40.791 282.17 40.791C281.764 40.791 281.407 40.8843 281.099 41.071C280.795 41.2577 280.515 41.5213 280.259 41.862V45.292ZM280.196 41.008C280.494 40.6393 280.84 40.343 281.232 40.119C281.624 39.895 282.072 39.783 282.576 39.783C282.986 39.783 283.357 39.8623 283.689 40.021C284.02 40.175 284.302 40.406 284.536 40.714C284.769 41.0173 284.949 41.3953 285.075 41.848C285.201 42.3007 285.264 42.821 285.264 43.409C285.264 43.9317 285.194 44.4193 285.054 44.872C284.914 45.32 284.711 45.7097 284.445 46.041C284.183 46.3677 283.861 46.6267 283.479 46.818C283.101 47.0047 282.674 47.098 282.198 47.098C281.764 47.098 281.39 47.0257 281.078 46.881C280.77 46.7317 280.497 46.5263 280.259 46.265V49.401H279.006V39.909H279.755C279.932 39.909 280.042 39.9953 280.084 40.168L280.196 41.008ZM292.612 47.112C292.052 47.112 291.621 46.9557 291.317 46.643C291.019 46.3303 290.869 45.88 290.869 45.292V40.952H290.015C289.941 40.952 289.878 40.931 289.826 40.889C289.775 40.8423 289.749 40.7723 289.749 40.679V40.182L290.911 40.035L291.198 37.844C291.212 37.774 291.243 37.718 291.289 37.676C291.341 37.6293 291.406 37.606 291.485 37.606H292.115V40.049H294.166V40.952H292.115V45.208C292.115 45.5067 292.188 45.7283 292.332 45.873C292.477 46.0177 292.664 46.09 292.892 46.09C293.023 46.09 293.135 46.0737 293.228 46.041C293.326 46.0037 293.41 45.964 293.48 45.922C293.55 45.88 293.609 45.8427 293.655 45.81C293.707 45.7727 293.751 45.754 293.788 45.754C293.854 45.754 293.912 45.7937 293.963 45.873L294.327 46.468C294.113 46.6687 293.854 46.8273 293.55 46.944C293.247 47.056 292.934 47.112 292.612 47.112ZM298.401 39.797C298.919 39.797 299.386 39.8833 299.801 40.056C300.216 40.2287 300.571 40.4737 300.865 40.791C301.159 41.1083 301.383 41.4933 301.537 41.946C301.696 42.394 301.775 42.8957 301.775 43.451C301.775 44.011 301.696 44.515 301.537 44.963C301.383 45.411 301.159 45.7937 300.865 46.111C300.571 46.4283 300.216 46.6733 299.801 46.846C299.386 47.014 298.919 47.098 298.401 47.098C297.878 47.098 297.407 47.014 296.987 46.846C296.572 46.6733 296.217 46.4283 295.923 46.111C295.629 45.7937 295.403 45.411 295.244 44.963C295.09 44.515 295.013 44.011 295.013 43.451C295.013 42.8957 295.09 42.394 295.244 41.946C295.403 41.4933 295.629 41.1083 295.923 40.791C296.217 40.4737 296.572 40.2287 296.987 40.056C297.407 39.8833 297.878 39.797 298.401 39.797ZM298.401 46.125C299.101 46.125 299.624 45.8917 299.969 45.425C300.314 44.9537 300.487 44.298 300.487 43.458C300.487 42.6133 300.314 41.9553 299.969 41.484C299.624 41.0127 299.101 40.777 298.401 40.777C298.046 40.777 297.736 40.8377 297.47 40.959C297.209 41.0803 296.989 41.2553 296.812 41.484C296.639 41.7127 296.509 41.995 296.42 42.331C296.336 42.6623 296.294 43.038 296.294 43.458C296.294 44.298 296.467 44.9537 296.812 45.425C297.162 45.8917 297.692 46.125 298.401 46.125ZM313.076 46.048V47H307.7V46.048H309.849V39.209C309.849 39.0037 309.856 38.796 309.87 38.586L308.085 40.119C308.025 40.1703 307.964 40.203 307.903 40.217C307.843 40.2263 307.787 40.2263 307.735 40.217C307.684 40.2077 307.635 40.189 307.588 40.161C307.546 40.133 307.514 40.1027 307.49 40.07L307.098 39.531L310.087 36.948H311.102V46.048H313.076ZM316.605 40.756C317.128 40.644 317.609 40.588 318.047 40.588C318.57 40.588 319.032 40.665 319.433 40.819C319.835 40.973 320.168 41.1853 320.434 41.456C320.705 41.7267 320.908 42.0463 321.043 42.415C321.183 42.7837 321.253 43.185 321.253 43.619C321.253 44.151 321.16 44.6317 320.973 45.061C320.791 45.4903 320.537 45.859 320.21 46.167C319.888 46.4703 319.508 46.7037 319.069 46.867C318.631 47.0303 318.157 47.112 317.648 47.112C317.354 47.112 317.072 47.0817 316.801 47.021C316.531 46.965 316.276 46.888 316.038 46.79C315.805 46.692 315.588 46.58 315.387 46.454C315.187 46.328 315.009 46.195 314.855 46.055L315.24 45.523C315.324 45.4017 315.434 45.341 315.569 45.341C315.663 45.341 315.768 45.3783 315.884 45.453C316.001 45.523 316.143 45.6023 316.311 45.691C316.479 45.7797 316.675 45.8613 316.899 45.936C317.128 46.006 317.399 46.041 317.711 46.041C318.061 46.041 318.376 45.985 318.656 45.873C318.936 45.761 319.177 45.6023 319.377 45.397C319.578 45.187 319.732 44.9373 319.839 44.648C319.947 44.3587 320 44.0343 320 43.675C320 43.3623 319.954 43.08 319.86 42.828C319.772 42.576 319.634 42.3613 319.447 42.184C319.265 42.0067 319.037 41.869 318.761 41.771C318.486 41.673 318.164 41.624 317.795 41.624C317.543 41.624 317.28 41.645 317.004 41.687C316.734 41.729 316.456 41.7967 316.171 41.89L315.387 41.659L316.192 36.969H320.945V37.515C320.945 37.6923 320.889 37.8393 320.777 37.956C320.67 38.068 320.483 38.124 320.217 38.124H317.067L316.605 40.756ZM327.246 39.391C327.246 39.783 327.186 40.1353 327.064 40.448C326.943 40.756 326.78 41.0173 326.574 41.232C326.374 41.442 326.138 41.603 325.867 41.715C325.601 41.827 325.319 41.883 325.02 41.883C324.708 41.883 324.416 41.827 324.145 41.715C323.875 41.603 323.639 41.442 323.438 41.232C323.242 41.0173 323.088 40.756 322.976 40.448C322.864 40.1353 322.808 39.783 322.808 39.391C322.808 38.9897 322.864 38.6327 322.976 38.32C323.088 38.0073 323.242 37.7437 323.438 37.529C323.639 37.3143 323.875 37.151 324.145 37.039C324.416 36.927 324.708 36.871 325.02 36.871C325.338 36.871 325.632 36.927 325.902 37.039C326.173 37.151 326.409 37.3143 326.609 37.529C326.81 37.7437 326.966 38.0073 327.078 38.32C327.19 38.6327 327.246 38.9897 327.246 39.391ZM326.28 39.391C326.28 39.083 326.248 38.8217 326.182 38.607C326.117 38.3923 326.026 38.2173 325.909 38.082C325.797 37.942 325.664 37.8417 325.51 37.781C325.356 37.7203 325.193 37.69 325.02 37.69C324.848 37.69 324.687 37.7203 324.537 37.781C324.388 37.8417 324.257 37.942 324.145 38.082C324.033 38.2173 323.945 38.3923 323.879 38.607C323.814 38.8217 323.781 39.083 323.781 39.391C323.781 39.6943 323.814 39.9533 323.879 40.168C323.945 40.378 324.033 40.5507 324.145 40.686C324.257 40.8167 324.388 40.9123 324.537 40.973C324.687 41.029 324.848 41.057 325.02 41.057C325.193 41.057 325.356 41.029 325.51 40.973C325.664 40.9123 325.797 40.8167 325.909 40.686C326.026 40.5507 326.117 40.378 326.182 40.168C326.248 39.9533 326.28 39.6943 326.28 39.391ZM330.795 37.179C330.842 37.123 330.896 37.074 330.956 37.032C331.022 36.99 331.108 36.969 331.215 36.969H332.118L324.782 46.797C324.74 46.8577 324.687 46.9067 324.621 46.944C324.556 46.9813 324.477 47 324.383 47H323.466L330.795 37.179ZM332.797 44.634C332.797 45.026 332.737 45.376 332.615 45.684C332.494 45.992 332.331 46.2533 332.125 46.468C331.925 46.678 331.689 46.839 331.418 46.951C331.152 47.063 330.87 47.119 330.571 47.119C330.254 47.119 329.96 47.063 329.689 46.951C329.423 46.839 329.19 46.678 328.989 46.468C328.793 46.2533 328.639 45.992 328.527 45.684C328.415 45.376 328.359 45.026 328.359 44.634C328.359 44.2327 328.415 43.8757 328.527 43.563C328.639 43.2457 328.793 42.9797 328.989 42.765C329.19 42.5503 329.423 42.387 329.689 42.275C329.96 42.163 330.254 42.107 330.571 42.107C330.884 42.107 331.176 42.163 331.446 42.275C331.722 42.387 331.957 42.5503 332.153 42.765C332.354 42.9797 332.51 43.2457 332.622 43.563C332.739 43.8757 332.797 44.2327 332.797 44.634ZM331.831 44.634C331.831 44.326 331.799 44.0647 331.733 43.85C331.668 43.6307 331.577 43.4533 331.46 43.318C331.348 43.1827 331.215 43.0847 331.061 43.024C330.907 42.9633 330.744 42.933 330.571 42.933C330.399 42.933 330.235 42.9633 330.081 43.024C329.932 43.0847 329.801 43.1827 329.689 43.318C329.577 43.4533 329.489 43.6307 329.423 43.85C329.363 44.0647 329.332 44.326 329.332 44.634C329.332 44.9373 329.363 45.194 329.423 45.404C329.489 45.614 329.577 45.7867 329.689 45.922C329.801 46.0527 329.932 46.1483 330.081 46.209C330.235 46.265 330.399 46.293 330.571 46.293C330.744 46.293 330.907 46.265 331.061 46.209C331.215 46.1483 331.348 46.0527 331.46 45.922C331.577 45.7867 331.668 45.614 331.733 45.404C331.799 45.194 331.831 44.9373 331.831 44.634ZM342.606 41.596C342.373 41.2833 342.121 41.0663 341.85 40.945C341.579 40.819 341.276 40.756 340.94 40.756C340.282 40.756 339.776 40.9917 339.421 41.463C339.066 41.9343 338.889 42.6063 338.889 43.479C338.889 43.941 338.929 44.3377 339.008 44.669C339.087 44.9957 339.204 45.2663 339.358 45.481C339.512 45.691 339.701 45.845 339.925 45.943C340.149 46.041 340.403 46.09 340.688 46.09C341.099 46.09 341.456 45.9967 341.759 45.81C342.067 45.6233 342.349 45.3597 342.606 45.019V41.596ZM343.852 36.689V47H343.11C342.933 47 342.821 46.9137 342.774 46.741L342.662 45.88C342.359 46.244 342.013 46.538 341.626 46.762C341.239 46.986 340.791 47.098 340.282 47.098C339.876 47.098 339.507 47.021 339.176 46.867C338.845 46.7083 338.562 46.4773 338.329 46.174C338.096 45.8707 337.916 45.4927 337.79 45.04C337.664 44.5873 337.601 44.067 337.601 43.479C337.601 42.9563 337.671 42.471 337.811 42.023C337.951 41.5703 338.152 41.1783 338.413 40.847C338.674 40.5157 338.994 40.2567 339.372 40.07C339.755 39.8787 340.184 39.783 340.66 39.783C341.094 39.783 341.465 39.8577 341.773 40.007C342.086 40.1517 342.363 40.3547 342.606 40.616V36.689H343.852ZM347.136 39.909V47H345.89V39.909H347.136ZM347.402 37.683C347.402 37.8043 347.376 37.9187 347.325 38.026C347.278 38.1287 347.213 38.222 347.129 38.306C347.05 38.3853 346.954 38.4483 346.842 38.495C346.735 38.5417 346.62 38.565 346.499 38.565C346.378 38.565 346.263 38.5417 346.156 38.495C346.053 38.4483 345.962 38.3853 345.883 38.306C345.804 38.222 345.741 38.1287 345.694 38.026C345.647 37.9187 345.624 37.8043 345.624 37.683C345.624 37.5617 345.647 37.4473 345.694 37.34C345.741 37.228 345.804 37.1323 345.883 37.053C345.962 36.969 346.053 36.9037 346.156 36.857C346.263 36.8103 346.378 36.787 346.499 36.787C346.62 36.787 346.735 36.8103 346.842 36.857C346.954 36.9037 347.05 36.969 347.129 37.053C347.213 37.1323 347.278 37.228 347.325 37.34C347.376 37.4473 347.402 37.5617 347.402 37.683ZM353.313 41.078C353.257 41.1807 353.171 41.232 353.054 41.232C352.984 41.232 352.905 41.2063 352.816 41.155C352.728 41.1037 352.618 41.0477 352.487 40.987C352.361 40.9217 352.21 40.8633 352.032 40.812C351.855 40.756 351.645 40.728 351.402 40.728C351.192 40.728 351.003 40.756 350.835 40.812C350.667 40.8633 350.523 40.9357 350.401 41.029C350.285 41.1223 350.194 41.232 350.128 41.358C350.068 41.4793 350.037 41.6123 350.037 41.757C350.037 41.939 350.089 42.0907 350.191 42.212C350.299 42.3333 350.439 42.4383 350.611 42.527C350.784 42.6157 350.98 42.695 351.199 42.765C351.419 42.8303 351.643 42.9027 351.871 42.982C352.105 43.0567 352.331 43.1407 352.55 43.234C352.77 43.3273 352.966 43.444 353.138 43.584C353.311 43.724 353.449 43.8967 353.551 44.102C353.659 44.3027 353.712 44.5453 353.712 44.83C353.712 45.1567 353.654 45.46 353.537 45.74C353.421 46.0153 353.248 46.2557 353.019 46.461C352.791 46.6617 352.511 46.8203 352.179 46.937C351.848 47.0537 351.465 47.112 351.031 47.112C350.537 47.112 350.089 47.0327 349.687 46.874C349.286 46.7107 348.945 46.503 348.665 46.251L348.959 45.775C348.997 45.7143 349.041 45.6677 349.092 45.635C349.144 45.6023 349.209 45.586 349.288 45.586C349.372 45.586 349.461 45.6187 349.554 45.684C349.648 45.7493 349.76 45.8217 349.89 45.901C350.026 45.9803 350.189 46.0527 350.38 46.118C350.572 46.1833 350.81 46.216 351.094 46.216C351.337 46.216 351.549 46.1857 351.731 46.125C351.913 46.0597 352.065 45.9733 352.186 45.866C352.308 45.7587 352.396 45.635 352.452 45.495C352.513 45.355 352.543 45.2057 352.543 45.047C352.543 44.851 352.49 44.69 352.382 44.564C352.28 44.4333 352.142 44.3237 351.969 44.235C351.797 44.1417 351.598 44.0623 351.374 43.997C351.155 43.927 350.929 43.8547 350.695 43.78C350.467 43.7053 350.24 43.6213 350.016 43.528C349.797 43.43 349.601 43.3087 349.428 43.164C349.256 43.0193 349.116 42.842 349.008 42.632C348.906 42.4173 348.854 42.1583 348.854 41.855C348.854 41.5843 348.91 41.3253 349.022 41.078C349.134 40.826 349.298 40.6067 349.512 40.42C349.727 40.2287 349.991 40.077 350.303 39.965C350.616 39.853 350.973 39.797 351.374 39.797C351.841 39.797 352.259 39.8717 352.627 40.021C353.001 40.1657 353.323 40.3663 353.593 40.623L353.313 41.078ZM360.175 41.169C360.138 41.2203 360.1 41.26 360.063 41.288C360.026 41.316 359.974 41.33 359.909 41.33C359.839 41.33 359.762 41.302 359.678 41.246C359.594 41.1853 359.489 41.12 359.363 41.05C359.242 40.98 359.09 40.917 358.908 40.861C358.731 40.8003 358.511 40.77 358.25 40.77C357.9 40.77 357.592 40.833 357.326 40.959C357.06 41.0803 356.836 41.2577 356.654 41.491C356.477 41.7243 356.341 42.0067 356.248 42.338C356.159 42.6693 356.115 43.0403 356.115 43.451C356.115 43.8803 356.164 44.263 356.262 44.599C356.36 44.9303 356.498 45.2103 356.675 45.439C356.857 45.663 357.074 45.8357 357.326 45.957C357.583 46.0737 357.87 46.132 358.187 46.132C358.49 46.132 358.74 46.097 358.936 46.027C359.132 45.9523 359.293 45.8707 359.419 45.782C359.55 45.6933 359.657 45.614 359.741 45.544C359.83 45.4693 359.916 45.432 360 45.432C360.103 45.432 360.182 45.4717 360.238 45.551L360.588 46.006C360.434 46.1973 360.259 46.3607 360.063 46.496C359.867 46.6313 359.655 46.7457 359.426 46.839C359.202 46.9277 358.966 46.993 358.719 47.035C358.472 47.077 358.22 47.098 357.963 47.098C357.52 47.098 357.107 47.0163 356.724 46.853C356.346 46.6897 356.017 46.454 355.737 46.146C355.457 45.8333 355.238 45.4507 355.079 44.998C354.92 44.5453 354.841 44.0297 354.841 43.451C354.841 42.9237 354.913 42.436 355.058 41.988C355.207 41.54 355.422 41.155 355.702 40.833C355.987 40.5063 356.334 40.252 356.745 40.07C357.16 39.888 357.636 39.797 358.173 39.797C358.672 39.797 359.111 39.8787 359.489 40.042C359.872 40.2007 360.21 40.427 360.504 40.721L360.175 41.169ZM364.792 39.797C365.31 39.797 365.776 39.8833 366.192 40.056C366.607 40.2287 366.962 40.4737 367.256 40.791C367.55 41.1083 367.774 41.4933 367.928 41.946C368.086 42.394 368.166 42.8957 368.166 43.451C368.166 44.011 368.086 44.515 367.928 44.963C367.774 45.411 367.55 45.7937 367.256 46.111C366.962 46.4283 366.607 46.6733 366.192 46.846C365.776 47.014 365.31 47.098 364.792 47.098C364.269 47.098 363.798 47.014 363.378 46.846C362.962 46.6733 362.608 46.4283 362.314 46.111C362.02 45.7937 361.793 45.411 361.635 44.963C361.481 44.515 361.404 44.011 361.404 43.451C361.404 42.8957 361.481 42.394 361.635 41.946C361.793 41.4933 362.02 41.1083 362.314 40.791C362.608 40.4737 362.962 40.2287 363.378 40.056C363.798 39.8833 364.269 39.797 364.792 39.797ZM364.792 46.125C365.492 46.125 366.014 45.8917 366.36 45.425C366.705 44.9537 366.878 44.298 366.878 43.458C366.878 42.6133 366.705 41.9553 366.36 41.484C366.014 41.0127 365.492 40.777 364.792 40.777C364.437 40.777 364.127 40.8377 363.861 40.959C363.599 41.0803 363.38 41.2553 363.203 41.484C363.03 41.7127 362.899 41.995 362.811 42.331C362.727 42.6623 362.685 43.038 362.685 43.458C362.685 44.298 362.857 44.9537 363.203 45.425C363.553 45.8917 364.082 46.125 364.792 46.125ZM375.577 39.909V47H374.835C374.658 47 374.546 46.9137 374.499 46.741L374.401 45.978C374.093 46.3187 373.748 46.594 373.365 46.804C372.982 47.0093 372.544 47.112 372.049 47.112C371.662 47.112 371.319 47.049 371.02 46.923C370.726 46.7923 370.479 46.6103 370.278 46.377C370.077 46.1437 369.926 45.8613 369.823 45.53C369.725 45.1987 369.676 44.8323 369.676 44.431V39.909H370.922V44.431C370.922 44.9677 371.043 45.383 371.286 45.677C371.533 45.971 371.909 46.118 372.413 46.118C372.782 46.118 373.125 46.0317 373.442 45.859C373.764 45.6817 374.06 45.439 374.331 45.131V39.909H375.577ZM378.729 40.938C378.883 40.7653 379.046 40.609 379.219 40.469C379.391 40.329 379.573 40.21 379.765 40.112C379.961 40.0093 380.166 39.9323 380.381 39.881C380.6 39.825 380.836 39.797 381.088 39.797C381.475 39.797 381.816 39.8623 382.11 39.993C382.408 40.119 382.656 40.301 382.852 40.539C383.052 40.7723 383.204 41.0547 383.307 41.386C383.409 41.7173 383.461 42.0837 383.461 42.485V47H382.208V42.485C382.208 41.9483 382.084 41.533 381.837 41.239C381.594 40.9403 381.223 40.791 380.724 40.791C380.355 40.791 380.01 40.8797 379.688 41.057C379.37 41.2343 379.076 41.4747 378.806 41.778V47H377.553V39.909H378.302C378.479 39.909 378.589 39.9953 378.631 40.168L378.729 40.938ZM387.44 47.112C386.88 47.112 386.449 46.9557 386.145 46.643C385.847 46.3303 385.697 45.88 385.697 45.292V40.952H384.843C384.769 40.952 384.706 40.931 384.654 40.889C384.603 40.8423 384.577 40.7723 384.577 40.679V40.182L385.739 40.035L386.026 37.844C386.04 37.774 386.071 37.718 386.117 37.676C386.169 37.6293 386.234 37.606 386.313 37.606H386.943V40.049H388.994V40.952H386.943V45.208C386.943 45.5067 387.016 45.7283 387.16 45.873C387.305 46.0177 387.492 46.09 387.72 46.09C387.851 46.09 387.963 46.0737 388.056 46.041C388.154 46.0037 388.238 45.964 388.308 45.922C388.378 45.88 388.437 45.8427 388.483 45.81C388.535 45.7727 388.579 45.754 388.616 45.754C388.682 45.754 388.74 45.7937 388.791 45.873L389.155 46.468C388.941 46.6687 388.682 46.8273 388.378 46.944C388.075 47.056 387.762 47.112 387.44 47.112ZM396.852 39.797C397.37 39.797 397.837 39.8833 398.252 40.056C398.667 40.2287 399.022 40.4737 399.316 40.791C399.61 41.1083 399.834 41.4933 399.988 41.946C400.147 42.394 400.226 42.8957 400.226 43.451C400.226 44.011 400.147 44.515 399.988 44.963C399.834 45.411 399.61 45.7937 399.316 46.111C399.022 46.4283 398.667 46.6733 398.252 46.846C397.837 47.014 397.37 47.098 396.852 47.098C396.329 47.098 395.858 47.014 395.438 46.846C395.023 46.6733 394.668 46.4283 394.374 46.111C394.08 45.7937 393.854 45.411 393.695 44.963C393.541 44.515 393.464 44.011 393.464 43.451C393.464 42.8957 393.541 42.394 393.695 41.946C393.854 41.4933 394.08 41.1083 394.374 40.791C394.668 40.4737 395.023 40.2287 395.438 40.056C395.858 39.8833 396.329 39.797 396.852 39.797ZM396.852 46.125C397.552 46.125 398.075 45.8917 398.42 45.425C398.765 44.9537 398.938 44.298 398.938 43.458C398.938 42.6133 398.765 41.9553 398.42 41.484C398.075 41.0127 397.552 40.777 396.852 40.777C396.497 40.777 396.187 40.8377 395.921 40.959C395.66 41.0803 395.44 41.2553 395.263 41.484C395.09 41.7127 394.96 41.995 394.871 42.331C394.787 42.6623 394.745 43.038 394.745 43.458C394.745 44.298 394.918 44.9537 395.263 45.425C395.613 45.8917 396.143 46.125 396.852 46.125ZM402.982 40.938C403.136 40.7653 403.3 40.609 403.472 40.469C403.645 40.329 403.827 40.21 404.018 40.112C404.214 40.0093 404.42 39.9323 404.634 39.881C404.854 39.825 405.089 39.797 405.341 39.797C405.729 39.797 406.069 39.8623 406.363 39.993C406.662 40.119 406.909 40.301 407.105 40.539C407.306 40.7723 407.458 41.0547 407.56 41.386C407.663 41.7173 407.714 42.0837 407.714 42.485V47H406.461V42.485C406.461 41.9483 406.338 41.533 406.09 41.239C405.848 40.9403 405.477 40.791 404.977 40.791C404.609 40.791 404.263 40.8797 403.941 41.057C403.624 41.2343 403.33 41.4747 403.059 41.778V47H401.806V39.909H402.555C402.733 39.909 402.842 39.9953 402.884 40.168L402.982 40.938ZM418.958 39.909L415.003 49.093C414.961 49.1863 414.907 49.261 414.842 49.317C414.781 49.373 414.685 49.401 414.555 49.401H413.631L414.926 46.587L412 39.909H413.078C413.185 39.909 413.269 39.937 413.33 39.993C413.395 40.0443 413.439 40.1027 413.463 40.168L415.36 44.634C415.434 44.83 415.497 45.0353 415.549 45.25C415.614 45.0307 415.684 44.823 415.759 44.627L417.6 40.168C417.628 40.0933 417.674 40.0327 417.74 39.986C417.81 39.9347 417.887 39.909 417.971 39.909H418.958ZM422.856 39.797C423.374 39.797 423.841 39.8833 424.256 40.056C424.671 40.2287 425.026 40.4737 425.32 40.791C425.614 41.1083 425.838 41.4933 425.992 41.946C426.151 42.394 426.23 42.8957 426.23 43.451C426.23 44.011 426.151 44.515 425.992 44.963C425.838 45.411 425.614 45.7937 425.32 46.111C425.026 46.4283 424.671 46.6733 424.256 46.846C423.841 47.014 423.374 47.098 422.856 47.098C422.333 47.098 421.862 47.014 421.442 46.846C421.027 46.6733 420.672 46.4283 420.378 46.111C420.084 45.7937 419.858 45.411 419.699 44.963C419.545 44.515 419.468 44.011 419.468 43.451C419.468 42.8957 419.545 42.394 419.699 41.946C419.858 41.4933 420.084 41.1083 420.378 40.791C420.672 40.4737 421.027 40.2287 421.442 40.056C421.862 39.8833 422.333 39.797 422.856 39.797ZM422.856 46.125C423.556 46.125 424.079 45.8917 424.424 45.425C424.769 44.9537 424.942 44.298 424.942 43.458C424.942 42.6133 424.769 41.9553 424.424 41.484C424.079 41.0127 423.556 40.777 422.856 40.777C422.501 40.777 422.191 40.8377 421.925 40.959C421.664 41.0803 421.444 41.2553 421.267 41.484C421.094 41.7127 420.964 41.995 420.875 42.331C420.791 42.6623 420.749 43.038 420.749 43.458C420.749 44.298 420.922 44.9537 421.267 45.425C421.617 45.8917 422.147 46.125 422.856 46.125ZM433.641 39.909V47H432.899C432.722 47 432.61 46.9137 432.563 46.741L432.465 45.978C432.157 46.3187 431.812 46.594 431.429 46.804C431.047 47.0093 430.608 47.112 430.113 47.112C429.726 47.112 429.383 47.049 429.084 46.923C428.79 46.7923 428.543 46.6103 428.342 46.377C428.142 46.1437 427.99 45.8613 427.887 45.53C427.789 45.1987 427.74 44.8323 427.74 44.431V39.909H428.986V44.431C428.986 44.9677 429.108 45.383 429.35 45.677C429.598 45.971 429.973 46.118 430.477 46.118C430.846 46.118 431.189 46.0317 431.506 45.859C431.828 45.6817 432.125 45.439 432.395 45.131V39.909H433.641ZM436.8 41.33C437.024 40.8447 437.299 40.4667 437.626 40.196C437.953 39.9207 438.352 39.783 438.823 39.783C438.972 39.783 439.115 39.7993 439.25 39.832C439.39 39.8647 439.514 39.916 439.621 39.986L439.53 40.917C439.502 41.0337 439.432 41.092 439.32 41.092C439.255 41.092 439.159 41.078 439.033 41.05C438.907 41.022 438.765 41.008 438.606 41.008C438.382 41.008 438.181 41.0407 438.004 41.106C437.831 41.1713 437.675 41.2693 437.535 41.4C437.4 41.526 437.276 41.6847 437.164 41.876C437.057 42.0627 436.959 42.2773 436.87 42.52V47H435.617V39.909H436.331C436.466 39.909 436.56 39.9347 436.611 39.986C436.662 40.0373 436.697 40.126 436.716 40.252L436.8 41.33ZM444.474 47V40.973L443.69 40.882C443.587 40.8587 443.506 40.8237 443.445 40.777C443.384 40.7257 443.354 40.6533 443.354 40.56V40.049H444.474V39.657C444.474 39.223 444.542 38.8263 444.677 38.467C444.812 38.103 445.015 37.7903 445.286 37.529C445.557 37.2677 445.893 37.0647 446.294 36.92C446.7 36.7753 447.169 36.703 447.701 36.703C447.878 36.703 448.06 36.7147 448.247 36.738C448.434 36.7613 448.595 36.7963 448.73 36.843L448.681 37.494C448.676 37.5407 448.658 37.5733 448.625 37.592C448.597 37.6107 448.557 37.6223 448.506 37.627C448.455 37.6317 448.389 37.634 448.31 37.634C448.235 37.6293 448.149 37.627 448.051 37.627C447.22 37.627 446.618 37.7997 446.245 38.145C445.872 38.4857 445.685 39.0013 445.685 39.692V40.049H449.969V47H448.716V40.952H445.72V47H444.474ZM453.193 41.33C453.417 40.8447 453.692 40.4667 454.019 40.196C454.345 39.9207 454.744 39.783 455.216 39.783C455.365 39.783 455.507 39.7993 455.643 39.832C455.783 39.8647 455.906 39.916 456.014 39.986L455.923 40.917C455.895 41.0337 455.825 41.092 455.713 41.092C455.647 41.092 455.552 41.078 455.426 41.05C455.3 41.022 455.157 41.008 454.999 41.008C454.775 41.008 454.574 41.0407 454.397 41.106C454.224 41.1713 454.068 41.2693 453.928 41.4C453.792 41.526 453.669 41.6847 453.557 41.876C453.449 42.0627 453.351 42.2773 453.263 42.52V47H452.01V39.909H452.724C452.859 39.909 452.952 39.9347 453.004 39.986C453.055 40.0373 453.09 40.126 453.109 40.252L453.193 41.33ZM461.198 41.078C461.142 41.1807 461.056 41.232 460.939 41.232C460.869 41.232 460.79 41.2063 460.701 41.155C460.612 41.1037 460.503 41.0477 460.372 40.987C460.246 40.9217 460.094 40.8633 459.917 40.812C459.74 40.756 459.53 40.728 459.287 40.728C459.077 40.728 458.888 40.756 458.72 40.812C458.552 40.8633 458.407 40.9357 458.286 41.029C458.169 41.1223 458.078 41.232 458.013 41.358C457.952 41.4793 457.922 41.6123 457.922 41.757C457.922 41.939 457.973 42.0907 458.076 42.212C458.183 42.3333 458.323 42.4383 458.496 42.527C458.669 42.6157 458.865 42.695 459.084 42.765C459.303 42.8303 459.527 42.9027 459.756 42.982C459.989 43.0567 460.216 43.1407 460.435 43.234C460.654 43.3273 460.85 43.444 461.023 43.584C461.196 43.724 461.333 43.8967 461.436 44.102C461.543 44.3027 461.597 44.5453 461.597 44.83C461.597 45.1567 461.539 45.46 461.422 45.74C461.305 46.0153 461.133 46.2557 460.904 46.461C460.675 46.6617 460.395 46.8203 460.064 46.937C459.733 47.0537 459.35 47.112 458.916 47.112C458.421 47.112 457.973 47.0327 457.572 46.874C457.171 46.7107 456.83 46.503 456.55 46.251L456.844 45.775C456.881 45.7143 456.926 45.6677 456.977 45.635C457.028 45.6023 457.094 45.586 457.173 45.586C457.257 45.586 457.346 45.6187 457.439 45.684C457.532 45.7493 457.644 45.8217 457.775 45.901C457.91 45.9803 458.074 46.0527 458.265 46.118C458.456 46.1833 458.694 46.216 458.979 46.216C459.222 46.216 459.434 46.1857 459.616 46.125C459.798 46.0597 459.95 45.9733 460.071 45.866C460.192 45.7587 460.281 45.635 460.337 45.495C460.398 45.355 460.428 45.2057 460.428 45.047C460.428 44.851 460.374 44.69 460.267 44.564C460.164 44.4333 460.027 44.3237 459.854 44.235C459.681 44.1417 459.483 44.0623 459.259 43.997C459.04 43.927 458.813 43.8547 458.58 43.78C458.351 43.7053 458.125 43.6213 457.901 43.528C457.682 43.43 457.486 43.3087 457.313 43.164C457.14 43.0193 457 42.842 456.893 42.632C456.79 42.4173 456.739 42.1583 456.739 41.855C456.739 41.5843 456.795 41.3253 456.907 41.078C457.019 40.826 457.182 40.6067 457.397 40.42C457.612 40.2287 457.875 40.077 458.188 39.965C458.501 39.853 458.858 39.797 459.259 39.797C459.726 39.797 460.143 39.8717 460.512 40.021C460.885 40.1657 461.207 40.3663 461.478 40.623L461.198 41.078ZM465.302 47.112C464.742 47.112 464.31 46.9557 464.007 46.643C463.708 46.3303 463.559 45.88 463.559 45.292V40.952H462.705C462.63 40.952 462.567 40.931 462.516 40.889C462.464 40.8423 462.439 40.7723 462.439 40.679V40.182L463.601 40.035L463.888 37.844C463.902 37.774 463.932 37.718 463.979 37.676C464.03 37.6293 464.095 37.606 464.175 37.606H464.805V40.049H466.856V40.952H464.805V45.208C464.805 45.5067 464.877 45.7283 465.022 45.873C465.166 46.0177 465.353 46.09 465.582 46.09C465.712 46.09 465.824 46.0737 465.918 46.041C466.016 46.0037 466.1 45.964 466.17 45.922C466.24 45.88 466.298 45.8427 466.345 45.81C466.396 45.7727 466.44 45.754 466.478 45.754C466.543 45.754 466.601 45.7937 466.653 45.873L467.017 46.468C466.802 46.6687 466.543 46.8273 466.24 46.944C465.936 47.056 465.624 47.112 465.302 47.112ZM475.854 41.078C475.798 41.1807 475.712 41.232 475.595 41.232C475.525 41.232 475.446 41.2063 475.357 41.155C475.269 41.1037 475.159 41.0477 475.028 40.987C474.902 40.9217 474.751 40.8633 474.573 40.812C474.396 40.756 474.186 40.728 473.943 40.728C473.733 40.728 473.544 40.756 473.376 40.812C473.208 40.8633 473.064 40.9357 472.942 41.029C472.826 41.1223 472.735 41.232 472.669 41.358C472.609 41.4793 472.578 41.6123 472.578 41.757C472.578 41.939 472.63 42.0907 472.732 42.212C472.84 42.3333 472.98 42.4383 473.152 42.527C473.325 42.6157 473.521 42.695 473.74 42.765C473.96 42.8303 474.184 42.9027 474.412 42.982C474.646 43.0567 474.872 43.1407 475.091 43.234C475.311 43.3273 475.507 43.444 475.679 43.584C475.852 43.724 475.99 43.8967 476.092 44.102C476.2 44.3027 476.253 44.5453 476.253 44.83C476.253 45.1567 476.195 45.46 476.078 45.74C475.962 46.0153 475.789 46.2557 475.56 46.461C475.332 46.6617 475.052 46.8203 474.72 46.937C474.389 47.0537 474.006 47.112 473.572 47.112C473.078 47.112 472.63 47.0327 472.228 46.874C471.827 46.7107 471.486 46.503 471.206 46.251L471.5 45.775C471.538 45.7143 471.582 45.6677 471.633 45.635C471.685 45.6023 471.75 45.586 471.829 45.586C471.913 45.586 472.002 45.6187 472.095 45.684C472.189 45.7493 472.301 45.8217 472.431 45.901C472.567 45.9803 472.73 46.0527 472.921 46.118C473.113 46.1833 473.351 46.216 473.635 46.216C473.878 46.216 474.09 46.1857 474.272 46.125C474.454 46.0597 474.606 45.9733 474.727 45.866C474.849 45.7587 474.937 45.635 474.993 45.495C475.054 45.355 475.084 45.2057 475.084 45.047C475.084 44.851 475.031 44.69 474.923 44.564C474.821 44.4333 474.683 44.3237 474.51 44.235C474.338 44.1417 474.139 44.0623 473.915 43.997C473.696 43.927 473.47 43.8547 473.236 43.78C473.008 43.7053 472.781 43.6213 472.557 43.528C472.338 43.43 472.142 43.3087 471.969 43.164C471.797 43.0193 471.657 42.842 471.549 42.632C471.447 42.4173 471.395 42.1583 471.395 41.855C471.395 41.5843 471.451 41.3253 471.563 41.078C471.675 40.826 471.839 40.6067 472.053 40.42C472.268 40.2287 472.532 40.077 472.844 39.965C473.157 39.853 473.514 39.797 473.915 39.797C474.382 39.797 474.8 39.8717 475.168 40.021C475.542 40.1657 475.864 40.3663 476.134 40.623L475.854 41.078ZM483.612 39.909V47H482.87C482.693 47 482.581 46.9137 482.534 46.741L482.436 45.978C482.128 46.3187 481.783 46.594 481.4 46.804C481.017 47.0093 480.579 47.112 480.084 47.112C479.697 47.112 479.354 47.049 479.055 46.923C478.761 46.7923 478.514 46.6103 478.313 46.377C478.112 46.1437 477.961 45.8613 477.858 45.53C477.76 45.1987 477.711 44.8323 477.711 44.431V39.909H478.957V44.431C478.957 44.9677 479.078 45.383 479.321 45.677C479.568 45.971 479.944 46.118 480.448 46.118C480.817 46.118 481.16 46.0317 481.477 45.859C481.799 45.6817 482.095 45.439 482.366 45.131V39.909H483.612ZM486.841 45.292C487.069 45.6 487.319 45.817 487.59 45.943C487.865 46.069 488.166 46.132 488.493 46.132C489.16 46.132 489.671 45.8963 490.026 45.425C490.38 44.9537 490.558 44.2513 490.558 43.318C490.558 42.45 490.399 41.813 490.082 41.407C489.769 40.9963 489.321 40.791 488.738 40.791C488.332 40.791 487.977 40.8843 487.674 41.071C487.375 41.2577 487.097 41.5213 486.841 41.862V45.292ZM486.841 40.931C487.139 40.5857 487.475 40.3103 487.849 40.105C488.227 39.8997 488.661 39.797 489.151 39.797C489.566 39.797 489.939 39.8763 490.271 40.035C490.607 40.1937 490.891 40.4247 491.125 40.728C491.358 41.0267 491.535 41.3907 491.657 41.82C491.783 42.2493 491.846 42.7323 491.846 43.269C491.846 43.843 491.776 44.3657 491.636 44.837C491.496 45.3083 491.293 45.712 491.027 46.048C490.765 46.3793 490.446 46.6383 490.068 46.825C489.69 47.007 489.265 47.098 488.794 47.098C488.327 47.098 487.933 47.0117 487.611 46.839C487.293 46.6617 487.016 46.412 486.778 46.09L486.715 46.734C486.677 46.9113 486.57 47 486.393 47H485.588V36.689H486.841V40.931ZM497.552 41.078C497.496 41.1807 497.409 41.232 497.293 41.232C497.223 41.232 497.143 41.2063 497.055 41.155C496.966 41.1037 496.856 41.0477 496.726 40.987C496.6 40.9217 496.448 40.8633 496.271 40.812C496.093 40.756 495.883 40.728 495.641 40.728C495.431 40.728 495.242 40.756 495.074 40.812C494.906 40.8633 494.761 40.9357 494.64 41.029C494.523 41.1223 494.432 41.232 494.367 41.358C494.306 41.4793 494.276 41.6123 494.276 41.757C494.276 41.939 494.327 42.0907 494.43 42.212C494.537 42.3333 494.677 42.4383 494.85 42.527C495.022 42.6157 495.218 42.695 495.438 42.765C495.657 42.8303 495.881 42.9027 496.11 42.982C496.343 43.0567 496.569 43.1407 496.789 43.234C497.008 43.3273 497.204 43.444 497.377 43.584C497.549 43.724 497.687 43.8967 497.79 44.102C497.897 44.3027 497.951 44.5453 497.951 44.83C497.951 45.1567 497.892 45.46 497.776 45.74C497.659 46.0153 497.486 46.2557 497.258 46.461C497.029 46.6617 496.749 46.8203 496.418 46.937C496.086 47.0537 495.704 47.112 495.27 47.112C494.775 47.112 494.327 47.0327 493.926 46.874C493.524 46.7107 493.184 46.503 492.904 46.251L493.198 45.775C493.235 45.7143 493.279 45.6677 493.331 45.635C493.382 45.6023 493.447 45.586 493.527 45.586C493.611 45.586 493.699 45.6187 493.793 45.684C493.886 45.7493 493.998 45.8217 494.129 45.901C494.264 45.9803 494.427 46.0527 494.619 46.118C494.81 46.1833 495.048 46.216 495.333 46.216C495.575 46.216 495.788 46.1857 495.97 46.125C496.152 46.0597 496.303 45.9733 496.425 45.866C496.546 45.7587 496.635 45.635 496.691 45.495C496.751 45.355 496.782 45.2057 496.782 45.047C496.782 44.851 496.728 44.69 496.621 44.564C496.518 44.4333 496.38 44.3237 496.208 44.235C496.035 44.1417 495.837 44.0623 495.613 43.997C495.393 43.927 495.167 43.8547 494.934 43.78C494.705 43.7053 494.479 43.6213 494.255 43.528C494.035 43.43 493.839 43.3087 493.667 43.164C493.494 43.0193 493.354 42.842 493.247 42.632C493.144 42.4173 493.093 42.1583 493.093 41.855C493.093 41.5843 493.149 41.3253 493.261 41.078C493.373 40.826 493.536 40.6067 493.751 40.42C493.965 40.2287 494.229 40.077 494.542 39.965C494.854 39.853 495.211 39.797 495.613 39.797C496.079 39.797 496.497 39.8717 496.866 40.021C497.239 40.1657 497.561 40.3663 497.832 40.623L497.552 41.078ZM504.413 41.169C504.376 41.2203 504.339 41.26 504.301 41.288C504.264 41.316 504.213 41.33 504.147 41.33C504.077 41.33 504 41.302 503.916 41.246C503.832 41.1853 503.727 41.12 503.601 41.05C503.48 40.98 503.328 40.917 503.146 40.861C502.969 40.8003 502.75 40.77 502.488 40.77C502.138 40.77 501.83 40.833 501.564 40.959C501.298 41.0803 501.074 41.2577 500.892 41.491C500.715 41.7243 500.58 42.0067 500.486 42.338C500.398 42.6693 500.353 43.0403 500.353 43.451C500.353 43.8803 500.402 44.263 500.5 44.599C500.598 44.9303 500.736 45.2103 500.913 45.439C501.095 45.663 501.312 45.8357 501.564 45.957C501.821 46.0737 502.108 46.132 502.425 46.132C502.729 46.132 502.978 46.097 503.174 46.027C503.37 45.9523 503.531 45.8707 503.657 45.782C503.788 45.6933 503.895 45.614 503.979 45.544C504.068 45.4693 504.154 45.432 504.238 45.432C504.341 45.432 504.42 45.4717 504.476 45.551L504.826 46.006C504.672 46.1973 504.497 46.3607 504.301 46.496C504.105 46.6313 503.893 46.7457 503.664 46.839C503.44 46.9277 503.205 46.993 502.957 47.035C502.71 47.077 502.458 47.098 502.201 47.098C501.758 47.098 501.345 47.0163 500.962 46.853C500.584 46.6897 500.255 46.454 499.975 46.146C499.695 45.8333 499.476 45.4507 499.317 44.998C499.159 44.5453 499.079 44.0297 499.079 43.451C499.079 42.9237 499.152 42.436 499.296 41.988C499.446 41.54 499.66 41.155 499.94 40.833C500.225 40.5063 500.573 40.252 500.983 40.07C501.399 39.888 501.875 39.797 502.411 39.797C502.911 39.797 503.349 39.8787 503.727 40.042C504.11 40.2007 504.448 40.427 504.742 40.721L504.413 41.169ZM507.347 41.33C507.571 40.8447 507.846 40.4667 508.173 40.196C508.5 39.9207 508.899 39.783 509.37 39.783C509.519 39.783 509.662 39.7993 509.797 39.832C509.937 39.8647 510.061 39.916 510.168 39.986L510.077 40.917C510.049 41.0337 509.979 41.092 509.867 41.092C509.802 41.092 509.706 41.078 509.58 41.05C509.454 41.022 509.312 41.008 509.153 41.008C508.929 41.008 508.728 41.0407 508.551 41.106C508.378 41.1713 508.222 41.2693 508.082 41.4C507.947 41.526 507.823 41.6847 507.711 41.876C507.604 42.0627 507.506 42.2773 507.417 42.52V47H506.164V39.909H506.878C507.013 39.909 507.107 39.9347 507.158 39.986C507.209 40.0373 507.244 40.126 507.263 40.252L507.347 41.33ZM512.579 39.909V47H511.333V39.909H512.579ZM512.845 37.683C512.845 37.8043 512.82 37.9187 512.768 38.026C512.722 38.1287 512.656 38.222 512.572 38.306C512.493 38.3853 512.397 38.4483 512.285 38.495C512.178 38.5417 512.064 38.565 511.942 38.565C511.821 38.565 511.707 38.5417 511.599 38.495C511.497 38.4483 511.406 38.3853 511.326 38.306C511.247 38.222 511.184 38.1287 511.137 38.026C511.091 37.9187 511.067 37.8043 511.067 37.683C511.067 37.5617 511.091 37.4473 511.137 37.34C511.184 37.228 511.247 37.1323 511.326 37.053C511.406 36.969 511.497 36.9037 511.599 36.857C511.707 36.8103 511.821 36.787 511.942 36.787C512.064 36.787 512.178 36.8103 512.285 36.857C512.397 36.9037 512.493 36.969 512.572 37.053C512.656 37.1323 512.722 37.228 512.768 37.34C512.82 37.4473 512.845 37.5617 512.845 37.683ZM515.88 45.292C516.108 45.6 516.358 45.817 516.629 45.943C516.904 46.069 517.205 46.132 517.532 46.132C518.199 46.132 518.71 45.8963 519.065 45.425C519.419 44.9537 519.597 44.2513 519.597 43.318C519.597 42.45 519.438 41.813 519.121 41.407C518.808 40.9963 518.36 40.791 517.777 40.791C517.371 40.791 517.016 40.8843 516.713 41.071C516.414 41.2577 516.136 41.5213 515.88 41.862V45.292ZM515.88 40.931C516.178 40.5857 516.514 40.3103 516.888 40.105C517.266 39.8997 517.7 39.797 518.19 39.797C518.605 39.797 518.978 39.8763 519.31 40.035C519.646 40.1937 519.93 40.4247 520.164 40.728C520.397 41.0267 520.574 41.3907 520.696 41.82C520.822 42.2493 520.885 42.7323 520.885 43.269C520.885 43.843 520.815 44.3657 520.675 44.837C520.535 45.3083 520.332 45.712 520.066 46.048C519.804 46.3793 519.485 46.6383 519.107 46.825C518.729 47.007 518.304 47.098 517.833 47.098C517.366 47.098 516.972 47.0117 516.65 46.839C516.332 46.6617 516.055 46.412 515.817 46.09L515.754 46.734C515.716 46.9113 515.609 47 515.432 47H514.627V36.689H515.88V40.931ZM527.207 42.681C527.207 42.3917 527.165 42.128 527.081 41.89C527.001 41.6473 526.882 41.4397 526.724 41.267C526.57 41.0897 526.381 40.9543 526.157 40.861C525.933 40.763 525.678 40.714 525.394 40.714C524.796 40.714 524.323 40.889 523.973 41.239C523.627 41.5843 523.413 42.065 523.329 42.681H527.207ZM528.215 46.006C528.061 46.1927 527.876 46.356 527.662 46.496C527.447 46.6313 527.216 46.7433 526.969 46.832C526.726 46.9207 526.474 46.986 526.213 47.028C525.951 47.0747 525.692 47.098 525.436 47.098C524.946 47.098 524.493 47.0163 524.078 46.853C523.667 46.685 523.31 46.4423 523.007 46.125C522.708 45.803 522.475 45.4063 522.307 44.935C522.139 44.4637 522.055 43.9223 522.055 43.311C522.055 42.8163 522.129 42.3543 522.279 41.925C522.433 41.4957 522.652 41.1247 522.937 40.812C523.221 40.4947 523.569 40.2473 523.98 40.07C524.39 39.888 524.852 39.797 525.366 39.797C525.79 39.797 526.182 39.8693 526.542 40.014C526.906 40.154 527.218 40.3593 527.48 40.63C527.746 40.896 527.953 41.2273 528.103 41.624C528.252 42.016 528.327 42.464 528.327 42.968C528.327 43.164 528.306 43.2947 528.264 43.36C528.222 43.4253 528.142 43.458 528.026 43.458H523.287C523.301 43.906 523.361 44.2957 523.469 44.627C523.581 44.9583 523.735 45.236 523.931 45.46C524.127 45.6793 524.36 45.845 524.631 45.957C524.901 46.0643 525.205 46.118 525.541 46.118C525.853 46.118 526.122 46.083 526.346 46.013C526.574 45.9383 526.77 45.859 526.934 45.775C527.097 45.691 527.232 45.614 527.34 45.544C527.452 45.4693 527.547 45.432 527.627 45.432C527.729 45.432 527.809 45.4717 527.865 45.551L528.215 46.006Z" fill="#7E7E7E"/>
<defs>
<clipPath id="clip0_6511_2027">
<rect width="16" height="30" fill="white" transform="translate(361.969)"/>
</clipPath>
<clipPath id="clip1_6511_2027">
<rect width="16" height="30" fill="white" transform="translate(361.969)"/>
</clipPath>
<clipPath id="clip2_6511_2027">
<rect width="16" height="30" fill="white" transform="translate(396.969)"/>
</clipPath>
<clipPath id="clip3_6511_2027">
<rect width="16" height="30" fill="white" transform="translate(396.969)"/>
</clipPath>
<clipPath id="clip4_6511_2027">
<rect width="16" height="30" fill="white" transform="translate(431.969)"/>
</clipPath>
<clipPath id="clip5_6511_2027">
<rect width="16" height="30" fill="white" transform="translate(431.969)"/>
</clipPath>
<clipPath id="clip6_6511_2027">
<rect width="16" height="30" fill="white" transform="translate(466.969)"/>
</clipPath>
<clipPath id="clip7_6511_2027">
<rect width="16" height="30" fill="white" transform="translate(466.969)"/>
</clipPath>
<clipPath id="clip8_6511_2027">
<rect width="16" height="30" fill="white" transform="translate(501.969)"/>
</clipPath>
<clipPath id="clip9_6511_2027">
<rect width="16" height="30" fill="white" transform="translate(501.969)"/>
</clipPath>
</defs>
</svg>
