<svg width="16" height="16" viewBox="0 0 16 16" fill="none" xmlns="http://www.w3.org/2000/svg">
<path d="M11.2333 0H4.76594C3.50225 0.00148505 2.29076 0.504196 1.39727 1.39784C0.50378 2.29147 0.00127258 3.50305 0 4.76674L0 11.2341C0.00148505 12.4977 0.504196 13.7092 1.39784 14.6027C2.29147 15.4962 3.50305 15.9987 4.76674 16H11.2341C12.4977 15.9985 13.7092 15.4958 14.6027 14.6022C15.4962 13.7085 15.9987 12.4969 16 11.2333V4.76594C15.9985 3.50225 15.4958 2.29076 14.6022 1.39727C13.7085 0.50378 12.4969 0.00127258 11.2333 0V0ZM14.3908 11.2333C14.3908 11.6479 14.3091 12.0585 14.1504 12.4416C13.9918 12.8247 13.7592 13.1728 13.466 13.466C13.1728 13.7592 12.8247 13.9918 12.4416 14.1504C12.0585 14.3091 11.6479 14.3908 11.2333 14.3908H4.76594C3.92865 14.3906 3.12573 14.0578 2.53375 13.4657C1.94177 12.8736 1.60922 12.0705 1.60922 11.2333V4.76594C1.60943 3.92865 1.94219 3.12573 2.53432 2.53375C3.12645 1.94177 3.92945 1.60922 4.76674 1.60922H11.2341C12.0713 1.60943 12.8743 1.94219 13.4662 2.53432C14.0582 3.12645 14.3908 3.92945 14.3908 4.76674V11.2341V11.2333Z" fill="white"/>
<path d="M7.99914 3.86209C6.90237 3.86378 5.85101 4.30028 5.07555 5.07589C4.30008 5.85151 3.86379 6.90295 3.8623 7.99973C3.86358 9.09678 4.29989 10.1485 5.07555 10.9244C5.85121 11.7002 6.90289 12.1367 7.99995 12.1382C9.09714 12.1369 10.149 11.7005 10.9249 10.9246C11.7007 10.1488 12.1371 9.09692 12.1384 7.99973C12.1367 6.90267 11.7 5.85107 10.924 5.07556C10.1481 4.30005 9.0962 3.86395 7.99914 3.86289V3.86209ZM7.99914 10.529C7.32856 10.529 6.68545 10.2626 6.21128 9.78839C5.73711 9.31422 5.47072 8.67111 5.47072 8.00053C5.47072 7.32995 5.73711 6.68683 6.21128 6.21266C6.68545 5.73849 7.32856 5.4721 7.99914 5.4721C8.66972 5.4721 9.31284 5.73849 9.78701 6.21266C10.2612 6.68683 10.5276 7.32995 10.5276 8.00053C10.5276 8.67111 10.2612 9.31422 9.78701 9.78839C9.31284 10.2626 8.66972 10.529 7.99914 10.529Z" fill="white"/>
<path d="M12.1456 4.88464C12.6931 4.88464 13.137 4.44081 13.137 3.89331C13.137 3.34581 12.6931 2.90197 12.1456 2.90197C11.5981 2.90197 11.1543 3.34581 11.1543 3.89331C11.1543 4.44081 11.5981 4.88464 12.1456 4.88464Z" fill="white"/>
</svg>
