<svg width="20" height="20" viewBox="0 0 20 20" fill="none" xmlns="http://www.w3.org/2000/svg">
<path d="M1 18V9.91492C1 9.65101 1.10432 9.3978 1.29023 9.21049L9.14564 1.29557C9.33339 1.1064 9.58888 1 9.85541 1H10.1446C10.4111 1 10.6666 1.1064 10.8544 1.29557L18.7098 9.21049C18.8957 9.3978 19 9.65101 19 9.91492V18C19 18.5523 18.5523 19 18 19H13.7293C13.177 19 12.7293 18.5523 12.7293 18V14.2315C12.7293 13.3523 12.3171 12.5241 11.6156 11.994C10.6152 11.238 9.23443 11.238 8.23398 11.994C7.53257 12.5241 7.1203 13.3523 7.1203 14.2315V18C7.1203 18.5523 6.67259 19 6.1203 19H2C1.44771 19 1 18.5523 1 18Z" stroke="#10355B" stroke-width="2"/>
</svg>
