<svg width="30" height="30" viewBox="0 0 30 30" fill="none" xmlns="http://www.w3.org/2000/svg">
<path d="M14.375 15.3049C18.172 15.3049 21.25 12.2268 21.25 8.42987C21.25 4.63291 18.172 1.55487 14.375 1.55487C10.578 1.55487 7.5 4.63291 7.5 8.42987C7.5 12.2268 10.578 15.3049 14.375 15.3049Z" fill="#10355B"/>
<path fill-rule="evenodd" clip-rule="evenodd" d="M16.1563 27.1948C14.8575 25.7998 14.0625 23.9298 14.0625 21.8748C14.0625 19.7711 14.8963 17.8598 16.2513 16.4548C15.6388 16.4073 15.0125 16.3823 14.375 16.3823C10.2225 16.3823 6.54625 17.4211 4.26375 18.9773C2.5225 20.1648 1.5625 21.6736 1.5625 23.2573V25.0698C1.5625 25.6336 1.78625 26.1748 2.185 26.5723C2.58375 26.9711 3.12375 27.1948 3.6875 27.1948H16.1563Z" fill="#10355B"/>
<path fill-rule="evenodd" clip-rule="evenodd" d="M21.875 15.3124C18.2525 15.3124 15.3125 18.2524 15.3125 21.8749C15.3125 25.4974 18.2525 28.4374 21.875 28.4374C25.4975 28.4374 28.4375 25.4974 28.4375 21.8749C28.4375 18.2524 25.4975 15.3124 21.875 15.3124ZM20.9375 21.8749V24.9999C20.9375 25.5174 21.3575 25.9374 21.875 25.9374C22.3925 25.9374 22.8125 25.5174 22.8125 24.9999V21.8749C22.8125 21.3574 22.3925 20.9374 21.875 20.9374C21.3575 20.9374 20.9375 21.3574 20.9375 21.8749ZM21.875 17.8124C22.565 17.8124 23.125 18.3724 23.125 19.0624C23.125 19.7524 22.565 20.3124 21.875 20.3124C21.185 20.3124 20.625 19.7524 20.625 19.0624C20.625 18.3724 21.185 17.8124 21.875 17.8124Z" fill="#10355B"/>
</svg>
