<svg width="32" height="32" viewBox="0 0 32 32" fill="none" xmlns="http://www.w3.org/2000/svg">
<g clip-path="url(#clip0_326_1144)">
<path d="M19.2309 29.1462C18.9671 29.212 18.698 29.2704 18.431 29.3196C17.7329 29.4494 17.2714 30.1207 17.4006 30.8194C17.4643 31.1631 17.6595 31.4494 17.9246 31.6363C18.1977 31.8286 18.5454 31.9154 18.8997 31.8495C19.2177 31.7905 19.5381 31.7211 19.8526 31.6426C20.542 31.471 20.9619 30.7727 20.7899 30.0837C20.6184 29.3941 19.9207 28.9745 19.2309 29.1462Z" fill="#10355B"/>
<path d="M28.7444 11.9034C28.8345 12.175 29.0066 12.3967 29.2239 12.5499C29.5461 12.7768 29.9677 12.8532 30.37 12.7201C31.0446 12.4962 31.41 11.7688 31.1869 11.0946C31.0852 10.7873 30.9724 10.479 30.8522 10.1788C30.5884 9.51912 29.8401 9.19795 29.1801 9.46182C28.5207 9.72555 28.1994 10.474 28.4635 11.1339C28.5645 11.3862 28.6591 11.6452 28.7444 11.9034Z" fill="#10355B"/>
<path d="M23.4112 27.3099C23.1843 27.4597 22.9501 27.6047 22.7141 27.7406C22.0985 28.0957 21.8877 28.8825 22.2427 29.4978C22.339 29.6652 22.4674 29.802 22.6152 29.9066C23.012 30.1858 23.551 30.2276 23.9997 29.9691C24.2802 29.8073 24.5591 29.6352 24.8294 29.4565C25.4219 29.065 25.585 28.2669 25.1934 27.6741C24.8018 27.0811 24.004 26.9182 23.4112 27.3099Z" fill="#10355B"/>
<path d="M31.9859 15.4966C31.9579 14.7865 31.3598 14.2339 30.6496 14.2616C29.9403 14.2896 29.3872 14.8879 29.4151 15.5976C29.4257 15.869 29.4285 16.1444 29.4222 16.4155C29.4123 16.8608 29.63 17.2577 29.9685 17.4962C30.1701 17.6382 30.4148 17.7241 30.6801 17.7302C31.3901 17.7459 31.9785 17.1828 31.9943 16.4724C32.0013 16.1485 31.9987 15.8203 31.9859 15.4966Z" fill="#10355B"/>
<path d="M28.5373 23.9256C27.968 23.4985 27.1625 23.6144 26.7361 24.1828C26.5728 24.4004 26.4008 24.6154 26.2247 24.8223C25.7645 25.363 25.8295 26.1751 26.3702 26.6357C26.401 26.6618 26.4322 26.6858 26.4645 26.7084C27.002 27.0873 27.749 27.0002 28.1836 26.4902C28.3939 26.2433 28.5989 25.9865 28.794 25.7266C29.2205 25.1582 29.1051 24.3522 28.5373 23.9256Z" fill="#10355B"/>
<path d="M30.4264 19.2752C29.7485 19.0626 29.0266 19.44 28.8142 20.1179C28.7329 20.3769 28.6428 20.6371 28.5455 20.892C28.3319 21.453 28.5366 22.0703 29.0057 22.4011C29.0917 22.4616 29.1865 22.5128 29.2895 22.5518C29.9532 22.805 30.6965 22.472 30.9495 21.808C31.065 21.505 31.1722 21.1954 31.2691 20.8875C31.4813 20.2095 31.1042 19.4878 30.4264 19.2752Z" fill="#10355B"/>
<path d="M13.6199 29.3312C12.4697 29.1247 11.3664 28.773 10.3202 28.2826C10.3079 28.2761 10.2968 28.2688 10.2838 28.2628C10.0373 28.1468 9.79113 28.0225 9.55258 27.8926C9.55175 27.8917 9.55024 27.891 9.54893 27.8905C9.11124 27.6495 8.68407 27.3828 8.26907 27.0906C2.21769 22.8279 0.762691 14.4366 5.02573 8.38528C5.95272 7.06992 7.07451 5.97255 8.32513 5.1028C8.34054 5.09207 8.35595 5.08141 8.37122 5.07061C12.7782 2.03405 18.7623 1.82941 23.4418 4.94975L22.4368 6.40193C22.1574 6.80612 22.3293 7.10067 22.8184 7.05665L27.1842 6.66579C27.6739 6.62177 27.9668 6.19811 27.8351 5.72512L26.6627 1.50115C26.5315 1.02762 26.1955 0.970936 25.9158 1.37506L24.9084 2.83068C21.4742 0.525399 17.3553 -0.353638 13.267 0.355287C12.8553 0.426551 12.4493 0.513773 12.0489 0.615304C12.0458 0.615854 12.0433 0.616198 12.0408 0.616749C12.0254 0.620532 12.0097 0.625553 11.9946 0.629749C8.46924 1.53506 5.3934 3.59119 3.1986 6.52485C3.18009 6.54679 3.16104 6.56825 3.14357 6.59212C3.07058 6.69042 2.99815 6.79099 2.92723 6.89155C2.81126 7.05637 2.69693 7.22531 2.58756 7.39426C2.57387 7.41462 2.56341 7.43532 2.55144 7.45589C0.740266 10.2625 -0.133336 13.5072 0.0164829 16.8105C0.0168269 16.8214 0.0162078 16.8323 0.0164829 16.8435C0.0309971 17.1662 0.0565861 17.4933 0.0913239 17.8154C0.0931811 17.8361 0.0977899 17.8558 0.101298 17.8766C0.137205 18.2004 0.182261 18.5251 0.238736 18.8496C0.8127 22.1609 2.37473 25.1406 4.71537 27.4591C4.7208 27.4645 4.72644 27.4704 4.73194 27.476C4.73387 27.4782 4.736 27.4793 4.73786 27.4813C5.36671 28.1015 6.05074 28.6752 6.78725 29.1939C8.71468 30.5521 10.8609 31.4498 13.1659 31.8635C13.8652 31.9891 14.5333 31.5236 14.6588 30.8246C14.7842 30.1251 14.319 29.4564 13.6199 29.3312Z" fill="#10355B"/>
<path d="M15.2092 5.72302C14.6339 5.72302 14.168 6.1894 14.168 6.76385V17.1334L23.6517 22.0359C23.8044 22.115 23.9678 22.1522 24.1286 22.1522C24.5053 22.1522 24.8691 21.9471 25.0541 21.5892C25.3179 21.0783 25.1183 20.4508 24.6075 20.187L16.2493 15.8659V6.76385C16.2492 6.1894 15.7838 5.72302 15.2092 5.72302Z" fill="#10355B"/>
</g>
<defs>
<clipPath id="clip0_326_1144">
<rect width="32" height="32" fill="white"/>
</clipPath>
</defs>
</svg>
