<svg width="38" height="38" viewBox="0 0 38 38" fill="none" xmlns="http://www.w3.org/2000/svg">
<path d="M24.0785 7.77051H14.6889C12.8542 7.77266 11.0953 8.50252 9.79815 9.79994C8.50094 11.0974 7.77138 12.8564 7.76953 14.6911L7.76953 24.0806C7.77169 25.9153 8.50154 27.6742 9.79897 28.9714C11.0964 30.2686 12.8554 30.9981 14.6901 31H24.0796C25.9143 30.9978 27.6732 30.268 28.9704 28.9705C30.2676 27.6731 30.9972 25.9141 30.999 24.0794V14.6899C30.9969 12.8552 30.267 11.0963 28.9696 9.79912C27.6721 8.50192 25.9131 7.77236 24.0785 7.77051V7.77051ZM28.6627 24.0794C28.6627 24.6814 28.5441 25.2776 28.3137 25.8337C28.0833 26.3899 27.7457 26.8953 27.32 27.321C26.8943 27.7467 26.3889 28.0843 25.8328 28.3147C25.2766 28.5451 24.6805 28.6637 24.0785 28.6637H14.6889C13.4733 28.6633 12.3076 28.1802 11.4481 27.3206C10.5887 26.4609 10.1059 25.295 10.1059 24.0794V14.6899C10.1062 13.4743 10.5893 12.3086 11.449 11.4491C12.3086 10.5897 13.4745 10.1068 14.6901 10.1068H24.0796C25.2952 10.1071 26.4609 10.5903 27.3204 11.4499C28.1799 12.3096 28.6627 13.4755 28.6627 14.6911V24.0806V24.0794Z" fill="white"/>
<path d="M19.3849 13.3774C17.7926 13.3799 16.2662 14.0136 15.1403 15.1397C14.0145 16.2658 13.3811 17.7923 13.3789 19.3846C13.3808 20.9774 14.0142 22.5044 15.1403 23.6307C16.2665 24.7571 17.7934 25.3909 19.3861 25.393C20.9791 25.3912 22.5062 24.7575 23.6326 23.6312C24.759 22.5048 25.3926 20.9776 25.3945 19.3846C25.392 17.7919 24.758 16.2651 23.6314 15.1392C22.5048 14.0133 20.9777 13.3801 19.3849 13.3786V13.3774ZM19.3849 23.0567C18.4114 23.0567 17.4777 22.6699 16.7892 21.9815C16.1008 21.2931 15.7141 20.3594 15.7141 19.3858C15.7141 18.4122 16.1008 17.4785 16.7892 16.7901C17.4777 16.1017 18.4114 15.7149 19.3849 15.7149C20.3585 15.7149 21.2922 16.1017 21.9806 16.7901C22.6691 17.4785 23.0558 18.4122 23.0558 19.3858C23.0558 20.3594 22.6691 21.2931 21.9806 21.9815C21.2922 22.6699 20.3585 23.0567 19.3849 23.0567Z" fill="white"/>
<path d="M25.4041 14.8624C26.199 14.8624 26.8434 14.218 26.8434 13.4231C26.8434 12.6283 26.199 11.9839 25.4041 11.9839C24.6092 11.9839 23.9648 12.6283 23.9648 13.4231C23.9648 14.218 24.6092 14.8624 25.4041 14.8624Z" fill="white"/>
<rect x="0.5" y="0.5" width="37" height="37" rx="9.5" stroke="white"/>
</svg>
