<svg width="538" height="46" viewBox="0 0 538 46" fill="none" xmlns="http://www.w3.org/2000/svg">
<g opacity="0.5" clip-path="url(#clip0_6511_2002)">
<g clip-path="url(#clip1_6511_2002)">
<g clip-path="url(#clip2_6511_2002)">
<path d="M76.34 23.084C75.7258 22.4445 74.985 22.1026 74.1999 22.1026C73.4211 22.1026 72.6739 22.4382 72.0344 23.0777L70.0336 25.0722C69.869 24.9835 69.7044 24.9012 69.5461 24.8189C69.3181 24.7049 69.1028 24.5973 68.9192 24.4833C67.045 23.293 65.3418 21.7417 63.7082 19.7345C62.9168 18.7341 62.3849 17.892 61.9987 17.0372C62.5179 16.5624 62.9991 16.0685 63.4676 15.5936C63.6449 15.4163 63.8222 15.2327 63.9995 15.0554C65.3291 13.7258 65.3291 12.0035 63.9995 10.6739L62.2709 8.94532C62.0746 8.74904 61.872 8.54642 61.6821 8.34381C61.3022 7.95124 60.9033 7.54601 60.4917 7.16611C59.8775 6.55827 59.1431 6.23535 58.3706 6.23535C57.5981 6.23535 56.851 6.55827 56.2178 7.16611C56.2115 7.17244 56.2115 7.17244 56.2052 7.17878L54.0524 9.35055C53.2419 10.161 52.7797 11.1488 52.6784 12.2948C52.5264 14.1437 53.071 15.8659 53.4889 16.9929C54.5146 19.7599 56.0469 22.3242 58.3326 25.0722C61.1059 28.3837 64.4427 30.9986 68.2544 32.8412C69.7107 33.5313 71.6545 34.3481 73.8263 34.4874C73.9593 34.4938 74.0986 34.5001 74.2252 34.5001C75.6878 34.5001 76.9162 33.9746 77.8786 32.9298C77.8849 32.9172 77.8976 32.9108 77.9039 32.8982C78.2332 32.4993 78.6131 32.1384 79.012 31.7521C79.2842 31.4925 79.5628 31.2203 79.8351 30.9353C80.4619 30.2832 80.7912 29.5234 80.7912 28.7446C80.7912 27.9594 80.4556 27.206 79.8161 26.5728L76.34 23.084ZM78.6067 29.7513C78.6004 29.7513 78.6004 29.7576 78.6067 29.7513C78.3598 30.0172 78.1065 30.2578 77.8343 30.5238C77.4227 30.9163 77.0048 31.3279 76.6122 31.7901C75.9727 32.4739 75.2193 32.7969 74.2315 32.7969C74.1365 32.7969 74.0352 32.7969 73.9403 32.7905C72.0597 32.6702 70.3122 31.9357 69.0015 31.3089C65.4178 29.574 62.2709 27.111 59.6559 23.9895C57.4968 21.3871 56.0532 18.9811 55.0971 16.3977C54.5083 14.8211 54.293 13.5928 54.388 12.4341C54.4513 11.6933 54.7362 11.0791 55.2617 10.5536L57.4208 8.39446C57.7311 8.1032 58.0603 7.94491 58.3833 7.94491C58.7822 7.94491 59.1051 8.18552 59.3077 8.38813C59.314 8.39446 59.3204 8.40079 59.3267 8.40713C59.7129 8.76803 60.0802 9.1416 60.4664 9.5405C60.6627 9.74312 60.8653 9.94573 61.0679 10.1547L62.7965 11.8832C63.4676 12.5544 63.4676 13.1749 62.7965 13.8461C62.6128 14.0297 62.4356 14.2133 62.2519 14.3906C61.7201 14.9351 61.2135 15.4417 60.6627 15.9355C60.65 15.9482 60.6374 15.9545 60.631 15.9672C60.0865 16.5117 60.1878 17.0436 60.3018 17.4045C60.3081 17.4235 60.3144 17.4425 60.3208 17.4615C60.7703 18.5505 61.4035 19.5763 62.3659 20.7983L62.3722 20.8046C64.1198 22.9574 65.9623 24.6353 67.9948 25.9206C68.2544 26.0852 68.5203 26.2182 68.7736 26.3448C69.0015 26.4588 69.2168 26.5665 69.4004 26.6804C69.4258 26.6931 69.4511 26.7121 69.4764 26.7248C69.6917 26.8324 69.8943 26.883 70.1033 26.883C70.6288 26.883 70.958 26.5538 71.0657 26.4462L73.2311 24.2807C73.4464 24.0654 73.7883 23.8058 74.1872 23.8058C74.5798 23.8058 74.9027 24.0528 75.099 24.268C75.1053 24.2744 75.1053 24.2744 75.1116 24.2807L78.6004 27.7695C79.2526 28.4153 79.2526 29.0801 78.6067 29.7513Z" fill="black"/>
<path d="M68.8442 11.6361C70.5031 11.9147 72.0101 12.6998 73.2131 13.9029C74.4161 15.1059 75.1949 16.6128 75.4798 18.2717C75.5495 18.6896 75.9104 18.9809 76.322 18.9809C76.3726 18.9809 76.4169 18.9746 76.4676 18.9682C76.9361 18.8922 77.2464 18.449 77.1704 17.9805C76.8285 15.9733 75.8787 14.1435 74.4288 12.6935C72.9788 11.2435 71.149 10.2938 69.1418 9.95187C68.6733 9.87589 68.2364 10.1861 68.1541 10.6484C68.0718 11.1106 68.3757 11.5601 68.8442 11.6361Z" fill="black"/>
<path d="M82.5963 17.7336C82.0327 14.4285 80.4751 11.4209 78.0818 9.02754C75.6884 6.63415 72.6808 5.07655 69.3757 4.51303C68.9134 4.43072 68.4766 4.7473 68.3942 5.20952C68.3183 5.67807 68.6285 6.11495 69.0971 6.19727C72.0476 6.69747 74.7386 8.09678 76.8787 10.2306C79.0189 12.3707 80.4118 15.0617 80.912 18.0122C80.9817 18.4301 81.3426 18.7214 81.7541 18.7214C81.8048 18.7214 81.8491 18.715 81.8998 18.7087C82.362 18.6391 82.6786 18.1958 82.5963 17.7336Z" fill="black"/>
</g>
</g>
</g>
<path d="M100.97 22.5C100.485 22.5 100.086 22.3527 99.7742 22.058C99.4622 21.746 99.3062 21.3647 99.3062 20.914V7.81L99.6702 8.382L97.7722 9.786C97.5295 9.97667 97.2262 10.072 96.8622 10.072C96.4462 10.072 96.0822 9.916 95.7702 9.604C95.4582 9.292 95.3022 8.91933 95.3022 8.486C95.3022 7.93133 95.5708 7.48067 96.1082 7.134L99.8522 4.638C100.026 4.51667 100.216 4.43 100.424 4.378C100.65 4.326 100.858 4.3 101.048 4.3C101.551 4.3 101.95 4.456 102.244 4.768C102.539 5.06267 102.686 5.43533 102.686 5.886V20.914C102.686 21.3647 102.522 21.746 102.192 22.058C101.88 22.3527 101.473 22.5 100.97 22.5ZM112.246 3.962C113.182 3.962 114.022 4.16133 114.768 4.56C115.53 4.94133 116.172 5.47 116.692 6.146C117.229 6.822 117.636 7.58467 117.914 8.434C118.208 9.266 118.356 10.1413 118.356 11.06C118.356 11.6493 118.286 12.3687 118.148 13.218C118.026 14.0673 117.801 14.9687 117.472 15.922C117.142 16.858 116.683 17.7767 116.094 18.678C115.504 19.562 114.75 20.3593 113.832 21.07C112.93 21.7807 111.821 22.318 110.504 22.682C110.296 22.734 110.096 22.76 109.906 22.76C109.507 22.76 109.143 22.656 108.814 22.448C108.502 22.2227 108.346 21.8413 108.346 21.304C108.346 20.9053 108.467 20.5673 108.71 20.29C108.97 20.0127 109.308 19.8133 109.724 19.692C110.521 19.4493 111.292 19.0507 112.038 18.496C112.8 17.924 113.459 17.2393 114.014 16.442C114.568 15.6273 114.941 14.7433 115.132 13.79L115.834 13.816C115.608 14.0933 115.314 14.4053 114.95 14.752C114.603 15.0987 114.17 15.402 113.65 15.662C113.147 15.9047 112.54 16.026 111.83 16.026C110.686 16.026 109.689 15.7833 108.84 15.298C108.008 14.7953 107.358 14.0933 106.89 13.192C106.422 12.2733 106.188 11.2073 106.188 9.994C106.188 8.902 106.456 7.89667 106.994 6.978C107.548 6.05933 108.285 5.33133 109.204 4.794C110.122 4.23933 111.136 3.962 112.246 3.962ZM112.246 6.822C111.691 6.822 111.188 6.96933 110.738 7.264C110.304 7.54133 109.958 7.92267 109.698 8.408C109.438 8.876 109.308 9.40467 109.308 9.994C109.308 10.6353 109.429 11.1987 109.672 11.684C109.914 12.152 110.252 12.516 110.686 12.776C111.136 13.036 111.656 13.166 112.246 13.166C112.8 13.166 113.294 13.0273 113.728 12.75C114.178 12.4727 114.534 12.0913 114.794 11.606C115.054 11.1207 115.184 10.5833 115.184 9.994C115.184 9.38733 115.054 8.85 114.794 8.382C114.534 7.89667 114.178 7.51533 113.728 7.238C113.294 6.96067 112.8 6.822 112.246 6.822ZM127.647 22.76C126.156 22.76 124.891 22.37 123.851 21.59C122.828 20.7927 122.048 19.692 121.511 18.288C120.974 16.8667 120.705 15.2373 120.705 13.4C120.705 11.5453 120.974 9.916 121.511 8.512C122.048 7.108 122.828 6.016 123.851 5.236C124.891 4.43867 126.156 4.04 127.647 4.04C129.138 4.04 130.394 4.43867 131.417 5.236C132.457 6.016 133.246 7.108 133.783 8.512C134.32 9.916 134.589 11.5453 134.589 13.4C134.589 15.2373 134.32 16.8667 133.783 18.288C133.246 19.692 132.457 20.7927 131.417 21.59C130.394 22.37 129.138 22.76 127.647 22.76ZM127.647 19.64C128.375 19.64 128.999 19.4147 129.519 18.964C130.056 18.496 130.472 17.8027 130.767 16.884C131.062 15.948 131.209 14.7867 131.209 13.4C131.209 11.996 131.062 10.8347 130.767 9.916C130.472 8.99733 130.056 8.31267 129.519 7.862C128.999 7.394 128.375 7.16 127.647 7.16C126.936 7.16 126.312 7.394 125.775 7.862C125.238 8.31267 124.822 8.99733 124.527 9.916C124.232 10.8347 124.085 11.996 124.085 13.4C124.085 14.7867 124.232 15.948 124.527 16.884C124.822 17.8027 125.238 18.496 125.775 18.964C126.312 19.4147 126.936 19.64 127.647 19.64ZM143.618 22.76C142.127 22.76 140.862 22.37 139.822 21.59C138.799 20.7927 138.019 19.692 137.482 18.288C136.944 16.8667 136.676 15.2373 136.676 13.4C136.676 11.5453 136.944 9.916 137.482 8.512C138.019 7.108 138.799 6.016 139.822 5.236C140.862 4.43867 142.127 4.04 143.618 4.04C145.108 4.04 146.365 4.43867 147.388 5.236C148.428 6.016 149.216 7.108 149.754 8.512C150.291 9.916 150.56 11.5453 150.56 13.4C150.56 15.2373 150.291 16.8667 149.754 18.288C149.216 19.692 148.428 20.7927 147.388 21.59C146.365 22.37 145.108 22.76 143.618 22.76ZM143.618 19.64C144.346 19.64 144.97 19.4147 145.49 18.964C146.027 18.496 146.443 17.8027 146.738 16.884C147.032 15.948 147.18 14.7867 147.18 13.4C147.18 11.996 147.032 10.8347 146.738 9.916C146.443 8.99733 146.027 8.31267 145.49 7.862C144.97 7.394 144.346 7.16 143.618 7.16C142.907 7.16 142.283 7.394 141.746 7.862C141.208 8.31267 140.792 8.99733 140.498 9.916C140.203 10.8347 140.056 11.996 140.056 13.4C140.056 14.7867 140.203 15.948 140.498 16.884C140.792 17.8027 141.208 18.496 141.746 18.964C142.283 19.4147 142.907 19.64 143.618 19.64ZM161.78 16.078C161.329 16.078 160.948 15.9307 160.636 15.636C160.341 15.3413 160.194 14.9687 160.194 14.518C160.194 14.0673 160.341 13.7033 160.636 13.426C160.948 13.1313 161.329 12.984 161.78 12.984H166.304C166.754 12.984 167.127 13.14 167.422 13.452C167.734 13.7467 167.89 14.1193 167.89 14.57C167.89 15.0033 167.734 15.3673 167.422 15.662C167.127 15.9393 166.754 16.078 166.304 16.078H161.78ZM183.899 22.76C182.963 22.76 182.114 22.5693 181.351 22.188C180.606 21.7893 179.965 21.252 179.427 20.576C178.907 19.9 178.5 19.1373 178.205 18.288C177.928 17.4387 177.789 16.5633 177.789 15.662C177.789 15.0727 177.85 14.362 177.971 13.53C178.11 12.698 178.344 11.8227 178.673 10.904C179.003 9.98533 179.462 9.09267 180.051 8.226C180.641 7.35933 181.386 6.57933 182.287 5.886C183.206 5.19267 184.324 4.664 185.641 4.3C185.849 4.248 186.049 4.222 186.239 4.222C186.638 4.222 186.993 4.326 187.305 4.534C187.635 4.742 187.799 5.12333 187.799 5.678C187.799 6.05933 187.669 6.39733 187.409 6.692C187.167 6.96933 186.837 7.16867 186.421 7.29C185.832 7.46333 185.243 7.72333 184.653 8.07C184.081 8.39933 183.544 8.80667 183.041 9.292C182.556 9.77733 182.131 10.332 181.767 10.956C181.421 11.5627 181.169 12.2213 181.013 12.932L180.311 12.906C180.554 12.6113 180.849 12.2993 181.195 11.97C181.559 11.6233 181.993 11.3287 182.495 11.086C183.015 10.826 183.622 10.696 184.315 10.696C184.991 10.696 185.659 10.852 186.317 11.164C186.993 11.476 187.6 11.9093 188.137 12.464C188.692 13.0013 189.134 13.6427 189.463 14.388C189.793 15.116 189.957 15.896 189.957 16.728C189.957 17.8373 189.68 18.8513 189.125 19.77C188.588 20.6887 187.86 21.4167 186.941 21.954C186.04 22.4913 185.026 22.76 183.899 22.76ZM183.899 19.9C184.454 19.9 184.948 19.7613 185.381 19.484C185.832 19.2067 186.187 18.8253 186.447 18.34C186.707 17.8547 186.837 17.3173 186.837 16.728C186.837 16.1213 186.707 15.584 186.447 15.116C186.187 14.6307 185.832 14.2493 185.381 13.972C184.948 13.6947 184.454 13.556 183.899 13.556C183.345 13.556 182.842 13.6947 182.391 13.972C181.958 14.2493 181.611 14.6307 181.351 15.116C181.091 15.584 180.961 16.1213 180.961 16.728C180.961 17.3173 181.091 17.8547 181.351 18.34C181.611 18.8253 181.958 19.2067 182.391 19.484C182.842 19.7613 183.345 19.9 183.899 19.9ZM198.27 22.76C197.334 22.76 196.485 22.5693 195.722 22.188C194.977 21.7893 194.336 21.252 193.798 20.576C193.278 19.9 192.871 19.1373 192.576 18.288C192.299 17.4387 192.16 16.5633 192.16 15.662C192.16 15.0727 192.221 14.362 192.342 13.53C192.481 12.698 192.715 11.8227 193.044 10.904C193.374 9.98533 193.833 9.09267 194.422 8.226C195.012 7.35933 195.757 6.57933 196.658 5.886C197.577 5.19267 198.695 4.664 200.012 4.3C200.22 4.248 200.42 4.222 200.61 4.222C201.009 4.222 201.364 4.326 201.676 4.534C202.006 4.742 202.17 5.12333 202.17 5.678C202.17 6.05933 202.04 6.39733 201.78 6.692C201.538 6.96933 201.208 7.16867 200.792 7.29C200.203 7.46333 199.614 7.72333 199.024 8.07C198.452 8.39933 197.915 8.80667 197.412 9.292C196.927 9.77733 196.502 10.332 196.138 10.956C195.792 11.5627 195.54 12.2213 195.384 12.932L194.682 12.906C194.925 12.6113 195.22 12.2993 195.566 11.97C195.93 11.6233 196.364 11.3287 196.866 11.086C197.386 10.826 197.993 10.696 198.686 10.696C199.362 10.696 200.03 10.852 200.688 11.164C201.364 11.476 201.971 11.9093 202.508 12.464C203.063 13.0013 203.505 13.6427 203.834 14.388C204.164 15.116 204.328 15.896 204.328 16.728C204.328 17.8373 204.051 18.8513 203.496 19.77C202.959 20.6887 202.231 21.4167 201.312 21.954C200.411 22.4913 199.397 22.76 198.27 22.76ZM198.27 19.9C198.825 19.9 199.319 19.7613 199.752 19.484C200.203 19.2067 200.558 18.8253 200.818 18.34C201.078 17.8547 201.208 17.3173 201.208 16.728C201.208 16.1213 201.078 15.584 200.818 15.116C200.558 14.6307 200.203 14.2493 199.752 13.972C199.319 13.6947 198.825 13.556 198.27 13.556C197.716 13.556 197.213 13.6947 196.762 13.972C196.329 14.2493 195.982 14.6307 195.722 15.116C195.462 15.584 195.332 16.1213 195.332 16.728C195.332 17.3173 195.462 17.8547 195.722 18.34C195.982 18.8253 196.329 19.2067 196.762 19.484C197.213 19.7613 197.716 19.9 198.27 19.9ZM212.641 22.76C211.705 22.76 210.856 22.5693 210.093 22.188C209.348 21.7893 208.707 21.252 208.169 20.576C207.649 19.9 207.242 19.1373 206.947 18.288C206.67 17.4387 206.531 16.5633 206.531 15.662C206.531 15.0727 206.592 14.362 206.713 13.53C206.852 12.698 207.086 11.8227 207.415 10.904C207.745 9.98533 208.204 9.09267 208.793 8.226C209.383 7.35933 210.128 6.57933 211.029 5.886C211.948 5.19267 213.066 4.664 214.383 4.3C214.591 4.248 214.791 4.222 214.981 4.222C215.38 4.222 215.735 4.326 216.047 4.534C216.377 4.742 216.541 5.12333 216.541 5.678C216.541 6.05933 216.411 6.39733 216.151 6.692C215.909 6.96933 215.579 7.16867 215.163 7.29C214.574 7.46333 213.985 7.72333 213.395 8.07C212.823 8.39933 212.286 8.80667 211.783 9.292C211.298 9.77733 210.873 10.332 210.509 10.956C210.163 11.5627 209.911 12.2213 209.755 12.932L209.053 12.906C209.296 12.6113 209.591 12.2993 209.937 11.97C210.301 11.6233 210.735 11.3287 211.237 11.086C211.757 10.826 212.364 10.696 213.057 10.696C213.733 10.696 214.401 10.852 215.059 11.164C215.735 11.476 216.342 11.9093 216.879 12.464C217.434 13.0013 217.876 13.6427 218.205 14.388C218.535 15.116 218.699 15.896 218.699 16.728C218.699 17.8373 218.422 18.8513 217.867 19.77C217.33 20.6887 216.602 21.4167 215.683 21.954C214.782 22.4913 213.768 22.76 212.641 22.76ZM212.641 19.9C213.196 19.9 213.69 19.7613 214.123 19.484C214.574 19.2067 214.929 18.8253 215.189 18.34C215.449 17.8547 215.579 17.3173 215.579 16.728C215.579 16.1213 215.449 15.584 215.189 15.116C214.929 14.6307 214.574 14.2493 214.123 13.972C213.69 13.6947 213.196 13.556 212.641 13.556C212.087 13.556 211.584 13.6947 211.133 13.972C210.7 14.2493 210.353 14.6307 210.093 15.116C209.833 15.584 209.703 16.1213 209.703 16.728C209.703 17.3173 209.833 17.8547 210.093 18.34C210.353 18.8253 210.7 19.2067 211.133 19.484C211.584 19.7613 212.087 19.9 212.641 19.9ZM227.012 22.76C226.076 22.76 225.227 22.5693 224.464 22.188C223.719 21.7893 223.078 21.252 222.54 20.576C222.02 19.9 221.613 19.1373 221.318 18.288C221.041 17.4387 220.902 16.5633 220.902 15.662C220.902 15.0727 220.963 14.362 221.084 13.53C221.223 12.698 221.457 11.8227 221.786 10.904C222.116 9.98533 222.575 9.09267 223.164 8.226C223.754 7.35933 224.499 6.57933 225.4 5.886C226.319 5.19267 227.437 4.664 228.754 4.3C228.962 4.248 229.162 4.222 229.352 4.222C229.751 4.222 230.106 4.326 230.418 4.534C230.748 4.742 230.912 5.12333 230.912 5.678C230.912 6.05933 230.782 6.39733 230.522 6.692C230.28 6.96933 229.95 7.16867 229.534 7.29C228.945 7.46333 228.356 7.72333 227.766 8.07C227.194 8.39933 226.657 8.80667 226.154 9.292C225.669 9.77733 225.244 10.332 224.88 10.956C224.534 11.5627 224.282 12.2213 224.126 12.932L223.424 12.906C223.667 12.6113 223.962 12.2993 224.308 11.97C224.672 11.6233 225.106 11.3287 225.608 11.086C226.128 10.826 226.735 10.696 227.428 10.696C228.104 10.696 228.772 10.852 229.43 11.164C230.106 11.476 230.713 11.9093 231.25 12.464C231.805 13.0013 232.247 13.6427 232.576 14.388C232.906 15.116 233.07 15.896 233.07 16.728C233.07 17.8373 232.793 18.8513 232.238 19.77C231.701 20.6887 230.973 21.4167 230.054 21.954C229.153 22.4913 228.139 22.76 227.012 22.76ZM227.012 19.9C227.567 19.9 228.061 19.7613 228.494 19.484C228.945 19.2067 229.3 18.8253 229.56 18.34C229.82 17.8547 229.95 17.3173 229.95 16.728C229.95 16.1213 229.82 15.584 229.56 15.116C229.3 14.6307 228.945 14.2493 228.494 13.972C228.061 13.6947 227.567 13.556 227.012 13.556C226.458 13.556 225.955 13.6947 225.504 13.972C225.071 14.2493 224.724 14.6307 224.464 15.116C224.204 15.584 224.074 16.1213 224.074 16.728C224.074 17.3173 224.204 17.8547 224.464 18.34C224.724 18.8253 225.071 19.2067 225.504 19.484C225.955 19.7613 226.458 19.9 227.012 19.9Z" fill="#3BB77E"/>
<path d="M111.764 28.884L109.076 37.5H107.924L105.824 31.11C105.776 30.982 105.734 30.828 105.698 30.648C105.654 30.832 105.612 30.986 105.572 31.11L103.448 37.5H102.302L99.6139 28.884H100.682C100.794 28.884 100.888 28.912 100.964 28.968C101.04 29.02 101.09 29.092 101.114 29.184L102.812 34.95C102.844 35.062 102.872 35.184 102.896 35.316C102.924 35.448 102.952 35.586 102.98 35.73C103.008 35.586 103.036 35.448 103.064 35.316C103.096 35.184 103.132 35.062 103.172 34.95L105.116 29.184C105.14 29.104 105.19 29.034 105.266 28.974C105.346 28.914 105.44 28.884 105.548 28.884H105.914C106.026 28.884 106.118 28.912 106.19 28.968C106.262 29.024 106.314 29.096 106.346 29.184L108.284 34.95C108.356 35.17 108.42 35.42 108.476 35.7C108.524 35.424 108.576 35.174 108.632 34.95L110.336 29.184C110.356 29.104 110.406 29.034 110.486 28.974C110.566 28.914 110.66 28.884 110.768 28.884H111.764ZM115.549 31.308C115.997 31.308 116.401 31.382 116.761 31.53C117.125 31.674 117.433 31.884 117.685 32.16C117.941 32.432 118.137 32.762 118.273 33.15C118.409 33.534 118.477 33.966 118.477 34.446C118.477 34.926 118.409 35.36 118.273 35.748C118.137 36.136 117.941 36.466 117.685 36.738C117.433 37.01 117.125 37.22 116.761 37.368C116.401 37.512 115.997 37.584 115.549 37.584C115.097 37.584 114.689 37.512 114.325 37.368C113.965 37.22 113.657 37.01 113.401 36.738C113.145 36.466 112.947 36.136 112.807 35.748C112.671 35.36 112.603 34.926 112.603 34.446C112.603 33.966 112.671 33.534 112.807 33.15C112.947 32.762 113.145 32.432 113.401 32.16C113.657 31.884 113.965 31.674 114.325 31.53C114.689 31.382 115.097 31.308 115.549 31.308ZM115.549 36.672C116.125 36.672 116.555 36.478 116.839 36.09C117.123 35.702 117.265 35.156 117.265 34.452C117.265 33.748 117.123 33.202 116.839 32.814C116.555 32.422 116.125 32.226 115.549 32.226C114.965 32.226 114.529 32.422 114.241 32.814C113.957 33.202 113.815 33.748 113.815 34.452C113.815 35.156 113.957 35.702 114.241 36.09C114.529 36.478 114.965 36.672 115.549 36.672ZM121.787 32.574C121.983 32.174 122.219 31.86 122.495 31.632C122.771 31.404 123.103 31.29 123.491 31.29C123.623 31.29 123.747 31.306 123.863 31.338C123.983 31.366 124.087 31.41 124.175 31.47L124.097 32.352C124.069 32.46 124.003 32.514 123.899 32.514C123.843 32.514 123.759 32.504 123.647 32.484C123.535 32.46 123.415 32.448 123.287 32.448C123.099 32.448 122.933 32.476 122.789 32.532C122.645 32.584 122.515 32.664 122.399 32.772C122.287 32.876 122.187 33.006 122.099 33.162C122.011 33.314 121.929 33.488 121.853 33.684V37.5H120.683V31.404H121.355C121.483 31.404 121.569 31.428 121.613 31.476C121.661 31.52 121.695 31.6 121.715 31.716L121.787 32.574ZM127.148 28.644V33.822H127.424C127.508 33.822 127.578 33.81 127.634 33.786C127.69 33.762 127.748 33.714 127.808 33.642L129.632 31.632C129.688 31.556 129.75 31.5 129.818 31.464C129.886 31.424 129.972 31.404 130.076 31.404H131.144L128.99 33.762C128.874 33.91 128.75 34.024 128.618 34.104C128.694 34.156 128.76 34.216 128.816 34.284C128.876 34.352 128.934 34.426 128.99 34.506L131.282 37.5H130.232C130.136 37.5 130.052 37.484 129.98 37.452C129.912 37.42 129.85 37.362 129.794 37.278L127.91 34.83C127.85 34.738 127.79 34.68 127.73 34.656C127.67 34.628 127.58 34.614 127.46 34.614H127.148V37.5H125.978V28.644H127.148ZM134.278 31.404V37.5H133.108V31.404H134.278ZM134.5 29.52C134.5 29.628 134.478 29.732 134.434 29.832C134.39 29.928 134.33 30.014 134.254 30.09C134.182 30.162 134.096 30.22 133.996 30.264C133.896 30.304 133.792 30.324 133.684 30.324C133.576 30.324 133.474 30.304 133.378 30.264C133.282 30.22 133.196 30.162 133.12 30.09C133.048 30.014 132.99 29.928 132.946 29.832C132.906 29.732 132.886 29.628 132.886 29.52C132.886 29.408 132.906 29.304 132.946 29.208C132.99 29.108 133.048 29.022 133.12 28.95C133.196 28.874 133.282 28.816 133.378 28.776C133.474 28.732 133.576 28.71 133.684 28.71C133.792 28.71 133.896 28.732 133.996 28.776C134.096 28.816 134.182 28.874 134.254 28.95C134.33 29.022 134.39 29.108 134.434 29.208C134.478 29.304 134.5 29.408 134.5 29.52ZM137.97 32.25C138.102 32.11 138.24 31.982 138.384 31.866C138.528 31.75 138.68 31.652 138.84 31.572C139.004 31.488 139.178 31.424 139.362 31.38C139.55 31.332 139.75 31.308 139.962 31.308C140.298 31.308 140.592 31.364 140.844 31.476C141.1 31.588 141.314 31.746 141.486 31.95C141.658 32.15 141.788 32.392 141.876 32.676C141.964 32.96 142.008 33.274 142.008 33.618V37.5H140.832V33.618C140.832 33.182 140.732 32.844 140.532 32.604C140.332 32.36 140.026 32.238 139.614 32.238C139.314 32.238 139.032 32.31 138.768 32.454C138.508 32.594 138.266 32.786 138.042 33.03V37.5H136.872V31.404H137.574C137.738 31.404 137.84 31.482 137.88 31.638L137.97 32.25ZM146.628 34.458C146.836 34.458 147.018 34.43 147.174 34.374C147.334 34.318 147.466 34.24 147.57 34.14C147.678 34.036 147.758 33.912 147.81 33.768C147.866 33.624 147.894 33.466 147.894 33.294C147.894 32.942 147.786 32.662 147.57 32.454C147.358 32.242 147.044 32.136 146.628 32.136C146.216 32.136 145.902 32.242 145.686 32.454C145.474 32.662 145.368 32.942 145.368 33.294C145.368 33.466 145.394 33.624 145.446 33.768C145.502 33.908 145.582 34.03 145.686 34.134C145.794 34.234 145.926 34.314 146.082 34.374C146.242 34.43 146.424 34.458 146.628 34.458ZM148.494 37.818C148.494 37.674 148.454 37.56 148.374 37.476C148.294 37.388 148.184 37.32 148.044 37.272C147.908 37.22 147.748 37.184 147.564 37.164C147.38 37.14 147.186 37.122 146.982 37.11C146.782 37.098 146.576 37.088 146.364 37.08C146.152 37.068 145.948 37.048 145.752 37.02C145.544 37.124 145.372 37.25 145.236 37.398C145.104 37.546 145.038 37.72 145.038 37.92C145.038 38.048 145.07 38.168 145.134 38.28C145.202 38.392 145.304 38.488 145.44 38.568C145.58 38.652 145.754 38.716 145.962 38.76C146.174 38.808 146.426 38.832 146.718 38.832C147.006 38.832 147.26 38.806 147.48 38.754C147.7 38.706 147.884 38.636 148.032 38.544C148.184 38.456 148.298 38.35 148.374 38.226C148.454 38.102 148.494 37.966 148.494 37.818ZM149.682 31.632V32.07C149.682 32.214 149.592 32.304 149.412 32.34L148.758 32.436C148.814 32.56 148.858 32.692 148.89 32.832C148.922 32.968 148.938 33.112 148.938 33.264C148.938 33.564 148.88 33.836 148.764 34.08C148.648 34.32 148.488 34.526 148.284 34.698C148.08 34.87 147.836 35.002 147.552 35.094C147.272 35.186 146.964 35.232 146.628 35.232C146.352 35.232 146.094 35.202 145.854 35.142C145.734 35.214 145.642 35.294 145.578 35.382C145.518 35.466 145.488 35.55 145.488 35.634C145.488 35.774 145.546 35.878 145.662 35.946C145.782 36.014 145.936 36.064 146.124 36.096C146.316 36.124 146.534 36.142 146.778 36.15C147.026 36.158 147.276 36.172 147.528 36.192C147.784 36.208 148.034 36.24 148.278 36.288C148.526 36.332 148.744 36.406 148.932 36.51C149.124 36.61 149.278 36.75 149.394 36.93C149.514 37.106 149.574 37.336 149.574 37.62C149.574 37.884 149.508 38.14 149.376 38.388C149.248 38.636 149.06 38.856 148.812 39.048C148.564 39.24 148.262 39.394 147.906 39.51C147.55 39.626 147.146 39.684 146.694 39.684C146.242 39.684 145.848 39.64 145.512 39.552C145.18 39.464 144.902 39.346 144.678 39.198C144.458 39.05 144.292 38.878 144.18 38.682C144.072 38.486 144.018 38.282 144.018 38.07C144.018 37.774 144.11 37.524 144.294 37.32C144.478 37.112 144.732 36.95 145.056 36.834C144.88 36.754 144.74 36.646 144.636 36.51C144.532 36.37 144.48 36.186 144.48 35.958C144.48 35.87 144.496 35.78 144.528 35.688C144.56 35.592 144.608 35.498 144.672 35.406C144.74 35.31 144.822 35.22 144.918 35.136C145.018 35.052 145.132 34.976 145.26 34.908C144.96 34.74 144.724 34.518 144.552 34.242C144.38 33.962 144.294 33.636 144.294 33.264C144.294 32.964 144.352 32.694 144.468 32.454C144.584 32.214 144.744 32.008 144.948 31.836C145.156 31.664 145.402 31.532 145.686 31.44C145.974 31.348 146.288 31.302 146.628 31.302C147.156 31.302 147.61 31.412 147.99 31.632H149.682ZM158.249 36.666C158.521 36.666 158.763 36.628 158.975 36.552C159.187 36.476 159.367 36.37 159.515 36.234C159.663 36.094 159.775 35.928 159.851 35.736C159.927 35.544 159.965 35.334 159.965 35.106C159.965 34.826 159.919 34.586 159.827 34.386C159.735 34.182 159.611 34.016 159.455 33.888C159.299 33.756 159.117 33.66 158.909 33.6C158.701 33.536 158.481 33.504 158.249 33.504C158.013 33.504 157.791 33.536 157.583 33.6C157.375 33.66 157.193 33.756 157.037 33.888C156.881 34.016 156.757 34.182 156.665 34.386C156.577 34.586 156.533 34.826 156.533 35.106C156.533 35.334 156.571 35.544 156.647 35.736C156.723 35.928 156.835 36.094 156.983 36.234C157.131 36.37 157.311 36.476 157.523 36.552C157.735 36.628 157.977 36.666 158.249 36.666ZM158.249 29.688C158.001 29.688 157.783 29.726 157.595 29.802C157.411 29.874 157.257 29.974 157.133 30.102C157.009 30.23 156.915 30.378 156.851 30.546C156.791 30.714 156.761 30.894 156.761 31.086C156.761 31.274 156.787 31.458 156.839 31.638C156.895 31.814 156.981 31.972 157.097 32.112C157.217 32.248 157.371 32.358 157.559 32.442C157.747 32.526 157.977 32.568 158.249 32.568C158.517 32.568 158.745 32.526 158.933 32.442C159.125 32.358 159.279 32.248 159.395 32.112C159.515 31.972 159.601 31.814 159.653 31.638C159.709 31.458 159.737 31.274 159.737 31.086C159.737 30.894 159.705 30.714 159.641 30.546C159.581 30.378 159.489 30.23 159.365 30.102C159.241 29.974 159.085 29.874 158.897 29.802C158.713 29.726 158.497 29.688 158.249 29.688ZM159.539 33.006C160.075 33.166 160.481 33.424 160.757 33.78C161.037 34.136 161.177 34.586 161.177 35.13C161.177 35.506 161.105 35.846 160.961 36.15C160.821 36.454 160.621 36.714 160.361 36.93C160.105 37.142 159.797 37.306 159.437 37.422C159.077 37.538 158.681 37.596 158.249 37.596C157.817 37.596 157.421 37.538 157.061 37.422C156.701 37.306 156.391 37.142 156.131 36.93C155.875 36.714 155.675 36.454 155.531 36.15C155.391 35.846 155.321 35.506 155.321 35.13C155.321 34.586 155.459 34.136 155.735 33.78C156.015 33.424 156.423 33.166 156.959 33.006C156.515 32.838 156.181 32.588 155.957 32.256C155.733 31.92 155.621 31.522 155.621 31.062C155.621 30.742 155.683 30.444 155.807 30.168C155.935 29.888 156.113 29.646 156.341 29.442C156.573 29.238 156.851 29.078 157.175 28.962C157.499 28.846 157.857 28.788 158.249 28.788C158.641 28.788 158.999 28.846 159.323 28.962C159.647 29.078 159.923 29.238 160.151 29.442C160.383 29.646 160.561 29.888 160.685 30.168C160.813 30.444 160.877 30.742 160.877 31.062C160.877 31.522 160.765 31.92 160.541 32.256C160.317 32.588 159.983 32.838 159.539 33.006ZM163.356 36.798C163.356 36.69 163.376 36.588 163.416 36.492C163.456 36.396 163.51 36.312 163.578 36.24C163.65 36.168 163.734 36.112 163.83 36.072C163.926 36.028 164.03 36.006 164.142 36.006C164.25 36.006 164.352 36.028 164.448 36.072C164.544 36.112 164.628 36.168 164.7 36.24C164.772 36.312 164.828 36.396 164.868 36.492C164.912 36.588 164.934 36.69 164.934 36.798C164.934 36.91 164.912 37.014 164.868 37.11C164.828 37.206 164.772 37.29 164.7 37.362C164.628 37.434 164.544 37.49 164.448 37.53C164.352 37.57 164.25 37.59 164.142 37.59C164.03 37.59 163.926 37.57 163.83 37.53C163.734 37.49 163.65 37.434 163.578 37.362C163.51 37.29 163.456 37.206 163.416 37.11C163.376 37.014 163.356 36.91 163.356 36.798ZM163.356 32.358C163.356 32.25 163.376 32.148 163.416 32.052C163.456 31.956 163.51 31.872 163.578 31.8C163.65 31.728 163.734 31.672 163.83 31.632C163.926 31.588 164.03 31.566 164.142 31.566C164.25 31.566 164.352 31.588 164.448 31.632C164.544 31.672 164.628 31.728 164.7 31.8C164.772 31.872 164.828 31.956 164.868 32.052C164.912 32.148 164.934 32.25 164.934 32.358C164.934 32.47 164.912 32.574 164.868 32.67C164.828 32.766 164.772 32.85 164.7 32.922C164.628 32.994 164.544 33.05 164.448 33.09C164.352 33.13 164.25 33.15 164.142 33.15C164.03 33.15 163.926 33.13 163.83 33.09C163.734 33.05 163.65 32.994 163.578 32.922C163.51 32.85 163.456 32.766 163.416 32.67C163.376 32.574 163.356 32.47 163.356 32.358ZM173.165 33.192C173.165 33.944 173.083 34.596 172.919 35.148C172.759 35.7 172.537 36.158 172.253 36.522C171.973 36.882 171.641 37.15 171.257 37.326C170.877 37.502 170.467 37.59 170.027 37.59C169.587 37.59 169.175 37.502 168.791 37.326C168.411 37.15 168.081 36.882 167.801 36.522C167.521 36.158 167.301 35.7 167.141 35.148C166.981 34.596 166.901 33.944 166.901 33.192C166.901 32.44 166.981 31.788 167.141 31.236C167.301 30.68 167.521 30.222 167.801 29.862C168.081 29.498 168.411 29.228 168.791 29.052C169.175 28.876 169.587 28.788 170.027 28.788C170.467 28.788 170.877 28.876 171.257 29.052C171.641 29.228 171.973 29.498 172.253 29.862C172.537 30.222 172.759 30.68 172.919 31.236C173.083 31.788 173.165 32.44 173.165 33.192ZM171.953 33.192C171.953 32.544 171.899 32.002 171.791 31.566C171.687 31.13 171.545 30.78 171.365 30.516C171.189 30.248 170.985 30.058 170.753 29.946C170.521 29.834 170.279 29.778 170.027 29.778C169.775 29.778 169.533 29.834 169.301 29.946C169.069 30.058 168.863 30.248 168.683 30.516C168.507 30.78 168.367 31.13 168.263 31.566C168.159 32.002 168.107 32.544 168.107 33.192C168.107 33.84 168.159 34.382 168.263 34.818C168.367 35.254 168.507 35.604 168.683 35.868C168.863 36.132 169.069 36.32 169.301 36.432C169.533 36.544 169.775 36.6 170.027 36.6C170.279 36.6 170.521 36.544 170.753 36.432C170.985 36.32 171.189 36.132 171.365 35.868C171.545 35.604 171.687 35.254 171.791 34.818C171.899 34.382 171.953 33.84 171.953 33.192ZM181.026 33.192C181.026 33.944 180.944 34.596 180.78 35.148C180.62 35.7 180.398 36.158 180.114 36.522C179.834 36.882 179.502 37.15 179.118 37.326C178.738 37.502 178.328 37.59 177.888 37.59C177.448 37.59 177.036 37.502 176.652 37.326C176.272 37.15 175.942 36.882 175.662 36.522C175.382 36.158 175.162 35.7 175.002 35.148C174.842 34.596 174.762 33.944 174.762 33.192C174.762 32.44 174.842 31.788 175.002 31.236C175.162 30.68 175.382 30.222 175.662 29.862C175.942 29.498 176.272 29.228 176.652 29.052C177.036 28.876 177.448 28.788 177.888 28.788C178.328 28.788 178.738 28.876 179.118 29.052C179.502 29.228 179.834 29.498 180.114 29.862C180.398 30.222 180.62 30.68 180.78 31.236C180.944 31.788 181.026 32.44 181.026 33.192ZM179.814 33.192C179.814 32.544 179.76 32.002 179.652 31.566C179.548 31.13 179.406 30.78 179.226 30.516C179.05 30.248 178.846 30.058 178.614 29.946C178.382 29.834 178.14 29.778 177.888 29.778C177.636 29.778 177.394 29.834 177.162 29.946C176.93 30.058 176.724 30.248 176.544 30.516C176.368 30.78 176.228 31.13 176.124 31.566C176.02 32.002 175.968 32.544 175.968 33.192C175.968 33.84 176.02 34.382 176.124 34.818C176.228 35.254 176.368 35.604 176.544 35.868C176.724 36.132 176.93 36.32 177.162 36.432C177.394 36.544 177.636 36.6 177.888 36.6C178.14 36.6 178.382 36.544 178.614 36.432C178.846 36.32 179.05 36.132 179.226 35.868C179.406 35.604 179.548 35.254 179.652 34.818C179.76 34.382 179.814 33.84 179.814 33.192ZM186.943 33.396H189.943V34.392H186.943V33.396ZM201.427 36.39C201.555 36.39 201.655 36.428 201.727 36.504C201.799 36.576 201.835 36.672 201.835 36.792V37.5H196.051V37.098C196.051 37.018 196.067 36.934 196.099 36.846C196.131 36.754 196.185 36.672 196.261 36.6L198.985 33.87C199.213 33.642 199.419 33.422 199.603 33.21C199.787 32.998 199.943 32.788 200.071 32.58C200.199 32.368 200.297 32.152 200.365 31.932C200.437 31.712 200.473 31.48 200.473 31.236C200.473 30.996 200.435 30.786 200.359 30.606C200.283 30.422 200.179 30.27 200.047 30.15C199.915 30.03 199.759 29.94 199.579 29.88C199.399 29.82 199.205 29.79 198.997 29.79C198.789 29.79 198.597 29.82 198.421 29.88C198.249 29.94 198.095 30.024 197.959 30.132C197.823 30.24 197.709 30.368 197.617 30.516C197.525 30.664 197.459 30.824 197.419 30.996C197.363 31.148 197.291 31.25 197.203 31.302C197.119 31.354 196.995 31.366 196.831 31.338L196.219 31.23C196.275 30.83 196.385 30.478 196.549 30.174C196.713 29.87 196.919 29.616 197.167 29.412C197.415 29.204 197.699 29.048 198.019 28.944C198.343 28.84 198.691 28.788 199.063 28.788C199.439 28.788 199.785 28.844 200.101 28.956C200.421 29.064 200.697 29.222 200.929 29.43C201.161 29.638 201.343 29.892 201.475 30.192C201.607 30.488 201.673 30.824 201.673 31.2C201.673 31.52 201.625 31.818 201.529 32.094C201.437 32.366 201.309 32.626 201.145 32.874C200.985 33.122 200.797 33.364 200.581 33.6C200.369 33.832 200.143 34.068 199.903 34.308L197.719 36.54C197.887 36.496 198.055 36.46 198.223 36.432C198.395 36.404 198.557 36.39 198.709 36.39H201.427ZM209.287 36.39C209.415 36.39 209.515 36.428 209.587 36.504C209.659 36.576 209.695 36.672 209.695 36.792V37.5H203.911V37.098C203.911 37.018 203.927 36.934 203.959 36.846C203.991 36.754 204.045 36.672 204.121 36.6L206.845 33.87C207.073 33.642 207.279 33.422 207.463 33.21C207.647 32.998 207.803 32.788 207.931 32.58C208.059 32.368 208.157 32.152 208.225 31.932C208.297 31.712 208.333 31.48 208.333 31.236C208.333 30.996 208.295 30.786 208.219 30.606C208.143 30.422 208.039 30.27 207.907 30.15C207.775 30.03 207.619 29.94 207.439 29.88C207.259 29.82 207.065 29.79 206.857 29.79C206.649 29.79 206.457 29.82 206.281 29.88C206.109 29.94 205.955 30.024 205.819 30.132C205.683 30.24 205.569 30.368 205.477 30.516C205.385 30.664 205.319 30.824 205.279 30.996C205.223 31.148 205.151 31.25 205.063 31.302C204.979 31.354 204.855 31.366 204.691 31.338L204.079 31.23C204.135 30.83 204.245 30.478 204.409 30.174C204.573 29.87 204.779 29.616 205.027 29.412C205.275 29.204 205.559 29.048 205.879 28.944C206.203 28.84 206.551 28.788 206.923 28.788C207.299 28.788 207.645 28.844 207.961 28.956C208.281 29.064 208.557 29.222 208.789 29.43C209.021 29.638 209.203 29.892 209.335 30.192C209.467 30.488 209.533 30.824 209.533 31.2C209.533 31.52 209.485 31.818 209.389 32.094C209.297 32.366 209.169 32.626 209.005 32.874C208.845 33.122 208.657 33.364 208.441 33.6C208.229 33.832 208.003 34.068 207.763 34.308L205.579 36.54C205.747 36.496 205.915 36.46 206.083 36.432C206.255 36.404 206.417 36.39 206.569 36.39H209.287ZM211.958 36.798C211.958 36.69 211.978 36.588 212.018 36.492C212.058 36.396 212.112 36.312 212.18 36.24C212.252 36.168 212.336 36.112 212.432 36.072C212.528 36.028 212.632 36.006 212.744 36.006C212.852 36.006 212.954 36.028 213.05 36.072C213.146 36.112 213.23 36.168 213.302 36.24C213.374 36.312 213.43 36.396 213.47 36.492C213.514 36.588 213.536 36.69 213.536 36.798C213.536 36.91 213.514 37.014 213.47 37.11C213.43 37.206 213.374 37.29 213.302 37.362C213.23 37.434 213.146 37.49 213.05 37.53C212.954 37.57 212.852 37.59 212.744 37.59C212.632 37.59 212.528 37.57 212.432 37.53C212.336 37.49 212.252 37.434 212.18 37.362C212.112 37.29 212.058 37.206 212.018 37.11C211.978 37.014 211.958 36.91 211.958 36.798ZM211.958 32.358C211.958 32.25 211.978 32.148 212.018 32.052C212.058 31.956 212.112 31.872 212.18 31.8C212.252 31.728 212.336 31.672 212.432 31.632C212.528 31.588 212.632 31.566 212.744 31.566C212.852 31.566 212.954 31.588 213.05 31.632C213.146 31.672 213.23 31.728 213.302 31.8C213.374 31.872 213.43 31.956 213.47 32.052C213.514 32.148 213.536 32.25 213.536 32.358C213.536 32.47 213.514 32.574 213.47 32.67C213.43 32.766 213.374 32.85 213.302 32.922C213.23 32.994 213.146 33.05 213.05 33.09C212.954 33.13 212.852 33.15 212.744 33.15C212.632 33.15 212.528 33.13 212.432 33.09C212.336 33.05 212.252 32.994 212.18 32.922C212.112 32.85 212.058 32.766 212.018 32.67C211.978 32.574 211.958 32.47 211.958 32.358ZM221.768 33.192C221.768 33.944 221.686 34.596 221.522 35.148C221.362 35.7 221.14 36.158 220.856 36.522C220.576 36.882 220.244 37.15 219.86 37.326C219.48 37.502 219.07 37.59 218.63 37.59C218.19 37.59 217.778 37.502 217.394 37.326C217.014 37.15 216.684 36.882 216.404 36.522C216.124 36.158 215.904 35.7 215.744 35.148C215.584 34.596 215.504 33.944 215.504 33.192C215.504 32.44 215.584 31.788 215.744 31.236C215.904 30.68 216.124 30.222 216.404 29.862C216.684 29.498 217.014 29.228 217.394 29.052C217.778 28.876 218.19 28.788 218.63 28.788C219.07 28.788 219.48 28.876 219.86 29.052C220.244 29.228 220.576 29.498 220.856 29.862C221.14 30.222 221.362 30.68 221.522 31.236C221.686 31.788 221.768 32.44 221.768 33.192ZM220.556 33.192C220.556 32.544 220.502 32.002 220.394 31.566C220.29 31.13 220.148 30.78 219.968 30.516C219.792 30.248 219.588 30.058 219.356 29.946C219.124 29.834 218.882 29.778 218.63 29.778C218.378 29.778 218.136 29.834 217.904 29.946C217.672 30.058 217.466 30.248 217.286 30.516C217.11 30.78 216.97 31.13 216.866 31.566C216.762 32.002 216.71 32.544 216.71 33.192C216.71 33.84 216.762 34.382 216.866 34.818C216.97 35.254 217.11 35.604 217.286 35.868C217.466 36.132 217.672 36.32 217.904 36.432C218.136 36.544 218.378 36.6 218.63 36.6C218.882 36.6 219.124 36.544 219.356 36.432C219.588 36.32 219.792 36.132 219.968 35.868C220.148 35.604 220.29 35.254 220.394 34.818C220.502 34.382 220.556 33.84 220.556 33.192ZM229.629 33.192C229.629 33.944 229.547 34.596 229.383 35.148C229.223 35.7 229.001 36.158 228.717 36.522C228.437 36.882 228.105 37.15 227.721 37.326C227.341 37.502 226.931 37.59 226.491 37.59C226.051 37.59 225.639 37.502 225.255 37.326C224.875 37.15 224.545 36.882 224.265 36.522C223.985 36.158 223.765 35.7 223.605 35.148C223.445 34.596 223.365 33.944 223.365 33.192C223.365 32.44 223.445 31.788 223.605 31.236C223.765 30.68 223.985 30.222 224.265 29.862C224.545 29.498 224.875 29.228 225.255 29.052C225.639 28.876 226.051 28.788 226.491 28.788C226.931 28.788 227.341 28.876 227.721 29.052C228.105 29.228 228.437 29.498 228.717 29.862C229.001 30.222 229.223 30.68 229.383 31.236C229.547 31.788 229.629 32.44 229.629 33.192ZM228.417 33.192C228.417 32.544 228.363 32.002 228.255 31.566C228.151 31.13 228.009 30.78 227.829 30.516C227.653 30.248 227.449 30.058 227.217 29.946C226.985 29.834 226.743 29.778 226.491 29.778C226.239 29.778 225.997 29.834 225.765 29.946C225.533 30.058 225.327 30.248 225.147 30.516C224.971 30.78 224.831 31.13 224.727 31.566C224.623 32.002 224.571 32.544 224.571 33.192C224.571 33.84 224.623 34.382 224.727 34.818C224.831 35.254 224.971 35.604 225.147 35.868C225.327 36.132 225.533 36.32 225.765 36.432C225.997 36.544 226.239 36.6 226.491 36.6C226.743 36.6 226.985 36.544 227.217 36.432C227.449 36.32 227.653 36.132 227.829 35.868C228.009 35.604 228.151 35.254 228.255 34.818C228.363 34.382 228.417 33.84 228.417 33.192Z" fill="#7E7E7E"/>
<g opacity="0.5" clip-path="url(#clip3_6511_2002)">
<g clip-path="url(#clip4_6511_2002)">
<g clip-path="url(#clip5_6511_2002)">
<path d="M309.043 23.084C308.429 22.4445 307.688 22.1026 306.903 22.1026C306.124 22.1026 305.377 22.4382 304.738 23.0777L302.737 25.0722C302.572 24.9835 302.407 24.9012 302.249 24.8189C302.021 24.7049 301.806 24.5973 301.622 24.4833C299.748 23.293 298.045 21.7417 296.411 19.7345C295.62 18.7341 295.088 17.892 294.702 17.0372C295.221 16.5624 295.702 16.0685 296.171 15.5936C296.348 15.4163 296.525 15.2327 296.703 15.0554C298.032 13.7258 298.032 12.0035 296.703 10.6739L294.974 8.94532C294.778 8.74904 294.575 8.54642 294.385 8.34381C294.005 7.95124 293.606 7.54601 293.195 7.16611C292.581 6.55827 291.846 6.23535 291.074 6.23535C290.301 6.23535 289.554 6.55827 288.921 7.16611C288.915 7.17244 288.915 7.17244 288.908 7.17878L286.756 9.35055C285.945 10.161 285.483 11.1488 285.382 12.2948C285.23 14.1437 285.774 15.8659 286.192 16.9929C287.218 19.7599 288.75 22.3242 291.036 25.0722C293.809 28.3837 297.146 30.9986 300.958 32.8412C302.414 33.5313 304.358 34.3481 306.529 34.4874C306.662 34.4938 306.802 34.5001 306.928 34.5001C308.391 34.5001 309.619 33.9746 310.582 32.9298C310.588 32.9172 310.601 32.9108 310.607 32.8982C310.936 32.4993 311.316 32.1384 311.715 31.7521C311.987 31.4925 312.266 31.2203 312.538 30.9353C313.165 30.2832 313.494 29.5234 313.494 28.7446C313.494 27.9594 313.159 27.206 312.519 26.5728L309.043 23.084ZM311.31 29.7513C311.304 29.7513 311.304 29.7576 311.31 29.7513C311.063 30.0172 310.81 30.2578 310.537 30.5238C310.126 30.9163 309.708 31.3279 309.315 31.7901C308.676 32.4739 307.922 32.7969 306.935 32.7969C306.84 32.7969 306.738 32.7969 306.643 32.7905C304.763 32.6702 303.015 31.9357 301.705 31.3089C298.121 29.574 294.974 27.111 292.359 23.9895C290.2 21.3871 288.756 18.9811 287.8 16.3977C287.211 14.8211 286.996 13.5928 287.091 12.4341C287.154 11.6933 287.439 11.0791 287.965 10.5536L290.124 8.39446C290.434 8.1032 290.763 7.94491 291.086 7.94491C291.485 7.94491 291.808 8.18552 292.011 8.38813C292.017 8.39446 292.023 8.40079 292.03 8.40713C292.416 8.76803 292.783 9.1416 293.17 9.5405C293.366 9.74312 293.568 9.94573 293.771 10.1547L295.5 11.8832C296.171 12.5544 296.171 13.1749 295.5 13.8461C295.316 14.0297 295.139 14.2133 294.955 14.3906C294.423 14.9351 293.917 15.4417 293.366 15.9355C293.353 15.9482 293.34 15.9545 293.334 15.9672C292.79 16.5117 292.891 17.0436 293.005 17.4045C293.011 17.4235 293.018 17.4425 293.024 17.4615C293.473 18.5505 294.107 19.5763 295.069 20.7983L295.075 20.8046C296.823 22.9574 298.665 24.6353 300.698 25.9206C300.958 26.0852 301.223 26.2182 301.477 26.3448C301.705 26.4588 301.92 26.5665 302.104 26.6804C302.129 26.6931 302.154 26.7121 302.18 26.7248C302.395 26.8324 302.597 26.883 302.806 26.883C303.332 26.883 303.661 26.5538 303.769 26.4462L305.934 24.2807C306.15 24.0654 306.491 23.8058 306.89 23.8058C307.283 23.8058 307.606 24.0528 307.802 24.268C307.808 24.2744 307.808 24.2744 307.815 24.2807L311.304 27.7695C311.956 28.4153 311.956 29.0801 311.31 29.7513Z" fill="black"/>
<path d="M301.547 11.6361C303.206 11.9147 304.713 12.6998 305.916 13.9029C307.119 15.1059 307.898 16.6128 308.183 18.2717C308.253 18.6896 308.614 18.9809 309.025 18.9809C309.076 18.9809 309.12 18.9746 309.171 18.9682C309.639 18.8922 309.95 18.449 309.874 17.9805C309.532 15.9733 308.582 14.1435 307.132 12.6935C305.682 11.2435 303.852 10.2938 301.845 9.95187C301.376 9.87589 300.939 10.1861 300.857 10.6484C300.775 11.1106 301.079 11.5601 301.547 11.6361Z" fill="black"/>
<path d="M315.299 17.7336C314.736 14.4285 313.178 11.4209 310.785 9.02754C308.391 6.63415 305.384 5.07655 302.079 4.51303C301.617 4.43072 301.18 4.7473 301.097 5.20952C301.021 5.67807 301.332 6.11495 301.8 6.19727C304.751 6.69747 307.442 8.09678 309.582 10.2306C311.722 12.3707 313.115 15.0617 313.615 18.0122C313.685 18.4301 314.046 18.7214 314.457 18.7214C314.508 18.7214 314.552 18.715 314.603 18.7087C315.065 18.6391 315.382 18.1958 315.299 17.7336Z" fill="black"/>
</g>
</g>
</g>
<path d="M333.667 22.5C333.182 22.5 332.783 22.3527 332.471 22.058C332.159 21.746 332.003 21.3647 332.003 20.914V7.81L332.367 8.382L330.469 9.786C330.226 9.97667 329.923 10.072 329.559 10.072C329.143 10.072 328.779 9.916 328.467 9.604C328.155 9.292 327.999 8.91933 327.999 8.486C327.999 7.93133 328.268 7.48067 328.805 7.134L332.549 4.638C332.722 4.51667 332.913 4.43 333.121 4.378C333.346 4.326 333.554 4.3 333.745 4.3C334.248 4.3 334.646 4.456 334.941 4.768C335.236 5.06267 335.383 5.43533 335.383 5.886V20.914C335.383 21.3647 335.218 21.746 334.889 22.058C334.577 22.3527 334.17 22.5 333.667 22.5ZM344.942 3.962C345.878 3.962 346.719 4.16133 347.464 4.56C348.227 4.94133 348.868 5.47 349.388 6.146C349.926 6.822 350.333 7.58467 350.61 8.434C350.905 9.266 351.052 10.1413 351.052 11.06C351.052 11.6493 350.983 12.3687 350.844 13.218C350.723 14.0673 350.498 14.9687 350.168 15.922C349.839 16.858 349.38 17.7767 348.79 18.678C348.201 19.562 347.447 20.3593 346.528 21.07C345.627 21.7807 344.518 22.318 343.2 22.682C342.992 22.734 342.793 22.76 342.602 22.76C342.204 22.76 341.84 22.656 341.51 22.448C341.198 22.2227 341.042 21.8413 341.042 21.304C341.042 20.9053 341.164 20.5673 341.406 20.29C341.666 20.0127 342.004 19.8133 342.42 19.692C343.218 19.4493 343.989 19.0507 344.734 18.496C345.497 17.924 346.156 17.2393 346.71 16.442C347.265 15.6273 347.638 14.7433 347.828 13.79L348.53 13.816C348.305 14.0933 348.01 14.4053 347.646 14.752C347.3 15.0987 346.866 15.402 346.346 15.662C345.844 15.9047 345.237 16.026 344.526 16.026C343.382 16.026 342.386 15.7833 341.536 15.298C340.704 14.7953 340.054 14.0933 339.586 13.192C339.118 12.2733 338.884 11.2073 338.884 9.994C338.884 8.902 339.153 7.89667 339.69 6.978C340.245 6.05933 340.982 5.33133 341.9 4.794C342.819 4.23933 343.833 3.962 344.942 3.962ZM344.942 6.822C344.388 6.822 343.885 6.96933 343.434 7.264C343.001 7.54133 342.654 7.92267 342.394 8.408C342.134 8.876 342.004 9.40467 342.004 9.994C342.004 10.6353 342.126 11.1987 342.368 11.684C342.611 12.152 342.949 12.516 343.382 12.776C343.833 13.036 344.353 13.166 344.942 13.166C345.497 13.166 345.991 13.0273 346.424 12.75C346.875 12.4727 347.23 12.0913 347.49 11.606C347.75 11.1207 347.88 10.5833 347.88 9.994C347.88 9.38733 347.75 8.85 347.49 8.382C347.23 7.89667 346.875 7.51533 346.424 7.238C345.991 6.96067 345.497 6.822 344.942 6.822ZM360.344 22.76C358.853 22.76 357.588 22.37 356.548 21.59C355.525 20.7927 354.745 19.692 354.208 18.288C353.67 16.8667 353.402 15.2373 353.402 13.4C353.402 11.5453 353.67 9.916 354.208 8.512C354.745 7.108 355.525 6.016 356.548 5.236C357.588 4.43867 358.853 4.04 360.344 4.04C361.834 4.04 363.091 4.43867 364.114 5.236C365.154 6.016 365.942 7.108 366.48 8.512C367.017 9.916 367.286 11.5453 367.286 13.4C367.286 15.2373 367.017 16.8667 366.48 18.288C365.942 19.692 365.154 20.7927 364.114 21.59C363.091 22.37 361.834 22.76 360.344 22.76ZM360.344 19.64C361.072 19.64 361.696 19.4147 362.216 18.964C362.753 18.496 363.169 17.8027 363.464 16.884C363.758 15.948 363.906 14.7867 363.906 13.4C363.906 11.996 363.758 10.8347 363.464 9.916C363.169 8.99733 362.753 8.31267 362.216 7.862C361.696 7.394 361.072 7.16 360.344 7.16C359.633 7.16 359.009 7.394 358.472 7.862C357.934 8.31267 357.518 8.99733 357.224 9.916C356.929 10.8347 356.782 11.996 356.782 13.4C356.782 14.7867 356.929 15.948 357.224 16.884C357.518 17.8027 357.934 18.496 358.472 18.964C359.009 19.4147 359.633 19.64 360.344 19.64ZM376.315 22.76C374.824 22.76 373.559 22.37 372.519 21.59C371.496 20.7927 370.716 19.692 370.179 18.288C369.641 16.8667 369.373 15.2373 369.373 13.4C369.373 11.5453 369.641 9.916 370.179 8.512C370.716 7.108 371.496 6.016 372.519 5.236C373.559 4.43867 374.824 4.04 376.315 4.04C377.805 4.04 379.062 4.43867 380.085 5.236C381.125 6.016 381.913 7.108 382.451 8.512C382.988 9.916 383.257 11.5453 383.257 13.4C383.257 15.2373 382.988 16.8667 382.451 18.288C381.913 19.692 381.125 20.7927 380.085 21.59C379.062 22.37 377.805 22.76 376.315 22.76ZM376.315 19.64C377.043 19.64 377.667 19.4147 378.187 18.964C378.724 18.496 379.14 17.8027 379.435 16.884C379.729 15.948 379.877 14.7867 379.877 13.4C379.877 11.996 379.729 10.8347 379.435 9.916C379.14 8.99733 378.724 8.31267 378.187 7.862C377.667 7.394 377.043 7.16 376.315 7.16C375.604 7.16 374.98 7.394 374.443 7.862C373.905 8.31267 373.489 8.99733 373.195 9.916C372.9 10.8347 372.753 11.996 372.753 13.4C372.753 14.7867 372.9 15.948 373.195 16.884C373.489 17.8027 373.905 18.496 374.443 18.964C374.98 19.4147 375.604 19.64 376.315 19.64ZM394.476 16.078C394.026 16.078 393.644 15.9307 393.332 15.636C393.038 15.3413 392.89 14.9687 392.89 14.518C392.89 14.0673 393.038 13.7033 393.332 13.426C393.644 13.1313 394.026 12.984 394.476 12.984H399C399.451 12.984 399.824 13.14 400.118 13.452C400.43 13.7467 400.586 14.1193 400.586 14.57C400.586 15.0033 400.43 15.3673 400.118 15.662C399.824 15.9393 399.451 16.078 399 16.078H394.476ZM419.222 13.27L419.17 12.672C419.829 12.9667 420.401 13.348 420.886 13.816C421.371 14.284 421.744 14.7953 422.004 15.35C422.264 15.9047 422.394 16.4767 422.394 17.066C422.394 18.054 422.117 18.964 421.562 19.796C421.025 20.6107 420.297 21.2693 419.378 21.772C418.459 22.2573 417.437 22.5 416.31 22.5C415.183 22.5 414.161 22.2573 413.242 21.772C412.323 21.2693 411.587 20.6107 411.032 19.796C410.495 18.964 410.226 18.054 410.226 17.066C410.226 16.2687 410.391 15.584 410.72 15.012C411.067 14.4227 411.491 13.9287 411.994 13.53C412.514 13.1313 413.025 12.802 413.528 12.542L413.32 13.27C412.887 13.0967 412.462 12.854 412.046 12.542C411.647 12.2127 411.318 11.7967 411.058 11.294C410.798 10.7913 410.668 10.202 410.668 9.526C410.668 8.55533 410.919 7.68 411.422 6.9C411.925 6.10267 412.601 5.47 413.45 5.002C414.317 4.534 415.27 4.3 416.31 4.3C417.367 4.3 418.312 4.534 419.144 5.002C419.993 5.47 420.669 6.10267 421.172 6.9C421.675 7.68 421.926 8.55533 421.926 9.526C421.926 10.2713 421.779 10.8953 421.484 11.398C421.189 11.9007 420.834 12.2993 420.418 12.594C420.002 12.8887 419.603 13.114 419.222 13.27ZM413.788 9.578C413.788 10.046 413.892 10.462 414.1 10.826C414.325 11.19 414.629 11.4847 415.01 11.71C415.391 11.918 415.825 12.022 416.31 12.022C416.795 12.022 417.22 11.918 417.584 11.71C417.965 11.4847 418.26 11.19 418.468 10.826C418.693 10.462 418.806 10.046 418.806 9.578C418.806 8.88467 418.563 8.31267 418.078 7.862C417.61 7.394 417.021 7.16 416.31 7.16C415.582 7.16 414.975 7.394 414.49 7.862C414.022 8.31267 413.788 8.88467 413.788 9.578ZM416.31 19.64C417.142 19.64 417.844 19.3887 418.416 18.886C418.988 18.366 419.274 17.742 419.274 17.014C419.274 16.5113 419.144 16.0607 418.884 15.662C418.624 15.2633 418.269 14.9513 417.818 14.726C417.367 14.4833 416.865 14.362 416.31 14.362C415.755 14.362 415.253 14.4833 414.802 14.726C414.351 14.9513 413.996 15.2633 413.736 15.662C413.476 16.0607 413.346 16.5113 413.346 17.014C413.346 17.742 413.632 18.366 414.204 18.886C414.776 19.3887 415.478 19.64 416.31 19.64ZM433.466 13.27L433.414 12.672C434.073 12.9667 434.645 13.348 435.13 13.816C435.616 14.284 435.988 14.7953 436.248 15.35C436.508 15.9047 436.638 16.4767 436.638 17.066C436.638 18.054 436.361 18.964 435.806 19.796C435.269 20.6107 434.541 21.2693 433.622 21.772C432.704 22.2573 431.681 22.5 430.554 22.5C429.428 22.5 428.405 22.2573 427.486 21.772C426.568 21.2693 425.831 20.6107 425.276 19.796C424.739 18.964 424.47 18.054 424.47 17.066C424.47 16.2687 424.635 15.584 424.964 15.012C425.311 14.4227 425.736 13.9287 426.238 13.53C426.758 13.1313 427.27 12.802 427.772 12.542L427.564 13.27C427.131 13.0967 426.706 12.854 426.29 12.542C425.892 12.2127 425.562 11.7967 425.302 11.294C425.042 10.7913 424.912 10.202 424.912 9.526C424.912 8.55533 425.164 7.68 425.666 6.9C426.169 6.10267 426.845 5.47 427.694 5.002C428.561 4.534 429.514 4.3 430.554 4.3C431.612 4.3 432.556 4.534 433.388 5.002C434.238 5.47 434.914 6.10267 435.416 6.9C435.919 7.68 436.17 8.55533 436.17 9.526C436.17 10.2713 436.023 10.8953 435.728 11.398C435.434 11.9007 435.078 12.2993 434.662 12.594C434.246 12.8887 433.848 13.114 433.466 13.27ZM428.032 9.578C428.032 10.046 428.136 10.462 428.344 10.826C428.57 11.19 428.873 11.4847 429.254 11.71C429.636 11.918 430.069 12.022 430.554 12.022C431.04 12.022 431.464 11.918 431.828 11.71C432.21 11.4847 432.504 11.19 432.712 10.826C432.938 10.462 433.05 10.046 433.05 9.578C433.05 8.88467 432.808 8.31267 432.322 7.862C431.854 7.394 431.265 7.16 430.554 7.16C429.826 7.16 429.22 7.394 428.734 7.862C428.266 8.31267 428.032 8.88467 428.032 9.578ZM430.554 19.64C431.386 19.64 432.088 19.3887 432.66 18.886C433.232 18.366 433.518 17.742 433.518 17.014C433.518 16.5113 433.388 16.0607 433.128 15.662C432.868 15.2633 432.513 14.9513 432.062 14.726C431.612 14.4833 431.109 14.362 430.554 14.362C430 14.362 429.497 14.4833 429.046 14.726C428.596 14.9513 428.24 15.2633 427.98 15.662C427.72 16.0607 427.59 16.5113 427.59 17.014C427.59 17.742 427.876 18.366 428.448 18.886C429.02 19.3887 429.722 19.64 430.554 19.64ZM447.71 13.27L447.658 12.672C448.317 12.9667 448.889 13.348 449.374 13.816C449.86 14.284 450.232 14.7953 450.492 15.35C450.752 15.9047 450.882 16.4767 450.882 17.066C450.882 18.054 450.605 18.964 450.05 19.796C449.513 20.6107 448.785 21.2693 447.866 21.772C446.948 22.2573 445.925 22.5 444.798 22.5C443.672 22.5 442.649 22.2573 441.73 21.772C440.812 21.2693 440.075 20.6107 439.52 19.796C438.983 18.964 438.714 18.054 438.714 17.066C438.714 16.2687 438.879 15.584 439.208 15.012C439.555 14.4227 439.98 13.9287 440.482 13.53C441.002 13.1313 441.514 12.802 442.016 12.542L441.808 13.27C441.375 13.0967 440.95 12.854 440.534 12.542C440.136 12.2127 439.806 11.7967 439.546 11.294C439.286 10.7913 439.156 10.202 439.156 9.526C439.156 8.55533 439.408 7.68 439.91 6.9C440.413 6.10267 441.089 5.47 441.938 5.002C442.805 4.534 443.758 4.3 444.798 4.3C445.856 4.3 446.8 4.534 447.632 5.002C448.482 5.47 449.158 6.10267 449.66 6.9C450.163 7.68 450.414 8.55533 450.414 9.526C450.414 10.2713 450.267 10.8953 449.972 11.398C449.678 11.9007 449.322 12.2993 448.906 12.594C448.49 12.8887 448.092 13.114 447.71 13.27ZM442.276 9.578C442.276 10.046 442.38 10.462 442.588 10.826C442.814 11.19 443.117 11.4847 443.498 11.71C443.88 11.918 444.313 12.022 444.798 12.022C445.284 12.022 445.708 11.918 446.072 11.71C446.454 11.4847 446.748 11.19 446.956 10.826C447.182 10.462 447.294 10.046 447.294 9.578C447.294 8.88467 447.052 8.31267 446.566 7.862C446.098 7.394 445.509 7.16 444.798 7.16C444.07 7.16 443.464 7.394 442.978 7.862C442.51 8.31267 442.276 8.88467 442.276 9.578ZM444.798 19.64C445.63 19.64 446.332 19.3887 446.904 18.886C447.476 18.366 447.762 17.742 447.762 17.014C447.762 16.5113 447.632 16.0607 447.372 15.662C447.112 15.2633 446.757 14.9513 446.306 14.726C445.856 14.4833 445.353 14.362 444.798 14.362C444.244 14.362 443.741 14.4833 443.29 14.726C442.84 14.9513 442.484 15.2633 442.224 15.662C441.964 16.0607 441.834 16.5113 441.834 17.014C441.834 17.742 442.12 18.366 442.692 18.886C443.264 19.3887 443.966 19.64 444.798 19.64ZM461.954 13.27L461.902 12.672C462.561 12.9667 463.133 13.348 463.618 13.816C464.104 14.284 464.476 14.7953 464.736 15.35C464.996 15.9047 465.126 16.4767 465.126 17.066C465.126 18.054 464.849 18.964 464.294 19.796C463.757 20.6107 463.029 21.2693 462.11 21.772C461.192 22.2573 460.169 22.5 459.042 22.5C457.916 22.5 456.893 22.2573 455.974 21.772C455.056 21.2693 454.319 20.6107 453.764 19.796C453.227 18.964 452.958 18.054 452.958 17.066C452.958 16.2687 453.123 15.584 453.452 15.012C453.799 14.4227 454.224 13.9287 454.726 13.53C455.246 13.1313 455.758 12.802 456.26 12.542L456.052 13.27C455.619 13.0967 455.194 12.854 454.778 12.542C454.38 12.2127 454.05 11.7967 453.79 11.294C453.53 10.7913 453.4 10.202 453.4 9.526C453.4 8.55533 453.652 7.68 454.154 6.9C454.657 6.10267 455.333 5.47 456.182 5.002C457.049 4.534 458.002 4.3 459.042 4.3C460.1 4.3 461.044 4.534 461.876 5.002C462.726 5.47 463.402 6.10267 463.904 6.9C464.407 7.68 464.658 8.55533 464.658 9.526C464.658 10.2713 464.511 10.8953 464.216 11.398C463.922 11.9007 463.566 12.2993 463.15 12.594C462.734 12.8887 462.336 13.114 461.954 13.27ZM456.52 9.578C456.52 10.046 456.624 10.462 456.832 10.826C457.058 11.19 457.361 11.4847 457.742 11.71C458.124 11.918 458.557 12.022 459.042 12.022C459.528 12.022 459.952 11.918 460.316 11.71C460.698 11.4847 460.992 11.19 461.2 10.826C461.426 10.462 461.538 10.046 461.538 9.578C461.538 8.88467 461.296 8.31267 460.81 7.862C460.342 7.394 459.753 7.16 459.042 7.16C458.314 7.16 457.708 7.394 457.222 7.862C456.754 8.31267 456.52 8.88467 456.52 9.578ZM459.042 19.64C459.874 19.64 460.576 19.3887 461.148 18.886C461.72 18.366 462.006 17.742 462.006 17.014C462.006 16.5113 461.876 16.0607 461.616 15.662C461.356 15.2633 461.001 14.9513 460.55 14.726C460.1 14.4833 459.597 14.362 459.042 14.362C458.488 14.362 457.985 14.4833 457.534 14.726C457.084 14.9513 456.728 15.2633 456.468 15.662C456.208 16.0607 456.078 16.5113 456.078 17.014C456.078 17.742 456.364 18.366 456.936 18.886C457.508 19.3887 458.21 19.64 459.042 19.64Z" fill="#3BB77E"/>
<path d="M339.516 36.39C339.644 36.39 339.744 36.428 339.816 36.504C339.888 36.576 339.924 36.672 339.924 36.792V37.5H334.14V37.098C334.14 37.018 334.156 36.934 334.188 36.846C334.22 36.754 334.274 36.672 334.35 36.6L337.074 33.87C337.302 33.642 337.508 33.422 337.692 33.21C337.876 32.998 338.032 32.788 338.16 32.58C338.288 32.368 338.386 32.152 338.454 31.932C338.526 31.712 338.562 31.48 338.562 31.236C338.562 30.996 338.524 30.786 338.448 30.606C338.372 30.422 338.268 30.27 338.136 30.15C338.004 30.03 337.848 29.94 337.668 29.88C337.488 29.82 337.294 29.79 337.086 29.79C336.878 29.79 336.686 29.82 336.51 29.88C336.338 29.94 336.184 30.024 336.048 30.132C335.912 30.24 335.798 30.368 335.706 30.516C335.614 30.664 335.548 30.824 335.508 30.996C335.452 31.148 335.38 31.25 335.292 31.302C335.208 31.354 335.084 31.366 334.92 31.338L334.308 31.23C334.364 30.83 334.474 30.478 334.638 30.174C334.802 29.87 335.008 29.616 335.256 29.412C335.504 29.204 335.788 29.048 336.108 28.944C336.432 28.84 336.78 28.788 337.152 28.788C337.528 28.788 337.874 28.844 338.19 28.956C338.51 29.064 338.786 29.222 339.018 29.43C339.25 29.638 339.432 29.892 339.564 30.192C339.696 30.488 339.762 30.824 339.762 31.2C339.762 31.52 339.714 31.818 339.618 32.094C339.526 32.366 339.398 32.626 339.234 32.874C339.074 33.122 338.886 33.364 338.67 33.6C338.458 33.832 338.232 34.068 337.992 34.308L335.808 36.54C335.976 36.496 336.144 36.46 336.312 36.432C336.484 36.404 336.646 36.39 336.798 36.39H339.516ZM345.816 34.356V30.996C345.816 30.88 345.818 30.758 345.822 30.63C345.83 30.498 345.844 30.362 345.864 30.222L342.846 34.356H345.816ZM348.09 34.356V35.034C348.09 35.102 348.068 35.16 348.024 35.208C347.98 35.256 347.918 35.28 347.838 35.28H346.842V37.5H345.816V35.28H342.036C341.948 35.28 341.874 35.256 341.814 35.208C341.754 35.156 341.714 35.092 341.694 35.016L341.574 34.416L345.738 28.878H346.842V34.356H348.09ZM350.839 37.596C350.783 37.748 350.695 37.86 350.575 37.932C350.455 38.008 350.331 38.046 350.203 38.046H349.711L353.287 29.07C353.343 28.934 353.423 28.83 353.527 28.758C353.635 28.682 353.759 28.644 353.899 28.644H354.397L350.839 37.596ZM362.186 28.884V29.406C362.186 29.558 362.168 29.682 362.132 29.778C362.1 29.87 362.068 29.95 362.036 30.018L358.544 37.086C358.488 37.202 358.41 37.3 358.31 37.38C358.21 37.46 358.076 37.5 357.908 37.5H357.068L360.614 30.534C360.674 30.422 360.734 30.32 360.794 30.228C360.854 30.132 360.92 30.044 360.992 29.964H356.588C356.512 29.964 356.446 29.936 356.39 29.88C356.334 29.824 356.306 29.758 356.306 29.682V28.884H362.186ZM372.998 30.288C372.958 30.356 372.916 30.406 372.872 30.438C372.828 30.47 372.772 30.486 372.704 30.486C372.632 30.486 372.55 30.454 372.458 30.39C372.366 30.322 372.25 30.248 372.11 30.168C371.974 30.084 371.81 30.01 371.618 29.946C371.426 29.878 371.196 29.844 370.928 29.844C370.676 29.844 370.454 29.878 370.262 29.946C370.074 30.01 369.916 30.1 369.788 30.216C369.66 30.328 369.562 30.462 369.494 30.618C369.43 30.77 369.398 30.936 369.398 31.116C369.398 31.348 369.456 31.54 369.572 31.692C369.692 31.844 369.848 31.974 370.04 32.082C370.232 32.19 370.45 32.284 370.694 32.364C370.938 32.444 371.188 32.528 371.444 32.616C371.7 32.7 371.95 32.798 372.194 32.91C372.438 33.022 372.656 33.164 372.848 33.336C373.04 33.504 373.194 33.712 373.31 33.96C373.43 34.204 373.49 34.504 373.49 34.86C373.49 35.24 373.424 35.596 373.292 35.928C373.164 36.26 372.976 36.55 372.728 36.798C372.48 37.046 372.174 37.242 371.81 37.386C371.45 37.526 371.04 37.596 370.58 37.596C370.304 37.596 370.036 37.568 369.776 37.512C369.516 37.46 369.27 37.386 369.038 37.29C368.806 37.19 368.588 37.072 368.384 36.936C368.184 36.796 368.004 36.64 367.844 36.468L368.21 35.856C368.246 35.808 368.288 35.768 368.336 35.736C368.388 35.704 368.446 35.688 368.51 35.688C368.594 35.688 368.69 35.732 368.798 35.82C368.91 35.908 369.046 36.006 369.206 36.114C369.37 36.218 369.564 36.314 369.788 36.402C370.016 36.49 370.292 36.534 370.616 36.534C370.88 36.534 371.116 36.5 371.324 36.432C371.532 36.36 371.706 36.26 371.846 36.132C371.99 36 372.1 35.842 372.176 35.658C372.252 35.474 372.29 35.27 372.29 35.046C372.29 34.794 372.232 34.588 372.116 34.428C372 34.268 371.846 34.134 371.654 34.026C371.462 33.918 371.244 33.826 371 33.75C370.756 33.674 370.506 33.596 370.25 33.516C369.994 33.432 369.744 33.336 369.5 33.228C369.256 33.12 369.038 32.98 368.846 32.808C368.654 32.632 368.5 32.414 368.384 32.154C368.268 31.89 368.21 31.566 368.21 31.182C368.21 30.874 368.27 30.576 368.39 30.288C368.51 30 368.684 29.746 368.912 29.526C369.144 29.302 369.428 29.124 369.764 28.992C370.1 28.856 370.484 28.788 370.916 28.788C371.4 28.788 371.844 28.866 372.248 29.022C372.656 29.174 373.01 29.394 373.31 29.682L372.998 30.288ZM380.681 31.404V37.5H379.979C379.819 37.5 379.715 37.422 379.667 37.266L379.583 36.654C379.451 36.794 379.313 36.922 379.169 37.038C379.025 37.154 378.871 37.254 378.707 37.338C378.543 37.418 378.369 37.48 378.185 37.524C378.001 37.572 377.803 37.596 377.591 37.596C377.255 37.596 376.959 37.54 376.703 37.428C376.451 37.316 376.239 37.16 376.067 36.96C375.895 36.756 375.765 36.512 375.677 36.228C375.589 35.944 375.545 35.63 375.545 35.286V31.404H376.721V35.286C376.721 35.722 376.821 36.062 377.021 36.306C377.221 36.546 377.527 36.666 377.939 36.666C378.239 36.666 378.519 36.596 378.779 36.456C379.039 36.312 379.283 36.116 379.511 35.868V31.404H380.681ZM384.384 36C384.576 36.252 384.782 36.428 385.002 36.528C385.226 36.628 385.476 36.678 385.752 36.678C386.288 36.678 386.702 36.486 386.994 36.102C387.29 35.714 387.438 35.15 387.438 34.41C387.438 34.022 387.404 33.692 387.336 33.42C387.272 33.144 387.176 32.92 387.048 32.748C386.924 32.572 386.77 32.444 386.586 32.364C386.402 32.28 386.194 32.238 385.962 32.238C385.622 32.238 385.326 32.314 385.074 32.466C384.826 32.618 384.596 32.834 384.384 33.114V36ZM384.324 32.316C384.452 32.164 384.588 32.026 384.732 31.902C384.88 31.774 385.038 31.666 385.206 31.578C385.374 31.486 385.552 31.416 385.74 31.368C385.932 31.316 386.136 31.29 386.352 31.29C386.7 31.29 387.014 31.358 387.294 31.494C387.578 31.63 387.82 31.83 388.02 32.094C388.22 32.358 388.374 32.684 388.482 33.072C388.594 33.46 388.65 33.906 388.65 34.41C388.65 34.862 388.588 35.282 388.464 35.67C388.344 36.054 388.17 36.388 387.942 36.672C387.718 36.956 387.442 37.18 387.114 37.344C386.79 37.504 386.424 37.584 386.016 37.584C385.652 37.584 385.34 37.524 385.08 37.404C384.82 37.284 384.588 37.116 384.384 36.9V39.546H383.214V31.404H383.916C384.08 31.404 384.182 31.482 384.222 31.638L384.324 32.316ZM392.034 36C392.226 36.252 392.432 36.428 392.652 36.528C392.876 36.628 393.126 36.678 393.402 36.678C393.938 36.678 394.352 36.486 394.644 36.102C394.94 35.714 395.088 35.15 395.088 34.41C395.088 34.022 395.054 33.692 394.986 33.42C394.922 33.144 394.826 32.92 394.698 32.748C394.574 32.572 394.42 32.444 394.236 32.364C394.052 32.28 393.844 32.238 393.612 32.238C393.272 32.238 392.976 32.314 392.724 32.466C392.476 32.618 392.246 32.834 392.034 33.114V36ZM391.974 32.316C392.102 32.164 392.238 32.026 392.382 31.902C392.53 31.774 392.688 31.666 392.856 31.578C393.024 31.486 393.202 31.416 393.39 31.368C393.582 31.316 393.786 31.29 394.002 31.29C394.35 31.29 394.664 31.358 394.944 31.494C395.228 31.63 395.47 31.83 395.67 32.094C395.87 32.358 396.024 32.684 396.132 33.072C396.244 33.46 396.3 33.906 396.3 34.41C396.3 34.862 396.238 35.282 396.114 35.67C395.994 36.054 395.82 36.388 395.592 36.672C395.368 36.956 395.092 37.18 394.764 37.344C394.44 37.504 394.074 37.584 393.666 37.584C393.302 37.584 392.99 37.524 392.73 37.404C392.47 37.284 392.238 37.116 392.034 36.9V39.546H390.864V31.404H391.566C391.73 31.404 391.832 31.482 391.872 31.638L391.974 32.316ZM401.112 31.308C401.56 31.308 401.964 31.382 402.324 31.53C402.688 31.674 402.996 31.884 403.248 32.16C403.504 32.432 403.7 32.762 403.836 33.15C403.972 33.534 404.04 33.966 404.04 34.446C404.04 34.926 403.972 35.36 403.836 35.748C403.7 36.136 403.504 36.466 403.248 36.738C402.996 37.01 402.688 37.22 402.324 37.368C401.964 37.512 401.56 37.584 401.112 37.584C400.66 37.584 400.252 37.512 399.888 37.368C399.528 37.22 399.22 37.01 398.964 36.738C398.708 36.466 398.51 36.136 398.37 35.748C398.234 35.36 398.166 34.926 398.166 34.446C398.166 33.966 398.234 33.534 398.37 33.15C398.51 32.762 398.708 32.432 398.964 32.16C399.22 31.884 399.528 31.674 399.888 31.53C400.252 31.382 400.66 31.308 401.112 31.308ZM401.112 36.672C401.688 36.672 402.118 36.478 402.402 36.09C402.686 35.702 402.828 35.156 402.828 34.452C402.828 33.748 402.686 33.202 402.402 32.814C402.118 32.422 401.688 32.226 401.112 32.226C400.528 32.226 400.092 32.422 399.804 32.814C399.52 33.202 399.378 33.748 399.378 34.452C399.378 35.156 399.52 35.702 399.804 36.09C400.092 36.478 400.528 36.672 401.112 36.672ZM407.35 32.574C407.546 32.174 407.782 31.86 408.058 31.632C408.334 31.404 408.666 31.29 409.054 31.29C409.186 31.29 409.31 31.306 409.426 31.338C409.546 31.366 409.65 31.41 409.738 31.47L409.66 32.352C409.632 32.46 409.566 32.514 409.462 32.514C409.406 32.514 409.322 32.504 409.21 32.484C409.098 32.46 408.978 32.448 408.85 32.448C408.662 32.448 408.496 32.476 408.352 32.532C408.208 32.584 408.078 32.664 407.962 32.772C407.85 32.876 407.75 33.006 407.662 33.162C407.574 33.314 407.492 33.488 407.416 33.684V37.5H406.246V31.404H406.918C407.046 31.404 407.132 31.428 407.176 31.476C407.224 31.52 407.258 31.6 407.278 31.716L407.35 32.574ZM413.448 37.596C412.956 37.596 412.576 37.458 412.308 37.182C412.044 36.906 411.912 36.512 411.912 36V32.352H411.204C411.136 32.352 411.078 32.332 411.03 32.292C410.986 32.248 410.964 32.184 410.964 32.1V31.626L411.954 31.488L412.218 29.67C412.234 29.602 412.264 29.55 412.308 29.514C412.356 29.474 412.416 29.454 412.488 29.454H413.082V31.5H414.81V32.352H413.082V35.922C413.082 36.162 413.14 36.342 413.256 36.462C413.376 36.578 413.528 36.636 413.712 36.636C413.82 36.636 413.912 36.622 413.988 36.594C414.068 36.566 414.136 36.536 414.192 36.504C414.248 36.468 414.296 36.436 414.336 36.408C414.376 36.38 414.412 36.366 414.444 36.366C414.484 36.366 414.514 36.376 414.534 36.396C414.558 36.412 414.582 36.44 414.606 36.48L414.954 37.044C414.762 37.22 414.534 37.356 414.27 37.452C414.006 37.548 413.732 37.596 413.448 37.596ZM426.981 35.652C427.053 35.652 427.115 35.68 427.167 35.736L427.671 36.288C427.319 36.704 426.889 37.026 426.381 37.254C425.877 37.482 425.269 37.596 424.557 37.596C423.933 37.596 423.367 37.488 422.859 37.272C422.355 37.056 421.923 36.754 421.563 36.366C421.207 35.978 420.931 35.514 420.735 34.974C420.539 34.434 420.441 33.84 420.441 33.192C420.441 32.544 420.543 31.95 420.747 31.41C420.955 30.87 421.245 30.406 421.617 30.018C421.989 29.63 422.433 29.328 422.949 29.112C423.469 28.896 424.043 28.788 424.671 28.788C425.283 28.788 425.827 28.888 426.303 29.088C426.779 29.288 427.193 29.554 427.545 29.886L427.125 30.48C427.097 30.524 427.061 30.56 427.017 30.588C426.977 30.616 426.923 30.63 426.855 30.63C426.779 30.63 426.689 30.592 426.585 30.516C426.485 30.44 426.351 30.356 426.183 30.264C426.019 30.168 425.815 30.082 425.571 30.006C425.327 29.93 425.023 29.892 424.659 29.892C424.231 29.892 423.839 29.968 423.483 30.12C423.127 30.268 422.819 30.484 422.559 30.768C422.303 31.048 422.103 31.394 421.959 31.806C421.819 32.214 421.749 32.676 421.749 33.192C421.749 33.716 421.823 34.182 421.971 34.59C422.119 34.998 422.323 35.344 422.583 35.628C422.843 35.912 423.149 36.128 423.501 36.276C423.853 36.424 424.233 36.498 424.641 36.498C424.889 36.498 425.111 36.484 425.307 36.456C425.507 36.424 425.689 36.378 425.853 36.318C426.021 36.258 426.179 36.182 426.327 36.09C426.475 35.994 426.621 35.88 426.765 35.748C426.797 35.72 426.831 35.698 426.867 35.682C426.903 35.662 426.941 35.652 426.981 35.652ZM433.536 33.774C433.536 33.542 433.502 33.328 433.434 33.132C433.37 32.936 433.274 32.766 433.146 32.622C433.018 32.478 432.862 32.366 432.678 32.286C432.494 32.206 432.282 32.166 432.042 32.166C431.55 32.166 431.162 32.308 430.878 32.592C430.598 32.876 430.42 33.27 430.344 33.774H433.536ZM434.502 36.63C434.358 36.798 434.192 36.944 434.004 37.068C433.816 37.188 433.616 37.286 433.404 37.362C433.192 37.438 432.972 37.494 432.744 37.53C432.52 37.566 432.298 37.584 432.078 37.584C431.658 37.584 431.268 37.514 430.908 37.374C430.552 37.23 430.242 37.022 429.978 36.75C429.718 36.474 429.514 36.134 429.366 35.73C429.222 35.322 429.15 34.854 429.15 34.326C429.15 33.902 429.216 33.508 429.348 33.144C429.48 32.776 429.668 32.456 429.912 32.184C430.16 31.912 430.462 31.698 430.818 31.542C431.174 31.386 431.574 31.308 432.018 31.308C432.39 31.308 432.732 31.37 433.044 31.494C433.36 31.614 433.632 31.79 433.86 32.022C434.088 32.254 434.266 32.54 434.394 32.88C434.526 33.22 434.592 33.608 434.592 34.044C434.592 34.224 434.572 34.346 434.532 34.41C434.492 34.47 434.418 34.5 434.31 34.5H430.314C430.326 34.864 430.378 35.182 430.47 35.454C430.562 35.722 430.688 35.946 430.848 36.126C431.012 36.306 431.206 36.44 431.43 36.528C431.654 36.616 431.904 36.66 432.18 36.66C432.44 36.66 432.664 36.63 432.852 36.57C433.044 36.51 433.208 36.446 433.344 36.378C433.484 36.306 433.6 36.24 433.692 36.18C433.788 36.12 433.872 36.09 433.944 36.09C434.04 36.09 434.114 36.126 434.166 36.198L434.502 36.63ZM437.848 32.25C437.98 32.11 438.118 31.982 438.262 31.866C438.406 31.75 438.558 31.652 438.718 31.572C438.882 31.488 439.056 31.424 439.24 31.38C439.428 31.332 439.628 31.308 439.84 31.308C440.176 31.308 440.47 31.364 440.722 31.476C440.978 31.588 441.192 31.746 441.364 31.95C441.536 32.15 441.666 32.392 441.754 32.676C441.842 32.96 441.886 33.274 441.886 33.618V37.5H440.71V33.618C440.71 33.182 440.61 32.844 440.41 32.604C440.21 32.36 439.904 32.238 439.492 32.238C439.192 32.238 438.91 32.31 438.646 32.454C438.386 32.594 438.144 32.786 437.92 33.03V37.5H436.75V31.404H437.452C437.616 31.404 437.718 31.482 437.758 31.638L437.848 32.25ZM446.19 37.596C445.698 37.596 445.318 37.458 445.05 37.182C444.786 36.906 444.654 36.512 444.654 36V32.352H443.946C443.878 32.352 443.82 32.332 443.772 32.292C443.728 32.248 443.706 32.184 443.706 32.1V31.626L444.696 31.488L444.96 29.67C444.976 29.602 445.006 29.55 445.05 29.514C445.098 29.474 445.158 29.454 445.23 29.454H445.824V31.5H447.552V32.352H445.824V35.922C445.824 36.162 445.882 36.342 445.998 36.462C446.118 36.578 446.27 36.636 446.454 36.636C446.562 36.636 446.654 36.622 446.73 36.594C446.81 36.566 446.878 36.536 446.934 36.504C446.99 36.468 447.038 36.436 447.078 36.408C447.118 36.38 447.154 36.366 447.186 36.366C447.226 36.366 447.256 36.376 447.276 36.396C447.3 36.412 447.324 36.44 447.348 36.48L447.696 37.044C447.504 37.22 447.276 37.356 447.012 37.452C446.748 37.548 446.474 37.596 446.19 37.596ZM453.533 33.774C453.533 33.542 453.499 33.328 453.431 33.132C453.367 32.936 453.271 32.766 453.143 32.622C453.015 32.478 452.859 32.366 452.675 32.286C452.491 32.206 452.279 32.166 452.039 32.166C451.547 32.166 451.159 32.308 450.875 32.592C450.595 32.876 450.417 33.27 450.341 33.774H453.533ZM454.499 36.63C454.355 36.798 454.189 36.944 454.001 37.068C453.813 37.188 453.613 37.286 453.401 37.362C453.189 37.438 452.969 37.494 452.741 37.53C452.517 37.566 452.295 37.584 452.075 37.584C451.655 37.584 451.265 37.514 450.905 37.374C450.549 37.23 450.239 37.022 449.975 36.75C449.715 36.474 449.511 36.134 449.363 35.73C449.219 35.322 449.147 34.854 449.147 34.326C449.147 33.902 449.213 33.508 449.345 33.144C449.477 32.776 449.665 32.456 449.909 32.184C450.157 31.912 450.459 31.698 450.815 31.542C451.171 31.386 451.571 31.308 452.015 31.308C452.387 31.308 452.729 31.37 453.041 31.494C453.357 31.614 453.629 31.79 453.857 32.022C454.085 32.254 454.263 32.54 454.391 32.88C454.523 33.22 454.589 33.608 454.589 34.044C454.589 34.224 454.569 34.346 454.529 34.41C454.489 34.47 454.415 34.5 454.307 34.5H450.311C450.323 34.864 450.375 35.182 450.467 35.454C450.559 35.722 450.685 35.946 450.845 36.126C451.009 36.306 451.203 36.44 451.427 36.528C451.651 36.616 451.901 36.66 452.177 36.66C452.437 36.66 452.661 36.63 452.849 36.57C453.041 36.51 453.205 36.446 453.341 36.378C453.481 36.306 453.597 36.24 453.689 36.18C453.785 36.12 453.869 36.09 453.941 36.09C454.037 36.09 454.111 36.126 454.163 36.198L454.499 36.63ZM457.851 32.574C458.047 32.174 458.283 31.86 458.559 31.632C458.835 31.404 459.167 31.29 459.555 31.29C459.687 31.29 459.811 31.306 459.927 31.338C460.047 31.366 460.151 31.41 460.239 31.47L460.161 32.352C460.133 32.46 460.067 32.514 459.963 32.514C459.907 32.514 459.823 32.504 459.711 32.484C459.599 32.46 459.479 32.448 459.351 32.448C459.163 32.448 458.997 32.476 458.853 32.532C458.709 32.584 458.579 32.664 458.463 32.772C458.351 32.876 458.251 33.006 458.163 33.162C458.075 33.314 457.993 33.488 457.917 33.684V37.5H456.747V31.404H457.419C457.547 31.404 457.633 31.428 457.677 31.476C457.725 31.52 457.759 31.6 457.779 31.716L457.851 32.574Z" fill="#7E7E7E"/>
<defs>
<clipPath id="clip0_6511_2002">
<rect width="30" height="38" fill="white" transform="translate(52.6289 0.5)"/>
</clipPath>
<clipPath id="clip1_6511_2002">
<rect width="30" height="38" fill="white" transform="translate(52.6289 0.5)"/>
</clipPath>
<clipPath id="clip2_6511_2002">
<rect width="30" height="30" fill="white" transform="translate(52.6289 4.5)"/>
</clipPath>
<clipPath id="clip3_6511_2002">
<rect width="30" height="38" fill="white" transform="translate(285.332 0.5)"/>
</clipPath>
<clipPath id="clip4_6511_2002">
<rect width="30" height="38" fill="white" transform="translate(285.332 0.5)"/>
</clipPath>
<clipPath id="clip5_6511_2002">
<rect width="30" height="30" fill="white" transform="translate(285.332 4.5)"/>
</clipPath>
</defs>
</svg>
