<svg width="177" height="16" viewBox="0 0 177 16" fill="none" xmlns="http://www.w3.org/2000/svg">
<path d="M7.18945 15.1562C6.20638 15.1562 5.27865 14.9674 4.40625 14.5898C3.51432 14.2057 2.7526 13.6947 2.12109 13.0566C1.47656 12.4251 0.96875 11.6634 0.597656 10.7715C0.220052 9.89909 0.03125 8.97135 0.03125 7.98828C0.03125 7.01172 0.220052 6.08398 0.597656 5.20508C0.96875 4.31966 1.47656 3.5612 2.12109 2.92969C2.75911 2.29167 3.52083 1.78385 4.40625 1.40625C5.27865 1.02865 6.20638 0.839844 7.18945 0.839844C8.15951 0.839844 9.08398 1.02865 9.96289 1.40625C10.8548 1.78385 11.6165 2.29167 12.248 2.92969C12.8796 3.56771 13.3874 4.32943 13.7715 5.21484C14.1491 6.09375 14.3379 7.01823 14.3379 7.98828C14.3379 9.28385 14.0189 10.485 13.3809 11.5918C12.7363 12.6921 11.8672 13.5612 10.7734 14.1992C9.67318 14.8372 8.47852 15.1562 7.18945 15.1562ZM7.18945 14.3262C8.32878 14.3262 9.38346 14.043 10.3535 13.4766C11.3236 12.9102 12.0918 12.1387 12.6582 11.1621C13.2181 10.1921 13.498 9.13411 13.498 7.98828C13.498 6.84896 13.2181 5.79427 12.6582 4.82422C12.0918 3.85417 11.3236 3.08594 10.3535 2.51953C9.38346 1.95312 8.32878 1.66992 7.18945 1.66992C6.03711 1.66992 4.97917 1.95312 4.01562 2.51953C3.03906 3.08594 2.27083 3.85417 1.71094 4.82422C1.14453 5.78776 0.861328 6.84245 0.861328 7.98828C0.861328 9.13411 1.14453 10.1921 1.71094 11.1621C2.26432 12.1387 3.03255 12.9102 4.01562 13.4766C4.97917 14.043 6.03711 14.3262 7.18945 14.3262ZM7.26758 10.7617C7.7819 10.7617 8.24414 10.6315 8.6543 10.3711C9.07096 10.1042 9.38672 9.72982 9.60156 9.24805L11.3301 9.99023C10.972 10.7389 10.4316 11.3314 9.70898 11.7676C8.99284 12.2038 8.17904 12.4219 7.26758 12.4219C5.97201 12.4219 4.89128 12.015 4.02539 11.2012C3.16602 10.3939 2.73633 9.32292 2.73633 7.98828C2.73633 6.66016 3.16602 5.58919 4.02539 4.77539C4.87826 3.9681 5.95898 3.56445 7.26758 3.56445C8.17904 3.56445 8.99284 3.78255 9.70898 4.21875C10.4316 4.66797 10.972 5.25716 11.3301 5.98633L9.60156 6.72852C9.38672 6.25326 9.07422 5.88542 8.66406 5.625C8.25391 5.35807 7.78841 5.22461 7.26758 5.22461C6.52539 5.22461 5.90039 5.48503 5.39258 6.00586C4.87826 6.52018 4.62109 7.18099 4.62109 7.98828C4.62109 8.79557 4.87826 9.45638 5.39258 9.9707C5.90039 10.498 6.52539 10.7617 7.26758 10.7617ZM25.2168 12.9199H32.0137V15H22.0137V12.9297H22.0039L22.0137 12.9199C23.8952 11.4225 25.0573 10.4818 25.5 10.0977C27.375 8.48307 28.5534 7.14193 29.0352 6.07422C29.224 5.63151 29.3151 5.23112 29.3086 4.87305C29.3086 4.26758 29.0938 3.78255 28.6641 3.41797C28.2279 3.05339 27.6517 2.87109 26.9355 2.87109C25.7116 2.87109 24.9173 3.47331 24.5527 4.67773L21.9648 4.47266C22.1406 3.29427 22.6745 2.39258 23.5664 1.76758C24.4583 1.14909 25.5814 0.839844 26.9355 0.839844C28.9603 0.839844 30.3991 1.39323 31.252 2.5C31.6947 3.07943 31.916 3.78581 31.916 4.61914C31.916 5.43294 31.6719 6.28581 31.1836 7.17773C30.9948 7.5293 30.7051 7.9362 30.3145 8.39844C29.9043 8.8737 29.5658 9.24805 29.2988 9.52148C29.0124 9.82096 28.6055 10.1921 28.0781 10.6348C27.5182 11.11 27.1081 11.4486 26.8477 11.6504C26.5221 11.8913 26.0924 12.2233 25.5586 12.6465C25.4609 12.7311 25.347 12.8223 25.2168 12.9199ZM40.0801 15.1465C38.1855 15.1465 36.6914 14.502 35.5977 13.2129C34.5039 11.9238 33.957 10.1855 33.957 7.99805C33.957 5.81055 34.5039 4.07227 35.5977 2.7832C36.6914 1.49414 38.1855 0.849609 40.0801 0.849609C41.9616 0.849609 43.4557 1.49414 44.5625 2.7832C45.6628 4.06576 46.2129 5.80404 46.2129 7.99805C46.2129 10.1921 45.6628 11.9303 44.5625 13.2129C43.4557 14.502 41.9616 15.1465 40.0801 15.1465ZM40.0801 12.7637C41.2454 12.7637 42.1341 12.3307 42.7461 11.4648C43.3581 10.612 43.6641 9.45638 43.6641 7.99805C43.6641 6.5332 43.3646 5.37435 42.7656 4.52148C42.1602 3.66862 41.2682 3.24219 40.0898 3.24219C38.9049 3.24219 38.013 3.66862 37.4141 4.52148C36.8086 5.36784 36.5059 6.52669 36.5059 7.99805C36.5059 9.45638 36.8086 10.6152 37.4141 11.4746C38.013 12.334 38.9017 12.7637 40.0801 12.7637ZM51.4473 12.9199H58.2441V15H48.2441V12.9297H48.2344L48.2441 12.9199C50.1257 11.4225 51.2878 10.4818 51.7305 10.0977C53.6055 8.48307 54.7839 7.14193 55.2656 6.07422C55.4544 5.63151 55.5456 5.23112 55.5391 4.87305C55.5391 4.26758 55.3242 3.78255 54.8945 3.41797C54.4583 3.05339 53.8822 2.87109 53.166 2.87109C51.9421 2.87109 51.1478 3.47331 50.7832 4.67773L48.1953 4.47266C48.3711 3.29427 48.9049 2.39258 49.7969 1.76758C50.6888 1.14909 51.8118 0.839844 53.166 0.839844C55.1908 0.839844 56.6296 1.39323 57.4824 2.5C57.9251 3.07943 58.1465 3.78581 58.1465 4.61914C58.1465 5.43294 57.9023 6.28581 57.4141 7.17773C57.2253 7.5293 56.9355 7.9362 56.5449 8.39844C56.1348 8.8737 55.7962 9.24805 55.5293 9.52148C55.2428 9.82096 54.8359 10.1921 54.3086 10.6348C53.7487 11.11 53.3385 11.4486 53.0781 11.6504C52.7526 11.8913 52.3229 12.2233 51.7891 12.6465C51.6914 12.7311 51.5775 12.8223 51.4473 12.9199ZM70.6367 0.986328V3.06641H63.9473L63.7129 6.14258C64.2012 5.92773 64.7936 5.77148 65.4902 5.67383C66.1934 5.57617 66.8542 5.56966 67.4727 5.6543C68.6641 5.81055 69.6243 6.32161 70.3535 7.1875C71.0892 8.0599 71.457 9.05599 71.457 10.1758C71.457 11.6081 70.9329 12.793 69.8848 13.7305C68.8301 14.668 67.5052 15.1367 65.9102 15.1367C64.3086 15.1367 62.987 14.668 61.9453 13.7305C60.8906 12.806 60.3633 11.6211 60.3633 10.1758H62.9609C62.9609 11.0807 63.2474 11.8197 63.8203 12.3926C64.3867 12.9785 65.0833 13.2715 65.9102 13.2715C66.7305 13.2715 67.4271 12.9785 68 12.3926C68.5729 11.8197 68.8594 11.0807 68.8594 10.1758C68.8594 9.375 68.5794 8.73047 68.0195 8.24219C67.4466 7.76042 66.7435 7.5 65.9102 7.46094C65.0508 7.4349 64.2793 7.63997 63.5957 8.07617H60.9688L61.4668 0.986328H70.6367ZM87.3652 8.00781L95.7441 0.849609V15H93.1465V6.5332L87.3652 11.6797L81.584 6.5332V15H78.9863V0.849609L87.3652 8.00781ZM98.6934 15V0.996094H101.291V15H98.6934ZM112.912 15H104.24V0.996094H106.838L106.828 12.9199H112.912V15ZM124.533 15H115.861V0.996094H118.459L118.449 12.9199H124.533V15ZM127.482 15V0.996094H130.08V15H127.482ZM138.479 7.59766L141.857 0.996094H144.729L139.777 10.127V15H137.17V10.127L132.229 0.996094H135.09L138.479 7.59766ZM155.725 7.7832C156.395 7.94596 156.981 8.34635 157.482 8.98438C157.977 9.61589 158.225 10.3678 158.225 11.2402C158.225 12.334 157.837 13.2324 157.062 13.9355C156.288 14.6452 155.334 15 154.201 15H146.877V0.996094H153.703C154.849 0.996094 155.806 1.33138 156.574 2.00195C157.342 2.67253 157.727 3.55469 157.727 4.64844C157.727 5.45573 157.541 6.12956 157.17 6.66992C156.786 7.2168 156.304 7.58789 155.725 7.7832ZM153.186 3.01758H149.475V7.01172H153.186C153.726 7.01172 154.185 6.81641 154.562 6.42578C154.934 6.04818 155.119 5.57617 155.119 5.00977C155.119 4.44336 154.934 3.97135 154.562 3.59375C154.178 3.20964 153.719 3.01758 153.186 3.01758ZM149.475 12.9688H153.684C154.217 12.9688 154.676 12.7767 155.061 12.3926C155.438 12.015 155.627 11.543 155.627 10.9766C155.627 10.4102 155.438 9.93815 155.061 9.56055C154.683 9.18294 154.224 8.99414 153.684 8.99414H149.475V12.9688ZM160.764 15V0.996094H163.361V15H160.764ZM166.311 0.996094H176.525V3.07617L169.309 12.9199H176.525V15H166.311V12.9199L173.527 3.07617H166.311V0.996094Z" fill="#10355B"/>
</svg>
