<svg width="32" height="32" viewBox="0 0 32 32" fill="none" xmlns="http://www.w3.org/2000/svg">
<g clip-path="url(#clip0_326_1112)">
<path d="M16 0C7.15675 0 0 7.15606 0 16C0 24.8433 7.15606 32 16 32C24.8433 32 32 24.8439 32 16C32 7.15669 24.8439 0 16 0ZM16 29.5C8.5385 29.5 2.5 23.4621 2.5 16C2.5 8.53844 8.53794 2.5 16 2.5C23.4615 2.5 29.5 8.53794 29.5 16C29.5 23.4616 23.4621 29.5 16 29.5Z" fill="#E31E25"/>
<path d="M21.4746 19.7063L17.7682 15.9999L21.4746 12.2936C21.9627 11.8054 21.9628 11.014 21.4746 10.5258C20.9864 10.0376 20.195 10.0377 19.7069 10.5258L16.0005 14.2322L12.294 10.5258C11.806 10.0376 11.0144 10.0376 10.5263 10.5258C10.0381 11.014 10.0381 11.8054 10.5263 12.2936L14.2327 15.9999L10.5263 19.7063C10.0381 20.1945 10.0381 20.9859 10.5263 21.4741C11.0146 21.9623 11.806 21.9621 12.294 21.4741L16.0005 17.7677L19.7069 21.4741C20.1949 21.9622 20.9865 21.9622 21.4746 21.4741C21.9628 20.9859 21.9628 20.1944 21.4746 19.7063Z" fill="#E31E25"/>
</g>
<defs>
<clipPath id="clip0_326_1112">
<rect width="32" height="32" fill="white"/>
</clipPath>
</defs>
</svg>
