<svg width="218" height="218" viewBox="0 0 218 218" fill="none" xmlns="http://www.w3.org/2000/svg">
<path d="M87.2004 5.72265C87.2004 6.55166 86.9079 7.25833 86.3233 7.84301C85.7386 8.4276 85.032 8.72016 84.203 8.72016H81.478C80.6492 8.72016 79.9424 8.4276 79.3577 7.84301C78.7729 7.25833 78.4805 6.55166 78.4805 5.72265V2.99763C78.4805 2.16888 78.7728 1.46204 79.3576 0.877358C79.9425 0.292592 80.6492 0.00012207 81.478 0.00012207H84.203C85.032 0.00012207 85.7388 0.292505 86.3233 0.877271C86.908 1.46212 87.2004 2.16888 87.2004 2.99763V5.72265Z" fill="white"/>
<path d="M104.638 2.99763V0.00012207H98.9155C98.0866 0.00012207 97.3798 0.292505 96.7951 0.877271C96.2104 1.46204 95.918 2.1688 95.918 2.99763V5.72265C95.918 6.55149 96.2103 7.25833 96.7951 7.84301C97.3799 8.42769 98.0866 8.72016 98.9155 8.72016H104.638V2.99763Z" fill="white"/>
<path d="M113.359 2.99751C113.359 2.16867 113.066 1.46183 112.482 0.877149C111.897 0.29247 111.19 0 110.361 0H104.639V8.72004H113.359V2.99751Z" fill="white"/>
<path d="M130.8 2.99763C130.8 2.1688 130.508 1.46195 129.923 0.877271C129.338 0.292592 128.631 0.00012207 127.803 0.00012207H125.078C124.249 0.00012207 123.542 0.292505 122.957 0.877271C122.373 1.46204 122.08 2.1688 122.08 2.99763V5.72265C122.08 5.76808 122.086 5.83627 122.097 5.92704H122.08V8.72016H130.8V5.92704H130.783C130.795 5.83627 130.8 5.76816 130.8 5.72265V2.99763Z" fill="white"/>
<path d="M78.4797 11.7144C78.4797 10.8856 78.1873 10.1787 77.6026 9.59407C77.0179 9.00939 76.3111 8.71692 75.4822 8.71692H72.7573C71.9284 8.71692 71.2216 9.0093 70.6369 9.59407C70.0522 10.1788 69.7598 10.8856 69.7598 11.7144V14.4394C69.7598 14.4849 69.7654 14.5531 69.7768 14.6438H69.7598V17.437H78.4797V14.6438H78.4627C78.4742 14.5531 78.4797 14.485 78.4797 14.4394V11.7144Z" fill="white"/>
<path d="M95.9192 11.7144C95.9192 10.8856 95.6267 10.1787 95.042 9.59407C94.4574 9.00939 93.7505 8.71692 92.9217 8.71692H90.1967C89.3679 8.71692 88.661 9.0093 88.0764 9.59407C87.4917 10.1788 87.1992 10.8856 87.1992 11.7144V14.4394C87.1992 14.4849 87.2049 14.5531 87.2162 14.6438H87.1992V17.437H95.9192V14.6438H95.9022C95.9137 14.5531 95.9192 14.485 95.9192 14.4394V11.7144Z" fill="white"/>
<path d="M113.359 8.71692H104.639V14.4394C104.639 15.2683 104.931 15.9751 105.516 16.5598C106.101 17.1445 106.807 17.437 107.636 17.437H113.359V8.71692Z" fill="white"/>
<path d="M122.079 8.72375H113.359V17.4438H122.079V8.72375Z" fill="white"/>
<path d="M130.8 8.72375H122.08V17.4438H130.8V8.72375Z" fill="white"/>
<path d="M78.4797 17.4388H69.7598V26.1589H78.4797V17.4388Z" fill="white"/>
<path d="M87.1985 17.4387H78.4785V26.1588H87.1985V17.4387Z" fill="white"/>
<path d="M95.9192 17.432H87.1992V26.152H92.9217C93.7505 26.152 94.4574 25.8596 95.042 25.2749C95.6267 24.6902 95.9192 23.9834 95.9192 23.1545V17.432Z" fill="white"/>
<path d="M130.783 20.2251H130.8V17.432H122.08V20.2251H122.097C122.086 20.316 122.08 20.3841 122.08 20.4295V23.1545C122.08 23.9834 122.372 24.6902 122.957 25.2749C123.542 25.8596 124.249 26.152 125.078 26.152H127.803C128.631 26.152 129.338 25.8596 129.923 25.2749C130.508 24.6902 130.8 23.9834 130.8 23.1545V20.4295C130.8 20.3841 130.795 20.316 130.783 20.2251Z" fill="white"/>
<path d="M78.4627 28.9507H78.4797V26.1576H69.7598V28.9507H69.7768C69.7654 29.0416 69.7598 29.1097 69.7598 29.1551V31.8801C69.7598 32.709 70.0521 33.4158 70.6369 34.0005C71.2217 34.5852 71.9284 34.8776 72.7573 34.8776H75.4822C76.3111 34.8776 77.0179 34.5852 77.6026 34.0005C78.1873 33.4158 78.4797 32.709 78.4797 31.8801V29.1551C78.4797 29.1097 78.4742 29.0416 78.4627 28.9507Z" fill="white"/>
<path d="M113.361 29.1551V26.1576H107.638C106.809 26.1576 106.102 26.45 105.518 27.0347C104.933 27.6195 104.641 28.3263 104.641 29.1551V31.8801C104.641 32.709 104.933 33.4158 105.518 34.0005C106.103 34.5852 106.809 34.8776 107.638 34.8776H113.361V29.1551Z" fill="white"/>
<path d="M119.082 26.1576H113.359V34.8776H119.082C119.911 34.8776 120.618 34.5852 121.202 34.0005C121.787 33.4158 122.079 32.709 122.079 31.8801V29.1551C122.079 28.3263 121.787 27.6194 121.202 27.0347C120.618 26.4501 119.911 26.1576 119.082 26.1576Z" fill="white"/>
<path d="M148.24 29.1551C148.24 28.3263 147.947 27.6194 147.362 27.0347C146.778 26.4501 146.071 26.1576 145.242 26.1576H142.517C141.688 26.1576 140.981 26.45 140.397 27.0347C139.812 27.6195 139.52 28.3263 139.52 29.1551V31.8801C139.52 31.9255 139.525 31.9937 139.537 32.0845H139.52V34.8776H148.24V32.0845H148.223C148.234 31.9937 148.24 31.9256 148.24 31.8801V29.1551Z" fill="white"/>
<path d="M104.64 40.5989C104.64 41.4279 104.347 42.1346 103.763 42.7192C103.178 43.3038 102.471 43.5964 101.642 43.5964H98.9174C98.0887 43.5964 97.3818 43.3038 96.7972 42.7192C96.2124 42.1346 95.9199 41.4279 95.9199 40.5989V37.8739C95.9199 37.0451 96.2123 36.3383 96.7971 35.7536C97.3819 35.1688 98.0887 34.8763 98.9174 34.8763H101.642C102.471 34.8763 103.178 35.1687 103.763 35.7535C104.347 36.3383 104.64 37.0451 104.64 37.8739V40.5989Z" fill="white"/>
<path d="M148.223 37.6695H148.24V34.8763H139.52V37.6695H139.537C139.525 37.7603 139.52 37.8284 139.52 37.8739V40.5989C139.52 41.4277 139.812 42.1346 140.397 42.7192C140.981 43.3039 141.688 43.5964 142.517 43.5964H145.242C146.071 43.5964 146.778 43.3039 147.362 42.7192C147.947 42.1346 148.24 41.4277 148.24 40.5989V37.8739C148.24 37.8284 148.234 37.7603 148.223 37.6695Z" fill="white"/>
<path d="M95.9192 46.5922C95.9192 45.7634 95.6267 45.0566 95.042 44.4719C94.4574 43.8872 93.7505 43.5947 92.9217 43.5947H90.1967C89.3679 43.5947 88.661 43.8871 88.0764 44.4719C87.4917 45.0566 87.1992 45.7634 87.1992 46.5922V49.3173C87.1992 49.3627 87.2049 49.4309 87.2162 49.5216H87.1992V52.3148H95.9192V49.5216H95.9022C95.9137 49.4309 95.9192 49.3628 95.9192 49.3173V46.5922Z" fill="white"/>
<path d="M122.079 49.3173C122.079 50.1463 121.787 50.8529 121.202 51.4376C120.618 52.0222 119.911 52.3148 119.082 52.3148H116.357C115.528 52.3148 114.821 52.0222 114.237 51.4376C113.652 50.8529 113.359 50.1463 113.359 49.3173V46.5922C113.359 45.7635 113.652 45.0566 114.237 44.472C114.821 43.8872 115.528 43.5947 116.357 43.5947H119.082C119.911 43.5947 120.618 43.8871 121.202 44.4719C121.787 45.0567 122.079 45.7635 122.079 46.5922V49.3173Z" fill="white"/>
<path d="M78.4797 55.314C78.4797 54.4852 78.1873 53.7784 77.6026 53.1937C77.0179 52.609 76.3111 52.3165 75.4822 52.3165H72.7573C71.9284 52.3165 71.2216 52.6089 70.6369 53.1937C70.0522 53.7784 69.7598 54.4852 69.7598 55.314V58.0391C69.7598 58.0845 69.7654 58.1527 69.7768 58.2435H69.7598V61.0366H78.4797V58.2435H78.4627C78.4742 58.1527 78.4797 58.0846 78.4797 58.0391V55.314Z" fill="white"/>
<path d="M95.9022 55.1095H95.9192V52.3164H87.1992V55.1095H87.2162C87.2049 55.2004 87.1992 55.2685 87.1992 55.3139V58.0389C87.1992 58.8678 87.4916 59.5746 88.0764 60.1593C88.6611 60.744 89.3679 61.0364 90.1967 61.0364H92.9217C93.7505 61.0364 94.4574 60.744 95.042 60.1593C95.6267 59.5746 95.9192 58.8678 95.9192 58.0389V55.3139C95.9192 55.2685 95.9137 55.2004 95.9022 55.1095Z" fill="white"/>
<path d="M113.361 55.314C113.361 54.4852 113.068 53.7784 112.483 53.1937C111.899 52.609 111.192 52.3165 110.363 52.3165H107.638C106.809 52.3165 106.102 52.6089 105.518 53.1937C104.933 53.7784 104.641 54.4852 104.641 55.314V58.0391C104.641 58.0845 104.646 58.1527 104.658 58.2435H104.641V61.0366H113.361V58.2435H113.344C113.355 58.1527 113.361 58.0846 113.361 58.0391V55.314Z" fill="white"/>
<path d="M130.8 58.0391C130.8 58.8681 130.507 59.5747 129.923 60.1594C129.338 60.744 128.632 61.0366 127.803 61.0366H125.078C124.249 61.0366 123.542 60.744 122.957 60.1594C122.373 59.5747 122.08 58.8681 122.08 58.0391V55.314C122.08 54.4853 122.372 53.7784 122.957 53.1938C123.542 52.609 124.249 52.3165 125.078 52.3165H127.803C128.632 52.3165 129.338 52.6089 129.923 53.1937C130.508 53.7785 130.8 54.4853 130.8 55.314V58.0391Z" fill="white"/>
<path d="M148.24 55.314C148.24 54.4852 147.947 53.7784 147.362 53.1937C146.778 52.609 146.071 52.3165 145.242 52.3165H142.517C141.688 52.3165 140.981 52.6089 140.397 53.1937C139.812 53.7784 139.52 54.4852 139.52 55.314V58.0391C139.52 58.0845 139.525 58.1527 139.537 58.2435H139.52V61.0366H148.24V58.2435H148.223C148.234 58.1527 148.24 58.0846 148.24 58.0391V55.314Z" fill="white"/>
<path d="M78.4797 61.0416H69.7598V69.7617H78.4797V61.0416Z" fill="white"/>
<path d="M87.1985 64.0385C87.1985 63.2097 86.906 62.5028 86.3213 61.9182C85.7367 61.3335 85.0298 61.041 84.201 61.041H78.4785V69.7611H87.1985V64.0385Z" fill="white"/>
<path d="M113.342 63.8341H113.359V61.041H104.639V63.8341H104.656C104.644 63.925 104.639 63.9931 104.639 64.0385V66.7635C104.639 67.5924 104.931 68.2992 105.516 68.8839C106.101 69.4686 106.807 69.7611 107.636 69.7611H110.361C111.19 69.7611 111.897 69.4686 112.482 68.8839C113.066 68.2992 113.359 67.5924 113.359 66.7635V64.0385C113.359 63.9931 113.353 63.925 113.342 63.8341Z" fill="white"/>
<path d="M148.223 63.8343H148.24V61.0411H139.52V63.8343H139.537C139.525 63.9251 139.52 63.9932 139.52 64.0387V66.7637C139.52 67.5925 139.812 68.2993 140.397 68.884C140.981 69.4687 141.688 69.7612 142.517 69.7612H145.242C146.071 69.7612 146.778 69.4687 147.362 68.884C147.947 68.2993 148.24 67.5925 148.24 66.7637V64.0387C148.24 63.9932 148.234 63.9251 148.223 63.8343Z" fill="white"/>
<path d="M8.71997 75.4809C8.71997 76.31 8.42742 77.0166 7.84283 77.6013C7.25816 78.1859 6.55149 78.4785 5.72248 78.4785H2.99749C2.16874 78.4785 1.4619 78.1859 0.877229 77.6013C0.292468 77.0166 0 76.31 0 75.4809V72.7559C0 71.9272 0.292381 71.2203 0.877142 70.6357C1.46199 70.0509 2.16874 69.7584 2.99749 69.7584H5.72248C6.55158 69.7584 7.25833 70.0508 7.84283 70.6356C8.42751 71.2204 8.71997 71.9272 8.71997 72.7559V75.4809Z" fill="white"/>
<path d="M61.0403 75.4812C61.0403 76.3102 60.7477 77.0169 60.1631 77.6016C59.5785 78.1861 58.8718 78.4787 58.0428 78.4787H55.3178C54.4891 78.4787 53.7822 78.1861 53.1975 77.6016C52.6128 77.0169 52.3203 76.3102 52.3203 75.4812V72.7562C52.3203 71.9274 52.6127 71.2206 53.1975 70.6359C53.7823 70.0511 54.4891 69.7587 55.3178 69.7587H58.0428C58.8719 69.7587 59.5786 70.051 60.1631 70.6358C60.7478 71.2207 61.0403 71.9274 61.0403 72.7562V75.4812Z" fill="white"/>
<path d="M78.4797 69.7587H69.7598V75.4812C69.7598 76.31 70.0521 77.0169 70.6369 77.6016C71.2217 78.1862 71.9284 78.4787 72.7573 78.4787H78.4797V69.7587Z" fill="white"/>
<path d="M87.2004 69.7592H78.4805V78.4792H87.2004V69.7592Z" fill="white"/>
<path d="M95.9192 72.7559C95.9192 71.9271 95.6267 71.2202 95.042 70.6356C94.4574 70.0509 93.7505 69.7584 92.9217 69.7584H87.1992V78.4785H95.9192V72.7559Z" fill="white"/>
<path d="M122.079 72.7559V69.7584H116.357C115.528 69.7584 114.821 70.0508 114.237 70.6356C113.652 71.2203 113.359 71.9271 113.359 72.7559V75.4809C113.359 76.3098 113.652 77.0166 114.237 77.6013C114.821 78.186 115.528 78.4785 116.357 78.4785H122.079V72.7559Z" fill="white"/>
<path d="M130.8 69.7592H122.08V78.4792H130.8V69.7592Z" fill="white"/>
<path d="M139.521 72.7562C139.521 71.9273 139.228 71.2205 138.644 70.6358C138.059 70.0511 137.352 69.7587 136.523 69.7587H130.801V78.4787H139.521V72.7562Z" fill="white"/>
<path d="M156.958 72.7562V69.7587H151.236C150.407 69.7587 149.7 70.051 149.115 70.6358C148.531 71.2206 148.238 71.9273 148.238 72.7562V75.4812C148.238 76.31 148.531 77.0169 149.115 77.6016C149.7 78.1862 150.407 78.4787 151.236 78.4787H156.958V72.7562Z" fill="white"/>
<path d="M162.681 69.7584H156.959V78.4785H162.681C163.51 78.4785 164.217 78.186 164.802 77.6013C165.386 77.0166 165.679 76.3098 165.679 75.4809V72.7559C165.679 71.9271 165.386 71.2202 164.802 70.6356C164.217 70.0509 163.51 69.7584 162.681 69.7584Z" fill="white"/>
<path d="M191.839 72.7561V69.7585H186.117C185.288 69.7585 184.581 70.0509 183.996 70.6357C183.412 71.2205 183.119 71.9272 183.119 72.7561V78.4786H191.839V72.7561Z" fill="white"/>
<path d="M200.56 69.7589H191.84V78.4789H200.56V69.7589Z" fill="white"/>
<path d="M209.279 72.7559C209.279 71.9271 208.986 71.2202 208.401 70.6356C207.817 70.0509 207.11 69.7584 206.281 69.7584H200.559V78.4785H209.279V72.7559Z" fill="white"/>
<path d="M17.4426 81.4764V78.4789H11.7201C10.8913 78.4789 10.1845 78.7713 9.5998 79.356C9.01512 79.9408 8.72266 80.6476 8.72266 81.4764V84.2014C8.72266 85.0302 9.01504 85.7371 9.5998 86.3218C10.1846 86.9064 10.8913 87.1989 11.7201 87.1989H17.4426V81.4764Z" fill="white"/>
<path d="M26.1594 78.4773H17.4395V87.1973H26.1594V78.4773Z" fill="white"/>
<path d="M34.8801 81.4763C34.8801 80.6474 34.5877 79.9406 34.003 79.3559C33.4183 78.7712 32.7115 78.4788 31.8826 78.4788H26.1602V87.1988H34.8801V81.4763Z" fill="white"/>
<path d="M52.3196 84.2014C52.3196 85.0304 52.027 85.7371 51.4424 86.3218C50.8578 86.9064 50.1511 87.1989 49.3221 87.1989H46.5971C45.7684 87.1989 45.0615 86.9064 44.4768 86.3218C43.8921 85.7371 43.5996 85.0304 43.5996 84.2014V81.4764C43.5996 80.6476 43.892 79.9408 44.4768 79.3561C45.0616 78.7714 45.7684 78.4789 46.5971 78.4789H49.3221C50.1512 78.4789 50.8579 78.7713 51.4424 79.356C52.0271 79.9409 52.3196 80.6476 52.3196 81.4764V84.2014Z" fill="white"/>
<path d="M95.9192 78.4788H87.1992V84.2013C87.1992 85.0301 87.4916 85.737 88.0764 86.3216C88.6611 86.9063 89.3679 87.1988 90.1967 87.1988H95.9192V78.4788Z" fill="white"/>
<path d="M104.64 81.4763C104.64 80.6474 104.347 79.9406 103.763 79.3559C103.178 78.7712 102.471 78.4788 101.642 78.4788H95.9199V87.1988H104.64V81.4763Z" fill="white"/>
<path d="M139.521 78.4774H130.801V87.1975H139.521V78.4774Z" fill="white"/>
<path d="M174.4 81.4764V78.4789H168.677C167.848 78.4789 167.142 78.7713 166.557 79.356C165.972 79.9408 165.68 80.6476 165.68 81.4764V87.1989H174.4V81.4764Z" fill="white"/>
<path d="M183.12 78.4774H174.4V87.1975H183.12V78.4774Z" fill="white"/>
<path d="M191.841 78.4774H183.121V87.1975H191.841V78.4774Z" fill="white"/>
<path d="M200.56 78.4773H191.84V87.1973H200.56V78.4773Z" fill="white"/>
<path d="M209.279 78.4773H200.559V87.1973H209.279V78.4773Z" fill="white"/>
<path d="M26.1594 87.1995H17.4395V92.922C17.4395 93.7508 17.7318 94.4577 18.3166 95.0424C18.9014 95.627 19.6081 95.9195 20.4369 95.9195H26.1594V87.1995Z" fill="white"/>
<path d="M34.8782 87.2H26.1582V95.92H34.8782V87.2Z" fill="white"/>
<path d="M61.0403 92.9221C61.0403 93.7511 60.7477 94.4578 60.1631 95.0425C59.5785 95.6271 58.8718 95.9196 58.0428 95.9196H55.3178C54.4891 95.9196 53.7822 95.6271 53.1975 95.0425C52.6128 94.4578 52.3203 93.7511 52.3203 92.9221V90.1971C52.3203 89.3683 52.6127 88.6615 53.1975 88.0768C53.7823 87.4921 54.4891 87.1996 55.3178 87.1996H58.0428C58.8719 87.1996 59.5786 87.492 60.1631 88.0767C60.7478 88.6616 61.0403 89.3683 61.0403 90.1971V92.9221Z" fill="white"/>
<path d="M78.4797 92.9221C78.4797 93.7511 78.1872 94.4578 77.6026 95.0425C77.0179 95.6271 76.3113 95.9196 75.4822 95.9196H72.7573C71.9285 95.9196 71.2217 95.6271 70.637 95.0425C70.0522 94.4578 69.7598 93.7511 69.7598 92.9221V90.1971C69.7598 89.3683 70.0521 88.6615 70.6369 88.0768C71.2218 87.4921 71.9285 87.1996 72.7573 87.1996H75.4822C76.3113 87.1996 77.0181 87.492 77.6026 88.0767C78.1873 88.6616 78.4797 89.3683 78.4797 90.1971V92.9221Z" fill="white"/>
<path d="M104.623 89.9926H104.64V87.1995H95.9199V89.9926H95.9369C95.9256 90.0834 95.9199 90.1515 95.9199 90.197V92.922C95.9199 93.7508 96.2123 94.4577 96.7971 95.0424C97.3818 95.627 98.0886 95.9195 98.9174 95.9195H101.642C102.471 95.9195 103.178 95.627 103.763 95.0424C104.347 94.4577 104.64 93.7508 104.64 92.922V90.197C104.64 90.1515 104.634 90.0834 104.623 89.9926Z" fill="white"/>
<path d="M130.8 90.1971V87.1996H125.078C124.249 87.1996 123.542 87.492 122.957 88.0767C122.373 88.6615 122.08 89.3683 122.08 90.1971V95.9196H130.8V90.1971Z" fill="white"/>
<path d="M139.519 87.2H130.799V95.92H139.519V87.2Z" fill="white"/>
<path d="M145.242 87.1996H139.52V95.9196H145.242C146.071 95.9196 146.778 95.6272 147.362 95.0425C147.947 94.4578 148.24 93.7509 148.24 92.9221V90.1971C148.24 89.3683 147.947 88.6614 147.362 88.0767C146.778 87.4921 146.071 87.1996 145.242 87.1996Z" fill="white"/>
<path d="M174.4 87.2H165.68V95.92H174.4V87.2Z" fill="white"/>
<path d="M191.839 87.2H183.119V95.92H191.839V87.2Z" fill="white"/>
<path d="M209.279 87.1995H200.559V92.922C200.559 93.7508 200.851 94.4577 201.436 95.0424C202.02 95.627 202.727 95.9195 203.556 95.9195H209.279V87.1995Z" fill="white"/>
<path d="M217.999 90.1971C217.999 89.3683 217.707 88.6614 217.122 88.0767C216.537 87.4921 215.831 87.1996 215.002 87.1996H209.279V95.9196H217.999V90.1971Z" fill="white"/>
<path d="M34.8801 95.9221H26.1602V101.645C26.1602 102.473 26.4525 103.18 27.0373 103.765C27.6221 104.35 28.3288 104.642 29.1576 104.642H34.8801V95.9221Z" fill="white"/>
<path d="M43.5989 95.9237H34.8789V104.644H43.5989V95.9237Z" fill="white"/>
<path d="M49.3221 95.9222H43.5996V104.642H49.3221C50.1509 104.642 50.8578 104.35 51.4424 103.765C52.0271 103.18 52.3196 102.474 52.3196 101.645V98.9198C52.3196 98.0909 52.0271 97.3841 51.4424 96.7994C50.8578 96.2147 50.1509 95.9222 49.3221 95.9222Z" fill="white"/>
<path d="M69.759 101.645C69.759 102.474 69.4665 103.18 68.8819 103.765C68.2972 104.35 67.5906 104.642 66.7615 104.642H64.0366C63.2078 104.642 62.501 104.35 61.9163 103.765C61.3315 103.18 61.0391 102.474 61.0391 101.645V98.9198C61.0391 98.091 61.3314 97.3842 61.9162 96.7995C62.5011 96.2147 63.2078 95.9222 64.0366 95.9222H66.7615C67.5906 95.9222 68.2974 96.2146 68.8819 96.7994C69.4666 97.3842 69.759 98.091 69.759 98.9198V101.645Z" fill="white"/>
<path d="M113.359 101.645C113.359 102.474 113.066 103.18 112.482 103.765C111.897 104.35 111.19 104.642 110.361 104.642H107.636C106.807 104.642 106.101 104.35 105.516 103.765C104.931 103.18 104.639 102.474 104.639 101.645V98.9198C104.639 98.091 104.931 97.3842 105.516 96.7995C106.101 96.2147 106.807 95.9222 107.636 95.9222H110.361C111.19 95.9222 111.897 96.2146 112.482 96.7994C113.066 97.3842 113.359 98.091 113.359 98.9198V101.645Z" fill="white"/>
<path d="M130.783 98.7154H130.8V95.9222H122.08V98.7154H122.097C122.086 98.8062 122.08 98.8743 122.08 98.9198V101.645C122.08 102.474 122.372 103.18 122.957 103.765C123.542 104.35 124.249 104.642 125.078 104.642H127.803C128.631 104.642 129.338 104.35 129.923 103.765C130.508 103.18 130.8 102.474 130.8 101.645V98.9198C130.8 98.8743 130.795 98.8062 130.783 98.7154Z" fill="white"/>
<path d="M156.958 101.645C156.958 102.474 156.666 103.18 156.081 103.765C155.496 104.35 154.79 104.642 153.961 104.642H151.236C150.407 104.642 149.7 104.35 149.116 103.765C148.531 103.18 148.238 102.474 148.238 101.645V98.9198C148.238 98.091 148.531 97.3842 149.115 96.7995C149.7 96.2147 150.407 95.9222 151.236 95.9222H153.961C154.79 95.9222 155.497 96.2146 156.081 96.7994C156.666 97.3842 156.958 98.091 156.958 98.9198V101.645Z" fill="white"/>
<path d="M174.383 98.7154H174.4V95.9222H165.68V98.7154H165.697C165.685 98.8062 165.68 98.8743 165.68 98.9198V101.645C165.68 102.474 165.972 103.18 166.557 103.765C167.142 104.35 167.848 104.642 168.677 104.642H171.402C172.231 104.642 172.938 104.35 173.523 103.765C174.107 103.18 174.4 102.474 174.4 101.645V98.9198C174.4 98.8743 174.394 98.8062 174.383 98.7154Z" fill="white"/>
<path d="M191.822 98.7152H191.839V95.9221H183.119V98.7152H183.136C183.125 98.8061 183.119 98.8742 183.119 98.9196V101.645C183.119 102.473 183.412 103.18 183.996 103.765C184.581 104.35 185.288 104.642 186.117 104.642H188.842C189.67 104.642 190.377 104.35 190.962 103.765C191.547 103.18 191.839 102.473 191.839 101.645V98.9196C191.839 98.8742 191.834 98.8061 191.822 98.7152Z" fill="white"/>
<path d="M217.999 95.9237H209.279V104.644H217.999V95.9237Z" fill="white"/>
<path d="M17.4407 107.632V104.635H11.7182C10.8894 104.635 10.1825 104.927 9.59785 105.512C9.01317 106.097 8.7207 106.803 8.7207 107.632V113.355H17.4407V107.632Z" fill="white"/>
<path d="M43.5819 107.428H43.5989V104.635H34.8789V107.428H34.8959C34.8846 107.519 34.8789 107.587 34.8789 107.632V110.357C34.8789 111.186 35.1713 111.893 35.756 112.478C36.3408 113.062 37.0476 113.355 37.8764 113.355H40.6014C41.4302 113.355 42.1371 113.062 42.7217 112.478C43.3064 111.893 43.5989 111.186 43.5989 110.357V107.632C43.5989 107.587 43.5934 107.519 43.5819 107.428Z" fill="white"/>
<path d="M61.0383 110.357C61.0383 111.186 60.7458 111.893 60.1612 112.478C59.5765 113.062 58.8698 113.355 58.0408 113.355H55.3159C54.4871 113.355 53.7803 113.062 53.1956 112.478C52.6108 111.893 52.3184 111.186 52.3184 110.357V107.632C52.3184 106.804 52.6107 106.097 53.1955 105.512C53.7804 104.927 54.4871 104.635 55.3159 104.635H58.0408C58.8699 104.635 59.5767 104.927 60.1612 105.512C60.7459 106.097 61.0383 106.804 61.0383 107.632V110.357Z" fill="white"/>
<path d="M23.1619 104.635H17.4395V113.355H23.1619C23.9908 113.355 24.6976 113.062 25.2823 112.478C25.867 111.893 26.1594 111.186 26.1594 110.357V107.632C26.1594 106.803 25.867 106.097 25.2823 105.512C24.6976 104.927 23.9908 104.635 23.1619 104.635Z" fill="white"/>
<path d="M78.4797 110.357C78.4797 111.186 78.1872 111.893 77.6026 112.478C77.0179 113.062 76.3113 113.355 75.4822 113.355H72.7573C71.9285 113.355 71.2217 113.062 70.637 112.478C70.0522 111.893 69.7598 111.186 69.7598 110.357V107.632C69.7598 106.804 70.0521 106.097 70.6369 105.512C71.2218 104.927 71.9285 104.635 72.7573 104.635H75.4822C76.3113 104.635 77.0181 104.927 77.6026 105.512C78.1873 106.097 78.4797 106.804 78.4797 107.632V110.357Z" fill="white"/>
<path d="M95.9192 110.357C95.9192 111.186 95.6266 111.893 95.042 112.478C94.4574 113.062 93.7507 113.355 92.9217 113.355H90.1967C89.368 113.355 88.6611 113.062 88.0764 112.478C87.4917 111.893 87.1992 111.186 87.1992 110.357V107.632C87.1992 106.804 87.4916 106.097 88.0764 105.512C88.6612 104.927 89.368 104.635 90.1967 104.635H92.9217C93.7508 104.635 94.4576 104.927 95.042 105.512C95.6267 106.097 95.9192 106.804 95.9192 107.632V110.357Z" fill="white"/>
<path d="M139.521 107.632V104.635H133.798C132.969 104.635 132.263 104.927 131.678 105.512C131.093 106.097 130.801 106.804 130.801 107.632V113.355H139.521V107.632Z" fill="white"/>
<path d="M148.24 107.632C148.24 106.803 147.947 106.097 147.362 105.512C146.778 104.927 146.071 104.635 145.242 104.635H139.52V113.355H148.24V107.632Z" fill="white"/>
<path d="M165.679 110.357C165.679 111.186 165.386 111.893 164.802 112.478C164.217 113.062 163.51 113.355 162.681 113.355H159.956C159.128 113.355 158.421 113.062 157.836 112.478C157.251 111.893 156.959 111.186 156.959 110.357V107.632C156.959 106.804 157.251 106.097 157.836 105.512C158.421 104.927 159.128 104.635 159.956 104.635H162.681C163.511 104.635 164.217 104.927 164.802 105.512C165.386 106.097 165.679 106.804 165.679 107.632V110.357Z" fill="white"/>
<path d="M217.982 107.428H217.999V104.635H209.279V107.428H209.296C209.285 107.519 209.279 107.587 209.279 107.632V110.357C209.279 111.186 209.572 111.893 210.156 112.478C210.741 113.062 211.448 113.355 212.277 113.355H215.002C215.831 113.355 216.537 113.062 217.122 112.478C217.707 111.893 217.999 111.186 217.999 110.357V107.632C217.999 107.587 217.994 107.519 217.982 107.428Z" fill="white"/>
<path d="M8.71997 116.357V113.359H2.99749C2.16866 113.359 1.46182 113.652 0.877142 114.237C0.292468 114.821 0 115.528 0 116.357V122.079H8.71997V116.357Z" fill="white"/>
<path d="M17.4407 113.359H8.7207V122.08H14.4432C15.272 122.08 15.9789 121.787 16.5635 121.202C17.1482 120.618 17.4407 119.911 17.4407 119.082V113.359Z" fill="white"/>
<path d="M69.759 116.357C69.759 115.528 69.4666 114.821 68.8819 114.237C68.2972 113.652 67.5904 113.359 66.7615 113.359H64.0366C63.2077 113.359 62.5009 113.652 61.9162 114.237C61.3315 114.821 61.0391 115.528 61.0391 116.357V119.082C61.0391 119.127 61.0447 119.196 61.0561 119.286H61.0391V122.08H69.759V119.286H69.742C69.7535 119.196 69.759 119.128 69.759 119.082V116.357Z" fill="white"/>
<path d="M87.2004 116.357C87.2004 115.528 86.908 114.821 86.3233 114.237C85.7386 113.652 85.0318 113.359 84.203 113.359H81.478C80.6491 113.359 79.9423 113.652 79.3576 114.237C78.7729 114.821 78.4805 115.528 78.4805 116.357V119.082C78.4805 119.127 78.4861 119.196 78.4975 119.286H78.4805V122.08H87.2004V119.286H87.1834C87.1949 119.196 87.2004 119.128 87.2004 119.082V116.357Z" fill="white"/>
<path d="M113.359 119.082C113.359 119.911 113.066 120.618 112.482 121.202C111.897 121.787 111.19 122.079 110.361 122.079H107.636C106.807 122.079 106.101 121.787 105.516 121.202C104.931 120.618 104.639 119.911 104.639 119.082V116.357C104.639 115.528 104.931 114.821 105.516 114.237C106.101 113.652 106.807 113.359 107.636 113.359H110.361C111.19 113.359 111.897 113.652 112.482 114.237C113.066 114.821 113.359 115.528 113.359 116.357V119.082Z" fill="white"/>
<path d="M130.8 116.357V113.359H125.078C124.249 113.359 123.542 113.652 122.957 114.237C122.373 114.821 122.08 115.528 122.08 116.357V119.082C122.08 119.911 122.372 120.618 122.957 121.202C123.542 121.787 124.249 122.08 125.078 122.08H130.8V116.357Z" fill="white"/>
<path d="M139.519 113.359H130.799V122.079H139.519V113.359Z" fill="white"/>
<path d="M148.24 113.359H139.52V122.08H148.24V113.359Z" fill="white"/>
<path d="M174.4 116.357C174.4 115.528 174.107 114.821 173.523 114.237C172.938 113.652 172.231 113.359 171.402 113.359H168.677C167.848 113.359 167.142 113.652 166.557 114.237C165.972 114.821 165.68 115.528 165.68 116.357V119.082C165.68 119.127 165.685 119.196 165.697 119.286H165.68V122.079H174.4V119.286H174.383C174.394 119.196 174.4 119.127 174.4 119.082V116.357Z" fill="white"/>
<path d="M209.279 116.357C209.279 115.528 208.986 114.821 208.401 114.237C207.817 113.652 207.11 113.359 206.281 113.359H203.556C202.727 113.359 202.02 113.652 201.436 114.237C200.851 114.821 200.559 115.528 200.559 116.357V119.082C200.559 119.127 200.564 119.196 200.576 119.286H200.559V122.079H209.279V119.286H209.262C209.273 119.196 209.279 119.127 209.279 119.082V116.357Z" fill="white"/>
<path d="M8.71997 122.08H0V130.8H8.71997V122.08Z" fill="white"/>
<path d="M43.5989 127.803C43.5989 128.632 43.3063 129.338 42.7217 129.923C42.1371 130.508 41.4304 130.8 40.6014 130.8H37.8764C37.0477 130.8 36.3408 130.508 35.7561 129.923C35.1714 129.338 34.8789 128.632 34.8789 127.803V125.078C34.8789 124.249 35.1713 123.542 35.756 122.957C36.3409 122.373 37.0477 122.08 37.8764 122.08H40.6014C41.4305 122.08 42.1372 122.373 42.7217 122.957C43.3064 123.542 43.5989 124.249 43.5989 125.078V127.803Z" fill="white"/>
<path d="M61.0403 125.078V122.08H55.3178C54.489 122.08 53.7821 122.373 53.1975 122.957C52.6128 123.542 52.3203 124.249 52.3203 125.078V127.803C52.3203 128.632 52.6127 129.338 53.1975 129.923C53.7822 130.508 54.489 130.8 55.3178 130.8H61.0403V125.078Z" fill="white"/>
<path d="M69.759 122.08H61.0391V130.8H69.759V122.08Z" fill="white"/>
<path d="M78.4797 122.08H69.7598V130.8H78.4797V122.08Z" fill="white"/>
<path d="M87.2004 122.08H78.4805V130.8H87.2004V122.08Z" fill="white"/>
<path d="M122.079 127.803C122.079 128.632 121.787 129.338 121.202 129.923C120.618 130.508 119.911 130.8 119.082 130.8H116.357C115.528 130.8 114.821 130.508 114.237 129.923C113.652 129.338 113.359 128.632 113.359 127.803V125.078C113.359 124.249 113.652 123.542 114.237 122.957C114.821 122.373 115.528 122.08 116.357 122.08H119.082C119.911 122.08 120.618 122.373 121.202 122.957C121.787 123.542 122.079 124.249 122.079 125.078V127.803Z" fill="white"/>
<path d="M139.521 122.08H130.801V127.803C130.801 128.632 131.093 129.338 131.678 129.923C132.263 130.508 132.969 130.8 133.798 130.8H139.521V122.08Z" fill="white"/>
<path d="M148.24 122.08H139.52V130.8H145.242C146.071 130.8 146.778 130.508 147.362 129.923C147.947 129.338 148.24 128.632 148.24 127.803V122.08Z" fill="white"/>
<path d="M174.4 122.08H165.68V130.8H174.4V122.08Z" fill="white"/>
<path d="M191.841 127.803C191.841 128.632 191.549 129.338 190.964 129.923C190.379 130.508 189.673 130.8 188.844 130.8H186.119C185.29 130.8 184.583 130.508 183.998 129.923C183.414 129.338 183.121 128.632 183.121 127.803V125.078C183.121 124.249 183.413 123.542 183.998 122.957C184.583 122.373 185.29 122.08 186.119 122.08H188.844C189.673 122.08 190.379 122.373 190.964 122.957C191.549 123.542 191.841 124.249 191.841 125.078V127.803Z" fill="white"/>
<path d="M209.279 122.08H200.559V127.803C200.559 128.632 200.851 129.338 201.436 129.923C202.02 130.508 202.727 130.8 203.556 130.8H209.279V122.08Z" fill="white"/>
<path d="M217.999 125.078C217.999 124.249 217.707 123.542 217.122 122.957C216.537 122.373 215.831 122.08 215.002 122.08H209.279V130.8H217.999V125.078Z" fill="white"/>
<path d="M8.71997 130.802H0V139.522H8.71997V130.802Z" fill="white"/>
<path d="M26.1614 133.8V130.802H20.4389C19.6101 130.802 18.9032 131.095 18.3185 131.679C17.7339 132.264 17.4414 132.971 17.4414 133.8V136.525C17.4414 137.353 17.7338 138.06 18.3185 138.645C18.9033 139.23 19.6101 139.522 20.4389 139.522H26.1614V133.8Z" fill="white"/>
<path d="M34.8801 133.8C34.8801 132.971 34.5877 132.264 34.003 131.679C33.4183 131.094 32.7115 130.802 31.8826 130.802H26.1602V139.522H34.8801V133.8Z" fill="white"/>
<path d="M69.759 130.802H61.0391V136.525C61.0391 137.353 61.3314 138.06 61.9162 138.645C62.501 139.23 63.2077 139.522 64.0366 139.522H69.759V130.802Z" fill="white"/>
<path d="M78.4797 130.802H69.7598V139.522H78.4797V130.802Z" fill="white"/>
<path d="M87.2004 130.802H78.4805V139.522H84.203C85.0318 139.522 85.7386 139.23 86.3233 138.645C86.908 138.06 87.2004 137.353 87.2004 136.525V130.802Z" fill="white"/>
<path d="M113.359 133.799C113.359 132.971 113.066 132.264 112.482 131.679C111.897 131.094 111.19 130.802 110.361 130.802H107.636C106.807 130.802 106.1 131.094 105.516 131.679C104.931 132.264 104.639 132.971 104.639 133.799V136.524C104.639 136.57 104.644 136.638 104.656 136.729H104.639V139.522H113.359V136.729H113.342C113.353 136.638 113.359 136.57 113.359 136.524V133.799Z" fill="white"/>
<path d="M130.8 136.525C130.8 137.354 130.507 138.06 129.923 138.645C129.338 139.23 128.632 139.522 127.803 139.522H125.078C124.249 139.522 123.542 139.23 122.957 138.645C122.373 138.06 122.08 137.354 122.08 136.525V133.8C122.08 132.971 122.372 132.264 122.957 131.679C123.542 131.095 124.249 130.802 125.078 130.802H127.803C128.632 130.802 129.338 131.095 129.923 131.679C130.508 132.264 130.8 132.971 130.8 133.8V136.525Z" fill="white"/>
<path d="M165.679 133.8V130.802H159.956C159.128 130.802 158.421 131.095 157.836 131.679C157.251 132.264 156.959 132.971 156.959 133.8V139.522H165.679V133.8Z" fill="white"/>
<path d="M174.4 130.802H165.68V139.522H174.4V130.802Z" fill="white"/>
<path d="M200.56 133.8C200.56 132.971 200.267 132.264 199.683 131.679C199.098 131.095 198.391 130.802 197.562 130.802H194.837C194.009 130.802 193.302 131.095 192.717 131.679C192.132 132.264 191.84 132.971 191.84 133.8V136.525C191.84 136.57 191.846 136.638 191.857 136.729H191.84V139.522H200.56V136.729H200.543C200.554 136.638 200.56 136.57 200.56 136.525V133.8Z" fill="white"/>
<path d="M217.982 133.595H217.999V130.802H209.279V133.595H209.296C209.285 133.686 209.279 133.754 209.279 133.799V136.524C209.279 137.353 209.572 138.06 210.156 138.645C210.741 139.229 211.448 139.522 212.277 139.522H215.002C215.831 139.522 216.537 139.229 217.122 138.645C217.707 138.06 217.999 137.353 217.999 136.524V133.799C217.999 133.754 217.994 133.686 217.982 133.595Z" fill="white"/>
<path d="M8.70297 142.309H8.71997V139.516H0V142.309H0.0170039C0.00566798 142.4 0 142.468 0 142.513V145.238C0 146.067 0.292381 146.774 0.877142 147.359C1.4619 147.943 2.16866 148.236 2.99749 148.236H5.72248C6.55132 148.236 7.25816 147.943 7.84283 147.359C8.42751 146.774 8.71997 146.067 8.71997 145.238V142.513C8.71997 142.468 8.71448 142.4 8.70297 142.309Z" fill="white"/>
<path d="M34.8801 139.516H26.1602V145.238C26.1602 146.067 26.4525 146.774 27.0373 147.359C27.6221 147.943 28.3288 148.236 29.1576 148.236H34.8801V139.516Z" fill="white"/>
<path d="M43.5989 139.523H34.8789V148.243H43.5989V139.523Z" fill="white"/>
<path d="M52.3196 139.523H43.5996V148.243H52.3196V139.523Z" fill="white"/>
<path d="M58.0428 139.516H52.3203V148.236H58.0428C58.8716 148.236 59.5785 147.943 60.1631 147.359C60.7478 146.774 61.0403 146.067 61.0403 145.238V142.513C61.0403 141.685 60.7478 140.978 60.1631 140.393C59.5785 139.808 58.8716 139.516 58.0428 139.516Z" fill="white"/>
<path d="M113.359 139.516H104.639V145.238C104.639 146.067 104.931 146.774 105.516 147.359C106.101 147.943 106.807 148.236 107.636 148.236H113.359V139.516Z" fill="white"/>
<path d="M122.079 142.513C122.079 141.685 121.787 140.978 121.202 140.393C120.618 139.808 119.911 139.516 119.082 139.516H113.359V148.236H122.079V142.513Z" fill="white"/>
<path d="M148.24 142.514V139.516H142.517C141.688 139.516 140.981 139.808 140.397 140.393C139.812 140.978 139.52 141.685 139.52 142.514V148.236H148.24V142.514Z" fill="white"/>
<path d="M156.958 139.523H148.238V148.243H156.958V139.523Z" fill="white"/>
<path d="M165.679 139.523H156.959V148.243H165.679V139.523Z" fill="white"/>
<path d="M174.4 139.523H165.68V148.243H174.4V139.523Z" fill="white"/>
<path d="M183.12 142.514C183.12 141.685 182.828 140.978 182.243 140.393C181.659 139.808 180.952 139.516 180.123 139.516H174.4V148.236H183.12V142.514Z" fill="white"/>
<path d="M200.56 139.523H191.84V148.243H200.56V139.523Z" fill="white"/>
<path d="M78.4797 151.239V148.242H72.7573C71.9284 148.242 71.2216 148.534 70.6369 149.119C70.0522 149.703 69.7598 150.41 69.7598 151.239V153.964C69.7598 154.793 70.0521 155.5 70.6369 156.084C71.2217 156.669 71.9284 156.962 72.7573 156.962H78.4797V151.239Z" fill="white"/>
<path d="M84.203 148.242H78.4805V156.962H84.203C85.0318 156.962 85.7386 156.669 86.3233 156.084C86.908 155.5 87.2004 154.793 87.2004 153.964V151.239C87.2004 150.41 86.908 149.703 86.3233 149.119C85.7386 148.534 85.0318 148.242 84.203 148.242Z" fill="white"/>
<path d="M122.062 151.035H122.079V148.242H113.359V151.035H113.376C113.365 151.126 113.359 151.194 113.359 151.239V153.964C113.359 154.793 113.652 155.5 114.237 156.084C114.821 156.669 115.528 156.962 116.357 156.962H119.082C119.911 156.962 120.618 156.669 121.202 156.084C121.787 155.5 122.079 154.793 122.079 153.964V151.239C122.079 151.194 122.074 151.126 122.062 151.035Z" fill="white"/>
<path d="M148.24 148.242H139.52V156.962H148.24V148.242Z" fill="white"/>
<path d="M183.12 148.242H174.4V156.962H183.12V148.242Z" fill="white"/>
<path d="M200.543 151.035H200.56V148.242H191.84V151.035H191.857C191.846 151.126 191.84 151.194 191.84 151.239V153.964C191.84 154.793 192.132 155.5 192.717 156.084C193.302 156.669 194.009 156.962 194.837 156.962H197.562C198.391 156.962 199.098 156.669 199.683 156.084C200.267 155.5 200.56 154.793 200.56 153.964V151.239C200.56 151.194 200.554 151.126 200.543 151.035Z" fill="white"/>
<path d="M113.359 162.681C113.359 163.51 113.066 164.217 112.482 164.801C111.897 165.386 111.19 165.679 110.361 165.679H107.636C106.807 165.679 106.101 165.386 105.516 164.801C104.931 164.217 104.639 163.51 104.639 162.681V159.956C104.639 159.127 104.931 158.42 105.516 157.836C106.101 157.251 106.807 156.958 107.636 156.958H110.361C111.19 156.958 111.897 157.251 112.482 157.836C113.066 158.42 113.359 159.127 113.359 159.956V162.681Z" fill="white"/>
<path d="M148.24 156.959H139.52V165.679H148.24V156.959Z" fill="white"/>
<path d="M165.679 162.681C165.679 163.51 165.386 164.217 164.802 164.802C164.217 165.386 163.51 165.679 162.681 165.679H159.956C159.128 165.679 158.421 165.386 157.836 164.802C157.251 164.217 156.959 163.51 156.959 162.681V159.956C156.959 159.127 157.251 158.421 157.836 157.836C158.421 157.251 159.128 156.959 159.956 156.959H162.681C163.511 156.959 164.217 157.251 164.802 157.836C165.386 158.421 165.679 159.127 165.679 159.956V162.681Z" fill="white"/>
<path d="M183.12 156.959H174.4V165.679H183.12V156.959Z" fill="white"/>
<path d="M188.842 156.958H183.119V165.679H188.842C189.67 165.679 190.377 165.386 190.962 164.801C191.547 164.217 191.839 163.51 191.839 162.681V159.956C191.839 159.127 191.547 158.42 190.962 157.836C190.377 157.251 189.67 156.958 188.842 156.958Z" fill="white"/>
<path d="M217.999 159.956C217.999 159.127 217.707 158.42 217.122 157.836C216.537 157.251 215.831 156.958 215.002 156.958H212.277C211.448 156.958 210.741 157.251 210.156 157.836C209.572 158.42 209.279 159.127 209.279 159.956V162.681C209.279 162.726 209.285 162.795 209.296 162.885H209.279V165.679H217.999V162.885H217.982C217.994 162.795 217.999 162.727 217.999 162.681V159.956Z" fill="white"/>
<path d="M87.2004 168.679C87.2004 167.85 86.908 167.143 86.3233 166.558C85.7386 165.974 85.0318 165.681 84.203 165.681H81.478C80.6491 165.681 79.9423 165.974 79.3576 166.558C78.7729 167.143 78.4805 167.85 78.4805 168.679V171.404C78.4805 171.449 78.4861 171.517 78.4975 171.608H78.4805V174.401H87.2004V171.608H87.1834C87.1949 171.517 87.2004 171.449 87.2004 171.404V168.679Z" fill="white"/>
<path d="M104.638 168.679C104.638 167.85 104.345 167.143 103.761 166.558C103.176 165.974 102.469 165.681 101.64 165.681H98.9155C98.0866 165.681 97.3798 165.974 96.7951 166.558C96.2104 167.143 95.918 167.85 95.918 168.679V171.404C95.918 171.449 95.9236 171.517 95.935 171.608H95.918V174.401H104.638V171.608H104.621C104.632 171.517 104.638 171.449 104.638 171.404V168.679Z" fill="white"/>
<path d="M139.519 168.679V165.681H133.796C132.967 165.681 132.261 165.974 131.676 166.558C131.091 167.143 130.799 167.85 130.799 168.679V174.401H139.519V168.679Z" fill="white"/>
<path d="M148.24 165.681H139.52V174.401H148.24V165.681Z" fill="white"/>
<path d="M183.118 165.681H174.398V174.401H183.118V165.681Z" fill="white"/>
<path d="M217.982 168.474H217.999V165.681H209.279V168.474H209.296C209.285 168.565 209.279 168.633 209.279 168.679V171.404C209.279 172.233 209.572 172.939 210.156 173.524C210.741 174.109 211.448 174.401 212.277 174.401H215.002C215.831 174.401 216.537 174.109 217.122 173.524C217.707 172.939 217.999 172.233 217.999 171.404V168.679C217.999 168.633 217.994 168.565 217.982 168.474Z" fill="white"/>
<path d="M87.2004 174.403H78.4805V183.123H87.2004V174.403Z" fill="white"/>
<path d="M95.9192 174.403H87.1992V183.123H95.9192V174.403Z" fill="white"/>
<path d="M104.64 174.403H95.9199V183.123H104.64V174.403Z" fill="white"/>
<path d="M113.359 174.403H104.639V183.123H113.359V174.403Z" fill="white"/>
<path d="M122.079 174.403H113.359V183.123H122.079V174.403Z" fill="white"/>
<path d="M130.8 174.403H122.08V183.123H130.8V174.403Z" fill="white"/>
<path d="M139.519 174.403H130.799V183.123H139.519V174.403Z" fill="white"/>
<path d="M148.24 174.403H139.52V183.123H148.24V174.403Z" fill="white"/>
<path d="M156.958 174.403H148.238V183.123H156.958V174.403Z" fill="white"/>
<path d="M165.679 174.403H156.959V183.123H165.679V174.403Z" fill="white"/>
<path d="M174.4 174.403H165.68V183.123H174.4V174.403Z" fill="white"/>
<path d="M183.12 174.403H174.4V183.123H183.12V174.403Z" fill="white"/>
<path d="M191.839 174.403H183.119V183.123H191.839V174.403Z" fill="white"/>
<path d="M197.562 174.402H191.84V183.122H197.562C198.391 183.122 199.098 182.83 199.683 182.245C200.267 181.66 200.56 180.953 200.56 180.125V177.399C200.56 176.571 200.267 175.864 199.683 175.279C199.098 174.694 198.391 174.402 197.562 174.402Z" fill="white"/>
<path d="M87.1834 185.912H87.2004V183.119H78.4805V185.912H78.4975C78.4861 186.003 78.4805 186.071 78.4805 186.117V188.842C78.4805 189.67 78.7728 190.377 79.3576 190.962C79.9424 191.547 80.6491 191.839 81.478 191.839H84.203C85.0318 191.839 85.7386 191.547 86.3233 190.962C86.908 190.377 87.2004 189.67 87.2004 188.842V186.117C87.2004 186.071 87.1949 186.003 87.1834 185.912Z" fill="white"/>
<path d="M113.361 183.124H104.641V191.844H113.361V183.124Z" fill="white"/>
<path d="M139.519 183.119H130.799V188.841C130.799 189.67 131.091 190.377 131.676 190.962C132.261 191.546 132.967 191.839 133.796 191.839H139.519V183.119Z" fill="white"/>
<path d="M148.24 183.124H139.52V191.844H148.24V183.124Z" fill="white"/>
<path d="M156.958 183.124H148.238V191.844H156.958V183.124Z" fill="white"/>
<path d="M165.679 183.119H156.959V191.839H162.681C163.51 191.839 164.217 191.547 164.802 190.962C165.386 190.377 165.679 189.67 165.679 188.842V183.119Z" fill="white"/>
<path d="M191.822 185.912H191.839V183.119H183.119V185.912H183.136C183.125 186.003 183.119 186.071 183.119 186.117V188.842C183.119 189.67 183.412 190.377 183.996 190.962C184.581 191.547 185.288 191.839 186.117 191.839H188.842C189.67 191.839 190.377 191.547 190.962 190.962C191.547 190.377 191.839 189.67 191.839 188.842V186.117C191.839 186.071 191.834 186.003 191.822 185.912Z" fill="white"/>
<path d="M209.279 186.116V183.119H203.556C202.727 183.119 202.02 183.411 201.436 183.996C200.851 184.581 200.559 185.288 200.559 186.116V188.841C200.559 189.67 200.851 190.377 201.436 190.962C202.02 191.546 202.727 191.839 203.556 191.839H209.279V186.116Z" fill="white"/>
<path d="M217.999 186.116C217.999 185.288 217.707 184.581 217.122 183.996C216.537 183.411 215.831 183.119 215.002 183.119H209.279V191.839H217.999V186.116Z" fill="white"/>
<path d="M95.9192 194.834C95.9192 194.005 95.6267 193.298 95.042 192.713C94.4574 192.129 93.7505 191.836 92.9217 191.836H90.1967C89.3679 191.836 88.661 192.129 88.0764 192.713C87.4917 193.298 87.1992 194.005 87.1992 194.834V197.559C87.1992 197.604 87.2049 197.672 87.2162 197.763H87.1992V200.556H95.9192V197.763H95.9022C95.9137 197.672 95.9192 197.604 95.9192 197.559V194.834Z" fill="white"/>
<path d="M113.361 191.837H104.641V200.557H113.361V191.837Z" fill="white"/>
<path d="M130.798 194.834C130.798 194.005 130.506 193.298 129.921 192.713C129.336 192.129 128.629 191.836 127.801 191.836H125.076C124.247 191.836 123.54 192.129 122.955 192.713C122.371 193.298 122.078 194.005 122.078 194.834V197.559C122.078 197.604 122.084 197.672 122.095 197.763H122.078V200.556H130.798V197.763H130.781C130.793 197.672 130.798 197.604 130.798 197.559V194.834Z" fill="white"/>
<path d="M148.24 191.837H139.52V200.557H148.24V191.837Z" fill="white"/>
<path d="M174.4 194.834C174.4 194.005 174.107 193.298 173.523 192.713C172.938 192.129 172.231 191.836 171.402 191.836H168.677C167.848 191.836 167.142 192.129 166.557 192.713C165.972 193.298 165.68 194.005 165.68 194.834V197.559C165.68 197.604 165.685 197.672 165.697 197.763H165.68V200.556H174.4V197.763H174.383C174.394 197.672 174.4 197.604 174.4 197.559V194.834Z" fill="white"/>
<path d="M200.56 197.559C200.56 198.388 200.267 199.095 199.683 199.679C199.098 200.264 198.391 200.556 197.562 200.556H194.837C194.009 200.556 193.302 200.264 192.717 199.679C192.132 199.095 191.84 198.388 191.84 197.559V194.834C191.84 194.005 192.132 193.298 192.717 192.714C193.302 192.129 194.009 191.836 194.837 191.836H197.562C198.391 191.836 199.098 192.129 199.683 192.713C200.267 193.298 200.56 194.005 200.56 194.834V197.559Z" fill="white"/>
<path d="M217.999 191.837H209.279V200.557H217.999V191.837Z" fill="white"/>
<path d="M95.9192 200.558H87.1992V209.279H95.9192V200.558Z" fill="white"/>
<path d="M104.64 200.558H95.9199V209.279H104.64V200.558Z" fill="white"/>
<path d="M113.359 200.557H104.639V209.277H110.361C111.19 209.277 111.897 208.984 112.482 208.399C113.066 207.815 113.359 207.108 113.359 206.279V200.557Z" fill="white"/>
<path d="M130.783 203.35H130.8V200.557H122.08V203.35H122.097C122.086 203.44 122.08 203.509 122.08 203.554V206.279C122.08 207.108 122.372 207.815 122.957 208.399C123.542 208.984 124.249 209.277 125.078 209.277H127.803C128.631 209.277 129.338 208.984 129.923 208.399C130.508 207.815 130.8 207.108 130.8 206.279V203.554C130.8 203.509 130.795 203.44 130.783 203.35Z" fill="white"/>
<path d="M148.24 200.558H139.52V209.279H148.24V200.558Z" fill="white"/>
<path d="M165.679 203.554V200.557H159.956C159.128 200.557 158.421 200.849 157.836 201.434C157.251 202.018 156.959 202.725 156.959 203.554V209.277H165.679V203.554Z" fill="white"/>
<path d="M174.4 200.558H165.68V209.279H174.4V200.558Z" fill="white"/>
<path d="M180.121 200.557H174.398V209.277H180.121C180.95 209.277 181.657 208.984 182.241 208.399C182.826 207.815 183.118 207.108 183.118 206.279V203.554C183.118 202.725 182.826 202.018 182.241 201.434C181.657 200.849 180.95 200.557 180.121 200.557Z" fill="white"/>
<path d="M217.999 200.558H209.279V209.279H217.999V200.558Z" fill="white"/>
<path d="M78.4797 215.001C78.4797 215.83 78.1872 216.537 77.6026 217.121C77.0179 217.706 76.3113 217.998 75.4822 217.998H72.7573C71.9285 217.998 71.2217 217.706 70.637 217.121C70.0522 216.537 69.7598 215.83 69.7598 215.001V212.276C69.7598 211.447 70.0521 210.74 70.6369 210.156C71.2218 209.571 71.9285 209.278 72.7573 209.278H75.4822C76.3113 209.278 77.0181 209.571 77.6026 210.156C78.1873 210.74 78.4797 211.447 78.4797 212.276V215.001Z" fill="white"/>
<path d="M95.9022 212.071H95.9192V209.278H87.1992V212.071H87.2162C87.2049 212.162 87.1992 212.23 87.1992 212.276V215.001C87.1992 215.83 87.4916 216.536 88.0764 217.121C88.6611 217.706 89.3679 217.998 90.1967 217.998H92.9217C93.7505 217.998 94.4574 217.706 95.042 217.121C95.6267 216.536 95.9192 215.83 95.9192 215.001V212.276C95.9192 212.23 95.9137 212.162 95.9022 212.071Z" fill="white"/>
<path d="M148.223 212.072H148.24V209.278H139.52V212.072H139.537C139.525 212.162 139.52 212.231 139.52 212.276V215.001C139.52 215.83 139.812 216.537 140.397 217.121C140.981 217.706 141.688 217.998 142.517 217.998H145.242C146.071 217.998 146.778 217.706 147.362 217.121C147.947 216.537 148.24 215.83 148.24 215.001V212.276C148.24 212.231 148.234 212.162 148.223 212.072Z" fill="white"/>
<path d="M165.662 212.071H165.679V209.278H156.959V212.071H156.976C156.965 212.162 156.959 212.23 156.959 212.276V215.001C156.959 215.83 157.251 216.536 157.836 217.121C158.421 217.706 159.128 217.998 159.956 217.998H162.681C163.51 217.998 164.217 217.706 164.802 217.121C165.386 216.536 165.679 215.83 165.679 215.001V212.276C165.679 212.23 165.673 212.162 165.662 212.071Z" fill="white"/>
<path d="M191.839 215.001C191.839 215.83 191.547 216.537 190.962 217.121C190.377 217.706 189.671 217.998 188.842 217.998H186.117C185.288 217.998 184.581 217.706 183.996 217.121C183.412 216.537 183.119 215.83 183.119 215.001V212.276C183.119 211.447 183.412 210.74 183.996 210.156C184.581 209.571 185.288 209.278 186.117 209.278H188.842C189.671 209.278 190.377 209.571 190.962 210.155C191.547 210.74 191.839 211.447 191.839 212.276V215.001Z" fill="white"/>
<path d="M217.982 212.071H217.999V209.278H209.279V212.071H209.296C209.285 212.162 209.279 212.23 209.279 212.276V215.001C209.279 215.83 209.572 216.536 210.156 217.121C210.741 217.706 211.448 217.998 212.277 217.998H215.002C215.831 217.998 216.537 217.706 217.122 217.121C217.707 216.536 217.999 215.83 217.999 215.001V212.276C217.999 212.23 217.994 212.162 217.982 212.071Z" fill="white"/>
<path d="M40.2002 0.0107422H20.8396C11.4041 0.0107422 3.41029 6.24478 0.854557 14.7654C0.590255 15.6468 0.38394 16.5527 0.240497 17.4786C0.0824037 18.5004 0 19.5467 0 20.6118V40.4322C0 51.7973 9.3513 61.0394 20.8396 61.0394L30.5199 61.0412L40.2002 61.0388C51.6879 61.0388 61.0398 51.7967 61.0398 40.4316V20.6118C61.0398 9.25224 51.6885 0.0107422 40.2002 0.0107422ZM51.8838 40.4322C51.8838 46.7462 46.643 51.8834 40.1978 51.8834L30.5199 51.8852L20.842 51.8827C14.3969 51.8827 9.15597 46.7456 9.15597 40.4322V20.6118C9.15597 18.6396 9.66749 16.7828 10.5678 15.1603C11.4346 13.5995 12.6609 12.2572 14.1374 11.2409C16.0358 9.93406 18.3473 9.16678 20.839 9.16678H40.2002C46.643 9.16678 51.8838 14.3009 51.8838 20.6118V40.4322Z" fill="white"/>
<path d="M197.159 0.0106201H177.799C168.363 0.0106201 160.369 6.24466 157.814 14.7653C157.549 15.6467 157.343 16.5525 157.199 17.4785C157.041 18.5003 156.959 19.5466 156.959 20.6117V40.4321C156.959 51.7972 166.31 61.0393 177.799 61.0393L187.479 61.0411L197.159 61.0387C208.647 61.0387 217.999 51.7966 217.999 40.4315V20.6117C217.999 9.25211 208.648 0.0106201 197.159 0.0106201ZM208.843 40.4321C208.843 46.7461 203.602 51.8832 197.157 51.8832L187.479 51.8851L177.801 51.8826C171.356 51.8826 166.115 46.7455 166.115 40.4321V20.6117C166.115 18.6395 166.626 16.7826 167.527 15.1602C168.394 13.5994 169.62 12.2571 171.096 11.2408C172.995 9.93393 175.306 9.16666 177.798 9.16666H197.159C203.602 9.16666 208.843 14.3008 208.843 20.6117V40.4321Z" fill="white"/>
<path d="M40.2002 156.967H20.8396C11.4041 156.967 3.41029 163.201 0.854557 171.722C0.590255 172.603 0.38394 173.509 0.240497 174.435C0.0824037 175.457 0 176.503 0 177.568V197.389C0 208.754 9.3513 217.996 20.8396 217.996L30.5199 217.998L40.2002 217.995C51.6879 217.995 61.0398 208.753 61.0398 197.388V177.568C61.0398 166.209 51.6885 156.967 40.2002 156.967ZM51.8838 197.389C51.8838 203.703 46.643 208.84 40.1978 208.84L30.5199 208.842L20.842 208.839C14.3969 208.839 9.15597 203.702 9.15597 197.389V177.568C9.15597 175.596 9.66749 173.739 10.5678 172.117C11.4346 170.556 12.6609 169.214 14.1374 168.197C16.0358 166.89 18.3473 166.123 20.839 166.123H40.2002C46.643 166.123 51.8838 171.257 51.8838 177.568V197.389Z" fill="white"/>
<path d="M24.5942 43.5897C20.6467 43.5897 17.4355 40.4421 17.4355 36.5767V24.4389C17.4355 23.2314 17.7495 22.095 18.2991 21.1006C18.8299 20.1437 19.5812 19.3212 20.4861 18.7007C21.6483 17.9007 23.0652 17.4296 24.5903 17.4296H36.4478C40.3917 17.4296 43.6028 20.5735 43.6028 24.4386V36.5764C43.6028 40.4416 40.3919 43.5894 36.4478 43.5894H30.5192L24.5942 43.5897Z" fill="white"/>
<path d="M181.553 43.5897C177.606 43.5897 174.395 40.4421 174.395 36.5767V24.4389C174.395 23.2314 174.708 22.095 175.258 21.1006C175.789 20.1437 176.54 19.3212 177.445 18.7007C178.607 17.9007 180.024 17.4296 181.549 17.4296H193.407C197.351 17.4296 200.562 20.5735 200.562 24.4386V36.5764C200.562 40.4416 197.351 43.5894 193.407 43.5894H187.478L181.553 43.5897Z" fill="white"/>
<path d="M24.5942 200.562C20.6467 200.562 17.4355 197.415 17.4355 193.549V181.411C17.4355 180.204 17.7495 179.067 18.2991 178.073C18.8299 177.116 19.5812 176.294 20.4861 175.673C21.6483 174.873 23.0652 174.402 24.5903 174.402H36.4478C40.3917 174.402 43.6028 177.546 43.6028 181.411V193.549C43.6028 197.414 40.3919 200.562 36.4478 200.562H30.5192L24.5942 200.562Z" fill="white"/>
</svg>
