<svg width="218" height="218" viewBox="0 0 218 218" fill="none" xmlns="http://www.w3.org/2000/svg">
<path d="M87.2004 5.72252C87.2004 6.55154 86.9079 7.25821 86.3233 7.84289C85.7386 8.42748 85.032 8.72004 84.203 8.72004H81.478C80.6492 8.72004 79.9424 8.42748 79.3577 7.84289C78.7729 7.25821 78.4805 6.55154 78.4805 5.72252V2.99751C78.4805 2.16876 78.7728 1.46191 79.3576 0.877236C79.9425 0.29247 80.6492 0 81.478 0H84.203C85.032 0 85.7388 0.292383 86.3233 0.877149C86.908 1.462 87.2004 2.16876 87.2004 2.99751V5.72252Z" fill="white"/>
<path d="M104.639 2.99751V0H98.9164C98.0876 0 97.3808 0.292383 96.7961 0.877149C96.2114 1.46191 95.9189 2.16867 95.9189 2.99751V5.72252C95.9189 6.55136 96.2113 7.25821 96.7961 7.84289C97.3808 8.42757 98.0876 8.72004 98.9164 8.72004H104.639V2.99751Z" fill="white"/>
<path d="M113.36 2.99751C113.36 2.16867 113.067 1.46183 112.482 0.877149C111.898 0.29247 111.191 0 110.362 0H104.64V8.72004H113.36V2.99751Z" fill="white"/>
<path d="M130.8 2.99751C130.8 2.16867 130.508 1.46183 129.923 0.877149C129.338 0.29247 128.631 0 127.803 0H125.078C124.249 0 123.542 0.292383 122.957 0.877149C122.373 1.46191 122.08 2.16867 122.08 2.99751V5.72252C122.08 5.76796 122.086 5.83615 122.097 5.92692H122.08V8.72004H130.8V5.92692H130.783C130.795 5.83615 130.8 5.76804 130.8 5.72252V2.99751Z" fill="white"/>
<path d="M78.4797 11.7143C78.4797 10.8855 78.1873 10.1786 77.6026 9.59395C77.0179 9.00927 76.3111 8.7168 75.4822 8.7168H72.7573C71.9284 8.7168 71.2216 9.00918 70.6369 9.59395C70.0522 10.1787 69.7598 10.8855 69.7598 11.7143V14.4393C69.7598 14.4848 69.7654 14.5529 69.7768 14.6437H69.7598V17.4368H78.4797V14.6437H78.4627C78.4742 14.5529 78.4797 14.4848 78.4797 14.4393V11.7143Z" fill="white"/>
<path d="M95.9202 11.7143C95.9202 10.8855 95.6277 10.1786 95.043 9.59395C94.4584 9.00927 93.7515 8.7168 92.9227 8.7168H90.1977C89.3689 8.7168 88.662 9.00918 88.0773 9.59395C87.4927 10.1787 87.2002 10.8855 87.2002 11.7143V14.4393C87.2002 14.4848 87.2059 14.5529 87.2172 14.6437H87.2002V17.4368H95.9202V14.6437H95.9032C95.9147 14.5529 95.9202 14.4848 95.9202 14.4393V11.7143Z" fill="white"/>
<path d="M113.36 8.7168H104.64V14.4393C104.64 15.2682 104.932 15.975 105.517 16.5597C106.102 17.1444 106.808 17.4368 107.637 17.4368H113.36V8.7168Z" fill="white"/>
<path d="M122.08 8.72363H113.36V17.4437H122.08V8.72363Z" fill="white"/>
<path d="M130.8 8.72363H122.08V17.4437H130.8V8.72363Z" fill="white"/>
<path d="M78.4797 17.4387H69.7598V26.1588H78.4797V17.4387Z" fill="white"/>
<path d="M87.1995 17.4387H78.4795V26.1588H87.1995V17.4387Z" fill="white"/>
<path d="M95.9202 17.4319H87.2002V26.1519H92.9227C93.7515 26.1519 94.4584 25.8595 95.043 25.2748C95.6277 24.6901 95.9202 23.9832 95.9202 23.1544V17.4319Z" fill="white"/>
<path d="M130.783 20.225H130.8V17.4319H122.08V20.225H122.097C122.086 20.3159 122.08 20.384 122.08 20.4294V23.1544C122.08 23.9832 122.372 24.6901 122.957 25.2748C123.542 25.8595 124.249 26.1519 125.078 26.1519H127.803C128.631 26.1519 129.338 25.8595 129.923 25.2748C130.508 24.6901 130.8 23.9832 130.8 23.1544V20.4294C130.8 20.384 130.795 20.3159 130.783 20.225Z" fill="white"/>
<path d="M78.4627 28.9506H78.4797V26.1575H69.7598V28.9506H69.7768C69.7654 29.0414 69.7598 29.1096 69.7598 29.155V31.88C69.7598 32.7088 70.0521 33.4157 70.6369 34.0004C71.2217 34.585 71.9284 34.8775 72.7573 34.8775H75.4822C76.3111 34.8775 77.0179 34.585 77.6026 34.0004C78.1873 33.4157 78.4797 32.7088 78.4797 31.88V29.155C78.4797 29.1096 78.4742 29.0414 78.4627 28.9506Z" fill="white"/>
<path d="M113.36 29.155V26.1575H107.637C106.808 26.1575 106.101 26.4499 105.517 27.0346C104.932 27.6194 104.64 28.3261 104.64 29.155V31.88C104.64 32.7088 104.932 33.4157 105.517 34.0004C106.102 34.585 106.808 34.8775 107.637 34.8775H113.36V29.155Z" fill="white"/>
<path d="M119.083 26.1575H113.36V34.8775H119.083C119.912 34.8775 120.619 34.585 121.203 34.0004C121.788 33.4157 122.08 32.7088 122.08 31.88V29.155C122.08 28.3261 121.788 27.6193 121.203 27.0346C120.619 26.4499 119.912 26.1575 119.083 26.1575Z" fill="white"/>
<path d="M148.24 29.155C148.24 28.3261 147.947 27.6193 147.362 27.0346C146.778 26.4499 146.071 26.1575 145.242 26.1575H142.517C141.688 26.1575 140.981 26.4499 140.397 27.0346C139.812 27.6194 139.52 28.3261 139.52 29.155V31.88C139.52 31.9254 139.525 31.9936 139.537 32.0844H139.52V34.8775H148.24V32.0844H148.223C148.234 31.9936 148.24 31.9255 148.24 31.88V29.155Z" fill="white"/>
<path d="M104.64 40.5987C104.64 41.4278 104.347 42.1344 103.763 42.7191C103.178 43.3037 102.471 43.5963 101.642 43.5963H98.9174C98.0887 43.5963 97.3818 43.3037 96.7972 42.7191C96.2124 42.1344 95.9199 41.4278 95.9199 40.5987V37.8737C95.9199 37.045 96.2123 36.3381 96.7971 35.7535C97.3819 35.1687 98.0887 34.8762 98.9174 34.8762H101.642C102.471 34.8762 103.178 35.1686 103.763 35.7534C104.347 36.3382 104.64 37.045 104.64 37.8737V40.5987Z" fill="white"/>
<path d="M148.223 37.6693H148.24V34.8762H139.52V37.6693H139.537C139.525 37.7602 139.52 37.8283 139.52 37.8737V40.5987C139.52 41.4276 139.812 42.1344 140.397 42.7191C140.981 43.3038 141.688 43.5963 142.517 43.5963H145.242C146.071 43.5963 146.778 43.3038 147.362 42.7191C147.947 42.1344 148.24 41.4276 148.24 40.5987V37.8737C148.24 37.8283 148.234 37.7602 148.223 37.6693Z" fill="white"/>
<path d="M95.9202 46.5922C95.9202 45.7634 95.6277 45.0566 95.043 44.4719C94.4584 43.8872 93.7515 43.5947 92.9227 43.5947H90.1977C89.3689 43.5947 88.662 43.8871 88.0773 44.4719C87.4927 45.0566 87.2002 45.7634 87.2002 46.5922V49.3173C87.2002 49.3627 87.2059 49.4309 87.2172 49.5216H87.2002V52.3148H95.9202V49.5216H95.9032C95.9147 49.4309 95.9202 49.3628 95.9202 49.3173V46.5922Z" fill="white"/>
<path d="M122.079 49.3173C122.079 50.1463 121.787 50.8529 121.202 51.4376C120.618 52.0222 119.911 52.3148 119.082 52.3148H116.357C115.528 52.3148 114.821 52.0222 114.237 51.4376C113.652 50.8529 113.359 50.1463 113.359 49.3173V46.5922C113.359 45.7635 113.652 45.0566 114.237 44.472C114.821 43.8872 115.528 43.5947 116.357 43.5947H119.082C119.911 43.5947 120.618 43.8871 121.202 44.4719C121.787 45.0567 122.079 45.7635 122.079 46.5922V49.3173Z" fill="white"/>
<path d="M78.4797 55.3139C78.4797 54.4851 78.1873 53.7782 77.6026 53.1936C77.0179 52.6089 76.3111 52.3164 75.4822 52.3164H72.7573C71.9284 52.3164 71.2216 52.6088 70.6369 53.1936C70.0522 53.7783 69.7598 54.4851 69.7598 55.3139V58.0389C69.7598 58.0844 69.7654 58.1526 69.7768 58.2433H69.7598V61.0364H78.4797V58.2433H78.4627C78.4742 58.1526 78.4797 58.0844 78.4797 58.0389V55.3139Z" fill="white"/>
<path d="M95.9032 55.1095H95.9202V52.3164H87.2002V55.1095H87.2172C87.2059 55.2004 87.2002 55.2685 87.2002 55.3139V58.0389C87.2002 58.8678 87.4926 59.5746 88.0773 60.1593C88.6621 60.744 89.3689 61.0364 90.1977 61.0364H92.9227C93.7515 61.0364 94.4584 60.744 95.043 60.1593C95.6277 59.5746 95.9202 58.8678 95.9202 58.0389V55.3139C95.9202 55.2685 95.9147 55.2004 95.9032 55.1095Z" fill="white"/>
<path d="M113.36 55.3139C113.36 54.4851 113.067 53.7782 112.482 53.1936C111.898 52.6089 111.191 52.3164 110.362 52.3164H107.637C106.808 52.3164 106.101 52.6088 105.517 53.1936C104.932 53.7783 104.64 54.4851 104.64 55.3139V58.0389C104.64 58.0844 104.645 58.1526 104.657 58.2433H104.64V61.0364H113.36V58.2433H113.343C113.354 58.1526 113.36 58.0844 113.36 58.0389V55.3139Z" fill="white"/>
<path d="M130.8 58.0389C130.8 58.8679 130.507 59.5746 129.923 60.1593C129.338 60.7439 128.632 61.0364 127.803 61.0364H125.078C124.249 61.0364 123.542 60.7439 122.957 60.1593C122.373 59.5746 122.08 58.8679 122.08 58.0389V55.3139C122.08 54.4852 122.372 53.7783 122.957 53.1936C123.542 52.6089 124.249 52.3164 125.078 52.3164H127.803C128.632 52.3164 129.338 52.6088 129.923 53.1936C130.508 53.7784 130.8 54.4852 130.8 55.3139V58.0389Z" fill="white"/>
<path d="M148.239 55.3139C148.239 54.4851 147.946 53.7782 147.361 53.1936C146.777 52.6089 146.07 52.3164 145.241 52.3164H142.516C141.687 52.3164 140.98 52.6088 140.396 53.1936C139.811 53.7783 139.519 54.4851 139.519 55.3139V58.0389C139.519 58.0844 139.524 58.1526 139.536 58.2433H139.519V61.0364H148.239V58.2433H148.222C148.233 58.1526 148.239 58.0844 148.239 58.0389V55.3139Z" fill="white"/>
<path d="M78.4797 61.0415H69.7598V69.7615H78.4797V61.0415Z" fill="white"/>
<path d="M87.1995 64.0385C87.1995 63.2097 86.907 62.5028 86.3223 61.9182C85.7376 61.3335 85.0308 61.041 84.202 61.041H78.4795V69.7611H87.1995V64.0385Z" fill="white"/>
<path d="M113.343 63.8341H113.36V61.041H104.64V63.8341H104.657C104.645 63.925 104.64 63.9931 104.64 64.0385V66.7635C104.64 67.5924 104.932 68.2992 105.517 68.8839C106.102 69.4686 106.808 69.7611 107.637 69.7611H110.362C111.191 69.7611 111.898 69.4686 112.482 68.8839C113.067 68.2992 113.36 67.5924 113.36 66.7635V64.0385C113.36 63.9931 113.354 63.925 113.343 63.8341Z" fill="white"/>
<path d="M148.223 63.8341H148.24V61.041H139.52V63.8341H139.537C139.525 63.925 139.52 63.9931 139.52 64.0385V66.7635C139.52 67.5924 139.812 68.2992 140.397 68.8839C140.981 69.4686 141.688 69.7611 142.517 69.7611H145.242C146.071 69.7611 146.778 69.4686 147.362 68.8839C147.947 68.2992 148.24 67.5924 148.24 66.7635V64.0385C148.24 63.9931 148.234 63.925 148.223 63.8341Z" fill="white"/>
<path d="M8.71997 75.4811C8.71997 76.3101 8.42742 77.0168 7.84283 77.6014C7.25816 78.186 6.55149 78.4786 5.72248 78.4786H2.99749C2.16874 78.4786 1.4619 78.186 0.877229 77.6014C0.292468 77.0168 0 76.3101 0 75.4811V72.7561C0 71.9273 0.292381 71.2205 0.877142 70.6358C1.46199 70.051 2.16874 69.7585 2.99749 69.7585H5.72248C6.55158 69.7585 7.25833 70.0509 7.84283 70.6357C8.42751 71.2205 8.71997 71.9273 8.71997 72.7561V75.4811Z" fill="white"/>
<path d="M61.0393 75.4811C61.0393 76.3101 60.7468 77.0168 60.1622 77.6014C59.5775 78.186 58.8708 78.4786 58.0418 78.4786H55.3168C54.4881 78.4786 53.7812 78.186 53.1966 77.6014C52.6118 77.0168 52.3193 76.3101 52.3193 75.4811V72.7561C52.3193 71.9273 52.6117 71.2205 53.1965 70.6358C53.7813 70.051 54.4881 69.7585 55.3168 69.7585H58.0418C58.8709 69.7585 59.5777 70.0509 60.1622 70.6357C60.7468 71.2205 61.0393 71.9273 61.0393 72.7561V75.4811Z" fill="white"/>
<path d="M78.4797 69.7585H69.7598V75.4811C69.7598 76.3099 70.0521 77.0168 70.6369 77.6014C71.2217 78.1861 71.9284 78.4786 72.7573 78.4786H78.4797V69.7585Z" fill="white"/>
<path d="M87.2004 69.759H78.4805V78.4791H87.2004V69.759Z" fill="white"/>
<path d="M95.9202 72.7561C95.9202 71.9272 95.6277 71.2204 95.043 70.6357C94.4584 70.051 93.7515 69.7585 92.9227 69.7585H87.2002V78.4786H95.9202V72.7561Z" fill="white"/>
<path d="M122.079 72.7561V69.7585H116.357C115.528 69.7585 114.821 70.0509 114.237 70.6357C113.652 71.2205 113.359 71.9272 113.359 72.7561V75.4811C113.359 76.3099 113.652 77.0168 114.237 77.6014C114.821 78.1861 115.528 78.4786 116.357 78.4786H122.079V72.7561Z" fill="white"/>
<path d="M130.8 69.759H122.08V78.4791H130.8V69.759Z" fill="white"/>
<path d="M139.52 72.7561C139.52 71.9272 139.227 71.2204 138.643 70.6357C138.058 70.051 137.351 69.7585 136.522 69.7585H130.8V78.4786H139.52V72.7561Z" fill="white"/>
<path d="M156.959 72.7561V69.7585H151.237C150.408 69.7585 149.701 70.0509 149.116 70.6357C148.532 71.2205 148.239 71.9272 148.239 72.7561V75.4811C148.239 76.3099 148.532 77.0168 149.116 77.6014C149.701 78.1861 150.408 78.4786 151.237 78.4786H156.959V72.7561Z" fill="white"/>
<path d="M162.682 69.7585H156.96V78.4786H162.682C163.511 78.4786 164.218 78.1861 164.803 77.6014C165.387 77.0168 165.68 76.3099 165.68 75.4811V72.7561C165.68 71.9272 165.387 71.2204 164.803 70.6357C164.218 70.051 163.511 69.7585 162.682 69.7585Z" fill="white"/>
<path d="M191.839 72.7561V69.7585H186.117C185.288 69.7585 184.581 70.0509 183.996 70.6357C183.412 71.2205 183.119 71.9272 183.119 72.7561V78.4786H191.839V72.7561Z" fill="white"/>
<path d="M200.56 69.759H191.84V78.4791H200.56V69.759Z" fill="white"/>
<path d="M209.28 72.7561C209.28 71.9272 208.987 71.2204 208.402 70.6357C207.818 70.051 207.111 69.7585 206.282 69.7585H200.56V78.4786H209.28V72.7561Z" fill="white"/>
<path d="M17.4417 81.4763V78.4788H11.7192C10.8903 78.4788 10.1835 78.7711 9.59882 79.3559C9.01415 79.9407 8.72168 80.6474 8.72168 81.4763V84.2013C8.72168 85.0301 9.01406 85.737 9.59882 86.3216C10.1836 86.9063 10.8903 87.1988 11.7192 87.1988H17.4417V81.4763Z" fill="white"/>
<path d="M26.1594 78.4773H17.4395V87.1973H26.1594V78.4773Z" fill="white"/>
<path d="M34.8801 81.4763C34.8801 80.6474 34.5877 79.9406 34.003 79.3559C33.4183 78.7712 32.7115 78.4788 31.8826 78.4788H26.1602V87.1988H34.8801V81.4763Z" fill="white"/>
<path d="M52.3196 84.2013C52.3196 85.0303 52.027 85.737 51.4424 86.3216C50.8578 86.9062 50.1511 87.1988 49.3221 87.1988H46.5971C45.7684 87.1988 45.0615 86.9062 44.4768 86.3216C43.8921 85.737 43.5996 85.0303 43.5996 84.2013V81.4763C43.5996 80.6475 43.892 79.9407 44.4768 79.356C45.0616 78.7712 45.7684 78.4788 46.5971 78.4788H49.3221C50.1512 78.4788 50.8579 78.7711 51.4424 79.3559C52.0271 79.9408 52.3196 80.6475 52.3196 81.4763V84.2013Z" fill="white"/>
<path d="M95.9202 78.4788H87.2002V84.2013C87.2002 85.0301 87.4926 85.737 88.0773 86.3216C88.6621 86.9063 89.3689 87.1988 90.1977 87.1988H95.9202V78.4788Z" fill="white"/>
<path d="M104.64 81.4763C104.64 80.6474 104.347 79.9406 103.763 79.3559C103.178 78.7712 102.471 78.4788 101.642 78.4788H95.9199V87.1988H104.64V81.4763Z" fill="white"/>
<path d="M139.52 78.4773H130.8V87.1973H139.52V78.4773Z" fill="white"/>
<path d="M174.4 81.4763V78.4788H168.677C167.848 78.4788 167.142 78.7711 166.557 79.3559C165.972 79.9407 165.68 80.6474 165.68 81.4763V87.1988H174.4V81.4763Z" fill="white"/>
<path d="M183.12 78.4773H174.4V87.1973H183.12V78.4773Z" fill="white"/>
<path d="M191.84 78.4773H183.12V87.1973H191.84V78.4773Z" fill="white"/>
<path d="M200.56 78.4773H191.84V87.1973H200.56V78.4773Z" fill="white"/>
<path d="M209.28 78.4773H200.56V87.1973H209.28V78.4773Z" fill="white"/>
<path d="M26.1594 87.1995H17.4395V92.922C17.4395 93.7508 17.7318 94.4577 18.3166 95.0424C18.9014 95.627 19.6081 95.9195 20.4369 95.9195H26.1594V87.1995Z" fill="white"/>
<path d="M34.8792 87.2H26.1592V95.92H34.8792V87.2Z" fill="white"/>
<path d="M61.0393 92.922C61.0393 93.751 60.7468 94.4577 60.1622 95.0424C59.5775 95.6269 58.8708 95.9195 58.0418 95.9195H55.3168C54.4881 95.9195 53.7812 95.6269 53.1966 95.0424C52.6118 94.4577 52.3193 93.751 52.3193 92.922V90.197C52.3193 89.3682 52.6117 88.6614 53.1965 88.0767C53.7813 87.4919 54.4881 87.1995 55.3168 87.1995H58.0418C58.8709 87.1995 59.5777 87.4918 60.1622 88.0766C60.7468 88.6615 61.0393 89.3682 61.0393 90.197V92.922Z" fill="white"/>
<path d="M78.4797 92.922C78.4797 93.751 78.1872 94.4577 77.6026 95.0424C77.0179 95.6269 76.3113 95.9195 75.4822 95.9195H72.7573C71.9285 95.9195 71.2217 95.6269 70.637 95.0424C70.0522 94.4577 69.7598 93.751 69.7598 92.922V90.197C69.7598 89.3682 70.0521 88.6614 70.6369 88.0767C71.2218 87.4919 71.9285 87.1995 72.7573 87.1995H75.4822C76.3113 87.1995 77.0181 87.4918 77.6026 88.0766C78.1873 88.6615 78.4797 89.3682 78.4797 90.197V92.922Z" fill="white"/>
<path d="M104.623 89.9926H104.64V87.1995H95.9199V89.9926H95.9369C95.9256 90.0834 95.9199 90.1515 95.9199 90.197V92.922C95.9199 93.7508 96.2123 94.4577 96.7971 95.0424C97.3818 95.627 98.0886 95.9195 98.9174 95.9195H101.642C102.471 95.9195 103.178 95.627 103.763 95.0424C104.347 94.4577 104.64 93.7508 104.64 92.922V90.197C104.64 90.1515 104.634 90.0834 104.623 89.9926Z" fill="white"/>
<path d="M130.8 90.197V87.1995H125.078C124.249 87.1995 123.542 87.4918 122.957 88.0766C122.373 88.6614 122.08 89.3681 122.08 90.197V95.9195H130.8V90.197Z" fill="white"/>
<path d="M139.52 87.2H130.8V95.92H139.52V87.2Z" fill="white"/>
<path d="M145.242 87.1995H139.52V95.9195H145.242C146.071 95.9195 146.778 95.627 147.362 95.0424C147.947 94.4577 148.24 93.7508 148.24 92.922V90.197C148.24 89.3681 147.947 88.6613 147.362 88.0766C146.778 87.4919 146.071 87.1995 145.242 87.1995Z" fill="white"/>
<path d="M174.4 87.2H165.68V95.92H174.4V87.2Z" fill="white"/>
<path d="M191.839 87.2H183.119V95.92H191.839V87.2Z" fill="white"/>
<path d="M209.28 87.1995H200.56V92.922C200.56 93.7508 200.852 94.4577 201.437 95.0424C202.021 95.627 202.728 95.9195 203.557 95.9195H209.28V87.1995Z" fill="white"/>
<path d="M217.999 90.197C217.999 89.3681 217.707 88.6613 217.122 88.0766C216.537 87.4919 215.831 87.1995 215.002 87.1995H209.279V95.9195H217.999V90.197Z" fill="white"/>
<path d="M34.8801 95.9221H26.1602V101.645C26.1602 102.473 26.4525 103.18 27.0373 103.765C27.6221 104.35 28.3288 104.642 29.1576 104.642H34.8801V95.9221Z" fill="white"/>
<path d="M43.5999 95.9236H34.8799V104.644H43.5999V95.9236Z" fill="white"/>
<path d="M49.3231 95.9221H43.6006V104.642H49.3231C50.1519 104.642 50.8587 104.35 51.4434 103.765C52.0281 103.18 52.3206 102.473 52.3206 101.645V98.9196C52.3206 98.0908 52.0281 97.3839 51.4434 96.7993C50.8587 96.2146 50.1519 95.9221 49.3231 95.9221Z" fill="white"/>
<path d="M69.76 101.645C69.76 102.474 69.4675 103.18 68.8829 103.765C68.2982 104.35 67.5915 104.642 66.7625 104.642H64.0375C63.2088 104.642 62.5019 104.35 61.9173 103.765C61.3325 103.18 61.04 102.474 61.04 101.645V98.9196C61.04 98.0909 61.3324 97.384 61.9172 96.7994C62.502 96.2146 63.2088 95.9221 64.0375 95.9221H66.7625C67.5916 95.9221 68.2984 96.2145 68.8829 96.7993C69.4675 97.3841 69.76 98.0909 69.76 98.9196V101.645Z" fill="white"/>
<path d="M113.36 101.645C113.36 102.474 113.067 103.18 112.482 103.765C111.898 104.35 111.191 104.642 110.362 104.642H107.637C106.808 104.642 106.102 104.35 105.517 103.765C104.932 103.18 104.64 102.474 104.64 101.645V98.9196C104.64 98.0909 104.932 97.384 105.517 96.7994C106.102 96.2146 106.808 95.9221 107.637 95.9221H110.362C111.191 95.9221 111.898 96.2145 112.482 96.7993C113.067 97.3841 113.36 98.0909 113.36 98.9196V101.645Z" fill="white"/>
<path d="M130.783 98.7152H130.8V95.9221H122.08V98.7152H122.097C122.086 98.8061 122.08 98.8742 122.08 98.9196V101.645C122.08 102.473 122.372 103.18 122.957 103.765C123.542 104.35 124.249 104.642 125.078 104.642H127.803C128.631 104.642 129.338 104.35 129.923 103.765C130.508 103.18 130.8 102.473 130.8 101.645V98.9196C130.8 98.8742 130.795 98.8061 130.783 98.7152Z" fill="white"/>
<path d="M156.959 101.645C156.959 102.474 156.667 103.18 156.082 103.765C155.497 104.35 154.791 104.642 153.962 104.642H151.237C150.408 104.642 149.701 104.35 149.116 103.765C148.532 103.18 148.239 102.474 148.239 101.645V98.9196C148.239 98.0909 148.532 97.384 149.116 96.7994C149.701 96.2146 150.408 95.9221 151.237 95.9221H153.962C154.791 95.9221 155.498 96.2145 156.082 96.7993C156.667 97.3841 156.959 98.0909 156.959 98.9196V101.645Z" fill="white"/>
<path d="M174.384 98.7152H174.401V95.9221H165.681V98.7152H165.698C165.686 98.8061 165.681 98.8742 165.681 98.9196V101.645C165.681 102.473 165.973 103.18 166.558 103.765C167.143 104.35 167.849 104.642 168.678 104.642H171.403C172.232 104.642 172.939 104.35 173.523 103.765C174.108 103.18 174.401 102.473 174.401 101.645V98.9196C174.401 98.8742 174.395 98.8061 174.384 98.7152Z" fill="white"/>
<path d="M191.822 98.7152H191.839V95.9221H183.119V98.7152H183.136C183.125 98.8061 183.119 98.8742 183.119 98.9196V101.645C183.119 102.473 183.412 103.18 183.996 103.765C184.581 104.35 185.288 104.642 186.117 104.642H188.842C189.67 104.642 190.377 104.35 190.962 103.765C191.547 103.18 191.839 102.473 191.839 101.645V98.9196C191.839 98.8742 191.834 98.8061 191.822 98.7152Z" fill="white"/>
<path d="M217.999 95.9236H209.279V104.644H217.999V95.9236Z" fill="white"/>
<path d="M17.4397 107.632V104.635H11.7172C10.8884 104.635 10.1815 104.927 9.59687 105.512C9.01219 106.097 8.71973 106.803 8.71973 107.632V113.355H17.4397V107.632Z" fill="white"/>
<path d="M43.5829 107.428H43.5999V104.635H34.8799V107.428H34.8969C34.8856 107.519 34.8799 107.587 34.8799 107.632V110.357C34.8799 111.186 35.1723 111.893 35.757 112.478C36.3418 113.062 37.0485 113.355 37.8774 113.355H40.6024C41.4312 113.355 42.138 113.062 42.7227 112.478C43.3074 111.893 43.5999 111.186 43.5999 110.357V107.632C43.5999 107.587 43.5944 107.519 43.5829 107.428Z" fill="white"/>
<path d="M61.0393 110.357C61.0393 111.186 60.7468 111.893 60.1622 112.478C59.5775 113.062 58.8708 113.355 58.0418 113.355H55.3168C54.4881 113.355 53.7812 113.062 53.1966 112.478C52.6118 111.893 52.3193 111.186 52.3193 110.357V107.632C52.3193 106.804 52.6117 106.097 53.1965 105.512C53.7813 104.927 54.4881 104.635 55.3168 104.635H58.0418C58.8709 104.635 59.5777 104.927 60.1622 105.512C60.7468 106.097 61.0393 106.804 61.0393 107.632V110.357Z" fill="white"/>
<path d="M23.1629 104.635H17.4404V113.355H23.1629C23.9917 113.355 24.6986 113.062 25.2833 112.478C25.8679 111.893 26.1604 111.186 26.1604 110.357V107.632C26.1604 106.803 25.8679 106.097 25.2833 105.512C24.6986 104.927 23.9917 104.635 23.1629 104.635Z" fill="white"/>
<path d="M78.4797 110.357C78.4797 111.186 78.1872 111.893 77.6026 112.478C77.0179 113.062 76.3113 113.355 75.4822 113.355H72.7573C71.9285 113.355 71.2217 113.062 70.637 112.478C70.0522 111.893 69.7598 111.186 69.7598 110.357V107.632C69.7598 106.804 70.0521 106.097 70.6369 105.512C71.2218 104.927 71.9285 104.635 72.7573 104.635H75.4822C76.3113 104.635 77.0181 104.927 77.6026 105.512C78.1873 106.097 78.4797 106.804 78.4797 107.632V110.357Z" fill="white"/>
<path d="M95.9202 110.357C95.9202 111.186 95.6276 111.893 95.043 112.478C94.4584 113.062 93.7517 113.355 92.9227 113.355H90.1977C89.3689 113.355 88.6621 113.062 88.0774 112.478C87.4927 111.893 87.2002 111.186 87.2002 110.357V107.632C87.2002 106.804 87.4926 106.097 88.0773 105.512C88.6622 104.927 89.3689 104.635 90.1977 104.635H92.9227C93.7518 104.635 94.4585 104.927 95.043 105.512C95.6277 106.097 95.9202 106.804 95.9202 107.632V110.357Z" fill="white"/>
<path d="M139.52 107.632V104.635H133.797C132.968 104.635 132.262 104.927 131.677 105.512C131.092 106.097 130.8 106.803 130.8 107.632V113.355H139.52V107.632Z" fill="white"/>
<path d="M148.24 107.632C148.24 106.803 147.947 106.097 147.362 105.512C146.778 104.927 146.071 104.635 145.242 104.635H139.52V113.355H148.24V107.632Z" fill="white"/>
<path d="M165.679 110.357C165.679 111.186 165.386 111.893 164.802 112.478C164.217 113.062 163.51 113.355 162.681 113.355H159.956C159.128 113.355 158.421 113.062 157.836 112.478C157.251 111.893 156.959 111.186 156.959 110.357V107.632C156.959 106.804 157.251 106.097 157.836 105.512C158.421 104.927 159.128 104.635 159.956 104.635H162.681C163.511 104.635 164.217 104.927 164.802 105.512C165.386 106.097 165.679 106.804 165.679 107.632V110.357Z" fill="white"/>
<path d="M217.982 107.428H217.999V104.635H209.279V107.428H209.296C209.285 107.519 209.279 107.587 209.279 107.632V110.357C209.279 111.186 209.572 111.893 210.156 112.478C210.741 113.062 211.448 113.355 212.277 113.355H215.002C215.831 113.355 216.537 113.062 217.122 112.478C217.707 111.893 217.999 111.186 217.999 110.357V107.632C217.999 107.587 217.994 107.519 217.982 107.428Z" fill="white"/>
<path d="M8.71997 116.357V113.359H2.99749C2.16866 113.359 1.46182 113.652 0.877142 114.237C0.292468 114.821 0 115.528 0 116.357V122.079H8.71997V116.357Z" fill="white"/>
<path d="M17.4407 113.359H8.7207V122.079H14.4432C15.272 122.079 15.9789 121.787 16.5635 121.202C17.1482 120.618 17.4407 119.911 17.4407 119.082V113.359Z" fill="white"/>
<path d="M69.76 116.357C69.76 115.528 69.4675 114.821 68.8829 114.237C68.2982 113.652 67.5914 113.359 66.7625 113.359H64.0375C63.2087 113.359 62.5019 113.652 61.9172 114.237C61.3325 114.821 61.04 115.528 61.04 116.357V119.082C61.04 119.127 61.0457 119.196 61.057 119.286H61.04V122.079H69.76V119.286H69.743C69.7545 119.196 69.76 119.127 69.76 119.082V116.357Z" fill="white"/>
<path d="M87.2004 116.357C87.2004 115.528 86.908 114.821 86.3233 114.237C85.7386 113.652 85.0318 113.359 84.203 113.359H81.478C80.6491 113.359 79.9423 113.652 79.3576 114.237C78.7729 114.821 78.4805 115.528 78.4805 116.357V119.082C78.4805 119.127 78.4861 119.196 78.4975 119.286H78.4805V122.079H87.2004V119.286H87.1834C87.1949 119.196 87.2004 119.127 87.2004 119.082V116.357Z" fill="white"/>
<path d="M113.36 119.082C113.36 119.911 113.067 120.618 112.482 121.202C111.898 121.787 111.191 122.079 110.362 122.079H107.637C106.808 122.079 106.102 121.787 105.517 121.202C104.932 120.618 104.64 119.911 104.64 119.082V116.357C104.64 115.528 104.932 114.821 105.517 114.237C106.102 113.652 106.808 113.359 107.637 113.359H110.362C111.191 113.359 111.898 113.652 112.482 114.237C113.067 114.821 113.36 115.528 113.36 116.357V119.082Z" fill="white"/>
<path d="M130.8 116.357V113.359H125.078C124.249 113.359 123.542 113.652 122.957 114.237C122.373 114.821 122.08 115.528 122.08 116.357V119.082C122.08 119.911 122.372 120.618 122.957 121.202C123.542 121.787 124.249 122.079 125.078 122.079H130.8V116.357Z" fill="white"/>
<path d="M139.52 113.359H130.8V122.079H139.52V113.359Z" fill="white"/>
<path d="M148.24 113.359H139.52V122.079H148.24V113.359Z" fill="white"/>
<path d="M174.4 116.357C174.4 115.528 174.107 114.821 173.523 114.237C172.938 113.652 172.231 113.359 171.402 113.359H168.677C167.848 113.359 167.142 113.652 166.557 114.237C165.972 114.821 165.68 115.528 165.68 116.357V119.082C165.68 119.127 165.685 119.196 165.697 119.286H165.68V122.079H174.4V119.286H174.383C174.394 119.196 174.4 119.127 174.4 119.082V116.357Z" fill="white"/>
<path d="M209.28 116.357C209.28 115.528 208.987 114.821 208.402 114.237C207.818 113.652 207.111 113.359 206.282 113.359H203.557C202.728 113.359 202.021 113.652 201.437 114.237C200.852 114.821 200.56 115.528 200.56 116.357V119.082C200.56 119.127 200.565 119.196 200.577 119.286H200.56V122.079H209.28V119.286H209.263C209.274 119.196 209.28 119.127 209.28 119.082V116.357Z" fill="white"/>
<path d="M8.71997 122.08H0V130.8H8.71997V122.08Z" fill="white"/>
<path d="M43.5989 127.803C43.5989 128.632 43.3063 129.338 42.7217 129.923C42.1371 130.508 41.4304 130.8 40.6014 130.8H37.8764C37.0477 130.8 36.3408 130.508 35.7561 129.923C35.1714 129.338 34.8789 128.632 34.8789 127.803V125.078C34.8789 124.249 35.1713 123.542 35.756 122.957C36.3409 122.373 37.0477 122.08 37.8764 122.08H40.6014C41.4305 122.08 42.1372 122.372 42.7217 122.957C43.3064 123.542 43.5989 124.249 43.5989 125.078V127.803Z" fill="white"/>
<path d="M61.0403 125.078V122.08H55.3178C54.489 122.08 53.7821 122.372 53.1975 122.957C52.6128 123.542 52.3203 124.249 52.3203 125.078V127.803C52.3203 128.631 52.6127 129.338 53.1975 129.923C53.7822 130.508 54.489 130.8 55.3178 130.8H61.0403V125.078Z" fill="white"/>
<path d="M69.76 122.08H61.04V130.8H69.76V122.08Z" fill="white"/>
<path d="M78.4797 122.08H69.7598V130.8H78.4797V122.08Z" fill="white"/>
<path d="M87.2004 122.08H78.4805V130.8H87.2004V122.08Z" fill="white"/>
<path d="M122.08 127.803C122.08 128.632 121.788 129.338 121.203 129.923C120.619 130.508 119.912 130.8 119.083 130.8H116.358C115.529 130.8 114.822 130.508 114.238 129.923C113.653 129.338 113.36 128.632 113.36 127.803V125.078C113.36 124.249 113.653 123.542 114.237 122.957C114.822 122.373 115.529 122.08 116.358 122.08H119.083C119.912 122.08 120.619 122.372 121.203 122.957C121.788 123.542 122.08 124.249 122.08 125.078V127.803Z" fill="white"/>
<path d="M139.52 122.08H130.8V127.803C130.8 128.631 131.092 129.338 131.677 129.923C132.262 130.508 132.968 130.8 133.797 130.8H139.52V122.08Z" fill="white"/>
<path d="M148.24 122.08H139.52V130.8H145.242C146.071 130.8 146.778 130.508 147.362 129.923C147.947 129.338 148.24 128.631 148.24 127.803V122.08Z" fill="white"/>
<path d="M174.4 122.08H165.68V130.8H174.4V122.08Z" fill="white"/>
<path d="M191.84 127.803C191.84 128.632 191.548 129.338 190.963 129.923C190.378 130.508 189.672 130.8 188.843 130.8H186.118C185.289 130.8 184.582 130.508 183.997 129.923C183.413 129.338 183.12 128.632 183.12 127.803V125.078C183.12 124.249 183.412 123.542 183.997 122.957C184.582 122.373 185.289 122.08 186.118 122.08H188.843C189.672 122.08 190.378 122.372 190.963 122.957C191.548 123.542 191.84 124.249 191.84 125.078V127.803Z" fill="white"/>
<path d="M209.28 122.08H200.56V127.803C200.56 128.631 200.852 129.338 201.437 129.923C202.021 130.508 202.728 130.8 203.557 130.8H209.28V122.08Z" fill="white"/>
<path d="M217.999 125.078C217.999 124.249 217.707 123.542 217.122 122.957C216.537 122.373 215.831 122.08 215.002 122.08H209.279V130.8H217.999V125.078Z" fill="white"/>
<path d="M8.71997 130.802H0V139.522H8.71997V130.802Z" fill="white"/>
<path d="M26.1604 133.8V130.802H20.4379C19.6091 130.802 18.9022 131.094 18.3176 131.679C17.7329 132.264 17.4404 132.971 17.4404 133.8V136.525C17.4404 137.353 17.7328 138.06 18.3176 138.645C18.9023 139.23 19.6091 139.522 20.4379 139.522H26.1604V133.8Z" fill="white"/>
<path d="M34.8801 133.8C34.8801 132.971 34.5877 132.264 34.003 131.679C33.4183 131.094 32.7115 130.802 31.8826 130.802H26.1602V139.522H34.8801V133.8Z" fill="white"/>
<path d="M69.76 130.802H61.04V136.525C61.04 137.353 61.3324 138.06 61.9172 138.645C62.5019 139.23 63.2087 139.522 64.0375 139.522H69.76V130.802Z" fill="white"/>
<path d="M78.4797 130.802H69.7598V139.522H78.4797V130.802Z" fill="white"/>
<path d="M87.2004 130.802H78.4805V139.522H84.203C85.0318 139.522 85.7386 139.23 86.3233 138.645C86.908 138.06 87.2004 137.353 87.2004 136.525V130.802Z" fill="white"/>
<path d="M113.36 133.8C113.36 132.971 113.067 132.264 112.482 131.679C111.898 131.094 111.191 130.802 110.362 130.802H107.637C106.808 130.802 106.101 131.094 105.517 131.679C104.932 132.264 104.64 132.971 104.64 133.8V136.525C104.64 136.57 104.645 136.638 104.657 136.729H104.64V139.522H113.36V136.729H113.343C113.354 136.638 113.36 136.57 113.36 136.525V133.8Z" fill="white"/>
<path d="M130.8 136.525C130.8 137.354 130.507 138.06 129.923 138.645C129.338 139.229 128.632 139.522 127.803 139.522H125.078C124.249 139.522 123.542 139.229 122.957 138.645C122.373 138.06 122.08 137.354 122.08 136.525V133.8C122.08 132.971 122.372 132.264 122.957 131.679C123.542 131.094 124.249 130.802 125.078 130.802H127.803C128.632 130.802 129.338 131.094 129.923 131.679C130.508 132.264 130.8 132.971 130.8 133.8V136.525Z" fill="white"/>
<path d="M165.679 133.8V130.802H159.956C159.128 130.802 158.421 131.094 157.836 131.679C157.251 132.264 156.959 132.971 156.959 133.8V139.522H165.679V133.8Z" fill="white"/>
<path d="M174.4 130.802H165.68V139.522H174.4V130.802Z" fill="white"/>
<path d="M200.559 133.8C200.559 132.971 200.266 132.264 199.682 131.679C199.097 131.094 198.39 130.802 197.561 130.802H194.836C194.008 130.802 193.301 131.094 192.716 131.679C192.131 132.264 191.839 132.971 191.839 133.8V136.525C191.839 136.57 191.845 136.638 191.856 136.729H191.839V139.522H200.559V136.729H200.542C200.553 136.638 200.559 136.57 200.559 136.525V133.8Z" fill="white"/>
<path d="M217.982 133.595H217.999V130.802H209.279V133.595H209.296C209.285 133.686 209.279 133.754 209.279 133.8V136.525C209.279 137.353 209.572 138.06 210.156 138.645C210.741 139.23 211.448 139.522 212.277 139.522H215.002C215.831 139.522 216.537 139.23 217.122 138.645C217.707 138.06 217.999 137.353 217.999 136.525V133.8C217.999 133.754 217.994 133.686 217.982 133.595Z" fill="white"/>
<path d="M8.70297 142.309H8.71997V139.516H0V142.309H0.0170039C0.00566798 142.4 0 142.468 0 142.513V145.238C0 146.067 0.292381 146.774 0.877142 147.359C1.4619 147.943 2.16866 148.236 2.99749 148.236H5.72248C6.55132 148.236 7.25816 147.943 7.84283 147.359C8.42751 146.774 8.71997 146.067 8.71997 145.238V142.513C8.71997 142.468 8.71448 142.4 8.70297 142.309Z" fill="white"/>
<path d="M34.8811 139.516H26.1611V145.238C26.1611 146.067 26.4535 146.774 27.0383 147.359C27.623 147.943 28.3298 148.236 29.1586 148.236H34.8811V139.516Z" fill="white"/>
<path d="M43.5999 139.523H34.8799V148.243H43.5999V139.523Z" fill="white"/>
<path d="M52.3196 139.523H43.5996V148.243H52.3196V139.523Z" fill="white"/>
<path d="M58.0428 139.516H52.3203V148.236H58.0428C58.8716 148.236 59.5785 147.943 60.1631 147.359C60.7478 146.774 61.0403 146.067 61.0403 145.238V142.513C61.0403 141.685 60.7478 140.978 60.1631 140.393C59.5785 139.808 58.8716 139.516 58.0428 139.516Z" fill="white"/>
<path d="M113.36 139.516H104.64V145.238C104.64 146.067 104.932 146.774 105.517 147.359C106.102 147.943 106.808 148.236 107.637 148.236H113.36V139.516Z" fill="white"/>
<path d="M122.079 142.513C122.079 141.685 121.787 140.978 121.202 140.393C120.618 139.808 119.911 139.516 119.082 139.516H113.359V148.236H122.079V142.513Z" fill="white"/>
<path d="M148.24 142.513V139.516H142.517C141.688 139.516 140.981 139.808 140.397 140.393C139.812 140.978 139.52 141.685 139.52 142.513V148.236H148.24V142.513Z" fill="white"/>
<path d="M156.959 139.523H148.239V148.243H156.959V139.523Z" fill="white"/>
<path d="M165.68 139.523H156.96V148.243H165.68V139.523Z" fill="white"/>
<path d="M174.4 139.523H165.68V148.243H174.4V139.523Z" fill="white"/>
<path d="M183.12 142.513C183.12 141.685 182.828 140.978 182.243 140.393C181.659 139.808 180.952 139.516 180.123 139.516H174.4V148.236H183.12V142.513Z" fill="white"/>
<path d="M200.56 139.523H191.84V148.243H200.56V139.523Z" fill="white"/>
<path d="M78.4797 151.239V148.241H72.7573C71.9284 148.241 71.2216 148.534 70.6369 149.119C70.0522 149.703 69.7598 150.41 69.7598 151.239V153.964C69.7598 154.793 70.0521 155.5 70.6369 156.084C71.2217 156.669 71.9284 156.961 72.7573 156.961H78.4797V151.239Z" fill="white"/>
<path d="M84.203 148.241H78.4805V156.961H84.203C85.0318 156.961 85.7386 156.669 86.3233 156.084C86.908 155.5 87.2004 154.793 87.2004 153.964V151.239C87.2004 150.41 86.908 149.703 86.3233 149.119C85.7386 148.534 85.0318 148.241 84.203 148.241Z" fill="white"/>
<path d="M122.063 151.035H122.08V148.241H113.36V151.035H113.377C113.366 151.125 113.36 151.194 113.36 151.239V153.964C113.36 154.793 113.653 155.5 114.237 156.084C114.822 156.669 115.529 156.961 116.358 156.961H119.083C119.912 156.961 120.619 156.669 121.203 156.084C121.788 155.5 122.08 154.793 122.08 153.964V151.239C122.08 151.194 122.075 151.125 122.063 151.035Z" fill="white"/>
<path d="M148.24 148.241H139.52V156.961H148.24V148.241Z" fill="white"/>
<path d="M183.12 148.241H174.4V156.961H183.12V148.241Z" fill="white"/>
<path d="M200.543 151.035H200.56V148.241H191.84V151.035H191.857C191.846 151.125 191.84 151.194 191.84 151.239V153.964C191.84 154.793 192.132 155.5 192.717 156.084C193.302 156.669 194.009 156.961 194.837 156.961H197.562C198.391 156.961 199.098 156.669 199.683 156.084C200.267 155.5 200.56 154.793 200.56 153.964V151.239C200.56 151.194 200.554 151.125 200.543 151.035Z" fill="white"/>
<path d="M113.36 162.681C113.36 163.51 113.067 164.217 112.482 164.801C111.898 165.386 111.191 165.679 110.362 165.679H107.637C106.808 165.679 106.102 165.386 105.517 164.801C104.932 164.217 104.64 163.51 104.64 162.681V159.956C104.64 159.127 104.932 158.42 105.517 157.836C106.102 157.251 106.808 156.958 107.637 156.958H110.362C111.191 156.958 111.898 157.251 112.482 157.836C113.067 158.42 113.36 159.127 113.36 159.956V162.681Z" fill="white"/>
<path d="M148.24 156.958H139.52V165.679H148.24V156.958Z" fill="white"/>
<path d="M165.679 162.681C165.679 163.51 165.386 164.217 164.802 164.801C164.217 165.386 163.51 165.679 162.681 165.679H159.956C159.128 165.679 158.421 165.386 157.836 164.801C157.251 164.217 156.959 163.51 156.959 162.681V159.956C156.959 159.127 157.251 158.42 157.836 157.836C158.421 157.251 159.128 156.958 159.956 156.958H162.681C163.511 156.958 164.217 157.251 164.802 157.836C165.386 158.42 165.679 159.127 165.679 159.956V162.681Z" fill="white"/>
<path d="M183.12 156.958H174.4V165.679H183.12V156.958Z" fill="white"/>
<path d="M188.842 156.958H183.119V165.679H188.842C189.67 165.679 190.377 165.386 190.962 164.801C191.547 164.217 191.839 163.51 191.839 162.681V159.956C191.839 159.127 191.547 158.42 190.962 157.836C190.377 157.251 189.67 156.958 188.842 156.958Z" fill="white"/>
<path d="M217.999 159.956C217.999 159.127 217.707 158.42 217.122 157.836C216.537 157.251 215.831 156.958 215.002 156.958H212.277C211.448 156.958 210.741 157.251 210.156 157.836C209.572 158.42 209.279 159.127 209.279 159.956V162.681C209.279 162.726 209.285 162.795 209.296 162.885H209.279V165.679H217.999V162.885H217.982C217.994 162.795 217.999 162.727 217.999 162.681V159.956Z" fill="white"/>
<path d="M87.1995 168.679C87.1995 167.85 86.907 167.143 86.3223 166.558C85.7376 165.974 85.0308 165.681 84.202 165.681H81.477C80.6481 165.681 79.9413 165.974 79.3566 166.558C78.772 167.143 78.4795 167.85 78.4795 168.679V171.404C78.4795 171.449 78.4852 171.517 78.4965 171.608H78.4795V174.401H87.1995V171.608H87.1825C87.194 171.517 87.1995 171.449 87.1995 171.404V168.679Z" fill="white"/>
<path d="M104.639 168.679C104.639 167.85 104.346 167.143 103.762 166.558C103.177 165.974 102.47 165.681 101.641 165.681H98.9164C98.0876 165.681 97.3808 165.974 96.7961 166.558C96.2114 167.143 95.9189 167.85 95.9189 168.679V171.404C95.9189 171.449 95.9246 171.517 95.9359 171.608H95.9189V174.401H104.639V171.608H104.622C104.633 171.517 104.639 171.449 104.639 171.404V168.679Z" fill="white"/>
<path d="M139.52 168.679V165.681H133.797C132.968 165.681 132.262 165.974 131.677 166.558C131.092 167.143 130.8 167.85 130.8 168.679V174.401H139.52V168.679Z" fill="white"/>
<path d="M148.24 165.681H139.52V174.401H148.24V165.681Z" fill="white"/>
<path d="M183.119 165.681H174.399V174.401H183.119V165.681Z" fill="white"/>
<path d="M217.982 168.474H217.999V165.681H209.279V168.474H209.296C209.285 168.565 209.279 168.633 209.279 168.679V171.404C209.279 172.233 209.572 172.939 210.156 173.524C210.741 174.109 211.448 174.401 212.277 174.401H215.002C215.831 174.401 216.537 174.109 217.122 173.524C217.707 172.939 217.999 172.233 217.999 171.404V168.679C217.999 168.633 217.994 168.565 217.982 168.474Z" fill="white"/>
<path d="M87.2004 174.403H78.4805V183.123H87.2004V174.403Z" fill="white"/>
<path d="M95.9202 174.403H87.2002V183.123H95.9202V174.403Z" fill="white"/>
<path d="M104.64 174.403H95.9199V183.123H104.64V174.403Z" fill="white"/>
<path d="M113.36 174.403H104.64V183.123H113.36V174.403Z" fill="white"/>
<path d="M122.08 174.403H113.36V183.123H122.08V174.403Z" fill="white"/>
<path d="M130.8 174.403H122.08V183.123H130.8V174.403Z" fill="white"/>
<path d="M139.52 174.403H130.8V183.123H139.52V174.403Z" fill="white"/>
<path d="M148.24 174.403H139.52V183.123H148.24V174.403Z" fill="white"/>
<path d="M156.959 174.403H148.239V183.123H156.959V174.403Z" fill="white"/>
<path d="M165.68 174.403H156.96V183.123H165.68V174.403Z" fill="white"/>
<path d="M174.4 174.403H165.68V183.123H174.4V174.403Z" fill="white"/>
<path d="M183.12 174.403H174.4V183.123H183.12V174.403Z" fill="white"/>
<path d="M191.839 174.403H183.119V183.123H191.839V174.403Z" fill="white"/>
<path d="M197.562 174.402H191.84V183.122H197.562C198.391 183.122 199.098 182.829 199.683 182.245C200.267 181.66 200.56 180.953 200.56 180.124V177.399C200.56 176.571 200.267 175.864 199.683 175.279C199.098 174.694 198.391 174.402 197.562 174.402Z" fill="white"/>
<path d="M87.1825 185.912H87.1995V183.119H78.4795V185.912H78.4965C78.4852 186.003 78.4795 186.071 78.4795 186.116V188.841C78.4795 189.67 78.7719 190.377 79.3566 190.962C79.9414 191.546 80.6481 191.839 81.477 191.839H84.202C85.0308 191.839 85.7376 191.546 86.3223 190.962C86.907 190.377 87.1995 189.67 87.1995 188.841V186.116C87.1995 186.071 87.194 186.003 87.1825 185.912Z" fill="white"/>
<path d="M113.36 183.124H104.64V191.844H113.36V183.124Z" fill="white"/>
<path d="M139.52 183.119H130.8V188.841C130.8 189.67 131.092 190.377 131.677 190.962C132.262 191.546 132.968 191.839 133.797 191.839H139.52V183.119Z" fill="white"/>
<path d="M148.239 183.124H139.519V191.844H148.239V183.124Z" fill="white"/>
<path d="M156.959 183.124H148.239V191.844H156.959V183.124Z" fill="white"/>
<path d="M165.679 183.119H156.959V191.839H162.681C163.51 191.839 164.217 191.546 164.802 190.962C165.386 190.377 165.679 189.67 165.679 188.841V183.119Z" fill="white"/>
<path d="M191.822 185.912H191.839V183.119H183.119V185.912H183.136C183.125 186.003 183.119 186.071 183.119 186.116V188.841C183.119 189.67 183.412 190.377 183.996 190.962C184.581 191.546 185.288 191.839 186.117 191.839H188.842C189.67 191.839 190.377 191.546 190.962 190.962C191.547 190.377 191.839 189.67 191.839 188.841V186.116C191.839 186.071 191.834 186.003 191.822 185.912Z" fill="white"/>
<path d="M209.28 186.116V183.119H203.557C202.728 183.119 202.021 183.411 201.437 183.996C200.852 184.581 200.56 185.288 200.56 186.116V188.841C200.56 189.67 200.852 190.377 201.437 190.962C202.021 191.546 202.728 191.839 203.557 191.839H209.28V186.116Z" fill="white"/>
<path d="M218 186.116C218 185.288 217.708 184.581 217.123 183.996C216.538 183.411 215.832 183.119 215.003 183.119H209.28V191.839H218V186.116Z" fill="white"/>
<path d="M95.9202 194.834C95.9202 194.005 95.6277 193.298 95.043 192.713C94.4584 192.129 93.7515 191.836 92.9227 191.836H90.1977C89.3689 191.836 88.662 192.129 88.0773 192.713C87.4927 193.298 87.2002 194.005 87.2002 194.834V197.559C87.2002 197.604 87.2059 197.672 87.2172 197.763H87.2002V200.556H95.9202V197.763H95.9032C95.9147 197.672 95.9202 197.604 95.9202 197.559V194.834Z" fill="white"/>
<path d="M113.36 191.837H104.64V200.557H113.36V191.837Z" fill="white"/>
<path d="M130.799 194.834C130.799 194.005 130.507 193.298 129.922 192.713C129.337 192.129 128.63 191.836 127.802 191.836H125.077C124.248 191.836 123.541 192.129 122.956 192.713C122.372 193.298 122.079 194.005 122.079 194.834V197.559C122.079 197.604 122.085 197.672 122.096 197.763H122.079V200.556H130.799V197.763H130.782C130.794 197.672 130.799 197.604 130.799 197.559V194.834Z" fill="white"/>
<path d="M148.239 191.837H139.519V200.557H148.239V191.837Z" fill="white"/>
<path d="M174.401 194.834C174.401 194.005 174.108 193.298 173.523 192.713C172.939 192.129 172.232 191.836 171.403 191.836H168.678C167.849 191.836 167.142 192.129 166.558 192.713C165.973 193.298 165.681 194.005 165.681 194.834V197.559C165.681 197.604 165.686 197.672 165.698 197.763H165.681V200.556H174.401V197.763H174.384C174.395 197.672 174.401 197.604 174.401 197.559V194.834Z" fill="white"/>
<path d="M200.56 197.559C200.56 198.388 200.267 199.094 199.683 199.679C199.098 200.264 198.391 200.556 197.562 200.556H194.837C194.009 200.556 193.302 200.264 192.717 199.679C192.132 199.094 191.84 198.388 191.84 197.559V194.834C191.84 194.005 192.132 193.298 192.717 192.713C193.302 192.129 194.009 191.836 194.837 191.836H197.562C198.391 191.836 199.098 192.129 199.683 192.713C200.267 193.298 200.56 194.005 200.56 194.834V197.559Z" fill="white"/>
<path d="M217.999 191.837H209.279V200.557H217.999V191.837Z" fill="white"/>
<path d="M95.9202 200.558H87.2002V209.278H95.9202V200.558Z" fill="white"/>
<path d="M104.64 200.558H95.9199V209.278H104.64V200.558Z" fill="white"/>
<path d="M113.36 200.556H104.64V209.276H110.362C111.191 209.276 111.898 208.984 112.482 208.399C113.067 207.815 113.36 207.108 113.36 206.279V200.556Z" fill="white"/>
<path d="M130.783 203.35H130.8V200.556H122.08V203.35H122.097C122.086 203.44 122.08 203.508 122.08 203.554V206.279C122.08 207.108 122.372 207.815 122.957 208.399C123.542 208.984 124.249 209.276 125.078 209.276H127.803C128.631 209.276 129.338 208.984 129.923 208.399C130.508 207.815 130.8 207.108 130.8 206.279V203.554C130.8 203.508 130.795 203.44 130.783 203.35Z" fill="white"/>
<path d="M148.24 200.558H139.52V209.278H148.24V200.558Z" fill="white"/>
<path d="M165.68 203.554V200.556H159.957C159.129 200.556 158.422 200.849 157.837 201.434C157.252 202.018 156.96 202.725 156.96 203.554V209.276H165.68V203.554Z" fill="white"/>
<path d="M174.4 200.558H165.68V209.278H174.4V200.558Z" fill="white"/>
<path d="M180.122 200.556H174.399V209.276H180.122C180.951 209.276 181.658 208.984 182.242 208.399C182.827 207.815 183.119 207.108 183.119 206.279V203.554C183.119 202.725 182.827 202.018 182.242 201.434C181.658 200.849 180.951 200.556 180.122 200.556Z" fill="white"/>
<path d="M217.999 200.558H209.279V209.278H217.999V200.558Z" fill="white"/>
<path d="M78.4797 215.001C78.4797 215.83 78.1872 216.537 77.6026 217.121C77.0179 217.706 76.3113 217.998 75.4822 217.998H72.7573C71.9285 217.998 71.2217 217.706 70.637 217.121C70.0522 216.537 69.7598 215.83 69.7598 215.001V212.276C69.7598 211.447 70.0521 210.74 70.6369 210.156C71.2218 209.571 71.9285 209.278 72.7573 209.278H75.4822C76.3113 209.278 77.0181 209.571 77.6026 210.155C78.1873 210.74 78.4797 211.447 78.4797 212.276V215.001Z" fill="white"/>
<path d="M95.9032 212.071H95.9202V209.278H87.2002V212.071H87.2172C87.2059 212.162 87.2002 212.23 87.2002 212.276V215.001C87.2002 215.83 87.4926 216.537 88.0773 217.121C88.6621 217.706 89.3689 217.998 90.1977 217.998H92.9227C93.7515 217.998 94.4584 217.706 95.043 217.121C95.6277 216.537 95.9202 215.83 95.9202 215.001V212.276C95.9202 212.23 95.9147 212.162 95.9032 212.071Z" fill="white"/>
<path d="M148.223 212.071H148.24V209.278H139.52V212.071H139.537C139.525 212.162 139.52 212.23 139.52 212.276V215.001C139.52 215.83 139.812 216.537 140.397 217.121C140.981 217.706 141.688 217.998 142.517 217.998H145.242C146.071 217.998 146.778 217.706 147.362 217.121C147.947 216.537 148.24 215.83 148.24 215.001V212.276C148.24 212.23 148.234 212.162 148.223 212.071Z" fill="white"/>
<path d="M165.663 212.071H165.68V209.278H156.96V212.071H156.977C156.966 212.162 156.96 212.23 156.96 212.276V215.001C156.96 215.83 157.252 216.537 157.837 217.121C158.422 217.706 159.129 217.998 159.957 217.998H162.682C163.511 217.998 164.218 217.706 164.803 217.121C165.387 216.537 165.68 215.83 165.68 215.001V212.276C165.68 212.23 165.674 212.162 165.663 212.071Z" fill="white"/>
<path d="M191.839 215.001C191.839 215.83 191.547 216.537 190.962 217.121C190.377 217.706 189.671 217.998 188.842 217.998H186.117C185.288 217.998 184.581 217.706 183.996 217.121C183.412 216.537 183.119 215.83 183.119 215.001V212.276C183.119 211.447 183.412 210.74 183.996 210.156C184.581 209.571 185.288 209.278 186.117 209.278H188.842C189.671 209.278 190.377 209.571 190.962 210.155C191.547 210.74 191.839 211.447 191.839 212.276V215.001Z" fill="white"/>
<path d="M217.982 212.071H217.999V209.278H209.279V212.071H209.296C209.285 212.162 209.279 212.23 209.279 212.276V215.001C209.279 215.83 209.572 216.537 210.156 217.121C210.741 217.706 211.448 217.998 212.277 217.998H215.002C215.831 217.998 216.537 217.706 217.122 217.121C217.707 216.537 217.999 215.83 217.999 215.001V212.276C217.999 212.23 217.994 212.162 217.982 212.071Z" fill="white"/>
<path d="M40.2002 0.0107422H20.8396C11.4041 0.0107422 3.41029 6.24478 0.854557 14.7654C0.590255 15.6468 0.38394 16.5527 0.240497 17.4786C0.0824037 18.5004 0 19.5467 0 20.6118V40.4322C0 51.7973 9.3513 61.0394 20.8396 61.0394L30.5199 61.0412L40.2002 61.0388C51.6879 61.0388 61.0398 51.7967 61.0398 40.4316V20.6118C61.0398 9.25224 51.6885 0.0107422 40.2002 0.0107422ZM51.8838 40.4322C51.8838 46.7462 46.643 51.8834 40.1978 51.8834L30.5199 51.8852L20.842 51.8827C14.3969 51.8827 9.15597 46.7456 9.15597 40.4322V20.6118C9.15597 18.6396 9.66749 16.7828 10.5678 15.1603C11.4346 13.5995 12.6609 12.2572 14.1374 11.2409C16.0358 9.93406 18.3473 9.16678 20.839 9.16678H40.2002C46.643 9.16678 51.8838 14.3009 51.8838 20.6118V40.4322Z" fill="white"/>
<path d="M197.159 0.0107422H177.799C168.363 0.0107422 160.369 6.24478 157.814 14.7654C157.549 15.6468 157.343 16.5527 157.199 17.4786C157.041 18.5004 156.959 19.5467 156.959 20.6118V40.4322C156.959 51.7973 166.31 61.0394 177.799 61.0394L187.479 61.0412L197.159 61.0388C208.647 61.0388 217.999 51.7967 217.999 40.4316V20.6118C217.999 9.25224 208.648 0.0107422 197.159 0.0107422ZM208.843 40.4322C208.843 46.7462 203.602 51.8834 197.157 51.8834L187.479 51.8852L177.801 51.8827C171.356 51.8827 166.115 46.7456 166.115 40.4322V20.6118C166.115 18.6396 166.626 16.7828 167.527 15.1603C168.394 13.5995 169.62 12.2572 171.096 11.2409C172.995 9.93406 175.306 9.16678 177.798 9.16678H197.159C203.602 9.16678 208.843 14.3009 208.843 20.6118V40.4322Z" fill="white"/>
<path d="M40.2002 156.967H20.8396C11.4041 156.967 3.41029 163.201 0.854557 171.722C0.590255 172.603 0.38394 173.509 0.240497 174.435C0.0824037 175.457 0 176.503 0 177.568V197.389C0 208.754 9.3513 217.996 20.8396 217.996L30.5199 217.998L40.2002 217.995C51.6879 217.995 61.0398 208.753 61.0398 197.388V177.568C61.0398 166.209 51.6885 156.967 40.2002 156.967ZM51.8838 197.389C51.8838 203.703 46.643 208.84 40.1978 208.84L30.5199 208.841L20.842 208.839C14.3969 208.839 9.15597 203.702 9.15597 197.389V177.568C9.15597 175.596 9.66749 173.739 10.5678 172.117C11.4346 170.556 12.6609 169.214 14.1374 168.197C16.0358 166.89 18.3473 166.123 20.839 166.123H40.2002C46.643 166.123 51.8838 171.257 51.8838 177.568V197.389Z" fill="white"/>
<path d="M24.5942 43.5896C20.6467 43.5896 17.4355 40.442 17.4355 36.5766V24.4388C17.4355 23.2312 17.7495 22.0948 18.2991 21.1005C18.8299 20.1436 19.5812 19.3211 20.4861 18.7006C21.6483 17.9006 23.0652 17.4294 24.5903 17.4294H36.4478C40.3917 17.4294 43.6028 20.5734 43.6028 24.4385V36.5763C43.6028 40.4414 40.3919 43.5893 36.4478 43.5893H30.5192L24.5942 43.5896Z" fill="white"/>
<path d="M181.554 43.5896C177.607 43.5896 174.396 40.442 174.396 36.5766V24.4388C174.396 23.2312 174.709 22.0948 175.259 21.1005C175.79 20.1436 176.541 19.3211 177.446 18.7006C178.608 17.9006 180.025 17.4294 181.55 17.4294H193.408C197.352 17.4294 200.563 20.5734 200.563 24.4385V36.5763C200.563 40.4414 197.352 43.5893 193.408 43.5893H187.479L181.554 43.5896Z" fill="white"/>
<path d="M24.5942 200.562C20.6467 200.562 17.4355 197.414 17.4355 193.549V181.411C17.4355 180.204 17.7495 179.067 18.2991 178.073C18.8299 177.116 19.5812 176.293 20.4861 175.673C21.6483 174.873 23.0652 174.402 24.5903 174.402H36.4478C40.3917 174.402 43.6028 177.546 43.6028 181.411V193.549C43.6028 197.414 40.3919 200.562 36.4478 200.562H30.5192L24.5942 200.562Z" fill="white"/>
</svg>
