<svg width="20" height="20" viewBox="0 0 20 20" fill="none" xmlns="http://www.w3.org/2000/svg">
<path d="M14.1487 14.1487C14.8639 13.4335 15.4313 12.5844 15.8184 11.6499C16.2055 10.7154 16.4047 9.71383 16.4047 8.70234C16.4047 7.69085 16.2055 6.68927 15.8184 5.75478C15.4313 4.82029 14.8639 3.97119 14.1487 3.25596C13.4335 2.54073 12.5844 1.97338 11.6499 1.58631C10.7154 1.19923 9.71382 1 8.70234 1C7.69085 1 6.68927 1.19923 5.75478 1.58631C4.82029 1.97338 3.97119 2.54073 3.25596 3.25596C1.81149 4.70043 1 6.65955 1 8.70234C1 10.7451 1.81149 12.7042 3.25596 14.1487C4.70043 15.5932 6.65955 16.4047 8.70234 16.4047C10.7451 16.4047 12.7042 15.5932 14.1487 14.1487ZM14.1487 14.1487L19 19" stroke="white" stroke-width="1.5" stroke-linecap="round" stroke-linejoin="round"/>
</svg>
