<svg width="20" height="20" viewBox="0 0 20 20" fill="none" xmlns="http://www.w3.org/2000/svg">
<path fill-rule="evenodd" clip-rule="evenodd" d="M5.36401 0.661428C6.41823 0.224753 7.54815 0 8.68923 0C9.83032 0 10.9602 0.224754 12.0145 0.661428C13.0687 1.0981 14.0266 1.73815 14.8334 2.54502C15.6403 3.35189 16.2804 4.30978 16.717 5.36401C17.1537 6.41823 17.3785 7.54814 17.3785 8.68923C17.3785 9.83032 17.1537 10.9602 16.717 12.0145C16.3968 12.7876 15.9671 13.5089 15.4426 14.1569L19.7337 18.4481C20.0888 18.8031 20.0888 19.3787 19.7337 19.7337C19.3787 20.0888 18.8031 20.0888 18.4481 19.7337L14.1569 15.4426C12.6171 16.6893 10.6887 17.3785 8.68923 17.3785C6.3847 17.3785 4.17456 16.463 2.54502 14.8334C0.91547 13.2039 0 10.9938 0 8.68923C0 6.3847 0.91547 4.17456 2.54502 2.54502C3.35189 1.73815 4.30978 1.0981 5.36401 0.661428ZM8.68923 1.81818C7.78691 1.81818 6.89343 1.99591 6.05979 2.34121C5.22616 2.68651 4.4687 3.19263 3.83067 3.83067C2.54209 5.11924 1.81818 6.86692 1.81818 8.68923C1.81818 10.5115 2.54209 12.2592 3.83067 13.5478C5.11924 14.8364 6.86692 15.5603 8.68923 15.5603C10.5115 15.5603 12.2592 14.8364 13.5478 13.5478C14.1858 12.9098 14.6919 12.1523 15.0373 11.3187C15.3826 10.485 15.5603 9.59155 15.5603 8.68923C15.5603 7.78691 15.3826 6.89343 15.0373 6.05979C14.6919 5.22616 14.1858 4.4687 13.5478 3.83067C12.9098 3.19263 12.1523 2.68651 11.3187 2.34121C10.485 1.99591 9.59155 1.81818 8.68923 1.81818Z" fill="#969B9F"/>
</svg>
