<svg width="22" height="22" viewBox="0 0 22 22" fill="none" xmlns="http://www.w3.org/2000/svg">
<path fill-rule="evenodd" clip-rule="evenodd" d="M5.99608 0.958541C7.1254 0.490762 8.33579 0.25 9.55815 0.25C10.7805 0.25 11.9909 0.490762 13.1202 0.958541C14.2495 1.42632 15.2757 2.11195 16.14 2.9763C17.0044 3.84064 17.69 4.86676 18.1578 5.99608C18.6255 7.12539 18.8663 8.33579 18.8663 9.55816C18.8663 10.7805 18.6255 11.9909 18.1578 13.1202C17.7859 14.0179 17.2764 14.8504 16.6489 15.5883L21.5303 20.4697C21.8232 20.7626 21.8232 21.2374 21.5303 21.5303C21.2374 21.8232 20.7626 21.8232 20.4697 21.5303L15.5883 16.649C13.9115 18.0751 11.7756 18.8663 9.55815 18.8663C7.08948 18.8663 4.72191 17.8856 2.97629 16.14C1.23068 14.3944 0.25 12.0268 0.25 9.55816C0.25 7.08948 1.23068 4.72191 2.97629 2.9763C3.84064 2.11195 4.86676 1.42632 5.99608 0.958541ZM9.55815 1.75C8.53277 1.75 7.51743 1.95196 6.5701 2.34436C5.62277 2.73676 4.76201 3.3119 4.03696 4.03696C2.57264 5.50127 1.75 7.4873 1.75 9.55816C1.75 11.629 2.57264 13.615 4.03696 15.0794C5.50127 16.5437 7.4873 17.3663 9.55815 17.3663C11.629 17.3663 13.615 16.5437 15.0794 15.0794C15.8044 14.3543 16.3796 13.4935 16.7719 12.5462C17.1643 11.5989 17.3663 10.5835 17.3663 9.55816C17.3663 8.53277 17.1643 7.51743 16.7719 6.5701C16.3796 5.62277 15.8044 4.76201 15.0794 4.03696C14.3543 3.3119 13.4935 2.73676 12.5462 2.34436C11.5989 1.95196 10.5835 1.75 9.55815 1.75Z" fill="white"/>
</svg>
