<svg width="17" height="20" viewBox="0 0 17 20" fill="none" xmlns="http://www.w3.org/2000/svg">
<path d="M16.4648 5.18479C16.4547 4.65508 16.4451 4.15468 16.4451 3.67057C16.4451 3.2913 16.1377 2.98383 15.7584 2.98383C12.8214 2.98383 10.5852 2.13977 8.72136 0.32751C8.45471 0.0681898 8.03039 0.0682878 7.76382 0.32751C5.90013 2.13977 3.66437 2.98383 0.727588 2.98383C0.348329 2.98383 0.0408504 3.2913 0.0408504 3.67057C0.0408504 4.15476 0.0313259 4.65536 0.0211682 5.18515C-0.0729623 10.1147 -0.201891 16.8659 8.01763 19.715C8.09058 19.7402 8.16656 19.7529 8.24255 19.7529C8.31853 19.7529 8.39469 19.7402 8.46746 19.715C16.6876 16.8658 16.5589 10.1144 16.4648 5.18479ZM8.24264 18.3373C1.19329 15.7765 1.29988 10.1667 1.39447 5.21134C1.40014 4.91394 1.40563 4.62568 1.40948 4.34311C4.16011 4.22701 6.35967 3.39349 8.24264 1.75318C10.1258 3.39349 12.3258 4.2271 15.0766 4.34311C15.0804 4.6256 15.0859 4.91366 15.0916 5.21088C15.1861 10.1665 15.2926 15.7764 8.24264 18.3373Z" fill="#7D7D7D"/>
<path d="M10.6083 7.55749L7.29374 10.8719L5.87932 9.45751C5.61113 9.18935 5.17628 9.18935 4.90818 9.45751C4.63998 9.72577 4.63998 10.1605 4.90818 10.4287L6.80815 12.3287C6.94219 12.4627 7.11805 12.5298 7.29374 12.5298C7.46943 12.5298 7.64529 12.4627 7.77933 12.3287L11.5793 8.52869C11.8477 8.26053 11.8477 7.82568 11.5794 7.55757C11.3113 7.28938 10.8765 7.28929 10.6083 7.55749Z" fill="#7D7D7D"/>
</svg>
