<svg width="13" height="13" viewBox="0 0 13 13" fill="none" xmlns="http://www.w3.org/2000/svg">
<path fill-rule="evenodd" clip-rule="evenodd" d="M1.53097 0.414513C1.67314 0.27256 1.84385 0.162442 2.03179 0.0914552C2.21973 0.0204685 2.42062 -0.00976543 2.62113 0.00275699C2.82164 0.0152794 3.01721 0.0702722 3.19486 0.164091C3.37251 0.25791 3.52819 0.388413 3.65159 0.546951L5.11003 2.42058C5.37734 2.76426 5.47159 3.21195 5.36597 3.63445L4.92153 5.41383C4.89855 5.50599 4.89979 5.60252 4.92513 5.69406C4.95048 5.7856 4.99905 5.86904 5.06616 5.93626L7.06247 7.93257C7.12977 7.99981 7.21334 8.04847 7.30504 8.07382C7.39674 8.09916 7.49344 8.10033 7.58572 8.0772L9.36428 7.63276C9.57278 7.58063 9.7904 7.57658 10.0007 7.62092C10.211 7.66526 10.4085 7.75683 10.5782 7.8887L12.4518 9.34632C13.1253 9.87039 13.1871 10.8657 12.5842 11.4678L11.7441 12.3079C11.1428 12.9091 10.2442 13.1732 9.40653 12.8783C7.26249 12.1239 5.31581 10.8964 3.71091 9.28701C2.10158 7.68234 0.87415 5.73595 0.119656 3.5922C-0.174469 2.75533 0.0895936 1.85589 0.690844 1.25464L1.53097 0.414513Z" fill="white"/>
</svg>
