<svg width="13" height="13" viewBox="0 0 13 13" fill="none" xmlns="http://www.w3.org/2000/svg">
<g clip-path="url(#clip0_165_11)">
<path fill-rule="evenodd" clip-rule="evenodd" d="M1.53097 0.41549C1.67314 0.273537 1.84385 0.163418 2.03179 0.0924318C2.21973 0.0214451 2.42062 -0.00878887 2.62113 0.00373355C2.82164 0.016256 3.01721 0.0712488 3.19486 0.165068C3.37251 0.258887 3.52819 0.389389 3.65159 0.547927L5.11003 2.42155C5.37734 2.76524 5.47159 3.21293 5.36597 3.63543L4.92153 5.4148C4.89855 5.50696 4.89979 5.6035 4.92513 5.69504C4.95048 5.78658 4.99905 5.87001 5.06616 5.93724L7.06247 7.93355C7.12977 8.00079 7.21334 8.04945 7.30504 8.07479C7.39674 8.10014 7.49344 8.1013 7.58572 8.07818L9.36428 7.63374C9.57278 7.58161 9.7904 7.57756 10.0007 7.6219C10.211 7.66624 10.4085 7.7578 10.5782 7.88968L12.4518 9.3473C13.1253 9.87136 13.1871 10.8667 12.5842 11.4687L11.7441 12.3089C11.1428 12.9101 10.2442 13.1742 9.40653 12.8792C7.26249 12.1249 5.31581 10.8974 3.71091 9.28799C2.10158 7.68331 0.87415 5.73692 0.119656 3.59318C-0.174469 2.7563 0.0895936 1.85686 0.690844 1.25561L1.53097 0.41549Z" fill="white"/>
</g>
<defs>
<clipPath id="clip0_165_11">
<rect width="13" height="13" fill="white"/>
</clipPath>
</defs>
</svg>
