<svg width="25" height="26" viewBox="0 0 25 26" fill="none" xmlns="http://www.w3.org/2000/svg">
<path d="M14.5 11.875V17.5M1 6.25001H23.5M10 11.875V17.5M3.25 6.25001H21.25L19.4725 22.2475C19.4115 22.7981 19.1496 23.3068 18.737 23.6762C18.3244 24.0458 17.7898 24.2501 17.236 24.25H7.264C6.71009 24.2501 6.17563 24.0458 5.76296 23.6762C5.35029 23.3068 5.08843 22.7981 5.0275 22.2475L3.25 6.25001ZM7.01312 3.04038C7.19506 2.65447 7.48304 2.32825 7.8434 2.09978C8.20368 1.87131 8.62159 1.75 9.04827 1.75H15.4517C15.8786 1.74979 16.2967 1.87099 16.6573 2.09948C17.0178 2.32796 17.306 2.6543 17.488 3.04038L19 6.25001H5.5L7.01312 3.04038Z" stroke="#9499A5" stroke-width="1.6875" stroke-linecap="round" stroke-linejoin="round"/>
</svg>
