<svg width="20" height="20" viewBox="0 0 20 20" fill="none" xmlns="http://www.w3.org/2000/svg">
<path d="M10 12.25C12.3636 12.25 14.6782 13.0035 16.3838 14.0928C18.1363 15.212 18.9852 16.5013 18.998 17.4775C18.9876 17.4939 18.9649 17.526 18.9121 17.5723C18.7674 17.6989 18.502 17.8528 18.0859 18.0088C17.2602 18.3184 16.1038 18.5418 14.876 18.6953C13.6631 18.8469 12.4424 18.9235 11.5205 18.9619C11.0612 18.981 10.6788 18.9904 10.4121 18.9951C10.2788 18.9975 10.1738 18.9984 10.1035 18.999C10.0686 18.9993 10.0419 18.9999 10.0244 19H9.97559C9.95813 18.9999 9.9314 18.9993 9.89648 18.999C9.82619 18.9984 9.72122 18.9975 9.58789 18.9951C9.3212 18.9904 8.93883 18.981 8.47949 18.9619C7.55762 18.9235 6.33694 18.8469 5.12402 18.6953C3.89624 18.5418 2.73982 18.3184 1.91406 18.0088C1.49798 17.8528 1.23258 17.6989 1.08789 17.5723C1.03456 17.5256 1.01128 17.4938 1.00098 17.4775C1.01386 16.5013 1.86374 15.212 3.61621 14.0928C5.32182 13.0035 7.63636 12.25 10 12.25ZM10 1C11.0609 1 12.078 1.42173 12.8281 2.17188C13.5783 2.92202 14 3.93913 14 5C14 6.06087 13.5783 7.07798 12.8281 7.82812C12.078 8.57827 11.0609 9 10 9C8.93913 9 7.92202 8.57827 7.17188 7.82812C6.42173 7.07798 6 6.06087 6 5C6 3.93913 6.42173 2.92202 7.17188 2.17188C7.92202 1.42173 8.93913 1 10 1Z" stroke="#969B9F" stroke-width="2"/>
</svg>
