<svg width="22" height="22" viewBox="0 0 22 22" fill="none" xmlns="http://www.w3.org/2000/svg">
<path d="M11 13.375C13.6199 13.375 16.1846 14.2099 18.0762 15.418C20.0279 16.6646 21 18.1212 21 19.25C21 19.2511 21 19.2514 21 19.251L20.999 19.2529C20.9982 19.255 20.9968 19.2587 20.9941 19.2637C20.9827 19.285 20.9502 19.3344 20.8691 19.4053C20.6971 19.5558 20.3926 19.7297 19.9297 19.9033C19.0102 20.2481 17.7288 20.495 16.376 20.6641C15.0381 20.8313 13.6924 20.9157 12.6768 20.958C12.1705 20.9791 11.7491 20.9899 11.4551 20.9951C11.3081 20.9977 11.1928 20.9984 11.1152 20.999C11.0764 20.9993 11.0468 20.9999 11.0273 21H10.9727C10.9532 20.9999 10.9236 20.9993 10.8848 20.999C10.8072 20.9984 10.6919 20.9977 10.5449 20.9951C10.2509 20.9899 9.82946 20.9791 9.32324 20.958C8.30762 20.9157 6.96194 20.8313 5.62402 20.6641C4.27124 20.495 2.98982 20.2481 2.07031 19.9033C1.60735 19.7297 1.30289 19.5558 1.13086 19.4053C1.04984 19.3344 1.01727 19.285 1.00586 19.2637C1.0032 19.2587 1.00179 19.255 1.00098 19.2529L1 19.251V19.25C1 18.1212 1.97209 16.6646 3.92383 15.418C5.81537 14.2099 8.38011 13.375 11 13.375ZM11 1C12.1935 1 13.3377 1.47445 14.1816 2.31836C15.0256 3.16227 15.5 4.30653 15.5 5.5C15.5 6.69347 15.0256 7.83773 14.1816 8.68164C13.3377 9.52555 12.1935 10 11 10C9.80653 10 8.66227 9.52555 7.81836 8.68164C6.97445 7.83773 6.5 6.69347 6.5 5.5C6.5 4.30653 6.97445 3.16227 7.81836 2.31836C8.66227 1.47445 9.80653 1 11 1Z" stroke="#10355B" stroke-width="2"/>
</svg>
