<svg width="27" height="27" viewBox="0 0 27 27" fill="none" xmlns="http://www.w3.org/2000/svg">
<path d="M12.8125 13.7501C16.6095 13.7501 19.6875 10.6721 19.6875 6.87509C19.6875 3.07813 16.6095 9.15527e-05 12.8125 9.15527e-05C9.01554 9.15527e-05 5.9375 3.07813 5.9375 6.87509C5.9375 10.6721 9.01554 13.7501 12.8125 13.7501Z" fill="#10355B"/>
<path fill-rule="evenodd" clip-rule="evenodd" d="M14.5938 25.64C13.295 24.245 12.5 22.375 12.5 20.32C12.5 18.2163 13.3338 16.305 14.6888 14.9C14.0763 14.8525 13.45 14.8275 12.8125 14.8275C8.66 14.8275 4.98375 15.8663 2.70125 17.4225C0.96 18.61 0 20.1188 0 21.7025V23.515C0 24.0788 0.22375 24.62 0.6225 25.0175C1.02125 25.4163 1.56125 25.64 2.125 25.64H14.5938Z" fill="#10355B"/>
<path fill-rule="evenodd" clip-rule="evenodd" d="M20.3125 13.7576C16.69 13.7576 13.75 16.6976 13.75 20.3201C13.75 23.9426 16.69 26.8826 20.3125 26.8826C23.935 26.8826 26.875 23.9426 26.875 20.3201C26.875 16.6976 23.935 13.7576 20.3125 13.7576ZM19.375 20.3201V23.4451C19.375 23.9626 19.795 24.3826 20.3125 24.3826C20.83 24.3826 21.25 23.9626 21.25 23.4451V20.3201C21.25 19.8026 20.83 19.3826 20.3125 19.3826C19.795 19.3826 19.375 19.8026 19.375 20.3201ZM20.3125 16.2576C21.0025 16.2576 21.5625 16.8176 21.5625 17.5076C21.5625 18.1976 21.0025 18.7576 20.3125 18.7576C19.6225 18.7576 19.0625 18.1976 19.0625 17.5076C19.0625 16.8176 19.6225 16.2576 20.3125 16.2576Z" fill="#10355B"/>
</svg>
