<svg width="20" height="19" viewBox="0 0 20 19" fill="none" xmlns="http://www.w3.org/2000/svg">
<path d="M18.1708 4.26411H17.922V1.9128C17.922 0.931474 17.1015 0.133057 16.0928 0.133057H2.82553C1.36147 0.133057 0.154364 1.22261 0.015019 2.61204C-0.00626557 2.71022 0.00130991 1.8354 0.00130991 15.3852C0.00130991 16.9004 1.26822 18.1331 2.82549 18.1331H18.1708C19.1795 18.1331 20 17.3347 20 16.3533V6.04384C20 5.06251 19.1795 4.26411 18.1708 4.26411ZM2.82553 1.35555H16.0928C16.4086 1.35555 16.6655 1.60554 16.6655 1.91283V4.26414H2.82553C1.98556 4.26414 1.29795 3.61804 1.25963 2.80985C1.29791 2.00161 1.98553 1.35555 2.82553 1.35555ZM18.1708 16.9106H2.82553C1.96106 16.9106 1.25778 16.2263 1.25778 15.3852V5.02332C1.7066 5.31583 2.24592 5.48656 2.82553 5.48656H18.1708C18.4866 5.48656 18.7436 5.73654 18.7436 6.04384V8.52184H14.016C12.4059 8.52184 11.096 9.79623 11.096 11.3628C11.096 12.9293 12.4059 14.2037 14.016 14.2037H18.7436V16.3533C18.7436 16.6606 18.4866 16.9106 18.1708 16.9106ZM18.7436 12.9813H14.016C13.0987 12.9813 12.3525 12.2553 12.3525 11.3629C12.3525 10.4704 13.0986 9.74431 14.016 9.74431H18.7436V12.9813Z" fill="#7D7D7D"/>
</svg>
