<svg width="38" height="38" viewBox="0 0 38 38" fill="none" xmlns="http://www.w3.org/2000/svg">
<path d="M16.9937 22.1431L23.498 18.5002L16.9937 14.8573V22.1431ZM31.4811 12.6351C31.644 13.2058 31.7568 13.9708 31.832 14.9423C31.9197 15.9137 31.9573 16.7516 31.9573 17.4802L32.0325 18.5002C32.0325 21.1595 31.832 23.1146 31.4811 24.3653C31.1678 25.4582 30.4409 26.1625 29.313 26.4661C28.724 26.624 27.6462 26.7332 25.9919 26.8061C24.3627 26.8911 22.8714 26.9275 21.4928 26.9275L19.5001 27.0004C14.2491 27.0004 10.9781 26.8061 9.6873 26.4661C8.55939 26.1625 7.83251 25.4582 7.5192 24.3653C7.35628 23.7946 7.24349 23.0296 7.16829 22.0581C7.08056 21.0867 7.04297 20.2488 7.04297 19.5202L6.96777 18.5002C6.96777 15.8408 7.16829 13.8858 7.5192 12.6351C7.83251 11.5422 8.55939 10.8379 9.6873 10.5343C10.2763 10.3764 11.3541 10.2671 13.0084 10.1943C14.6376 10.1093 16.1289 10.0729 17.5075 10.0729L19.5001 10C24.7512 10 28.0222 10.1943 29.313 10.5343C30.4409 10.8379 31.1678 11.5422 31.4811 12.6351Z" fill="white"/>
<rect x="0.5" y="0.5" width="37" height="37" rx="9.5" stroke="white"/>
</svg>
