<svg width="38" height="38" viewBox="0 0 38 38" fill="none" xmlns="http://www.w3.org/2000/svg">
<path d="M16.9947 22.1431L23.499 18.5002L16.9947 14.8573V22.1431ZM31.4821 12.6351C31.645 13.2058 31.7578 13.9708 31.833 14.9423C31.9207 15.9137 31.9583 16.7516 31.9583 17.4802L32.0335 18.5002C32.0335 21.1595 31.833 23.1146 31.4821 24.3653C31.1688 25.4582 30.4419 26.1625 29.314 26.4661C28.725 26.624 27.6472 26.7332 25.9929 26.8061C24.3637 26.8911 22.8723 26.9275 21.4938 26.9275L19.5011 27.0004C14.2501 27.0004 10.9791 26.8061 9.68828 26.4661C8.56036 26.1625 7.83348 25.4582 7.52017 24.3653C7.35725 23.7946 7.24446 23.0296 7.16927 22.0581C7.08154 21.0867 7.04394 20.2488 7.04394 19.5202L6.96875 18.5002C6.96875 15.8408 7.16927 13.8858 7.52017 12.6351C7.83348 11.5422 8.56036 10.8379 9.68828 10.5343C10.2773 10.3764 11.3551 10.2671 13.0094 10.1943C14.6386 10.1093 16.1299 10.0729 17.5085 10.0729L19.5011 10C24.7522 10 28.0231 10.1943 29.314 10.5343C30.4419 10.8379 31.1688 11.5422 31.4821 12.6351Z" fill="white"/>
<rect x="0.5" y="0.5" width="37" height="37" rx="9.5" stroke="white"/>
</svg>
